<?xml version="1.0" standalone="no"?>
<!DOCTYPE svg PUBLIC "-//W3C//DTD SVG 1.1//EN" "http://www.w3.org/Graphics/SVG/1.1/DTD/svg11.dtd" >
<svg>
<metadata>
Created by FontForge 20090622 at Tue Aug  8 09:27:19 2017
 By deploy user
Copyright &#194;&#169; 1995, The Font Bureau, Inc. All rights reserved.
</metadata>
<defs>
<font id="Californian-DisplayRoman" horiz-adv-x="266" >
  <font-face 
    font-family="Californian Display"
    font-weight="400"
    font-stretch="normal"
    units-per-em="1000"
    panose-1="2 0 6 3 8 0 0 2 0 4"
    ascent="800"
    descent="-200"
    x-height="428"
    cap-height="663"
    bbox="-83 -288.692 1136 839.125"
    underline-thickness="20"
    underline-position="-113"
    unicode-range="U+0020-U+FB06"
  />
<missing-glyph horiz-adv-x="500" 
d="M80 520v-340h340v340h-340zM50 150v400h400v-400h-400z" />
    <glyph glyph-name="ff" unicode="ff" horiz-adv-x="568" 
d="M601 736q8 -40 -19 -40q-42 0 -87 45q-5 5 -12 5q-27 0 -41 -18q-19 -23 -19 -155q0 -5 1.5 -60.5t2.5 -75.5q0 -10 7 -10l108 1q5 0 5 -2v-10q0 -2 -1.5 -2.5t-4 0.5t-3.5 1q-17 0 -58 -1l-42 -2q-6 0 -7 -1t-1 -6v-299q0 -71 16 -90l78 -5q5 0 7 -2q2 -1 1.5 -4
t-2.5 -4t-7 -1h-226q-4 0 -4 1q-2 1 -2.5 3.5t1.5 4.5t6 2l52 5q10 1 12 10q3 12 3 118v255q0 13 -8 13h-195q-6 0 -7 -1t-1 -6q0 -3 0.5 -147.5t0.5 -151.5q0 -71 16 -90l72 -5q5 0 7 -2q2 -1 1.5 -4t-2.5 -4t-7 -1h-230q-4 0 -5 1q-2 1 -2 3.5t2 4.5t6 2l62 5q10 1 12 10
q3 12 3 118v252q0 12 -8 12l-45 -2q-4 0 -5.5 0.5t0.5 3.5q1 7 2 10q5 4 11 4q2 0 17 0.5t20 0.5q4 0 5 1.5t1 6.5q0 3 0.5 59.5t0.5 64.5q2 73 66 123q19 17 58.5 27t75.5 10q24 0 54 -15.5t43 -31.5q14 35 33 56q32 37 107 37q59 0 75 -27zM378 642q-6 -2 -17 0
q-9 1 -19 4t-16 5.5t-17.5 9.5t-14 9t-16.5 12.5t-15 11.5q-7 7 -16 7q-20 0 -39.5 -8.5t-25.5 -16.5q-33 -34 -33 -83q0 -69 3 -156q0 -10 7 -10h198q4 0 5 1.5t1 6.5q0 3 0.5 48.5t0.5 53.5q1 61 14 105z" />
    <glyph glyph-name="fi" unicode="fi" horiz-adv-x="532" 
d="M527 2q-2 -2 -9 -2h-206q-6 0 -7 1q-3 3 -1 8q4 3 7 3l47 5q10 0 11 10q4 44 4 248v16q0 29 -0.5 44.5t-2.5 37t-7.5 31t-14.5 9.5h-93q-17 0 -48.5 -0.5t-41.5 -0.5q-5 0 -6.5 -1t-1.5 -6v-299q0 -83 16 -90l78 -5q3 0 7 -2q2 -1 2 -4t-2 -4q-3 -1 -8 -1h-236q-3 0 -4 1
q-2 1 -2.5 4t1.5 4q2 2 6 2l62 5q11 1 12 10q3 12 3 118v252q0 8 -1 10t-6 2l-45 -2q-4 0 -6.5 0.5t0.5 3.5q1 7 3 10q4 4 10 4q2 0 17 0.5t20 0.5q7 0 7 8q0 89 1 104q3 133 54 189q32 37 107 37q30 0 52 -14.5t22 -27.5q0 -10 -8.5 -19t-24.5 -9q-32 0 -78 46q-8 5 -12 5
q-23 0 -34 -16q-24 -27 -19 -155q0 -81 3 -136q1 -5 1 -6.5t1.5 -2.5t4.5 -1h123q45 0 117 6l37 6q8 0 7 -7q-1 -3 -3.5 -139t-2.5 -157q0 -8 0.5 -23t2.5 -39t6.5 -41t11.5 -17l59 -3q6 0 8 -2q1 -1 1 -4t-1 -5zM450 623q0 -27 -22 -46t-40 -19q-34 0 -34 34q0 20 18 42
t47 22q13 0 20.5 -8.5t9 -14.5t1.5 -10z" />
    <glyph glyph-name="fl" unicode="fl" horiz-adv-x="531" 
d="M525 2q-1 -2 -6 -2h-216q-5 0 -6 1v7q0 3 5 3l65 5q3 0 4 1t1.5 2t0.5 4v5v586q1 36 -4 74t-16 37h-18q0 -29 -24 -29q-37 0 -90 45q-5 5 -12 5q-27 0 -39 -18q-19 -21 -19 -155q0 -81 3 -136q1 -5 1 -6.5t1.5 -2.5t4.5 -1l106 1q5 0 5 -2v-10q0 -2 -1 -2.5t-4 0.5t-5 1
q-3 0 -48.5 -1.5t-48.5 -1.5q-5 0 -6.5 -1t-1.5 -6v-299q0 -69 16 -90l78 -5q4 0 6 -2q6 -6 0 -8q-3 -1 -7 -1h-236q-3 0 -4 1q-2 1 -2.5 4t1.5 4q2 2 6 2l62 5q11 1 12 10q3 12 3 118v252q0 8 -1 10t-6 2l-45 -2q-4 0 -6.5 0.5t0.5 3.5q1 7 3 10q4 4 10 4q2 0 17 0.5
t20 0.5q7 0 7 8q0 89 1 104q3 134 55 189q33 37 110 37q28 0 49 -8t27 -18q43 6 77 16q7 2 18 6.5t12 4.5q7 2 9.5 -1t-2.5 -8q-2 -15 -5.5 -303t-3.5 -327q0 -105 15 -108l66 -5q4 0 6 -2q1 -1 1 -4t-1 -4z" />
    <glyph glyph-name="ffi" unicode="ffi" horiz-adv-x="801" 
d="M796 2q-2 -2 -9 -2h-203q-6 0 -6 1q-5 4 -1 8q3 3 6 3l43 5q11 0 12 10q4 44 4 248q0 34 -0.5 48.5t-2 39.5t-7 36.5t-14.5 12.5q-9 3 -180 0q-6 0 -7 -1t-1 -6v-299q0 -71 16 -90l76 -5q5 0 6 -2q6 -6 0 -8q-3 -1 -7 -1h-224q-4 0 -4 1q-2 1 -2.5 3.5t1.5 4.5t6 2l52 5
q10 1 12 10q3 12 3 118v255q0 13 -8 13h-195q-6 0 -7 -1t-1 -6q0 -3 0.5 -147.5t0.5 -151.5q0 -71 16 -90l72 -5q5 0 7 -2q2 -1 1.5 -4t-2.5 -4t-7 -1h-230q-4 0 -5 1q-2 1 -2 3.5t2 4.5t6 2l62 5q10 1 12 10q3 12 3 118v252q0 12 -8 12l-45 -2q-4 0 -5.5 0.5t0.5 3.5
q1 7 2 10q5 4 11 4q2 0 17 0.5t20 0.5q4 0 5 1.5t1 6.5q0 3 0.5 59.5t0.5 64.5q2 73 66 123q19 17 58.5 27t75.5 10q24 0 54 -15.5t43 -31.5q14 35 33 56q32 37 107 37q61 0 75 -26q0 -1 1 -9.5t0.5 -12t-1.5 -9t-5 -8t-11 -2.5q-39 0 -90 45q-5 5 -12 5q-27 0 -41 -18
q-19 -23 -19 -155q0 -5 1.5 -60.5t2.5 -75.5q0 -10 7 -10q112 0 150 1q44 1 86 6l37 6q8 0 7 -7q-2 -3 -4 -134.5t-2 -162.5q0 -118 20 -120l60 -3q6 0 7 -2q2 -1 2.5 -4.5t-1.5 -4.5zM378 642q-6 -2 -17 0q-9 1 -19 4t-16 5.5t-17.5 9.5t-14 9t-16.5 12.5t-15 11.5
q-7 7 -16 7q-20 0 -39.5 -8.5t-25.5 -16.5q-33 -34 -33 -83q0 -69 3 -156q0 -10 7 -10h198q4 0 5 1.5t1 6.5q0 3 0.5 48.5t0.5 53.5q1 61 14 105z" />
    <glyph glyph-name="ffl" unicode="ffl" horiz-adv-x="804" 
d="M798 2q-2 -2 -6 -2h-217q-4 0 -5 1t-1 7q0 3 5 3l65 5q6 1 6 12q1 14 1 584q1 35 -4.5 74.5t-16.5 38.5l-23 -1q4 -28 -17 -28q-37 0 -90 45q-5 5 -12 5q-27 0 -41 -18q-19 -23 -19 -155q0 -5 1.5 -60.5t2.5 -75.5q0 -10 7 -10t51 0.5t55 0.5q7 0 7 -2v-10
q0 -2 -1.5 -2.5t-4 0.5t-3.5 1q-5 0 -18 -0.5t-35 -1.5t-47 -1q-6 0 -7 -1t-1 -6v-299q0 -71 16 -90l76 -5q5 0 6 -2q6 -6 0 -8q-3 -1 -7 -1h-224q-4 0 -4 1q-2 1 -2.5 3.5t1.5 4.5t6 2l52 5q10 1 12 10q3 12 3 118v255q0 13 -8 13h-195q-6 0 -7 -1t-1 -6q0 -3 0.5 -147.5
t0.5 -151.5q0 -71 16 -90l72 -5q5 0 7 -2q2 -1 1.5 -4t-2.5 -4t-7 -1h-230q-4 0 -5 1q-2 1 -2 3.5t2 4.5t6 2l62 5q10 1 12 10q3 12 3 118v252q0 12 -8 12l-45 -2q-4 0 -5.5 0.5t0.5 3.5q1 7 2 10q5 4 11 4q2 0 17 0.5t20 0.5q4 0 5 1.5t1 6.5q0 3 0.5 59.5t0.5 64.5
q2 73 66 123q19 17 58.5 27t75.5 10q24 0 54 -15.5t43 -31.5q14 35 33 56q32 37 107 37q58 0 75 -25q45 5 82 15q6 2 17.5 6.5t12.5 4.5q7 2 9 -1t-2 -8q-3 -15 -6 -296.5t-3 -333.5q0 -106 15 -108l66 -5q4 0 6 -2q1 -1 1 -4t-1 -4zM378 642q-6 -2 -17 0q-9 1 -19 4
t-16 5.5t-17.5 9.5t-14 9t-16.5 12.5t-15 11.5q-7 7 -16 7q-20 0 -39.5 -8.5t-25.5 -16.5q-33 -34 -33 -83q0 -69 3 -156q0 -10 7 -10h198q4 0 5 1.5t1 6.5q0 3 0.5 48.5t0.5 53.5q1 61 14 105z" />
    <glyph glyph-name=".notdef" horiz-adv-x="500" 
d="M80 520v-340h340v340h-340zM50 150v400h400v-400h-400z" />
    <glyph glyph-name=".null" horiz-adv-x="0" 
 />
    <glyph glyph-name="nonmarkingreturn" horiz-adv-x="333" 
 />
    <glyph glyph-name="space" unicode=" " horiz-adv-x="210" 
 />
    <glyph glyph-name="exclam" unicode="!" horiz-adv-x="213" 
d="M149 484q-1 -52 -11 -124.5t-22.5 -139t-13.5 -70.5q-1 -10 -6 -10q-6 0 -5 15q0 1 0.5 7.5t0.5 11.5l5 101q2 75 -9 197q-4 52 -16 124q-7 44 -13 50q-9 7 -7.5 8.5t12.5 -1.5q19 -4 31 -11q11 -6 37 -16q15 -5 15 -16q3 -65 2 -126zM141 40q0 -18 -13 -31.5t-34 -13.5
q-17 0 -28.5 11t-11.5 30q0 20 12 32t32 12t31.5 -11.5t11.5 -28.5z" />
    <glyph glyph-name="quotedbl" unicode="&#x22;" horiz-adv-x="292" 
d="M213 645q4 -4 -3 -21q-10 -22 -6 -73q3 -23 1 -57.5t-9 -48.5q-4 -8 -8 -10q-4 -1 -9 1q-7 4 -7 6q-2 3 3 9q4 11 4 43.5t-5 53.5q-1 3 -4 16.5t-3.5 19l-1.5 16.5t0.5 19.5t4.5 17.5q4 11 10 16q4 6 21 0q11 -7 12 -8zM119 645q2 -2 -4 -21q-9 -23 -5 -73
q2 -25 -0.5 -58.5t-8.5 -47.5q-4 -8 -8 -10q-3 -2 -9 1q-5 3 -7 6q0 5 3 9q4 11 3 43.5t-6 53.5l-3.5 17t-3.5 18.5t-1.5 16.5t1 19t5.5 18q3 10 10 16q3 7 21 0q3 -2 5 -3t3.5 -1.5t2.5 -1.5z" />
    <glyph glyph-name="numbersign" unicode="#" horiz-adv-x="577" 
d="M525 154q-3 -9 -3 -16l-8 -10q-6 -6 -21 4q-59 19 -157 57l-66 -220q0 -9 -6 -17q-2 2 -5 2l-4 7q-3 5 3 18q2 6 12.5 41l26 85t26.5 89l-155 59l-89 -285q0 -9 -6 -17q-2 2 -5 2l-4 7q-2 7 3 18q8 35 86 281l-95 37q-11 1 -20 12q2 8 2 16l8 10q3 2 4.5 1.5t7 -2.5
t10.5 -3l93 -34l45 141l-150 54q-14 3 -20 14v3q1 2 1.5 5.5t0.5 6.5q4 6 9 11q3 1 10 -2t11 -3q107 -36 149 -52l30 93l30.5 94.5t13.5 45.5q0 11 6 17q2 -2 4 -2l5 -7q1 -3 -3 -18q-2 -9 -12.5 -42.5l-28.5 -90l-30 -96.5l153 -54l88 294q0 9 6 17q2 -2 5 -2l3 -7
q2 -4 -3 -18q0 -2 -83 -289l102 -36q10 0 20 -13q-3 -9 -3 -16l-8 -10q-6 -6 -21 4q-7 3 -42.5 14.5l-58.5 19.5q-42 -137 -45 -146l158 -59q10 0 20 -13zM376 377l-154 54q-7 -24 -23 -74t-21 -67l156 -59q18 67 42 146z" />
    <glyph glyph-name="dollar" unicode="$" horiz-adv-x="511" 
d="M460 194q0 -75 -59 -130q-43 -41 -129 -55q-2 -1 -2 -146h-16q-3 0 -3 15q0 3 0.5 60.5t0.5 61.5q0 7 -4 7q-73 0 -112 20q-26 13 -47.5 35.5t-22.5 49.5q-1 13 7 20t18 7q9 0 21.5 -7.5t19.5 -17.5q9 -13 28 -63q10 -27 87 -31q7 0 7 10q0 4 0.5 132t0.5 133q0 9 -3 9
q-88 28 -121 61q-15 15 -23.5 25.5t-17 34t-8.5 53.5q0 67 58 128q18 18 55.5 34t56.5 19q3 0 3 6v43q0 6 4 10t7 4q8 0 8 -11q0 -3 -1 -21t-1 -22q0 -9 4 -9q74 0 108 -16q45 -21 45 -54q0 -23 -24 -23q-34 0 -63 58q-12 22 -64 22q-2 1 -3.5 -2t-1.5 -7t-1.5 -126.5
t-1.5 -126.5q0 -10 4 -14q32 -9 80 -30.5t66 -42.5q40 -46 40 -103zM405 167q0 49 -40 82q-31 25 -89 43q-3 1 -4 -0.5t-1 -6.5t-1.5 -124.5t-1.5 -124.5q0 -14 6 -14q23 3 53.5 16.5t45.5 29.5q32 37 32 99zM255 389v245q0 7 -1 8.5t-6 0.5q-48 -8 -80 -41q-16 -18 -25 -42
q-7 -19 -7 -54q0 -20 7.5 -41.5t16.5 -31.5q26 -29 85 -52q10 -3 10 8z" />
    <glyph glyph-name="percent" unicode="%" horiz-adv-x="789" 
d="M773 175q0 -39 -20 -92q-18 -45 -66 -73q-33 -20 -78 -20q-48 0 -70 12q-51 21 -71 65q-23 46 -23 105q0 50 29 102l15.5 24.5t17 18t27.5 18.5q44 22 93 22q41 0 74 -19q44 -30 56 -66q16 -42 16 -97zM355 447q0 -42 -20 -89q-19 -48 -68 -76q-30 -19 -79 -19
q-38 0 -68 12q-21 8 -41 25.5t-29 38.5q-23 49 -23 105q0 53 28 103q25 43 65 63t87 20q42 0 76 -18q43 -31 55 -68q17 -40 17 -97zM302 428q0 79 -37 129q-37 49 -100 49q-30 0 -40 -4t-20 -20q-23 -35 -23 -100q0 -71 24 -132q7 -18 22 -36t25 -24q19 -13 53 -13
q32 0 50 11q23 14 36 52q10 25 10 88zM720 156q0 79 -37 129q-37 48 -99 48q-28 0 -40 -5t-22 -21q-21 -32 -21 -101q0 -71 22 -127q7 -17 20 -34.5t23 -23.5q26 -17 54 -17q36 0 53 10q10 6 21 22.5t16 30.5q10 30 10 89zM534 666q2 -2 -3 -12q-44 -112 -271 -747
q-1 -1 -2.5 -4t-2.5 -4q-5 0 -7 1q-1 0 -4 3q-2 3 2 9l265 748q3 8 9 12q2 0 4.5 -0.5t3.5 -0.5q4 -4 6 -5z" />
    <glyph glyph-name="ampersand" unicode="&#x26;" horiz-adv-x="865" 
d="M843 114q0 -1 -4 -11q-28 -69 -69 -97q-17 -12 -45 -12q-24 0 -60 11q-13 3 -44.5 17.5t-53.5 27.5q-9 6 -16 0q-107 -55 -212 -55q-152 0 -228 73q-64 57 -64 167q0 64 29 115q18 34 42 51q28 24 40 29q5 3 0 11q-13 22 -22 42q-13 34 -13 55q0 16 13 33
q14 18 43.5 42.5t51.5 37.5q8 4 30 4l60 -10q23 -4 44 -19q9 -5 9 -14q-2 -21 -11 -54q-1 -3 -2.5 -8.5l-2.5 -9t-2 -3.5q-4 -1 -6.5 2.5t-3.5 11.5q0 9 -30 23q-60 28 -113 28q-38 0 -38 -31q0 -17 18 -49q30 -52 75 -109q20 -27 107 -120q10 -9 10 -3v5q-7 40 2 78t37 61
q36 29 100 29q42 0 110 -17q64 -16 109 -16q35 0 56 14q25 17 25 53q0 7 -5 15l-5 7q-2 4 1 4t3 1q0 2 1 2q5 -2 10 -10q6 -2 11 -15.5t5 -25.5q2 -41 -18 -66q-26 -33 -63 -35q-24 -1 -66.5 8.5t-56.5 14.5q-16 6 -17 5t9 -10q22 -21 36 -53t14 -60q0 -97 -53 -167
q-6 -7 3 -11q9 -7 68 -33q38 -16 63 -16q27 0 44 15t32 46l6 7q3 -1 3 -2q4 0 4 -4zM657 277q0 23 -13.5 57t-35.5 52q-46 40 -114 40q-53 0 -77 -21q-30 -27 -30 -75q0 -59 15 -74q23 -22 88 -70t99 -67q9 -4 12 -3.5t8 6.5q48 63 48 155zM536 62q-12 12 -25 22
q-36 24 -113 85q-34 28 -70 64t-48 53q-68 70 -109 130q-15 0 -21 -27q-19 -17 -33.5 -47.5t-13.5 -65.5q5 -52 19 -81q31 -73 70 -102q54 -48 125 -61q36 -5 113 -2q30 0 61.5 9.5t44.5 22.5z" />
    <glyph glyph-name="quotesingle" unicode="'" horiz-adv-x="202" 
d="M125 645q4 -4 -3 -21q-13 -27 -6 -80q2 -26 -0.5 -63.5t-8.5 -50.5q-3 -7 -8 -10q-5 -2 -10 1q-6 3 -6 6q-1 3 2 9q5 14 3.5 47t-5.5 58q-1 5 -3.5 22t-4 26t-1 23t3.5 25q2 10 10 16q3 7 24 0q4 -3 8 -5t5 -3z" />
    <glyph glyph-name="parenleft" unicode="(" horiz-adv-x="370" 
d="M351 715q0 -5 -9 -10q-89 -77 -131 -183q-55 -138 -55 -324q0 -214 87 -355q24 -40 100 -105q5 -3 5 -8q0 -3 -4 -8q-4 -6 -7 -6q-2 0 -5.5 2.5t-4.5 3.5q-37 26 -90 81.5t-85 110.5q-79 138 -79 294q0 203 111 359q33 44 75.5 88.5t69.5 65.5q8 6 13 6q3 0 6 -6z" />
    <glyph glyph-name="parenright" unicode=")" horiz-adv-x="370" 
d="M295 240q0 -177 -82 -315q-51 -88 -170 -197q-8 -8 -11 -8q-2 0 -7 6q-3 3 -3 7l8 12q9 7 41 44t47 60q50 79 73 168t23 210q0 110 -11 170.5t-37 127.5q-42 106 -131 179q-8 8 -8 10q0 4 6 7l6 6q4 0 13 -7q88 -70 138 -140q49 -68 77 -148t28 -192z" />
    <glyph glyph-name="asterisk" unicode="*" horiz-adv-x="456" 
d="M408 538q0 -16 -8 -40q-1 -5 -4.5 -18.5l-4.5 -17.5q-2 -7 -14 -7q-1 0 -31 5q-11 2 -35.5 9.5l-44.5 13.5t-24 5q1 -5 21 -40.5t24 -45.5q10 -22 40 -57q3 -2 7 -2t4 -1q1 -3 -6 -9l-35 -7q-2 0 -14.5 -2t-16.5 -2q-7 -1 -12 11q-3 5 -10 32q-4 15 -9 64t-7 52
q-2 -2 -59 -81q-23 -30 -31 -58q-1 -3 1 -7.5t1 -5.5q-8 -6 -12 4q-4 3 -19 30q-2 5 -7.5 17t-6.5 14q-3 7 4 17q1 1 6 4.5l11 8t8 6.5q5 4 28.5 18l44 26.5t22.5 15.5q-3 1 -24 -1.5t-46 -6t-27 -3.5q-54 -8 -58 -18q-3 -8 -8 -8q-6 1 -6 9q0 2 4.5 16t5.5 20q2 5 4.5 18.5
t3.5 15.5q1 7 12 7q9 0 33 -3q8 -1 34 -10l49 -16.5t25 -6.5q0 3 -10 22t-23 41.5t-16 29.5q-13 26 -20.5 35t-18.5 15q-2 1 -5.5 1.5t-6 1.5t-2.5 2q-1 5 8 8q2 0 15.5 1.5t19.5 2.5l32 7q4 1 7 -2.5t4 -8.5l10 -31q4 -13 11 -66t9 -57q3 3 13.5 19l23 35.5t17.5 25.5
t17.5 28.5t14.5 32.5q0 2 -0.5 6t-0.5 7t3 4q7 -3 11 -12q3 -2 9.5 -14.5t9.5 -16.5q5 -19 13 -32q0 -3 -11 -14q0 -1 -5.5 -4.5t-12 -8.5t-9.5 -8q-82 -49 -86 -54q4 0 23.5 3t42.5 8t26 5q43 3 60 17q12 12 14 6z" />
    <glyph glyph-name="plus" unicode="+" horiz-adv-x="452" 
d="M367 312q1 -11 -2 -20.5t-7 -9.5q-89 0 -114 2q1 -14 1 -127q0 -12 -17 -13q-11 -1 -20 2t-9 8q0 110 1 130q-8 -1 -28 -1t-39 0.5t-35.5 1t-17.5 0.5q-12 0 -12 14q-1 10 5 21t10 11q103 0 117 -3v130q0 13 14 13q10 1 21 -5t11 -11q0 -97 -2 -126h21h28.5t28.5 -0.5
t24 -0.5h9q11 0 12 -16z" />
    <glyph glyph-name="comma" unicode="," horiz-adv-x="231" 
d="M190 -7q0 -67 -75 -127q-14 -9 -20 -10q-3 -1 -4.5 2t1.5 7q9 9 13 12q26 25 37 45t11 48t-18 36q-8 5 -25 6q-62 6 -58 47q5 34 50 34q35 0 61.5 -28.5t26.5 -71.5z" />
    <glyph glyph-name="hyphen" unicode="-" horiz-adv-x="341" 
d="M308 296q-2 -14 -12 -17q-3 -2 -113.5 -32t-119.5 -31q-15 -5 -17 -5q-6 2 -5 19q1 16 12 18l236 61q3 0 7.5 1.5t6.5 1.5q7 -2 5 -16z" />
    <glyph glyph-name="period" unicode="." horiz-adv-x="231" 
d="M162 38q0 -19 -15 -32t-34 -13q-48 0 -48 45q0 51 58 51q17 0 28 -13.5t11 -37.5z" />
    <glyph glyph-name="slash" unicode="/" horiz-adv-x="292" 
d="M282 712q2 -2 -2 -11q-8 -27 -123 -369t-124 -366q-1 -5 -5 -11q-10 -2 -13 5q-4 4 2 11q6 21 120.5 363t125.5 373q1 4 7 10q7 0 12 -5z" />
    <glyph glyph-name="zero" unicode="0" horiz-adv-x="487" 
d="M460 338q0 -115 -34 -198q-34 -82 -86 -115q-22 -14 -31 -18.5t-23 -7.5t-37 -3q-47 0 -75 11q-22 10 -49 30q-30 22 -65 98q-31 70 -31 179q0 152 57 256q27 47 71 70q42 23 92 23q86 0 150 -85q61 -80 61 -240zM397 278q0 121 -27 200q-29 84 -65 120t-103 36
q-25 0 -38.5 -6.5t-27.5 -24.5q-27 -33 -34 -93q-6 -48 -6 -116q0 -41 6.5 -109t14.5 -99q12 -41 35 -87t48 -59q35 -20 76 -20q21 0 43 9.5t31 20.5q47 54 47 228z" />
    <glyph glyph-name="one" unicode="1" horiz-adv-x="308" 
d="M295 3q0 -3 -4 -3h-269q-5 0 -5 3v8q0 3 5 3l89 1q10 0 10 41q0 5 1 220t1 221q0 35 -5 90q-5 47 -53 47h-37q-6 0 -6 3v8q0 3 6 3h55q80 4 86 5q22 7 31 5q15 0 5 -9q-2 -2 -7 -5q-1 -3 -4 -231.5t-3 -256.5q0 -138 20 -141l79 -1q5 0 5 -2v-9z" />
    <glyph glyph-name="two" unicode="2" horiz-adv-x="468" 
d="M435 90l-11 -21.5l-10 -19.5q-15 -39 -17 -43q-4 -6 -9 -6h-364l-2 -2q-2 -3 -4 -3.5t-4 2.5q-5 10 29 35q73 49 113.5 87t87.5 95q84 101 84 234q0 74 -35 112q-46 48 -113 48q-95 0 -140 -69q-1 -1 -4 -6t-6.5 -8t-5.5 -2t3 21q12 43 69 78q60 37 131 37q70 0 120 -49
q45 -44 45 -126q0 -61 -21 -114q-30 -87 -108 -167q-20 -22 -67 -65.5t-75 -64.5q-15 -10 -13.5 -14t19.5 -2h108q95 0 163 13q15 3 28 25q4 5 7.5 2.5t1.5 -7.5z" />
    <glyph glyph-name="three" unicode="3" horiz-adv-x="417" 
d="M389 192q0 -96 -88 -157q-58 -41 -173 -41q-74 0 -108 34l-4 4q0 4 1 7l5 2q1 0 3.5 -2t3.5 -2q32 -22 90 -22q45 0 74 8q43 14 71 37q29 27 41 54t12 72q0 67 -61 107q-47 32 -126 35q-13 0 -14 4v2q-2 4 2.5 7.5t14.5 6.5q48 12 100 51q41 30 41 105q0 49 -31 79
q-29 27 -81 27q-25 0 -44.5 -5.5t-30 -12t-31.5 -21.5q-3 -3 -8 -5q-4 0 -6 3t-1 6q0 3 3 6q30 30 72 52q43 23 105 23q43 0 81 -31q39 -34 39 -89q0 -65 -54 -118q-36 -32 -71 -47q-32 -12 -3 -15q74 -9 124 -46q52 -39 52 -118z" />
    <glyph glyph-name="four" unicode="4" horiz-adv-x="490" 
d="M468 284q-1 -3 -8 -13t-10 -16q-1 -2 -7 -15.5t-8 -16.5q-4 -7 -9 -6q-30 3 -65 3q-6 0 -7 -1t-1 -7q0 -3 2 -89t2 -94q0 -15 -7 -19l-32 -12l-32 -13q-15 -8 -15 -5q0 2 5 8q0 4 4.5 110.5t4.5 110.5q0 7 -1 8.5t-8 1.5h-251q-5 0 -7 1t-3 2t-2 4.5t-2 6.5q-2 4 -2.5 7
t-1 5t1 3t4.5 0q5 5 157 199q169 217 173 221l9 6t11 7q10 8 10 4.5t-5 -9.5q0 -3 -6.5 -196t-6.5 -198q0 -7 1 -8.5t6 -0.5q12 0 52 1.5t41 1.5q12 10 13 8zM298 578q0 14 -13 -2q-1 -1 -14.5 -18.5l-36 -46.5l-40.5 -52l-55.5 -71l-51.5 -67l-28 -36q-8 -10 -8 -12t10 -2
l220 1q8 0 9.5 2t1.5 11q0 6 3 148.5t3 144.5z" />
    <glyph glyph-name="five" unicode="5" horiz-adv-x="428" 
d="M398 653q-12 -36 -35 -75q-7 -12 -18 -8q-6 -1 -17 1t-15 2q-127 11 -196 36q-7 2 -10 -3t-30 -141q-2 -9 0 -11t10 0q23 10 87 10q53 0 97 -19q40 -19 67 -46q58 -61 58 -165q0 -44 -17.5 -88t-43.5 -72q-31 -34 -67 -52q-55 -25 -126 -25q-70 0 -131 39q-5 3 -5 6
q-2 10 5 10q1 0 7 -3q50 -29 120 -29q83 0 137 52q24 24 39 66q12 37 12 88q0 91 -60 144q-18 18 -58 34q-43 13 -89 13q-35 0 -53 -5q-10 -3 -10.5 -2.5t0.5 16.5l46 222q2 8 5 10t14 1q6 -1 104.5 -8t118.5 -8q5 0 16.5 0.5t14.5 0.5q8 0 15 9q5 9 8 2v-2z" />
    <glyph glyph-name="six" unicode="6" horiz-adv-x="457" 
d="M440 220q0 -74 -29 -126q-26 -52 -74 -78q-40 -21 -93 -21q-54 0 -99 27.5t-69 64.5q-48 74 -48 177q0 113 53 211t134 145q42 24 79 33.5t95 9.5q20 0 31.5 -2t14.5 -4.5t1 -5.5q-1 -2 -7 -2t-16 1t-16 1q-50 0 -98 -21q-59 -27 -106 -76q-52 -54 -84 -150
q-7 -18 -5 -18q1 0 7 3l61 30q54 26 96 26q31 0 67 -19q38 -21 60 -52q21 -28 33 -71t12 -83zM383 164q0 99 -30 149q-37 60 -74 73q-35 14 -83 14q-43 0 -95 -31q-2 -1 -6 -16q-3 -33 -3 -68q2 -126 41 -183q32 -44 67 -66.5t88 -22.5q30 0 49 19q46 42 46 132z" />
    <glyph glyph-name="seven" unicode="7" horiz-adv-x="440" 
d="M422 645q0 -12 -15 -25q-20 -20 -93 -128q-56 -84 -100 -179t-56 -168q-10 -56 -10 -117q0 -16 2 -37l2 -21q0 -14 -9 -14q-2 0 -5 0.5t-4 0.5q-38 18 -49 29q-6 6 -6 19q0 36 12 89q14 65 53 148q20 44 64.5 115t68.5 105l65 93q4 6 10.5 14t9 11.5t1.5 5.5q-2 6 -33 -4
q-10 -3 -69.5 -9t-108.5 -6q-78 0 -128 14q-14 1 -14 8q0 4 4 12l11 23l11 24q6 13 13 13q-1 -4 3.5 -7.5t13.5 -5.5q66 -18 166 -18q33 0 86 6t61 8l24 6q19 3 19 -5z" />
    <glyph glyph-name="eight" unicode="8" horiz-adv-x="440" 
d="M409 194q0 -86 -68 -149q-20 -19 -58 -35.5t-83 -16.5q-82 0 -132 55q-39 42 -39 118q0 53 42 105q27 33 67 57q6 4 -3 8q-95 43 -95 136q0 75 65 140q51 49 124 49q44 0 70.5 -10t50.5 -34q18 -18 29 -46.5t11 -48.5q0 -59 -38 -104q-31 -36 -76 -50q-4 -1 -6.5 -3
t-1 -4.5t8.5 -4.5q19 -6 38.5 -16.5t42.5 -29.5t37 -49t14 -67zM339 499q0 51 -38 91q-39 39 -117 39q-46 0 -73 -35q-21 -27 -21 -78q0 -81 59 -114q26 -15 83 -33q11 -3 15 -2t22 12q25 15 41 34q29 38 29 86zM357 155q0 61 -44 97q-48 39 -147 70q-8 3 -15 0
q-30 -18 -48 -44q-20 -31 -22 -84q-1 -32 11 -69t26 -54q42 -52 125 -52q23 0 46 9.5t33 19.5q35 37 35 107z" />
    <glyph glyph-name="nine" unicode="9" horiz-adv-x="463" 
d="M438 406q0 -121 -53 -225t-135 -147q-75 -41 -181 -41q-40 0 -40 9q0 4 35 4q62 0 117 22q57 24 116 100q11 13 31.5 50.5t27.5 66.5q2 8 -0.5 10t-8.5 -3q-12 -10 -64 -30q-33 -14 -81 -14q-29 0 -58.5 12t-57 36t-44.5 68.5t-17 102.5q0 109 79 180q58 51 121 51
q44 0 79.5 -12.5t72.5 -52.5q61 -69 61 -187zM374 355q0 98 -42 157q-38 78 -116 99q-39 17 -78 3q-45 -32 -46 -99q-8 -94 16 -149q33 -68 72 -97q28 -25 79 -25q14 1 29.5 5.5t29.5 10.5t18 7q26 13 32 36q0 1 6 52z" />
    <glyph glyph-name="colon" unicode=":" horiz-adv-x="184" 
d="M138 401q0 -21 -12.5 -34.5t-35.5 -13.5q-42 0 -42 42q0 50 53 50q37 0 37 -44zM142 43q0 -45 -47 -45q-43 0 -43 40q0 27 12 38t42 11q16 0 26 -13.5t10 -30.5z" />
    <glyph glyph-name="semicolon" unicode=";" horiz-adv-x="184" 
d="M137 400q0 -44 -49 -44q-41 0 -41 39q0 27 11.5 38.5t42.5 11.5q17 0 26.5 -13.5t9.5 -31.5zM161 -7q0 -66 -73 -124q-8 -6 -17 -9q-10 0 -8 4q0 1 1 2q4 4 10.5 8.5t8.5 6.5q39 35 41 83q1 17 -12 38q-7 10 -24 11q-58 2 -58 43q0 33 48 33q35 0 59 -28.5t24 -67.5z" />
    <glyph glyph-name="less" unicode="&#x3c;" horiz-adv-x="300" 
d="M265 86q-1 -4 -4 -9l-8 -3q-4 0 -10 6q-30 22 -117 109q-11 11 -41 38t-39 37q-8 10 1 20q0 4 9 9l-11 11q-7 8 8 22q9 10 35 34t39 37q19 19 58.5 55.5t47.5 45.5q5 10 10 10q5 -1 8 -5l4 -7q0 -2 -3 -6q-3 -3 -4 -5l-91 -113q-29 -38 -55 -67l-14 -11l11 -12l52 -64
q96 -113 106 -121q8 -10 8 -11z" />
    <glyph glyph-name="equal" unicode="=" horiz-adv-x="347" 
d="M324 347q-5 -12 -13 -13q-2 -1 -122.5 -8t-129.5 -7h-4.5h-4.5h-3.5h-2.5q-5 4 0 20q4 12 13 14q1 0 63.5 3l124.5 6t66 3q10 0 13 -2q4 -1 0 -16zM324 237q-5 -12 -13 -13q-2 -1 -120 -8t-125 -7h-22q-6 3 0 20q4 12 13 14q1 0 58 3l119.5 6t76.5 3q10 0 13 -2
q5 -2 0 -16z" />
    <glyph glyph-name="greater" unicode="&#x3e;" horiz-adv-x="300" 
d="M260 312q7 -8 -6 -19q3 -3 -6 -10l2 -3q2 -2 3.5 -4.5t0.5 -3.5q-16 -29 -54 -61q-22 -23 -75 -70.5t-69 -59.5q-3 -3 -8 -1l-2 2q-2 3 -2 5q-2 7 4 9q16 14 39 42q1 2 18 21.5l34 39.5l36 43.5t28 36.5l11 9l-18.5 23.5l-23.5 29.5q-18 24 -67 83.5l-59 71.5v8l7 6
q5 1 10 -4q10 -11 26.5 -27.5t20.5 -21.5q22 -17 150 -145z" />
    <glyph glyph-name="question" unicode="?" horiz-adv-x="310" 
d="M275 466q0 -69 -69 -140q-19 -19 -78 -62q-7 -5 -7 -14t3 -15q15 -27 28 -40q16 -19 35 -19q1 0 5 1.5t6 2t3 -1.5q0 -2 -5.5 -6t-5.5 -5q-2 -2 -14 -13l-25 -15q-13 -8 -18 -8q-6 0 -17 11q-25 25 -37 59q-5 12 -5 21q0 11 7 18q9 8 30 24.5t32.5 29t24.5 31.5
q41 61 41 134q0 21 -15 50.5t-40 45.5q-40 25 -91 25q-18 0 -26 -8q-5 -5 -8 -3.5t-2 7.5q0 6 12 22q16 25 19 27q4 5 13 7q15 3 40 3q77 0 125 -57q39 -47 39 -112zM185 40q0 -46 -49 -46q-16 0 -25 10.5t-9 26.5q0 43 55 43q12 0 20 -9.5t8 -24.5z" />
    <glyph glyph-name="at" unicode="@" horiz-adv-x="674" 
d="M653 322q-14 -106 -75.5 -162.5t-130.5 -49.5q-35 3 -50.5 16t-22.5 35q-8 23 -4 55q2 20 0 20t-9 -17q-13 -34 -34 -57q-30 -33 -67 -33q-36 1 -60 31.5t-22 80.5q1 40 23 87t48 70q55 49 118 49q21 0 42 -7q1 0 6.5 -2t7.5 -2t4 1q10 17 12 32q0 6 5 6q4 0 10 -0.5
t8 -0.5q5 0 4 -4q-12 -23 -21 -71l-14 -89.5t-16 -104.5q-11 -78 47 -84q49 -4 96 50.5t58 141.5q17 128 -41 212t-183 84q-42 0 -89.5 -20t-93 -57.5t-80.5 -99.5t-47 -137q-21 -128 41.5 -225.5t186.5 -97.5q41 0 86 18t71 36q1 2 3 0q5 -3 4 -8l-4 -4q-20 -16 -75 -38
t-99 -22q-143 0 -213.5 93t-50.5 244q12 97 71.5 175.5t133.5 117t143 38.5q143 0 216 -85.5t57 -214.5zM388 408q-2 9 -7 12q-8 7 -23 12q-19 6 -44.5 -8t-39.5 -35q-40 -60 -40 -129q-2 -89 37 -96q47 -8 89 73q7 16 11 33.5t8.5 44.5t5.5 35q6 22 3 58z" />
    <glyph glyph-name="A" unicode="A" horiz-adv-x="653" 
d="M652 5q2 -2 -2 -4q-8 -1 -30 -1h-110q-67 0 -80 1q-5 5 -7 5q-3 3 3 5t23 2q5 0 26.5 2t20.5 4q4 1 -1 24t-9 31q-1 2 -17.5 46.5l-33.5 87.5t-19 46q-1 1 -12.5 1.5t-26 1t-21.5 1.5q-29 5 -176 2q-8 -4 -24 -42q-6 -12 -21 -60.5t-18 -63.5q-9 -41 -2 -58
q2 -8 15.5 -15.5t25.5 -7.5q37 0 37 -1q5 -2 5 -8q0 -1 -2 -3q-1 0 -15 -0.5t-16 -0.5h-93q-56 0 -63 1q-2 1 -5 7q-1 0 -1 1t1 2q2 2 12 2q25 0 28 9q16 8 56 100q4 8 60 143.5t59 143.5q4 9 55 132.5l54 130.5q4 11 8 15q1 0 7.5 4t9.5 5q7 5 15 2l-2 -6q0 -1 -5.5 -6.5
t-6.5 -7.5q0 -11 1 -15q0 -9 27 -83q3 -7 25.5 -73t25.5 -74q4 -10 32.5 -90.5l32.5 -91.5q71 -188 90 -222q8 -16 32 -16q26 0 26 -1q3 -2 6 -7zM406 288q-34 102 -42 122q-2 4 -14 42l-24.5 76.5t-12.5 39.5q-3 12 -4 12q-3 0 -13 -20l-58 -134l-29.5 -72t-27.5 -68
q-4 -10 2 -10h61.5h94h64.5q8 0 3 12z" />
    <glyph glyph-name="B" unicode="B" horiz-adv-x="552" 
d="M514 174q0 -80 -53 -127q-59 -53 -168 -53q-12 0 -77 3t-96 3h-65q-5 0 -6 2v9q4 2 5 2l55 3q14 0 15 20v310q0 146 -3 209q-5 92 -19 92l-62 1q-5 0 -7 2q-3 6 -1 9q4 2 7 2l136 2q8 0 54.5 1.5t54.5 1.5h46q27 -2 61 -13q34 -15 55 -36q42 -42 42 -99q0 -61 -44 -110
q-28 -31 -77 -55q-10 -5 1 -8q64 -18 102 -53q44 -39 44 -118zM442 161q0 74 -46 120q-21 21 -45 34t-51.5 17.5t-41 5.5t-38.5 1q-13 0 -19 -3q-3 -1 -3 -10q0 -155 3 -233q0 -16 4.5 -44t11.5 -31q26 -12 76 -12q64 0 108 39q41 39 41 116zM421 485q0 67 -41 109
q-29 30 -55.5 43.5t-72.5 13.5q-34 0 -43 -3q-7 -1 -7 -3q-1 -2 -1 -7q-4 -48 -4 -279q0 -7 3 -7h10.5t24.5 0.5t30 0.5q60 0 72 -2q6 0 16 6q33 17 48 47q20 38 20 81z" />
    <glyph glyph-name="C" unicode="C" horiz-adv-x="687" 
d="M635 108q3 -4 -1 -8q-47 -47 -119 -75q-83 -32 -164 -32q-61 0 -125.5 23t-105.5 64q-88 90 -88 233q0 96 50 176q42 73 113 121q98 64 253 64q46 0 106 -10q36 -5 69 -18q5 -2 5 -8q0 -2 -2 -10t-3 -14l-5 -52q-4 -37 -11 -37q-5 0 -3 19q3 29 -8 43q-15 22 -46 38
q-64 33 -138 33q-142 0 -228 -89q-70 -72 -70 -240q0 -64 22.5 -130t61.5 -102q48 -42 96.5 -61.5t114.5 -19.5q53 0 110 24q43 20 72 65q15 19 19 44q-3 13 1 14q3 1 7 -11q2 -11 10 -26z" />
    <glyph glyph-name="D" unicode="D" horiz-adv-x="686" 
d="M649 337q0 -92 -33 -169t-104 -124q-35 -23 -78 -34.5t-70.5 -13t-77.5 -1.5q-35 0 -90.5 2.5t-92.5 2.5h-54q-3 0 -5 2q-3 2 0 8q1 2 5 2l65 4q11 2 11 26q0 7 -0.5 128t-0.5 132q0 12 -1.5 116t-1.5 112q0 2 -0.5 17.5t-1.5 31t-2.5 32t-5.5 27.5t-9 11l-66 -1
q-3 0 -6 2q-1 1 0 5t2 5t5 1l191 3h103q62 0 129 -21q58 -20 105 -66q84 -83 84 -240zM574 283q4 158 -64 244q-57 71 -124 99q-61 23 -137 24q-31 0 -38 -1q-8 -1 -10.5 -4t-1.5 -15q0 -7 1 -130t1 -138v-179q0 -164 22 -168q18 -3 62 -4t58 0q93 2 161 62q64 59 70 210z
" />
    <glyph glyph-name="E" unicode="E" horiz-adv-x="580" 
d="M566 96q-1 -3 -23 -45.5t-25 -47.5q0 -8 -4 -8t-5 5h-465q-3 0 -5 2t1 9q1 1 4 1l68 4q12 0 13 11v35v76.5v87.5v76.5v34.5q0 4 -2 104t-2 106q0 99 -19 102h-58q-5 0 -6 2q-2 7 1 10q2 2 6 2l140 -2q11 0 150.5 1.5t145.5 1.5q33 0 36 3q7 6 12 1q2 -2 -1 -7
q-1 -2 -4.5 -15.5l-7.5 -28.5t-5 -19q-6 -22 -11 -21q-6 0 -4 15q-4 18 -44 34t-75 18q-63 2 -168 3q-6 0 -8 -6q-3 -9 -3 -269q0 -6 1 -8t7 -2q7 -1 105.5 3t106.5 5q15 2 19 11q16 24 25 56q0 3 3 8q1 3 3.5 2.5t3.5 -3.5q2 -2 2 -6q-10 -60 -10 -85q0 -7 2 -50t2 -46
q0 -8 -1 -9q-1 -2 -4.5 -2t-4.5 1l-2 6q-2 45 -16 74q-4 11 -21 13q-7 1 -107.5 4.5t-106.5 2.5q-5 -1 -5.5 -2t-0.5 -7q0 -2 0.5 -92.5t0.5 -100.5q0 -132 27 -132q124 1 196 18.5t124 54.5q3 4 5 7l5.5 8.5t6.5 8.5l2 2q0 -1 1 -4t1 -5.5t-2 -6.5z" />
    <glyph glyph-name="F" unicode="F" horiz-adv-x="561" 
d="M545 659q0 -1 -1.5 -4t-3.5 -7.5t-4 -10.5q0 -1 -5 -20.5t-6 -25.5q-3 -17 -8 -16q-6 3 -6 13q-10 21 -13 23q-9 8 -48 19.5t-61 14.5q-60 5 -186 5q-6 0 -6 -5q-1 -4 0 -68t2.5 -131t1.5 -68q0 -6 0.5 -8.5t2.5 -3.5t7 -1q6 0 113.5 3.5t111.5 4.5q8 1 20 13
q5 7 12.5 28.5t8.5 28.5q0 2 1 3.5t2 2.5t1 2q1 4 6 1q2 -1 2 -3v-7q-10 -50 -10 -86q0 -7 2 -48t2 -44q0 -6 -1 -9v-3q-1 -2 -4.5 -2t-4.5 2q-2 4 -2 8q0 5 -4.5 33.5t-6.5 31.5q-9 18 -24 20q-4 1 -112 4t-115 3q-5 0 -6 -1t-2 -6v-188q0 -140 33 -143l81 -1q3 0 7 -2
q6 -4 -1 -9q-2 -2 -7 -2h-258q-4 0 -5 1t-1 4t1 5l1 2q2 1 4 1l58 3q8 0 10 10q1 4 1 331q0 102 -4 158q0 34 -4.5 80t-11.5 54h-56q-3 0 -5 2q-2 1 -2.5 5t1.5 5q0 2 5 2h439q9 0 27 2.5t19 2.5q6 2 10 -0.5t2 -8.5z" />
    <glyph glyph-name="G" unicode="G" horiz-adv-x="713" 
d="M686 292q-3 -3 -7 -3q-3 0 -30.5 -1.5t-29.5 -1.5q-6 0 -6 -6q0 -1 -1.5 -14.5t-2.5 -36.5t-1 -47q0 -100 7 -108q6 -9 2.5 -12t-11.5 -1q-3 1 -13 -3t-19.5 -9l-21 -11t-12.5 -7q-93 -42 -180 -42q-98 0 -153 29q-78 42 -117 93q-58 74 -58 196q0 133 84 230
q39 46 88 75t85 39q66 20 167 20q47 0 106 -11l15.5 -4l20.5 -5.5t12 -1.5q8 8 9 4q1 -3 -3 -11l-6 -47q-3 -39 -5 -47q-5 -21 -11 -20q-7 0 -4 12q3 16 0 30q-8 25 -30 41q-57 45 -166 45q-54 0 -113.5 -28.5t-99.5 -73.5q-31 -38 -49.5 -101t-18.5 -128q0 -67 21 -127.5
t57 -96.5q92 -88 212 -88q86 0 123 37q6 5 6 14q0 2 0.5 39.5t0.5 46.5q0 10 -1 44v33q-4 59 -12 59q-2 0 -46 1.5t-47 1.5t-6 3q-3 4 0 7q4 2 7 2q39 -3 148 -3q72 0 102 3q2 1 4.5 0t3.5 -1q6 -6 0 -8z" />
    <glyph glyph-name="H" unicode="H" horiz-adv-x="754" 
d="M719 3q0 -3 -7 -3h-236l-6 3q-1 1 -1 3.5t1 3.5q3 3 7 3q39 0 56 3q13 1 16 6.5t3 29.5v11q2 36 2 273q0 6 -2 8t-7 2q-36 1 -330 -2q-16 0 -16 -17q0 -3 1 -106t1 -115q1 -89 31 -90q12 -2 54 -2q5 0 8 -4q5 -5 0 -7q-2 -3 -9 -3h-229q-6 0 -7 2q-3 5 0 8t7 3
q9 0 27.5 1.5t25.5 1.5q10 1 13 8t3 27v10v273q0 22 -1.5 107.5t-1.5 90.5q0 32 -4.5 73.5t-14.5 42.5q-1 0 -22.5 0.5t-31.5 0.5q-5 0 -5 3q-2 1 -2.5 4t1.5 4q2 3 6 3h225q6 0 6 -3q3 -1 3 -3.5t-3 -3.5q-2 -3 -6 -3t-30 -2l-26 -1q-11 0 -14.5 -3t-3.5 -12
q0 -6 -0.5 -128.5t-0.5 -129.5q0 -10 9 -10q110 -3 331 2q8 0 11 3t3 12q0 3 -0.5 78t-0.5 86q0 102 -28 103q-1 0 -20.5 0.5t-27.5 0.5q-3 0 -5 4q-2 5 0 6q3 4 7 4h219q6 0 9 -3q2 -4 -3 -8q-2 -2 -6 -2q-8 0 -24.5 -1.5t-24.5 -1.5q-10 0 -13.5 -5t-5.5 -18
q-1 -11 -1 -258q0 -201 1 -227q2 -70 7 -96t20 -27q18 -3 57 -3q5 0 6 -4q4 -2 0 -6z" />
    <glyph glyph-name="I" unicode="I" horiz-adv-x="327" 
d="M293 2q-2 -2 -6 -2h-236q-5 0 -6 1q-2 1 -2 4.5t1 4.5q3 3 6 3l66 4q10 0 8 39v473q0 114 -23 119l-49 1q-7 0 -10 3q-2 1 -2 4.5t2 4.5q6 2 8 2h225q4 0 4 -2v-9q0 -2 -5 -2l-54 -3q-16 -1 -18 -21q0 -3 -0.5 -218.5t-0.5 -229.5q0 -81 5.5 -120t22.5 -43l57 -2
q2 0 7 -3q1 -1 1 -3.5t-1 -4.5z" />
    <glyph glyph-name="J" unicode="J" horiz-adv-x="350" 
d="M308 652q-2 -2 -6 -2l-57 -3q-13 -1 -13 -21q0 -3 -1 -154t-1 -170q0 -18 0.5 -142.5t0.5 -138.5q0 -95 -12 -136q-24 -89 -86 -128q-55 -36 -137 -36q-30 0 -50 11.5t-20 25.5q0 19 32 19q17 0 32.5 -8t28 -18t16.5 -12q17 -3 31 2q48 18 71 60q20 38 20 139v319
q0 9 -2 131t-2 136q0 118 -23 122l-59 1q-5 0 -7 3q-3 3 0 9q3 2 7 2h231q4 0 6 -2q5 -4 0 -9z" />
    <glyph glyph-name="K" unicode="K" horiz-adv-x="661" 
d="M661 5q0 -3 -5 -3l-129 -6q-9 0 -12 5l-90 113q-49 62 -111 129l-63 70q-6 7 -13 1l-37 -30q-3 -2 -3 -10q0 -116 2 -156q3 -95 27 -103l70 -2q4 0 6 -3q1 0 1.5 -2t-0.5 -4.5t-2 -2.5q0 -1 -5 -1h-242q-5 0 -7 2q-4 4 0 9q2 2 6 2l60 3q11 0 11 26q0 2 -1 144t-1 151
v213q0 92 -21 98l-60 1q-2 0 -5 3q-1 1 -0.5 4.5t1.5 4.5q2 2 4 2h234q4 0 5 -1t1 -4.5t-1 -5.5q-2 -2 -5 -2l-66 -3q-10 0 -10 -8q-3 -15 -3 -325q0 -8 1 -10t4 -1q21 13 96 80.5t91 83.5q9 9 45.5 48.5t43.5 48.5q38 45 36 67q0 18 -16 18h-48q-2 0 -4 3q-2 1 -2 4.5
t2 4.5q1 2 5 2h195q2 0 6 -2q1 0 1 -3.5t-1 -5.5q-2 -2 -6 -2l-34 -1q-14 0 -25 -13l-79.5 -76t-77.5 -73q-2 -2 -32.5 -30.5l-58 -54t-31.5 -27.5q-11 -6 -4 -13q11 -10 33.5 -35.5t30.5 -33.5q32 -33 140 -166q53 -68 74 -82q31 -31 48 -30h26q5 0 5 -2v-8z" />
    <glyph glyph-name="L" unicode="L" horiz-adv-x="559" 
d="M569 104l-37 -75q-1 -3 -7 -13.5t-7 -13.5q-1 -5 -4 -6t-4 4h-466q-2 0 -6 2q-2 2 -2 4.5t2 3.5q4 2 5 2l71 4q7 0 10 2.5t2 8.5q-3 27 -3 111q0 6 1.5 197t1.5 203q0 8 -1 22.5t-3 35.5t-7.5 36t-12.5 16l-51 2q-5 0 -7 2q-2 4 0 9q2 2 6 2h256q4 0 6 -2q4 -7 1 -10
q-2 -2 -5 -2l-93 -1q-9 0 -9 -9q-2 -14 -4.5 -233.5t-2.5 -264.5q2 -123 25 -128q162 0 195 5q34 6 58 15.5t32.5 15.5t24.5 20q17 15 27 40q1 3 4 3.5t4.5 -2t-0.5 -6.5z" />
    <glyph glyph-name="M" unicode="M" horiz-adv-x="912" 
d="M875 1q-2 -1 -8 -1h-213q-6 0 -6 1q-5 5 -1 9q4 2 5 2l48 4q15 0 15 13q0 3 -1 124.5t-1 134.5q0 202 -5 282l-2 25q-1 0 -11 -20q-17 -36 -103 -245.5l-94 -228.5q-1 -3 -23 -50t-24 -56q-1 -5 -4.5 -10.5t-6.5 -4.5q-4 1 -4 11q-6 24 -138 288q-10 25 -53.5 114.5
t-66.5 131.5q-10 17 -11 0q-11 -201 -12 -265v-116q0 -95 20 -122l71 -10q3 0 3.5 -0.5t1.5 -0.5v-9q0 -2 -3 -2h-188l-6 2v6q3 4 5 4l65 9q6 48 10 132q7 112 7 174l8 224q1 18 -16.5 49t-38.5 42q-11 5 -47 8q-3 0 -4 2v9q0 2 4 2h140q9 0 12 -7l95 -195
q20 -45 92.5 -194.5t83.5 -161.5q9 -9 13 -1q12 24 109 266q2 3 59 142.5t59 141.5q5 9 15 9h129q5 0 7 -2q1 -1 0.5 -4.5t-1.5 -4.5q-4 -2 -6 -2l-48 -3q-16 -1 -19 -34q-1 -24 -0.5 -70t1 -113t0.5 -70q0 -193 4 -269q1 -25 2.5 -37t8 -24t17.5 -13l48 -5q4 0 6 -2
q2 0 2.5 -4t-1.5 -5z" />
    <glyph glyph-name="N" unicode="N" horiz-adv-x="744" 
d="M725 650q-1 -1 -7 -1l-61 -1q-10 0 -11 -13q0 -4 -11 -283q0 -10 3.5 -174t3.5 -173v-11t-1 -7t-2.5 -5t-4.5 0l-3 1.5t-1.5 1.5t-1 3.5t-1.5 5.5q-262 325 -268 333q-148 194 -182 235q-7 9 -10 -4q-2 -23 -8 -188.5t-6 -214.5q0 -43 9.5 -88.5t20.5 -49.5l60 -4l6 -2
q1 -1 1 -4.5t-1 -4.5q-1 -2 -5 -2h-179q-5 0 -7 1q-2 0 -2 3.5t2 5.5q3 3 7 3l53 4q8 0 8 7q0 2 3.5 37.5t4.5 43.5q3 32 10 248.5t7 235.5q-15 29 -49 54l-51 6q-3 0 -5 2q-1 1 -0.5 5t1.5 5q4 2 5 2h146q6 0 11 -8q4 -7 79 -107.5t87 -115.5q15 -17 124 -155t115 -148
q7 -11 8 -11q2 0 0 19q0 266 -5 356q0 46 -9 98t-26 53l-64 7q-4 0 -6 2q-6 4 0 10q2 2 5 2l200 -2q3 0 5 -1t3 -1q2 -1 2 -5t-2 -6z" />
    <glyph glyph-name="O" unicode="O" horiz-adv-x="722" 
d="M686 346q0 -148 -77 -240q-47 -59 -134 -92q-49 -20 -119 -20q-113 0 -176 33q-39 20 -70 55q-74 87 -74 238q0 72 20 130q19 65 64 117q14 16 30.5 29t31.5 21.5t26 13.5t22 9l11 5q61 22 125 22q101 0 158 -26q64 -29 96 -74q66 -90 66 -221zM612 313q0 69 -18 129
q-19 61 -56 107q-28 38 -83 66q-51 29 -126 29t-110 -22q-54 -39 -78 -98q-29 -68 -29 -174q0 -145 52 -227q35 -55 97 -85q60 -28 113 -28q48 0 74 6.5t55 23.5q51 30 80 109q27 74 29 164z" />
    <glyph glyph-name="P" unicode="P" horiz-adv-x="552" 
d="M526 476q0 -82 -47 -131q-55 -55 -161 -55q-14 0 -34 2.5t-35 5t-30.5 5.5t-17.5 3q-5 1 -5.5 -0.5t-0.5 -6.5q4 -24 4 -186q0 -98 26 -98l74 -2q5 0 6 -3q1 0 1.5 -1.5t0 -3.5t-1.5 -3q-1 -2 -5 -2h-243q-4 0 -5 1q-2 1 -1.5 4.5t2.5 4.5q1 3 5 3l52 3q9 0 13 13
q3 12 3 324q0 7 -0.5 101t-0.5 102q0 90 -18 91l-51 2q-6 0 -6 1q-2 2 -2.5 5.5t0.5 4.5q2 2 7 2l110 -2q8 0 65.5 1t60.5 1q50 0 87 -5q55 -8 99 -50q49 -48 49 -131zM447 469q2 30 -10 64t-31 56q-49 58 -169 58q-26 0 -30 -1t-5 -10q-4 -36 -4 -161q0 -5 -1 -73.5
t-1 -71.5q0 -6 7 -9q32 -14 100 -14t111 48q20 23 26 49t7 65z" />
    <glyph glyph-name="Q" unicode="Q" horiz-adv-x="733" 
d="M752 -185q-3 -3 -7 -3q-23 -5 -50 -8t-61.5 -4.5t-41.5 -2.5q-22 -2 -33 4q-68 38 -122 86q-56 48 -105 103q-6 7 -7 7.5t-11 0.5q-68 3 -131 33q-42 21 -70 52q-78 83 -78 240q0 66 21 127q19 67 64 118q12 13 25.5 24t24.5 18t23.5 13t19.5 9t16 6t10 3q64 26 128 26
q97 0 159 -28q61 -27 95 -76q66 -93 66 -216q0 -145 -78 -239q-39 -49 -93 -76q-42 -21 -86 -29q-15 -3 -4 -12q46 -47 107 -98q54 -42 116 -74q50 -3 67 -1l15.5 3t11.5 2q4 1 7 1q7 -4 2 -9zM609 320q0 62 -17 121q-24 71 -57 109q-35 41 -80 65q-49 28 -127 28
q-76 0 -113 -24q-46 -35 -75 -99q-29 -69 -29 -170q0 -71 10 -119q14 -68 49 -117q33 -48 91 -76q61 -27 112 -27q84 0 128 29q41 26 80 111q28 65 28 169z" />
    <glyph glyph-name="R" unicode="R" horiz-adv-x="650" 
d="M664 3q0 -3 -3 -3l-157 -2q-4 0 -12 6q-13 12 -39 46.5t-51 71.5l-25 37q-58 86 -83 143q-3 8 -8 8q-39 0 -81 4q-6 1 -7 0t-1 -5q0 -95 3 -188q3 -100 20 -105l81 -3q3 0 5 -3v-9q0 -1 -4 -1h-245q-5 0 -6 2q-3 3 -1 8l5 3l59 3q9 0 9 22q3 36 3 264q0 98 -1 211
q-1 135 -20 135l-48 1q-5 0 -8 3q-1 1 0 5t2 5t5 1l132 -2q6 0 55.5 2t55.5 2q48 0 62 -3q58 -12 88 -34q10 -7 19 -16q48 -46 48 -114q0 -79 -52 -123q-33 -30 -93 -46q-6 0 -3 -6q15 -30 47 -84.5t50 -77.5q5 -6 20.5 -28t23 -31.5l20.5 -25.5t23.5 -26.5t20.5 -17.5
q29 -21 83 -21q8 0 8 -2v-6zM437 472q0 65 -38 114q-49 63 -179 63q-8 0 -12 -1t-4.5 -1.5t-1.5 -4.5q-4 -16 -4 -189q0 -10 -1 -61.5t-1 -54.5q0 -5 1 -5.5t6 -1.5q27 -5 65 -5q44 0 71 8q98 26 98 139z" />
    <glyph glyph-name="S" unicode="S" horiz-adv-x="503" 
d="M456 184q0 -80 -55 -134q-60 -55 -161 -55q-114 0 -166 45q-8 -8 -8 5q0 3 1 9v122q0 4 2 7q4 6 10 0q3 -3 3 -7v-12t2 -19q10 -51 43 -86q47 -50 114 -50q98 0 136 64q19 35 19 81q0 23 -11 45.5t-27 34.5q-39 33 -108 59q-84 29 -125 63q-48 42 -48 128t63 139
q51 44 137 44q39 0 72.5 -9t46.5 -16.5t21 -14.5q3 3 4.5 3.5t2.5 -2t1 -8.5q1 -4 3 -40t2 -41q0 -28 -1 -37q-2 -6 -7 -7t-6 6v10t-1 9q-1 2 -3 14.5t-4 17.5q-8 29 -28 49q-19 22 -55 36.5t-74 14.5q-27 0 -55.5 -12t-44.5 -31q-30 -38 -30 -92q0 -50 37 -84
q10 -9 29.5 -18.5t49 -21.5l39.5 -16q11 -5 31.5 -13t31.5 -13t26 -13t27 -18t23 -22q41 -47 41 -114z" />
    <glyph glyph-name="T" unicode="T" horiz-adv-x="612" 
d="M592 657q-5 -37 -13 -68q-1 -4 -2.5 -6.5t-4 -4.5t-4.5 0q-5 3 -3 11q-3 14 -18.5 27.5t-32.5 19.5q-13 5 -72.5 8.5t-89.5 3.5q-8 0 -8 -7q-1 -6 -4 -237t-3 -245q0 -144 26 -145l82 -2q2 0 4 -2q2 -1 2.5 -4.5t-1.5 -4.5t-5 -1h-271q-4 0 -4 2q-2 1 -2 3.5t1 4.5
q2 2 6 2l78 5q11 0 9 11q-2 12 -2 114q0 8 3.5 169t3.5 168q0 166 -20 168q-112 0 -175 -19q-37 -12 -46 -33q-1 -3 -1 -8.5t-1 -8t-5 -1.5q-7 1 -7 13q0 10 1 13q1 2 6.5 17l10.5 29t5 17q0 6 3.5 6.5t7.5 -1.5q5 -1 48.5 -3.5t109.5 -5t111 -2.5q11 0 121.5 0.5t112.5 0.5
q24 0 34 5q2 2 5.5 -1t3.5 -8z" />
    <glyph glyph-name="U" unicode="U" horiz-adv-x="707" 
d="M693 652q-1 -2 -5 -2h-25q-14 0 -26.5 -6t-15.5 -13q-7 -25 -7 -364q0 -78 -21.5 -135.5t-58 -88t-75.5 -44.5t-81 -14q-101 0 -152 29q-21 12 -47 34t-39 43q-27 41 -32 132q-3 54 -3 308q0 117 -18 117l-61 1q-4 0 -5 3q-1 1 -0.5 4.5t1.5 4.5q0 2 4 2h229q5 0 6 -2
q2 -1 2 -3.5t-1 -4.5q-1 -3 -5 -3l-68 -2q-3 0 -4.5 -0.5t-1.5 -2t-1 -5.5q-4 -26 -4 -336q0 -94 8 -142q16 -77 68 -112q59 -41 147 -41q84 0 141 62q26 29 38.5 81t13.5 101q0 163 -3 241q-1 45 -10 97t-20 58l-62 1q-6 0 -9 2q-1 2 -1 5t2 4q4 2 8 2h187q4 0 6 -2
q3 -1 3 -4.5t-2 -4.5z" />
    <glyph glyph-name="V" unicode="V" horiz-adv-x="650" 
d="M649 650q-1 -2 -7 -2l-27 -1q-11 0 -17 -10q-2 -3 -54 -137t-59 -149l-139 -335q-1 -5 -3.5 -13t-7 -15t-8.5 -6q-3 1 -3.5 3.5t-1 7t-2.5 9.5q-2 3 -31 77.5l-62.5 159l-41.5 103.5q-101 242 -132 289q-14 18 -29 18l-16 2q-5 0 -6 2q-4 4 0 8q1 2 5 2h208l6 -3
q1 -1 0.5 -4.5t-1.5 -4.5q-2 -3 -6 -3h-54q-10 0 -14 -11q0 -7 6 -24l98 -242l53.5 -131.5t52.5 -131.5q4 -15 7 -15t7 10q13 28 101 252q6 16 34.5 105.5l32.5 102.5q13 56 9 70q-3 14 -28 15l-43 2q-4 0 -7 3q-2 1 -1.5 4t2.5 4q2 2 5 2h168q5 0 5 -2q3 -5 1 -11z" />
    <glyph glyph-name="W" unicode="W" horiz-adv-x="1078" 
d="M1077 650q-1 -2 -6 -2l-30 -1q-8 0 -15 -10q-3 -5 -60.5 -139.5t-61.5 -144.5q-1 -4 -33.5 -78l-68.5 -157l-46 -107q-2 -13 -6.5 -19.5t-9.5 -4.5q-3 0 -3.5 2.5t0 6.5t-1.5 9q-3 8 -52.5 129.5t-58.5 148.5q-52 120 -77 196q-3 9 -4 10q-1 0 -7 -10q-1 -2 -21 -51
l-40.5 -98t-23.5 -55q-4 -10 -54.5 -129l-57.5 -135q-2 -11 -6.5 -19t-8.5 -7q-3 1 -3 4v8t-2 9l-120 302q-2 8 -55 131t-58 132q-18 45 -35 63q-12 15 -25 15l-19 1q-3 0 -5 2q-3 5 -1 9q2 2 6 2h207q1 0 7 -4q1 -1 1 -4.5t-1 -4.5q-1 -2 -5 -2l-63 -1q-3 0 -6.5 -3.5
t-3.5 -8.5q-1 -7 4 -21q75 -169 101 -238q4 -11 31 -77.5l49 -122.5t25 -67q5 -17 11 -4q12 20 83 198q6 13 40 100t40 105q4 8 -4 26l-19 39t-20 42l-2 5q-3 5 -5.5 8.5l-6 8.5t-7.5 7.5t-8 2.5l-44 1q-5 0 -7 2q-2 1 -3 4.5t1 5.5q4 3 9 3h234q3 0 5 -3q3 -9 0 -10
q-2 -2 -6 -2l-78 -1q-6 0 -6 -6q0 -10 9 -30q23 -50 101 -246q94 -246 98 -255q7 -13 8 -13q1 -1 4 4q0 1 1 2q15 30 51.5 117t48.5 118q50 144 65 199q13 46 13 83q0 10 -6 18.5t-17 8.5l-46 2q-4 0 -6 2t0 9q3 3 7 3h179q5 0 7 -2q7 -7 0 -11z" />
    <glyph glyph-name="X" unicode="X" horiz-adv-x="652" 
d="M646 2q-3 -2 -7 -2h-213q-6 0 -6 3v8q2 2 5 2l58 2q16 2 11 14q-2 5 -47.5 75.5l-47.5 73.5q-51 84 -76 117q-7 9 -12 4q-8 -7 -34 -33l-39 -40q-60 -67 -92 -119q-25 -41 -25 -69q0 -24 18 -24l62 -1q5 0 5 -4v-7q-1 -2 -5 -2h-189q-4 0 -6 1t-2 8q0 4 8 4l40 2
q4 0 6.5 2.5t4 4.5t4 7l3.5 7q49 83 137 177q59 65 97 99q6 6 0 15q-4 7 -50.5 75.5t-51.5 74.5q-7 13 -45 71.5t-57 81.5q-17 19 -32 19h-27q-6 0 -6 4q0 7 1 8q0 2 4 2h223q6 0 6 -2v-8q0 -4 -5 -4l-55 -1q-14 0 -14 -11q-2 -12 8 -27q15 -27 63 -101q2 -3 21.5 -34.5
l38.5 -61.5t25 -37q8 -9 13 -4q45 47 82 102q31 46 56 111q8 20 8 45q0 7 -5 13t-14 6h-56q-6 0 -6 4q0 7 1 8q1 2 5 2h184q6 0 6 -3q0 -1 -1 -5v-4q-2 -2 -5 -2l-34 -2q-13 -2 -18 -12q-33 -68 -91 -151q-11 -15 -47.5 -59t-56.5 -64q-7 -7 -3 -13l100 -148
q12 -20 53.5 -83t52.5 -76q19 -22 28 -25q5 -2 13 -2l22 -1q5 0 6 -3q4 -4 2 -8z" />
    <glyph glyph-name="Y" unicode="Y" horiz-adv-x="584" 
d="M587 651q-2 -2 -3 -2h-32q-13 0 -27 -24l-90 -150q-3 -4 -27 -42.5l-46.5 -74t-24.5 -39.5q-4 -9 -4 -16q0 -1 -0.5 -88t-0.5 -95q0 -105 19 -105l83 -2q2 0 4 -3q2 0 2.5 -3.5t-0.5 -4.5q-2 -2 -7 -2h-261q-4 0 -6 2q-4 4 -1 7t6 3l75 5q7 0 11 12q2 7 3 36t1 67.5
t-0.5 73.5t-0.5 64l-1 28q0 14 -4 21l-92 147q-1 1 -15 23.5l-29.5 48l-32 52l-23.5 37.5q-14 21 -41 22h-11q-3 0 -5 2q-1 2 -1 8q0 4 6 4h209q4 0 5 -1q2 -1 2 -9q0 -4 -4 -4h-56q-13 0 -14 -11q-2 -5 4 -20q4 -9 38.5 -66t39.5 -66q45 -77 89 -140q6 -10 12 -3
q18 22 60 94t55 102q25 63 24 88q0 22 -21 22h-42q-3 0 -3 2q-1 2 -1 9q0 3 4 3h171q4 0 4 -3v-9z" />
    <glyph glyph-name="Z" unicode="Z" horiz-adv-x="659" 
d="M618 140q0 -1 -1 -6.5t-2.5 -13t-3.5 -12.5q-2 -4 -6.5 -18.5l-9.5 -30.5t-6 -18t-7.5 -19.5t-10.5 -22.5q-6 -9 -21 -10h-73q-11 0 -82.5 4t-87.5 4q-6 0 -75 1t-92 1q-8 0 -35 -0.5t-36 -0.5q-26 1 -31 -2q-6 -3 -6 -1t4 10l53 69q13 18 87.5 108.5l95.5 114.5
q23 25 98.5 113t84.5 102q14 15 33 39t20 28q4 9 -16 11q-14 2 -38 0q-46 -4 -213 -4q-138 0 -158 -3q-6 -4 -15 -6q-10 -2 -10 -6l-1 1q-1 6 2 13l22 45q17 29 19 31q11 8 31.5 7t32.5 -6q0 -4 80 -7.5t159 -3.5q9 0 68.5 1.5t62.5 1.5q8 0 21.5 1t23 1.5t10.5 0.5
q9 -1 7 -12q-5 -5 -34.5 -42t-32.5 -40l-131 -152.5t-112 -130.5q-2 -3 -26.5 -30l-50 -55.5t-53 -64t-38.5 -57.5q0 -3 2.5 -4.5t9.5 -2t12 -0.5t15 1q18 1 90 -1t89 -2q173 0 184 4q48 3 71 48q4 7 15 18q1 0 4 2.5t4.5 3.5t3.5 0z" />
    <glyph glyph-name="bracketleft" unicode="[" horiz-adv-x="358" 
d="M352 -270q0 -3 -5 -3h-224q-14 0 -14 7l-1 284v297v110t0.5 196.5t0.5 97.5q0 6 9 6h227q7 0 7 -2v-10q0 -3 -6 -3h-132q-3 0 -15.5 0.5t-16.5 0.5q-9 0 -7 -5q4 -12 4 -18q1 -5 3.5 -179t2.5 -192q0 -19 -3 -277.5t-4 -265.5q0 -11 -2 -27q0 -6 9 -6q5 0 12 0.5t10 0.5
h139q6 0 6 -2v-10z" />
    <glyph glyph-name="backslash" unicode="\" horiz-adv-x="292" 
d="M283 -41q0 -2 -4 -4q-5 -2 -9 -2l-6 11q-9 24 -122.5 365l-124.5 373q-3 10 -2 11q0 1 5 4q4 2 8 2q5 -8 6 -11q10 -28 125.5 -371.5t121.5 -366.5q6 -7 2 -11z" />
    <glyph glyph-name="bracketright" unicode="]" horiz-adv-x="358" 
d="M248 315v-297l-1 -284q0 -7 -14 -7h-223q-5 0 -5 3v11q0 2 6 2h139q2 0 9 -0.5t13 -0.5q5 0 7 1t1 5q0 2 -0.5 32t-0.5 40q-1 16 -4 243t-3 254q0 24 3 195t4 178q0 10 2 16q1 2 -0.5 3.5t-5.5 1.5t-16.5 -0.5t-15.5 -0.5h-132q-6 0 -6 3v7q0 5 7 5h226q9 0 9 -6
q0 -1 0.5 -97.5t0.5 -196.5v-110z" />
    <glyph glyph-name="asciicircum" unicode="^" horiz-adv-x="380" 
d="M349 496q2 -6 -1 -10l-6 1q-2 0 -7 7q-32 32 -137 155l-3 10l-3 -10l-144 -148l-3 -4q-3 -4 -5 -5q-2 -2 -6 0q-5 6 -1 10q0 3 7 10q18 23 63 91t64 99q6 10 11 13q3 0 8 -5q9 -7 11 -8l9 10l7 5q5 -2 8 -8q65 -116 121 -203q1 -1 2 -2.5l2 -3t2 -2.5t1 -2z" />
    <glyph glyph-name="underscore" unicode="_" horiz-adv-x="376" 
d="M378 -167q-6 -4 -14 -4h-350q-8 0 -14 4q-3 2 -3 7.5t3 7.5q5 5 14 5q220 -2 350 0q9 0 14 -5q3 -2 3 -7.5t-3 -7.5z" />
    <glyph glyph-name="grave" unicode="`" 
d="M229 480q-5 -3 -12 0q-61 40 -157 95q-13 6 -18 13q-4 4 -3 6t7 1q30 7 55 9q5 1 12 -6q15 -16 58 -56.5t56 -51.5q6 -5 2 -10z" />
    <glyph glyph-name="a" unicode="a" horiz-adv-x="406" 
d="M406 42q-7 -13 -9 -16q-2 -2 -18 -17t-19 -17q-4 -3 -10 -3q-28 0 -50.5 23.5t-32.5 56.5q-3 12 -11 2q-6 -8 -26 -25.5t-29 -23.5q-46 -28 -89 -28q-32 0 -56 18q-33 25 -33 61q0 19 6 35.5t10 21.5l14 18q26 32 75 53q56 24 127 36q9 1 10 13q2 15 2 61t-3 60
q-5 26 -27 40q-22 15 -56 15q-42 0 -64 -14q-11 -8 -11 -17q-3 -12 -3 -26q0 -24 -7 -40q-13 -29 -37 -26q-20 3 -20 26q0 17 21 44t48 43q29 19 54.5 24.5t65.5 5.5q48 0 80 -32q11 -10 18 -34t7 -43q-1 -38 -5 -106.5t-4 -80.5q0 -63 15 -84q9 -13 24 -22t25 -11
q3 -1 15 8q3 3 3 1zM262 212q1 4 -1.5 6t-8.5 2q-53 -3 -83 -16q-80 -36 -80 -95q0 -36 19 -51q21 -16 50 -16q53 0 92 36q12 10 10 32q-2 17 2 102z" />
    <glyph glyph-name="b" unicode="b" horiz-adv-x="507" 
d="M476 222q0 -104 -70 -171q-59 -55 -142 -55q-55 0 -113 20q-33 11 -38 11q-17 0 -27 -29q-2 -7 -6 -9q-1 -1 -7 -1q-5 0 -5 17q0 3 3 170t3 181v281q3 84 -20 90l-59 -1q-5 0 -7 2q-2 4 0 8q2 3 6 3h17q72 4 107 20q14 6 20 7q8 3 10 0t-3 -7q-1 -6 -4.5 -172.5
t-3.5 -212.5q0 -5 0.5 -7t2 -2t3.5 2q13 8 44 32t52.5 33t49.5 9q82 0 134 -59q30 -34 41.5 -70t11.5 -90zM417 189q0 83 -46 139q-51 59 -128 59q-56 0 -102 -34q-4 -4 -4 -12q0 -1 -1.5 -80t-1.5 -102q2 -93 8 -113q1 -5 6 -9q14 -8 48 -17t64 -9q66 0 113 43
q44 41 44 135z" />
    <glyph glyph-name="c" unicode="c" horiz-adv-x="439" 
d="M426 79q-4 -12 -25 -26q-75 -59 -160 -59q-56 0 -94 19q-55 29 -85 81q-30 53 -30 124q0 53 14 95q17 48 67 89q57 44 130 44q37 0 68 -11t39 -17t23 -19q27 -23 27 -50q0 -31 -27 -31t-46 26q-11 17 -24 54q-8 28 -29 32q-18 4 -38 4q-25 0 -43 -6q-46 -16 -68 -39
q-39 -45 -39 -130q0 -98 73 -168q54 -50 136 -50q60 0 109 30q4 3 9.5 7.5t6.5 4.5l6 3q1 -1 1 -3.5t-1 -3.5z" />
    <glyph glyph-name="d" unicode="d" horiz-adv-x="539" 
d="M540 52q1 -4 -5 -6q-3 -1 -24.5 -9.5l-47.5 -19t-32 -12.5q-37 -14 -40 -17q-7 -7 -7 -2q0 2 1 7q0 20 -2 38l-3 36q0 4 -3 5t-5 -2q-6 -8 -67 -50q-49 -27 -104 -27q-44 0 -76 20q-39 22 -65 68q-27 52 -27 132q0 42 12 76t25.5 51.5t36.5 41.5q24 24 62 40.5t79 16.5
q55 0 115 -25q8 -4 11.5 2.5t1.5 16.5q0 5 -1 98t-1 101q0 28 -7 59.5t-18 32.5l-57 -3q-7 0 -8 2q-3 3 -1 7q3 4 9 4l23 1q59 4 89 15l37 11q5 1 5.5 0t-0.5 -5.5t-1 -7.5q1 -6 0 -63t-2 -73q-2 -17 -2 -242t1 -241q1 -13 1.5 -30.5t1.5 -27l2 -19.5t3.5 -14t6.5 -4
q21 2 51 15q12 5 25 7q6 2 7 -4zM378 109q0 2 -1 26.5t-1.5 56t-0.5 51.5q0 103 -1 128q0 15 -21 25l-10.5 5t-11 5.5t-10 4.5t-12 4.5t-12 3.5t-14 3t-15.5 1.5t-18 0.5q-66 0 -112 -53q-40 -46 -40 -141q0 -39 12.5 -77.5t26.5 -54.5q16 -18 26.5 -27.5t34.5 -20t53 -10.5
q59 0 120 45q7 5 7 24z" />
    <glyph glyph-name="e" unicode="e" horiz-adv-x="436" 
d="M419 68l-4 -4q-27 -29 -72 -49q-53 -21 -104 -21q-87 0 -141 49q-29 25 -46.5 68.5t-18.5 80.5q0 56 11 96q17 66 62 107q28 27 56 38t70 11q32 0 60 -12q31 -12 57 -34q31 -26 56 -71q1 -2 3.5 -5t2.5 -6q0 -6 -11 -8q-8 0 -31 -4l-49 -8.5l-32 -5.5l-136 -20
q-2 0 -25 -4t-27 -6q-5 -4 -5 -21q2 -105 68 -162q51 -42 139 -42q41 0 82 19q13 5 21 13q2 1 4.5 3t3.5 2q4 4 6 1q1 -3 0 -5zM319 319q1 3 -4 17q-20 48 -48 68q-36 24 -73 24t-67 -42q-8 -13 -18 -46t-11 -52q-1 -12 3 -13q12 -1 65 6q134 23 145 28q7 3 8 10z" />
    <glyph glyph-name="f" unicode="f" horiz-adv-x="295" 
d="M327 721q0 -10 -8.5 -19t-24.5 -9q-32 0 -78 46q-8 5 -12 5q-23 0 -34 -16q-24 -27 -19 -155q0 -81 3 -136q1 -5 1 -6.5t1.5 -2.5t4.5 -1l106 1q5 0 5 -2v-10q0 -2 -1 -2.5t-4 0.5t-5 1q-3 0 -48.5 -1.5t-48.5 -1.5q-5 0 -6.5 -1t-1.5 -6v-299q0 -69 16 -90l78 -5
q3 0 7 -2q2 -1 2 -4t-2 -4q-3 -1 -8 -1h-236q-3 0 -4 1q-2 1 -2.5 4t1.5 4q2 2 6 2l62 5q11 1 12 10q3 12 3 118v252q0 8 -1 10t-6 2l-45 -2q-4 0 -6.5 0.5t0.5 3.5q1 7 3 10q4 4 10 4q2 0 17 0.5t20 0.5q7 0 7 8q0 89 1 104q3 133 54 189q32 37 107 37q30 0 52 -14.5
t22 -27.5z" />
    <glyph glyph-name="g" unicode="g" horiz-adv-x="457" 
d="M474 -107q0 -66 -57 -117q-71 -62 -206 -62q-107 0 -157 38q-42 31 -42 90q0 50 49 91q29 24 93 41l4 2q0 2 -4 2q-37 -1 -66 13t-29 49q0 49 63 90q11 4 -7 13q-21 10 -41 30q-37 35 -37 105q0 69 46 117q48 48 132 48q25 0 85 -12q48 -11 93 -11q28 0 51 13q5 3 9.5 7
t6.5 6.5t3 1.5q3 -2 1 -16q-12 -32 -18 -39q-10 -10 -32 -8q-25 3 -66 21q-25 10 -28 7q0 -1 23 -21q18 -17 31 -45.5t13 -58.5q0 -71 -50 -121q-45 -45 -131 -45q-34 0 -55 7q-7 2 -15 -2q-34 -22 -34 -49q0 -30 48 -36q36 -4 63 -4q89 0 140.5 -11.5t84.5 -42.5
q36 -33 36 -91zM319 261q0 71 -39 118q-35 47 -96 47q-49 0 -65 -24q-22 -31 -22 -90q0 -24 9.5 -61t20.5 -55q39 -61 103 -61q45 0 67 26q22 24 22 100zM422 -133q0 19 -15.5 42.5t-44.5 35.5q-59 23 -151 23q-43 0 -67.5 -9t-47.5 -29q-37 -33 -37 -84q0 -56 36 -83
q47 -36 137 -36q52 0 91 14t53 27q46 39 46 99z" />
    <glyph glyph-name="h" unicode="h" horiz-adv-x="515" 
d="M506 3q-3 -3 -7 -3h-185q-7 0 -8 2q-3 3 0 6q1 5 7 5l47 3q8 0 9 12q6 45 6 119q0 113 -1 122q-3 65 -21 90q-24 30 -78 30q-63 0 -116 -38q-6 -4 -6 -12q0 -1 0.5 -93t0.5 -98q0 -132 16 -132l56 -4q6 0 8 -3q1 -1 0.5 -3.5t-1.5 -3.5q-1 -2 -7 -2h-200q-6 0 -6 3
q-2 3 0 5q3 4 7 4l48 4q12 2 13 15q2 126 2 584q0 42 -4.5 77.5t-16.5 34.5l-57 -1q-6 0 -6 4q0 5 1 7q1 3 6 3h19q36 0 84 12l41 14q6 2 8.5 -1.5t-1.5 -10.5q-2 -3 -6 -160.5t-4 -218.5q0 -7 1 -9t6 0q17 9 39 26l40 27q43 25 90 25q36 0 70 -31q40 -37 40 -109
q0 -163 -3 -184q-2 -14 0.5 -58t9.5 -46l52 -2q6 0 7 -5q4 -4 0 -6z" />
    <glyph glyph-name="i" unicode="i" horiz-adv-x="251" 
d="M246 2q-2 -2 -9 -2h-221q-6 0 -7 1q-3 3 -1 8q5 3 7 3l62 5q10 0 11 10q4 44 4 250q0 101 -8 122q-6 15 -16 16l-45 -1l-7 2q-1 2 -1 8q0 4 5 4l26 1q5 0 17.5 1t29.5 2.5t27 2.5l37 6q8 0 7 -8q-1 -3 -3.5 -139.5t-2.5 -157.5q0 -118 21 -120l59 -3q6 0 8 -2q2 -1 2 -4
t-2 -5zM174 623q0 -27 -21.5 -46t-40.5 -19q-34 0 -34 34q0 20 18.5 42t46.5 22q13 0 20.5 -8.5t9 -14.5t1.5 -10z" />
    <glyph glyph-name="j" unicode="j" horiz-adv-x="246" 
d="M172 415q0 -4 -1.5 -223.5t-1.5 -225.5q0 -89 -22 -145q-16 -44 -53 -71q-34 -27 -83 -27q-28 0 -46 11.5t-18 27.5q0 14 10 23.5t27 4.5q18 -4 45 -34q14 -14 29 -12q27 3 37 42q14 56 10 133q-5 120 -5 400q0 93 -28 95l-44 1q-6 0 -7 1v9q0 3 4 3h42q13 0 55 6
q8 1 16.5 2.5l14 2.5t6.5 1q15 0 13 -25zM182 623q0 -26 -21.5 -45.5t-41.5 -19.5q-33 0 -33 33q0 21 18 43t46 22q16 0 24 -11.5t8 -21.5z" />
    <glyph glyph-name="k" unicode="k" horiz-adv-x="507" 
d="M514 9q2 -1 1.5 -4t-2.5 -3q-4 -2 -8 -2h-110q-9 0 -16 6q-3 3 -36.5 43.5t-43.5 53.5q-2 3 -75 94q-3 5 -8 6t-7 -2q-38 -26 -48 -29q-5 -2 -5 -15q0 -132 16 -141l60 -4q6 0 8 -3v-6q-3 -3 -8 -3h-202q-5 0 -6 2q-3 3 -1 6q2 2 6 3l52 6q12 0 12 12q1 12 1 583
q0 47 -5.5 81.5t-20.5 33.5l-46 -1q-8 0 -8 4t1 7t7 3l31 1q32 0 71 12q8 2 20.5 7.5t17.5 6.5q3 1 4.5 -0.5t1 -4.5t-0.5 -4.5t-1 -3.5q-1 -5 -5.5 -256t-4.5 -300q0 -9 1.5 -11.5t5.5 -1.5q20 11 87 63q70 58 107 100q31 35 31 51q0 5 -8.5 9.5t-18.5 5.5q-23 2 -33 2
q-7 0 -7 2q-3 2 -1 8q0 3 8 3q2 0 24 -1t30 0q39 -2 68 2q33 3 33 -4q3 -15 -6 -15q-14 0 -26 -10q-39 -30 -75 -63q-39 -36 -101 -85q-5 -4 -1 -11t38.5 -51l44.5 -56l69 -82q33 -33 49 -38q7 -3 29 -3q8 0 10 -3z" />
    <glyph glyph-name="l" unicode="l" horiz-adv-x="252" 
d="M245 2q-1 -2 -5 -2h-225q-4 0 -5 1t-1 7q0 3 5 3l65 5q13 2 14 12q1 15 1 298.5v287.5q0 114 -21 113l-57 -1q-5 0 -5 2q-1 1 -1 7q0 4 4 4l36 1q25 0 80 15l30 11q7 2 9.5 -0.5t-1.5 -7.5q-3 -15 -6.5 -300.5t-3.5 -332.5q0 -106 16 -108l66 -5q3 0 5 -2q2 -1 2 -4
t-2 -4z" />
    <glyph glyph-name="m" unicode="m" horiz-adv-x="774" 
d="M755 4q-3 -4 -9 -4h-182q-6 0 -6 4q0 3 1 4q0 4 5 4l42 3q7 0 10 8q7 30 7 220q0 93 -20 116q-14 18 -30 24.5t-44 6.5q-65 0 -101 -36q-4 -5 -4 -13q0 -3 -1 -112t-1 -115q0 -99 15 -98l54 -2q5 0 5 -5q0 -4 -1 -5q0 -4 -4 -4h-187q-5 0 -6 3v5q0 4 5 4l47 3q9 1 9 15
q0 4 -1 140t-1 142q0 32 -18.5 55.5t-60.5 23.5q-66 0 -114 -40q-6 -5 -6 -12q0 -3 -1 -111.5t-1 -113.5q0 -93 14 -98l55 -1q7 0 7 -6v-6q-2 -3 -6 -3h-200q-7 0 -7 4q0 3 2 5q0 3 5 3l53 3q8 0 8 12q2 34 3.5 166.5t0.5 152.5q0 4 -1 15t-1.5 19t-2.5 17.5t-5 14t-8 4.5
l-43 -1q-6 0 -7 3q-2 2 -1 6t7 4l59 4l34 3q5 1 14.5 3.5t11.5 2.5q9 0 9 -9q0 -2 0.5 -28t0.5 -30q0 -5 2 -7.5t5 -0.5l52 36q5 2 37 25q22 16 67 16q40 0 66 -21q21 -19 29 -45q6 -13 8 -13q9 10 40 31q29 21 37 25q36 20 68 20q51 0 86 -34q6 -6 11 -13t8.5 -16t6 -17
t4 -19l2.5 -18t1.5 -19.5t0.5 -17.5v-16.5v-13.5q0 -4 -2 -88.5t-2 -88.5q0 -61 12 -63l51 -2q6 0 7 -4v-6z" />
    <glyph glyph-name="n" unicode="n" horiz-adv-x="521" 
d="M510 3q-2 -3 -9 -3h-186q-5 0 -6 3q-2 4 0 6q1 3 6 3q43 3 48 3t8 9q8 59 8 231q0 84 -25 108q-27 24 -75 24q-54 0 -112 -34q-7 -5 -7 -13q-3 -21 -3 -224q0 -100 14 -100l54 -2q7 0 7 -5t-1 -5q0 -4 -6 -4h-201q-5 0 -6 3q-1 1 -1 5t7 4l57 3q4 0 6 8q2 11 4 155.5
t0 174.5q-3 64 -16 63l-45 -1q-6 0 -6 4v6q0 3 5 3l50 3q1 0 20 1.5t24 2.5q3 1 13 3.5t14 2.5q8 0 8 -13q0 -3 1 -27t1 -28q0 -7 1 -8.5t5 0.5q17 10 51.5 33.5t35.5 24.5q31 20 77 20q47 0 81 -36q8 -8 14 -17t9.5 -20t5.5 -18.5t3 -21.5t1 -19v-20.5v-17.5
q0 -31 -1.5 -107.5t-1.5 -81.5q0 -68 12 -68l49 -2q7 0 7 -3q5 -2 1 -8z" />
    <glyph glyph-name="o" unicode="o" horiz-adv-x="494" 
d="M464 221q0 -25 -7.5 -58.5t-16.5 -50.5q-33 -66 -86 -94q-43 -24 -104 -24q-51 0 -95 17q-62 27 -90 81q-33 58 -33 125q0 31 6 57t12 39t18 34q32 51 84 77q45 21 120 21q54 0 98 -27q50 -31 73 -82q21 -52 21 -115zM398 198q0 101 -50 161q-53 62 -135 62
q-41 0 -55.5 -6.5t-26.5 -24.5q-29 -40 -29 -128t33 -164q9 -21 28 -41.5t33 -29.5q32 -20 73 -20q39 0 69 15q29 19 46 69q14 37 14 107z" />
    <glyph glyph-name="p" unicode="p" horiz-adv-x="545" 
d="M507 215q0 -44 -19 -87.5t-49 -73.5q-59 -57 -162 -57q-28 0 -62 11t-50 20q-12 4 -12 -4v-191q0 -91 23 -93q47 -3 65 -3q6 -2 6 -4v-6q-1 -4 -5 -4h-229q-6 0 -6 2q-4 4 -1 7q2 3 7 3l66 5q6 0 8 8q3 11 3 580q0 88 -16 87l-53 -3q-5 0 -6 2q0 1 -0.5 3t-0.5 4
q0 4 0.5 4.5t4.5 0.5l39 3q5 0 59 8q5 1 16 3.5t13 2.5q14 4 14 -1q0 -1 -3 -5q-1 -4 -1 -60q0 -9 1 -11.5t6 0.5q34 30 72 53q34 21 89 21q72 0 119 -51q64 -66 64 -174zM445 197q0 34 -15.5 74.5t-34.5 61.5q-48 52 -122 52q-54 0 -77 -12q-32 -18 -37 -25q-3 -3 -3 -10
q0 -3 -0.5 -138.5t-0.5 -140.5q0 -10 3 -13q62 -34 133 -34q33 0 66.5 14t53.5 33q21 25 27.5 55.5t6.5 82.5z" />
    <glyph glyph-name="q" unicode="q" horiz-adv-x="536" 
d="M540 -218q-1 -1 -9 -4q-2 -1 -22.5 -7l-45.5 -14t-40 -14q-11 -4 -25 -11l-13 -7q-3 -1 -5.5 -0.5t-4 2.5t1.5 6q6 12 7 23q0 4 1 23t2 42.5t1 31.5q0 15 0.5 111t0.5 97q2 10 -1 11t-10 -6q-17 -17 -56 -38q-53 -31 -108 -31q-39 0 -75.5 17.5t-57.5 40.5
q-51 62 -51 164q0 89 67 158q58 64 147 64q60 0 117 -30q39 -21 50 -19t19.5 18t10.5 33q1 13 9 13q7 0 7 -13q0 -2 -2.5 -290t-2.5 -298q0 -69 9 -78q3 -3 7 -3q16 2 51 14q12 3 14 3q5 0 7 -3q4 -4 0 -6zM391 104q0 216 -7 266q-3 11 -8 16q-58 40 -134 40q-62 0 -107 -59
q-38 -50 -38 -130q0 -83 52 -143q40 -46 107 -46q45 0 80 11.5t49 28.5q6 6 6 16z" />
    <glyph glyph-name="r" unicode="r" horiz-adv-x="378" 
d="M378 395q-1 -6 -9.5 -31.5t-11.5 -30.5q-3 -7 -6.5 -11t-5.5 -3q-1 0 -1 6q2 11 -4 23.5t-13 17.5q-32 22 -64 22q-58 0 -99 -37q-6 -6 -6 -13q0 -3 -0.5 -112t-0.5 -115q0 -92 16 -96l72 -2q7 0 7 -4v-6q-1 -3 -5 -3h-215q-7 0 -7 3q-1 1 -1 4q0 4 7 5l46 3q9 0 11 9
q4 28 4 321q0 72 -19 71l-46 -1q-5 0 -6 2v7q0 4 6 4l56 3q1 0 17.5 1.5t21.5 2.5t18.5 4.5t15.5 3.5q12 0 3 -9q0 -45 -2 -63q-3 -11 1 -12q1 -1 4 2q5 7 40 31t36 25q21 16 34.5 21t37.5 5q22 0 41 -12t25 -21q3 -6 2 -15z" />
    <glyph glyph-name="s" unicode="s" horiz-adv-x="400" 
d="M361 127q0 -50 -32 -87q-40 -46 -122 -46q-100 0 -157 52q-4 -6 -5 0v10q0 5 0.5 27.5t1.5 44.5t1 24q3 7 5 7q3 0 6 -7q0 -3 1 -8l2.5 -12t2.5 -11q14 -56 40 -85q10 -12 29 -19q30 -11 74 -11q47 0 84 27q25 21 25 63q0 12 -6.5 27t-13.5 20q-28 21 -67 35
q-51 17 -57 20q-27 11 -43.5 20.5t-35 25t-27.5 37t-9 49.5q0 44 29 75q41 41 113 41q92 0 134 -42q6 5 6 -1q0 -2 -1 -6v-4q-4 -19 -4 -75q-3 -10 -6 -10q-4 -1 -7 5q-16 59 -30 88q-8 16 -19 22q-30 12 -67 12q-53 0 -82 -27q-26 -24 -26 -55q0 -7 2 -14t4 -12.5t7 -11
l8 -9t10.5 -8.5l10.5 -7t12 -6t11 -5t11 -5l10 -4q24 -10 72 -25q47 -15 72 -38q33 -30 33 -81z" />
    <glyph glyph-name="t" unicode="t" horiz-adv-x="353" 
d="M328 60q0 -5 -5 -8q-13 -13 -49 -31q-2 -1 -8.5 -4t-8.5 -4l-8 -4t-8.5 -3.5t-8 -2.5t-9 -2.5t-9 -2t-10.5 -1.5t-12 -0.5t-14 -0.5q-51 0 -77 27.5t-26 74.5q0 7 2.5 106t2.5 104q0 6 -1 49t-1 46q0 9 -9 10h-40q-7 1 -7 7q0 5 13 8q79 11 104 134q1 7 2.5 10.5t6.5 2.5
q7 -1 5 -16q0 -11 -1 -39t-2 -49.5t-1 -26.5q-1 -7 -0.5 -11t5.5 -3q4 0 78.5 1t77.5 1q7 0 8.5 -1t-0.5 -5q0 -2 -5 -10q-3 -4 -11 -4h-146q-5 1 -7 -1.5t-1 -7.5q-1 -5 -3 -132.5t-2 -141.5q0 -42 13 -63q23 -34 71 -34q41 0 65 13q9 4 28 18q4 3 8 -3z" />
    <glyph glyph-name="u" unicode="u" horiz-adv-x="528" 
d="M501 45q1 -3 -3 -8t-8 -7l-42 -23q-3 -1 -13 -8t-13 -8q-10 -5 -12 -4q-3 0 -4.5 2t-2.5 6t-2 6q-21 14 -32 63q-1 9 -8 1q-9 -9 -37 -27t-50 -27q-40 -17 -88 -17q-43 0 -71 30q-26 27 -26 80q0 5 0.5 92t0.5 96q0 123 -19 124l-47 -2q-7 0 -8 3v8q0 3 8 3l46 3
q7 0 25.5 1.5t21.5 1.5l34 4q14 0 3 -9v-300q0 -93 81 -93q73 0 126 41q5 5 4 8q0 2 0.5 62t1 134t0.5 94q0 40 -18 40l-53 -2q-5 0 -6 4v1q-1 4 0 6q1 3 5 3l55 3q2 0 22.5 0.5t24.5 0.5q3 0 13 1.5t14 1.5q9 0 9 -18q0 -1 -1 -142.5t-1 -150.5q-1 -50 12.5 -66.5
t41.5 -15.5q2 -1 4.5 0t4.5 2t3.5 2t2 1t1.5 -1z" />
    <glyph glyph-name="v" unicode="v" horiz-adv-x="475" 
d="M487 417q-3 -3 -6 -3l-38 -1q-6 0 -10 -12l-18 -37t-21 -45l-34 -71.5l-60.5 -128.5t-31.5 -68l-12 -24.5t-12 -25.5q-6 -14 -10 -14h-2q-2 0 -2 15q-1 4 -48 106t-51 109q-12 24 -67 153q-18 44 -33 44l-25 2q-6 0 -9 2q-10 6 3 8q3 2 12 2l174 2q5 0 6 -4v-6
q-1 -5 -5 -5h-51q-6 0 -11 -6q0 -1 6 -26q15 -45 54 -126q54 -120 71 -153q8 -18 10 -26l5 10.5l7 14.5q51 102 66 142q13 30 27 79.5t14 71.5q0 19 -12 19l-39 1q-5 0 -6 2v6q6 5 17 5l133 1q7 0 8 -4q1 -3 1 -9z" />
    <glyph glyph-name="w" unicode="w" horiz-adv-x="759" 
d="M766 418q-1 -5 -5 -5h-38q-5 0 -12 -15q-1 -4 -12 -27l-24 -49t-15 -31q-119 -256 -137 -290q-8 -15 -11 -15q-1 0 -3 14q-1 5 -43 99.5t-46 101.5q-24 58 -31 70q-7 21 -13 1q-3 -9 -98 -201q-29 -52 -34 -71q-6 -14 -10 -14q-2 0 -2.5 3t0 6t-0.5 6l-101 218
l-24.5 54.5l-30 68t-14.5 32.5q-16 39 -30 39l-24 2q-8 0 -11 4q-2 1 -2.5 3.5t2.5 3.5q3 2 13 2l173 2q5 0 7 -4v-8q0 -3 -6 -3l-48 -1q-7 0 -11 -6q-1 -1 5 -21l54 -130l76 -163q5 -9 8 -9t11 15q3 4 18 35.5l31 64.5l17 35q8 20 25 71q0 10 -3 15q-23 53 -23 54
q-17 38 -30 39l-27 1q-6 0 -11 3q-2 1 -2.5 3.5t2.5 3.5q5 3 14 3l174 2q6 0 7 -4v-7q0 -4 -6 -4l-52 -1q-6 0 -7 -5q-2 -4 6 -22q14 -42 57 -138q71 -157 72 -159q5 -10 6 -10q2 0 4 5q5 8 41.5 88.5l40.5 89.5q12 28 22.5 70.5t10.5 61.5q0 20 -13 20h-40q-7 0 -8 4
q-2 3 1 6t10 3l143 2q5 0 7 -5q1 -1 1 -7z" />
    <glyph glyph-name="x" unicode="x" horiz-adv-x="496" 
d="M509 3q-1 -3 -7 -3h-183q-4 0 -6 5q-1 4 0 6q1 3 7 3l35 3q7 0 7 5q0 4 -9 18l-115 158q-3 6 -10 1q-44 -37 -88 -87q-37 -41 -40 -76q0 -20 12 -20l62 -2q5 0 8 -4q1 -1 0.5 -3.5t-1.5 -3.5q-2 -3 -8 -3h-166q-8 0 -11 3q-2 1 -3 3t2 3q1 0 4 1.5t7 1.5l41 3q10 1 17 15
l13 26q23 41 84 98l60 54q6 5 3 8q-61 83 -65 89q-21 28 -73 88q-19 19 -37 19h-25q-4 0 -7 4q-1 4 0 8q0 4 7 4h186q5 0 5 -4q3 -3 1 -8q-1 -4 -7 -4h-31q-14 0 -14 -6q0 -5 8 -14l9 -10l92 -124q5 -5 9 -1q63 54 89 96q17 27 18 43q0 6 -4.5 10.5t-11.5 4.5l-56 1
q-6 0 -6 5v7q1 4 7 4h167q5 0 5 -4q1 -2 1 -7t-7 -5l-32 -1q-14 0 -23 -16q-29 -42 -91 -101q-3 -3 -22.5 -19.5t-26.5 -23.5q-5 -7 -3 -10l120 -162q47 -63 64 -64l32 -1q6 0 7 -3q3 -5 0 -8z" />
    <glyph glyph-name="y" unicode="y" horiz-adv-x="434" 
d="M450 424q0 -4 -1 -5q-1 -3 -6 -3l-31 -1q-8 0 -13 -9q-6 -8 -18 -39t-29 -80t-19 -53q-32 -92 -110 -272q-1 -3 -46.5 -98t-56.5 -131q-4 -8 -11 -6l-56 -7l-48 -8q-18 -3 -18 7q0 4 2.5 5.5t5.5 0.5t6 0q30 11 61.5 32.5t47.5 40.5q25 33 60.5 94t45.5 88q2 4 -4 18
q-76 159 -105 233l-66 149q-12 33 -28 34l-29 2q-5 0 -6 3q-3 4 -1 6q2 3 7 3l185 2q3 0 4.5 -1.5t2.5 -1.5v-7q-3 -4 -7 -4l-49 -2q-11 0 -11 -10q0 -6 4 -18q5 -20 58 -141q6 -12 37.5 -82.5t34.5 -78.5q3 -9 5 -11.5t4.5 0t6.5 11.5q29 54 58 148q37 111 37 145
q0 37 -17 37l-51 3q-6 0 -9 3t-1 7q5 4 8 4l158 -3q8 0 8 -4z" />
    <glyph glyph-name="z" unicode="z" horiz-adv-x="436" 
d="M420 70l-12 -36q0 -1 -1 -6.5t-2.5 -11.5l-2.5 -10q0 -9 -8 -4l-369 2q-10 -7 -12 -2q0 3 4.5 10t11.5 14.5t8 9.5q10 12 88.5 89l82.5 81q61 65 108 121q11 12 17.5 25t4.5 17q-3 4 -19 4l-117 1q-61 0 -97 -4q-40 0 -56 -8q-2 -1 -4.5 -5l-4 -6.5t-3.5 -2.5q-4 1 -2 12
q0 1 3.5 6.5l9 14.5t7.5 12q2 5 7.5 13t9 14t3.5 9q1 8 8 3q2 -1 17 -1q5 -1 129.5 -4t136.5 -3q21 0 36 3q10 0 13 -4q1 -3 -8 -14q-26 -26 -59 -69q-12 -15 -128 -142q-60 -60 -116 -123q-11 -14 -10 -18q1 -2 13 -2l98 -2q69 -1 168 11q35 4 41 11q6 3 7 2.5t-1 -7.5z
" />
    <glyph glyph-name="braceleft" unicode="{" horiz-adv-x="315" 
d="M334 -244q0 -10 -1 -12q0 -2 -7 -2q-54 -1 -95 -1q-78 0 -117.5 56t-39.5 137q0 51 17.5 120.5t17.5 116.5q0 28 -19.5 51t-51.5 23q-18 0 -18 9q0 10 18 10q23 0 46.5 14t23.5 37q0 47 -17 106.5t-17 110.5q0 78 44 136t113 58q4 0 34.5 -0.5t60.5 -0.5q7 0 8 -2v-11
q-2 -3 -7 -3q-10 0 -32.5 0.5t-31.5 0.5q-58 0 -93 -61t-35 -139q0 -45 9 -102t6 -89q-3 -44 -84 -64q42 -6 67.5 -29.5t25.5 -58.5q0 -28 -11.5 -93.5t-11.5 -114.5q0 -80 33 -141t94 -61q44 0 64 1q3 2 7 -2z" />
    <glyph glyph-name="bar" unicode="|" horiz-adv-x="288" 
d="M156 -148q0 -9 -5 -14q-6 -6 -12 0q-6 4 -6 14q0 19 0.5 238t0.5 409.5t-1 252.5q0 10 6 14q6 6 12 0q5 -5 5 -14v-900z" />
    <glyph glyph-name="braceright" unicode="}" horiz-adv-x="315" 
d="M298 254q0 -9 -20 -9q-30 0 -49.5 -23.5t-19.5 -50.5q0 -47 17.5 -116.5t17.5 -120.5q0 -81 -39.5 -137t-117.5 -56q-40 0 -95 1q-7 0 -7 2v11q0 3 6 3q10 0 32.5 -0.5t31.5 -0.5q61 0 94 61t33 141q0 49 -11.5 115.5t-11.5 94.5q1 35 26.5 57.5t67.5 28.5q-82 21 -85 64
q-3 32 6 89t9 102q0 78 -35 139t-93 61q-9 0 -32 -0.5t-33 -0.5q-6 0 -6 3v11q0 2 7 2q33 0 62.5 0.5t33.5 0.5q69 0 113 -58t44 -136q0 -51 -17 -110.5t-17 -106.5q0 -23 22.5 -37t45.5 -14q20 0 20 -10z" />
    <glyph glyph-name="asciitilde" unicode="~" horiz-adv-x="291" 
d="M289 256q1 -3 -3 -9q-11 -15 -37.5 -36.5t-50.5 -21.5t-60 20q-54 30 -72 30q-9 0 -22 -7t-19 -18q-2 -5 -7 -7q-2 -2 -8 8l-1 1q0 2 1.5 4.5t1.5 4.5q8 17 36 37.5t54 20.5q19 0 59 -18q7 -3 17.5 -9t16.5 -9l13.5 -6.5t14 -5t12.5 -1.5q16 0 39 23q2 2 3.5 4.5t2.5 3.5
q2 1 5 -2.5t4 -6.5z" />
    <glyph glyph-name="nbspace" unicode="&#xa0;" horiz-adv-x="210" 
 />
    <glyph glyph-name="exclamdown" unicode="&#xa1;" horiz-adv-x="213" 
d="M153 -50q16 -11 1 -8q-3 0 -6 1q-19 4 -31 11q-13 7 -36 16q-15 5 -15 16q-4 79 -3 126q1 52 11.5 124.5t23 138.5l13.5 71q1 10 6 10t4 -15q0 -11 -1 -19l-5 -101q-1 -86 9 -197q5 -50 17 -124q7 -43 12 -50zM159 560q0 -19 -12.5 -31.5t-32.5 -12.5t-31.5 11.5
t-11.5 28.5q0 18 13 31.5t34 13.5q17 0 29 -11t12 -30z" />
    <glyph glyph-name="cent" unicode="&#xa2;" horiz-adv-x="441" 
d="M378 223q1 -3 -15 -16q-71 -59 -157 -59q-19 0 -34 2l-20 -68l-11 2l20 68q-12 4 -28 12q-43 23 -71 75q-25 45 -25 112q0 50 12 87q16 53 53 86q44 40 115 40q31 0 64 -11l28 91l11 -1l-28 -94q19 -10 38 -29q22 -20 22 -44q0 -13 -11 -14q-19 -3 -38 22q-11 13 -17 44
l-100 -332q29 -10 78 -10q53 0 94 29l10 8q4 4 6 4q3 -2 4 -4zM277 541q-11 6 -27 9q-16 4 -33 4q-20 0 -38 -4q-32 -7 -61 -38q-33 -37 -33 -129q0 -82 50 -146q16 -22 41 -37z" />
    <glyph glyph-name="sterling" unicode="&#xa3;" horiz-adv-x="525" 
d="M530 11q1 -7 -8 -10q-65 -24 -123 -24q-83 1 -143 49l-37 31q-51 -58 -112 -58q-100 0 -100 71q0 33 29.5 52.5t74.5 19.5q57 0 111 -28q17 43 17 77q0 33 -36 105q-61 0 -100 -7q-11 -2 -14 6q0 2 -2.5 7.5t-3.5 7.5q-1 8 7 8h98l-21 28q-65 81 -65 144q0 78 48 126
q47 46 130 46q47 0 74.5 -7.5t58.5 -25.5q24 -14 47 -37t26 -39q0 -5 -1 -6q-2 -2 -4 -2q-1 0 -10 10q-28 32 -66 49.5t-76 17.5q-65 0 -90 -12q-17 -8 -33.5 -23t-21.5 -23q-30 -36 -16 -104q12 -55 49 -113l19 -29l166 -4q6 0 6 -7v-6q0 -5 -5 -5h-156q23 -43 24 -83
q3 -56 -27 -110q1 -1 14 -8.5t21 -13.5q60 -43 113 -69q28 -13 47 -13q37 -1 80 11q1 1 2.5 1.5t5 1t3.5 -1.5zM201 72q-16 19 -45 34.5t-56 15.5q-33 0 -55 -13t-22 -40q0 -60 84 -60q61 0 94 63z" />
    <glyph glyph-name="yen" unicode="&#xa5;" horiz-adv-x="590" 
d="M588 633q0 -3 -4 -3h-31q-12 0 -28 -26l-90 -148l-22 -34h126q6 0 6 -6v-8q0 -4 -5 -4h-138l-65 -105q-4 -8 -4 -16v-30h206q6 0 6 -5v-8q0 -5 -5 -5h-207q0 -27 -0.5 -70t-0.5 -47q0 -103 20 -103l83 -2q2 0 5 -3t1 -8q-2 -2 -7 -2h-262q-6 0 -7 3q-2 5 -1 6q3 3 7 3
l76 4q6 1 10 11q6 32 3 208h-196q-8 0 -8 6v7q0 5 7 5h197q-1 15 -1 27q0 15 -3 20q-7 10 -66 104h-127q-7 0 -7 4v8q1 6 7 6h117q-15 22 -17 27l-99 158q-15 23 -41 23h-13q-3 0 -5 2q-1 2 -1 7q0 4 1 4.5t6 0.5h211q4 0 5 -3q2 -1 2 -6q0 -4 -0.5 -4.5t-4.5 -0.5h-57
q-13 0 -14 -11q-1 -4 6 -21q4 -9 38 -66l39 -65l27 -45h135q36 61 53 97q25 60 25 90q0 21 -20 21h-43q-5 0 -5 3q-1 1 -1 6t6 5h170q5 0 5 -4v-7zM388 405h-115q12 -20 31 -48.5l21 -31.5q6 -9 11 -3q14 17 52 83z" />
    <glyph glyph-name="section" unicode="&#xa7;" horiz-adv-x="422" 
d="M386 255q0 -90 -55 -158t-157 -68q-47 0 -80 13q-14 4 -25.5 16t-10.5 27t19 18.5t33 -3.5q13 -4 42 -29.5t42 -25.5q24 0 36.5 9.5t12.5 36.5q0 6 -14.5 20t-42 38.5t-44.5 42.5q-110 110 -112 212q-1 57 20.5 108t71 85.5t117.5 34.5q47 0 82 -14q37 -17 37 -43
q0 -16 -19.5 -19.5t-34.5 3.5q-12 4 -40 28.5t-41 26.5q-22 3 -36 0q-8 -52 86 -147q113 -113 113 -212zM353 226q-2 72 -71 133l-95 85q-40 37 -37 105q1 12 8 32.5t14 27.5q-106 -38 -99 -174q3 -67 70 -128q72 -62 96 -85q33 -31 41 -77q0 -8 -5 -22t-14 -37l-13 -33
q110 45 105 173z" />
    <glyph glyph-name="dieresis" unicode="&#xa8;" 
d="M246 565q0 -22 -18.5 -37.5t-33.5 -15.5q-28 0 -28 28q0 15 15 33.5t39 18.5q11 0 18.5 -8t7.5 -19zM99 565q0 -22 -18.5 -37.5t-33.5 -15.5q-28 0 -28 28q0 15 15 33.5t39 18.5q12 0 19 -8t7 -19z" />
    <glyph glyph-name="copyright" unicode="&#xa9;" horiz-adv-x="540" 
d="M512 409q0 -101 -71 -171.5t-171 -70.5t-171 70.5t-71 171.5t71 171.5t171 70.5t171 -70.5t71 -171.5zM493 409q0 96 -64 162.5t-159 66.5t-159.5 -66.5t-64.5 -162.5t64.5 -162.5t159.5 -66.5t159 66.5t64 162.5zM389 297q1 -2 -1 -5q-21 -23 -51 -36q-30 -14 -70 -14
q-59 0 -103 39.5t-44 117.5q0 47 21 86q16 33 53 60q44 32 110 32q20 0 45 -5q8 -1 31 -9q2 0 2 -3q0 -2 -2 -14q0 -3 -0.5 -13.5t-1.5 -12.5t-2 -6.5t-1.5 -7.5t-1.5 -3q-4 0 -2 9q0 16 -4 20q-11 14 -19 17q-19 14 -60 14q-56 0 -93 -43q-30 -32 -30 -113q0 -32 9.5 -64.5
t26.5 -48.5q39 -39 89 -39q22 0 47 14q16 7 29 29q7 8 7 21q0 6 2 8q4 0 4 -6q1 -3 3 -7.5t3 -6.5t2.5 -5.5t1.5 -4.5z" />
    <glyph glyph-name="ordfeminine" unicode="&#xaa;" horiz-adv-x="289" 
d="M290 394q-6 -10 -8 -13q-20 -20 -24 -22q-4 -3 -8 -3q-20 0 -35 15.5t-23 37.5q-2 9 -7 2q-18 -21 -35 -32q-33 -20 -61 -20q-24 0 -40 12q-21 15 -21 41q0 32 20 54q18 23 51 36q41 19 86 25q5 0 5 7q2 12 2 41.5t-2 41.5q-6 17 -18 26q-16 9 -38 9q-28 0 -43 -10
q-4 -3 -8 -10q0 -4 -1 -11t-1 -8q0 -12 -6 -25q-9 -20 -26 -18q-13 0 -13 18q0 12 14.5 31.5t32.5 29.5q35 21 86 21q33 0 53 -22q17 -19 17 -52q0 -27 -3 -74.5t-3 -54.5q0 -41 11 -56q14 -21 32 -23q2 0 5.5 2l6 3.5t2.5 0.5zM188 506q2 7 -6 7q-30 0 -56 -12
q-53 -22 -53 -61q0 -25 11 -35q15 -10 33 -10q38 0 63 25q6 4 6 21q-1 21 2 65zM284 309q0 -9 -3 -10.5t-20 -1.5h-212q-15 0 -19 2t-4 9v6q0 7 5 9t27 2q97 -2 194 0q22 0 27 -2t5 -9v-5z" />
    <glyph glyph-name="guillemotleft" unicode="&#xab;" horiz-adv-x="405" 
d="M370 98l-7 -1q-4 1 -11 7l-141 111q-13 11 -13 16q0 1 -0.5 7t-0.5 8q0 6 9 15q76 66 137 132q5 8 11 11q4 3 7 0l2 -7l-2 -4t-2 -3.5l-3 -4.5t-3 -5q-50 -75 -96 -133l-7 -8q9 -11 9 -12q56 -65 104 -113q6 -4 7 -9q3 -4 0 -7zM226 98l-7 -1q-3 1 -11 7q-47 35 -141 111
q-13 9 -13 16q0 1 -0.5 7t-0.5 8q0 7 9 15q76 66 137 132q4 7 10 11q5 3 8 0l1 -7q-1 -4 -10 -17q-23 -37 -95 -133l-7 -8q8 -11 9 -12q56 -65 104 -113q6 -4 7 -9q3 -4 0 -7z" />
    <glyph glyph-name="registered" unicode="&#xae;" horiz-adv-x="540" 
d="M512 409q0 -101 -71 -171.5t-171 -70.5t-171 70.5t-71 171.5t71 171.5t171 70.5t171 -70.5t71 -171.5zM493 409q0 96 -64 162.5t-159 66.5t-159.5 -66.5t-64.5 -162.5t64.5 -162.5t159.5 -66.5t159 66.5t64 162.5zM435 280q0 -3 -3 -3h-65q-5 0 -7 2q-12 11 -55 64
q-7 8 -40 58q-3 4 -4 4q-6 2 -29 2q-2 1 -2.5 0t-0.5 -3v-72q0 -47 10 -47h32q5 0 5 -3v-2q0 -3 -4 -3h-119q-4 0 -4 3v2q0 3 3 3h30q3 0 3 7v195q0 59 -7 59h-29q-3 0 -3 2v4q0 2 3 2h66h81q31 -5 50 -21q24 -21 24 -49q0 -6 -1 -12t-2.5 -9.5t-4 -8.5t-4 -7l-5.5 -7t-5 -6
q-10 -13 -40 -22q-4 0 -2 -3q6 -12 48 -61q33 -40 48 -50q21 -13 28 -13q5 0 5 -3v-2zM323 473q0 31 -21 48l-7 7q-7 6 -11.5 8.5t-16.5 5.5t-28 3q-5 0 -8 -1h-1q-1 -3 -1 -78v-47q0 -3 3 -4h21q7 0 14.5 0.5t12.5 1.5t6 1q37 9 37 55z" />
    <glyph glyph-name="macron" unicode="&#xaf;" 
d="M233 549q-2 -8 -11 -12q-40 -3 -137 -3q-36 0 -52 6q-5 3 -5 11q2 9 11 13q10 2 71.5 3t64.5 1q39 0 53 -8q5 -3 5 -11z" />
    <glyph glyph-name="degree" unicode="&#xb0;" horiz-adv-x="282" 
d="M230 577q0 -37 -26 -62.5t-63 -25.5t-63 25.5t-26 62.5t26 63t63 26t63 -26t26 -63zM208 577q0 28 -20 49t-47 21t-47 -21t-20 -49t20 -48t47 -20t47 20t20 48z" />
    <glyph glyph-name="acute" unicode="&#xb4;" 
d="M221 587q-12 -9 -20 -13l-85.5 -50.5t-71.5 -41.5q-3 -2 -7.5 -2.5t-6.5 0.5q-3 1 -2 5.5t7 7.5q90 78 111 99q7 7 14 7q4 0 26.5 -2t30.5 -2q16 0 4 -8z" />
    <glyph glyph-name="paragraph" unicode="&#xb6;" horiz-adv-x="502" 
d="M458 651q-4 -3 -9 -3h-24q-2 0 -4 -1t-3 -3t-1.5 -4t-1 -6t-0.5 -6.5t-0.5 -7.5t-0.5 -7q-2 -30 -2 -263q0 -55 -0.5 -84.5t-3.5 -74t-9.5 -68.5t-18.5 -53t-29.5 -43.5t-44 -25t-61.5 -10.5q-45 0 -77 12q-34 11 -34 38q0 30 50 16q11 -3 37.5 -27t39.5 -24
q19 0 29.5 29t10.5 73v188q0 4 -5 3q-37 -17 -89 -17q-84 0 -128 56q-45 58 -45 132q0 66 52 130q19 22 62.5 43t99.5 21q10 0 48.5 -1t62.5 -1h91q8 0 8 -3q4 -4 0 -8zM301 320q0 10 -0.5 79.5t-0.5 72.5q0 138 -3 168q-1 8 -2 9q-3 1 -23 1q-67 0 -108 -55
q-18 -24 -29 -62.5t-11 -69.5q0 -88 30 -127q24 -36 81 -36q38 0 61 11q5 3 5 9zM388 650q-46 0 -59 -1q1 -79 1 -231q0 -20 1.5 -81t1 -102t-3 -92.5t-12 -86t-24.5 -48.5q19 6 34.5 22.5t25 36t16.5 49.5t10.5 53t5 56.5t2 50.5t0 44.5t-0.5 29.5q0 10 -1 69t-0.5 117.5
t3.5 113.5z" />
    <glyph glyph-name="periodcentered" unicode="&#xb7;" horiz-adv-x="231" 
d="M162 350q0 -19 -15 -32t-34 -13q-48 0 -48 45q0 51 58 51q17 0 28 -13.5t11 -37.5z" />
    <glyph glyph-name="cedilla" unicode="&#xb8;" 
d="M216 -107q0 -29 -21 -49.5t-53 -20.5q-37 0 -61 24q-7 5 -4 12q5 7 12 3q23 -15 40 -15q49 0 49 54q0 19 -11.5 30t-28.5 11q-10 0 -24 -7q-6 -2 -14 6q-6 5 -1 14q25 33 32 45h17l-23 -39q12 4 18 4q33 1 53 -18.5t20 -53.5z" />
    <glyph glyph-name="ordmasculine" unicode="&#xba;" horiz-adv-x="337" 
d="M317 515q0 -44 -16 -76q-22 -43 -60 -64q-31 -17 -71 -17q-42 0 -64 11q-44 20 -62 56q-23 46 -23 87q0 48 25 90q20 34 58 53q28 14 82 14q38 0 67 -18q34 -20 50 -57q14 -34 14 -79zM270 499q0 70 -34 109q-35 41 -90 41q-29 0 -38 -3.5t-17 -16.5q-19 -26 -19 -86
q0 -61 22 -111q6 -14 19 -28t23 -20q21 -14 48 -14q26 0 46 11q17 10 31 46q9 27 9 72zM312 309q0 -9 -3.5 -10.5t-19.5 -1.5h-240q-16 0 -19.5 2t-3.5 9v6q0 5 1 6.5t8 3t23 1.5q111 -1 222 0q21 0 26.5 -2t5.5 -9v-5z" />
    <glyph glyph-name="guillemotright" unicode="&#xbb;" horiz-adv-x="405" 
d="M208 245q0 -1 -0.5 -7t-0.5 -8q0 -4 -1.5 -6t-5.5 -5t-6 -5l-141 -111l-11 -7q-5 -1 -7 1v7q1 4 7 10q54 54 104 112l9 12q-5 5 -7 9q-68 89 -96 132q-1 2 -5 8t-5 9q-1 4 2 7h7q6 -2 11 -11q61 -66 137 -132q9 -9 9 -15zM352 245q0 -1 -0.5 -7t-0.5 -8q0 -5 -13 -16
q-127 -101 -141 -111l-11 -7q-4 -1 -7 1v7q1 4 7 10q54 54 104 112l9 12l-7 9q-68 90 -95 132q-9 13 -10 17q-2 4 1 7h8q6 -4 10 -11q61 -66 137 -132q9 -8 9 -15z" />
    <glyph glyph-name="questiondown" unicode="&#xbf;" horiz-adv-x="310" 
d="M278 10q0 -6 -12 -22q-16 -25 -19 -27q-4 -5 -13 -7q-15 -3 -40 -3q-41 0 -74 17.5t-51 39.5q-39 47 -39 112q0 69 69 140q19 19 78 62q7 5 7 14t-3 15q-15 27 -28 40q-16 19 -35 19q-1 0 -5 -1.5t-6 -2t-3 1.5q0 2 5.5 6t5.5 5q2 2 14 13l25 15q13 8 18 8q6 0 17 -11
q25 -25 37 -59q5 -13 5 -21q0 -11 -7 -18q-9 -8 -30 -24.5t-32.5 -29t-24.5 -31.5q-41 -61 -41 -134q0 -21 15 -50.5t40 -45.5q40 -25 91 -25q18 0 26 8q5 5 8 3.5t2 -7.5zM203 555q0 -43 -55 -43q-12 0 -20 9.5t-8 24.5q0 46 49 46q16 0 25 -10.5t9 -26.5z" />
    <glyph glyph-name="Agrave" unicode="&#xc0;" horiz-adv-x="653" 
d="M652 5q2 -2 -2 -4q-8 -1 -30 -1h-110q-67 0 -80 1q-5 5 -7 5q-3 3 3 5t23 2q5 0 26.5 2t20.5 4q4 1 -1 24t-9 31q-1 2 -17.5 46.5l-33.5 87.5t-19 46q-1 1 -12.5 1.5t-26 1t-21.5 1.5q-29 5 -176 2q-8 -4 -24 -42q-6 -12 -21 -60.5t-18 -63.5q-9 -41 -2 -58
q2 -8 15.5 -15.5t25.5 -7.5q37 0 37 -1q5 -2 5 -8q0 -1 -2 -3q-1 0 -15 -0.5t-16 -0.5h-93q-56 0 -63 1q-2 1 -5 7q-1 0 -1 1t1 2q2 2 12 2q25 0 28 9q16 8 56 100q4 8 60 143.5t59 143.5q4 9 55 132.5l54 130.5q4 11 8 15q1 0 7.5 4t9.5 5q7 5 15 2l-2 -6q0 -1 -5.5 -6.5
t-6.5 -7.5q0 -11 1 -15q0 -9 27 -83q3 -7 25.5 -73t25.5 -74q4 -10 32.5 -90.5l32.5 -91.5q71 -188 90 -222q8 -16 32 -16q26 0 26 -1q3 -2 6 -7zM406 288q-34 102 -42 122q-2 4 -14 42l-24.5 76.5t-12.5 39.5q-3 12 -4 12q-3 0 -13 -20l-58 -134l-29.5 -72t-27.5 -68
q-4 -10 2 -10h61.5h94h64.5q8 0 3 12zM425 715q-5 -3 -12 0q-61 40 -157 95q-13 6 -18 13q-4 4 -3 6t7 1q30 7 55 9q5 1 12 -6q15 -16 58 -56.5t56 -51.5q6 -5 2 -10z" />
    <glyph glyph-name="Aacute" unicode="&#xc1;" horiz-adv-x="653" 
d="M652 5q2 -2 -2 -4q-8 -1 -30 -1h-110q-67 0 -80 1q-5 5 -7 5q-3 3 3 5t23 2q5 0 26.5 2t20.5 4q4 1 -1 24t-9 31q-1 2 -17.5 46.5l-33.5 87.5t-19 46q-1 1 -12.5 1.5t-26 1t-21.5 1.5q-29 5 -176 2q-8 -4 -24 -42q-6 -12 -21 -60.5t-18 -63.5q-9 -41 -2 -58
q2 -8 15.5 -15.5t25.5 -7.5q37 0 37 -1q5 -2 5 -8q0 -1 -2 -3q-1 0 -15 -0.5t-16 -0.5h-93q-56 0 -63 1q-2 1 -5 7q-1 0 -1 1t1 2q2 2 12 2q25 0 28 9q16 8 56 100q4 8 60 143.5t59 143.5q4 9 55 132.5l54 130.5q4 11 8 15q1 0 7.5 4t9.5 5q7 5 15 2l-2 -6q0 -1 -5.5 -6.5
t-6.5 -7.5q0 -11 1 -15q0 -9 27 -83q3 -7 25.5 -73t25.5 -74q4 -10 32.5 -90.5l32.5 -91.5q71 -188 90 -222q8 -16 32 -16q26 0 26 -1q3 -2 6 -7zM406 288q-34 102 -42 122q-2 4 -14 42l-24.5 76.5t-12.5 39.5q-3 12 -4 12q-3 0 -13 -20l-58 -134l-29.5 -72t-27.5 -68
q-4 -10 2 -10h61.5h94h64.5q8 0 3 12zM448 812q-12 -9 -20 -13l-85.5 -50.5t-71.5 -41.5q-3 -2 -7.5 -2.5t-6.5 0.5q-3 1 -2 5.5t7 7.5q90 78 111 99q7 7 14 7q4 0 26.5 -2t30.5 -2q16 0 4 -8z" />
    <glyph glyph-name="Acircumflex" unicode="&#xc2;" horiz-adv-x="653" 
d="M652 5q2 -2 -2 -4q-8 -1 -30 -1h-110q-67 0 -80 1q-5 5 -7 5q-3 3 3 5t23 2q5 0 26.5 2t20.5 4q4 1 -1 24t-9 31q-1 2 -17.5 46.5l-33.5 87.5t-19 46q-1 1 -12.5 1.5t-26 1t-21.5 1.5q-29 5 -176 2q-8 -4 -24 -42q-6 -12 -21 -60.5t-18 -63.5q-9 -41 -2 -58
q2 -8 15.5 -15.5t25.5 -7.5q37 0 37 -1q5 -2 5 -8q0 -1 -2 -3q-1 0 -15 -0.5t-16 -0.5h-93q-56 0 -63 1q-2 1 -5 7q-1 0 -1 1t1 2q2 2 12 2q25 0 28 9q16 8 56 100q4 8 60 143.5t59 143.5q4 9 55 132.5l54 130.5q4 11 8 15q1 0 7.5 4t9.5 5q7 5 15 2l-2 -6q0 -1 -5.5 -6.5
t-6.5 -7.5q0 -11 1 -15q0 -9 27 -83q3 -7 25.5 -73t25.5 -74q4 -10 32.5 -90.5l32.5 -91.5q71 -188 90 -222q8 -16 32 -16q26 0 26 -1q3 -2 6 -7zM406 288q-34 102 -42 122q-2 4 -14 42l-24.5 76.5t-12.5 39.5q-3 12 -4 12q-3 0 -13 -20l-58 -134l-29.5 -72t-27.5 -68
q-4 -10 2 -10h61.5h94h64.5q8 0 3 12zM459 707q-5 -3 -17 4q-36 19 -102 65l-37.5 -24.5l-36.5 -24.5t-26 -16q-11 -5 -17 -4q-5 3 5 13q15 19 72 80q3 5 7 5q10 1 32 1q31 0 36 -1q4 -1 7 -3q41 -41 72 -82q8 -11 5 -13z" />
    <glyph glyph-name="Atilde" unicode="&#xc3;" horiz-adv-x="653" 
d="M652 5q2 -2 -2 -4q-8 -1 -30 -1h-110q-67 0 -80 1q-5 5 -7 5q-3 3 3 5t23 2q5 0 26.5 2t20.5 4q4 1 -1 24t-9 31q-1 2 -17.5 46.5l-33.5 87.5t-19 46q-1 1 -12.5 1.5t-26 1t-21.5 1.5q-29 5 -176 2q-8 -4 -24 -42q-6 -12 -21 -60.5t-18 -63.5q-9 -41 -2 -58
q2 -8 15.5 -15.5t25.5 -7.5q37 0 37 -1q5 -2 5 -8q0 -1 -2 -3q-1 0 -15 -0.5t-16 -0.5h-93q-56 0 -63 1q-2 1 -5 7q-1 0 -1 1t1 2q2 2 12 2q25 0 28 9q16 8 56 100q4 8 60 143.5t59 143.5q4 9 55 132.5l54 130.5q4 11 8 15q1 0 7.5 4t9.5 5q7 5 15 2l-2 -6q0 -1 -5.5 -6.5
t-6.5 -7.5q0 -11 1 -15q0 -9 27 -83q3 -7 25.5 -73t25.5 -74q4 -10 32.5 -90.5l32.5 -91.5q71 -188 90 -222q8 -16 32 -16q26 0 26 -1q3 -2 6 -7zM406 288q-34 102 -42 122q-2 4 -14 42l-24.5 76.5t-12.5 39.5q-3 12 -4 12q-3 0 -13 -20l-58 -134l-29.5 -72t-27.5 -68
q-4 -10 2 -10h61.5h94h64.5q8 0 3 12zM459 774q5 -6 -2 -15q-10 -15 -30.5 -26t-43.5 -11q-28 0 -54 14q-48 24 -67 24q-16 0 -31 -16q-7 -9 -12 5q-3 5 4 14q26 32 70 31q26 -1 53 -14q47 -22 67 -22q15 0 35 18q2 3 6 2.5t5 -4.5z" />
    <glyph glyph-name="Adieresis" unicode="&#xc4;" horiz-adv-x="653" 
d="M652 5q2 -2 -2 -4q-8 -1 -30 -1h-110q-67 0 -80 1q-5 5 -7 5q-3 3 3 5t23 2q5 0 26.5 2t20.5 4q4 1 -1 24t-9 31q-1 2 -17.5 46.5l-33.5 87.5t-19 46q-1 1 -12.5 1.5t-26 1t-21.5 1.5q-29 5 -176 2q-8 -4 -24 -42q-6 -12 -21 -60.5t-18 -63.5q-9 -41 -2 -58
q2 -8 15.5 -15.5t25.5 -7.5q37 0 37 -1q5 -2 5 -8q0 -1 -2 -3q-1 0 -15 -0.5t-16 -0.5h-93q-56 0 -63 1q-2 1 -5 7q-1 0 -1 1t1 2q2 2 12 2q25 0 28 9q16 8 56 100q4 8 60 143.5t59 143.5q4 9 55 132.5l54 130.5q4 11 8 15q1 0 7.5 4t9.5 5q7 5 15 2l-2 -6q0 -1 -5.5 -6.5
t-6.5 -7.5q0 -11 1 -15q0 -9 27 -83q3 -7 25.5 -73t25.5 -74q4 -10 32.5 -90.5l32.5 -91.5q71 -188 90 -222q8 -16 32 -16q26 0 26 -1q3 -2 6 -7zM406 288q-34 102 -42 122q-2 4 -14 42l-24.5 76.5t-12.5 39.5q-3 12 -4 12q-3 0 -13 -20l-58 -134l-29.5 -72t-27.5 -68
q-4 -10 2 -10h61.5h94h64.5q8 0 3 12zM293 767q0 -22 -18.5 -37.5t-33.5 -15.5q-28 0 -28 28q0 16 15 34t39 18q12 0 19 -8t7 -19zM514 767q0 -22 -18.5 -37.5t-33.5 -15.5q-28 0 -28 28q0 16 15 34t39 18q11 0 18.5 -8t7.5 -19z" />
    <glyph glyph-name="Aring" unicode="&#xc5;" horiz-adv-x="653" 
d="M652 10q2 -5 -1 -8q-1 -2 -6 -2h-214q-5 0 -8 1q-1 1 -1 4t1 4q6 4 11 4l61 2q11 0 6 14q-1 2 -40.5 109.5t-42.5 113.5q-2 6 -7 6q-11 2 -52 2t-95 0.5t-83 1.5q-10 0 -15 -12q-2 -5 -47 -145q-12 -46 -7 -63q6 -27 29 -28l51 -1q6 0 6 -4q0 -6 -1 -7q0 -2 -4 -2h-183
q-5 0 -6 2q-1 1 -1 8q3 3 6 3l28 1q10 0 16.5 7.5t17.5 31.5q26 69 118 284l121 293q-25 7 -41.5 28.5t-16.5 48.5q0 34 24 58t58 24t58 -24t24 -58q0 -54 -52 -76q2 -4 14 -39.5l24 -70l16 -45.5q20 -48 59 -171q65 -188 102 -262q15 -29 29 -29l36 -1q6 0 8 -3zM406 288
q-34 102 -42 122q-2 4 -14 42l-24.5 76.5t-12.5 39.5q-3 12 -4 12q-3 0 -13 -20l-58 -134l-29.5 -72t-27.5 -68q-4 -10 2 -10h61.5h94h64.5q8 0 3 12zM393 707q0 24 -17.5 41.5t-41.5 17.5t-41.5 -17.5t-17.5 -41.5q0 -23 17.5 -40t41.5 -17t41.5 17t17.5 40z" />
    <glyph glyph-name="AE" unicode="&#xc6;" horiz-adv-x="860" 
d="M846 96l-48 -93q-5 -9 -8 -4l-1 1h-435q-4 0 -5 2q-2 2 1 9q0 1 4 1l67 4q13 0 14 11v244q0 10 -8 10h-188q-10 -2 -21 -17q-63 -110 -84 -157l-6 -11q-5 -12 -6 -16l-4.5 -17.5t0.5 -17.5q4 -32 24 -32h51q5 0 5.5 -0.5t-0.5 -3.5q0 -6 -2 -7q0 -2 -4 -2h-186q-5 0 -6 2
v8q3 3 6 3l31 1q15 1 39 44l170 279q3 6 66 112t70 117q13 18 28 48q9 17 8 28q-1 4 -17 6t-31 2l-16 -1q-5 0 -6 2q-2 7 1 10q2 2 6 2l140 -2q11 0 135 1.5t130 1.5q34 0 37 3q6 6 12 1q2 -2 -1 -7q-1 -2 -4.5 -15.5l-7.5 -28.5t-5 -19t-3 -9t-4.5 -8.5t-4.5 -3.5
q-3 0 -3 15q-1 16 -42.5 33t-76.5 19q-83 2 -138 3q-6 0 -8 -6q-3 -9 -3 -269q0 -6 1 -8t7 -2q6 -1 90 3t92 5q14 2 19 11q18 31 24 56l4 8q0 5 5 2q1 -1 2 -3q2 -2 2 -6q-10 -60 -10 -85q0 -7 2 -50t2 -46q0 -8 -1 -9q-1 -2 -4.5 -2t-4.5 1q-2 2 -2 6q-2 45 -16 74
q-6 12 -21 13q-7 1 -92.5 4.5t-91.5 2.5q-5 -1 -5.5 -2t-0.5 -7q0 -2 0.5 -92.5t0.5 -100.5q0 -132 26 -132q121 1 177.5 17t112.5 56q2 1 5 5.5l6 9l5.5 8t3.5 3.5q8 -4 0 -16zM434 318q0 82 -1 92q-2 30 -2 186q0 16 -2 16q-1 0 -12 -17q-84 -132 -101 -166
q-5 -7 -37.5 -63t-33.5 -58q-5 -10 1 -10l179 1q9 0 9 19z" />
    <glyph glyph-name="Ccedilla" unicode="&#xc7;" horiz-adv-x="687" 
d="M635 108q3 -4 -1 -8q-47 -47 -119 -75q-79 -30 -154 -32l-19 -32q12 4 18 4q33 1 53 -18.5t20 -53.5q0 -29 -21 -49.5t-53 -20.5q-37 0 -61 24q-7 5 -4 12q5 7 11 3q26 -15 41 -15q49 0 49 54q0 19 -11.5 30t-28.5 11q-12 0 -24 -7q-6 -2 -14 6q-6 5 -1 14q1 2 12 17
t15 21q-59 2 -121 24.5t-102 62.5q-88 90 -88 233q0 96 50 176q42 73 113 121q98 64 253 64q46 0 106 -10q36 -5 69 -18q5 -2 5 -8q0 -2 -2 -10t-3 -14l-5 -52q-4 -37 -11 -37q-5 0 -3 19q3 29 -8 43q-15 22 -46 38q-64 33 -138 33q-142 0 -228 -89q-70 -72 -70 -240
q0 -64 22.5 -130t61.5 -102q48 -42 96.5 -61.5t114.5 -19.5q53 0 110 24q43 20 72 65q15 19 19 44q-3 13 1 14q3 1 7 -11q2 -11 10 -26z" />
    <glyph glyph-name="Egrave" unicode="&#xc8;" horiz-adv-x="580" 
d="M566 96q-1 -3 -23 -45.5t-25 -47.5q0 -8 -4 -8t-5 5h-465q-3 0 -5 2t1 9q1 1 4 1l68 4q12 0 13 11v35v76.5v87.5v76.5v34.5q0 4 -2 104t-2 106q0 99 -19 102h-58q-5 0 -6 2q-2 7 1 10q2 2 6 2l140 -2q11 0 150.5 1.5t145.5 1.5q33 0 36 3q7 6 12 1q2 -2 -1 -7
q-1 -2 -4.5 -15.5l-7.5 -28.5t-5 -19q-6 -22 -11 -21q-6 0 -4 15q-4 18 -44 34t-75 18q-63 2 -168 3q-6 0 -8 -6q-3 -9 -3 -269q0 -6 1 -8t7 -2q7 -1 105.5 3t106.5 5q15 2 19 11q16 24 25 56q0 3 3 8q1 3 3.5 2.5t3.5 -3.5q2 -2 2 -6q-10 -60 -10 -85q0 -7 2 -50t2 -46
q0 -8 -1 -9q-1 -2 -4.5 -2t-4.5 1l-2 6q-2 45 -16 74q-4 11 -21 13q-7 1 -107.5 4.5t-106.5 2.5q-5 -1 -5.5 -2t-0.5 -7q0 -2 0.5 -92.5t0.5 -100.5q0 -132 27 -132q124 1 196 18.5t124 54.5q3 4 5 7l5.5 8.5t6.5 8.5l2 2q0 -1 1 -4t1 -5.5t-2 -6.5zM388 706q-5 -3 -12 0
q-61 40 -157 95q-13 6 -18 13q-4 4 -3 6t7 1q30 7 55 9q5 1 12 -6q15 -16 58 -56.5t56 -51.5q6 -5 2 -10z" />
    <glyph glyph-name="Eacute" unicode="&#xc9;" horiz-adv-x="580" 
d="M566 96q-1 -3 -23 -45.5t-25 -47.5q0 -8 -4 -8t-5 5h-465q-3 0 -5 2t1 9q1 1 4 1l68 4q12 0 13 11v35v76.5v87.5v76.5v34.5q0 4 -2 104t-2 106q0 99 -19 102h-58q-5 0 -6 2q-2 7 1 10q2 2 6 2l140 -2q11 0 150.5 1.5t145.5 1.5q33 0 36 3q7 6 12 1q2 -2 -1 -7
q-1 -2 -4.5 -15.5l-7.5 -28.5t-5 -19q-6 -22 -11 -21q-6 0 -4 15q-4 18 -44 34t-75 18q-63 2 -168 3q-6 0 -8 -6q-3 -9 -3 -269q0 -6 1 -8t7 -2q7 -1 105.5 3t106.5 5q15 2 19 11q16 24 25 56q0 3 3 8q1 3 3.5 2.5t3.5 -3.5q2 -2 2 -6q-10 -60 -10 -85q0 -7 2 -50t2 -46
q0 -8 -1 -9q-1 -2 -4.5 -2t-4.5 1l-2 6q-2 45 -16 74q-4 11 -21 13q-7 1 -107.5 4.5t-106.5 2.5q-5 -1 -5.5 -2t-0.5 -7q0 -2 0.5 -92.5t0.5 -100.5q0 -132 27 -132q124 1 196 18.5t124 54.5q3 4 5 7l5.5 8.5t6.5 8.5l2 2q0 -1 1 -4t1 -5.5t-2 -6.5zM420 812q-12 -9 -20 -13
l-85.5 -50.5t-71.5 -41.5q-3 -2 -7.5 -2.5t-6.5 0.5q-3 1 -2 5.5t7 7.5q90 78 111 99q7 7 14 7q4 0 26.5 -2t30.5 -2q16 0 4 -8z" />
    <glyph glyph-name="Ecircumflex" unicode="&#xca;" horiz-adv-x="580" 
d="M566 96q-1 -3 -23 -45.5t-25 -47.5q0 -8 -4 -8t-5 5h-465q-3 0 -5 2t1 9q1 1 4 1l68 4q12 0 13 11v35v76.5v87.5v76.5v34.5q0 4 -2 104t-2 106q0 99 -19 102h-58q-5 0 -6 2q-2 7 1 10q2 2 6 2l140 -2q11 0 150.5 1.5t145.5 1.5q33 0 36 3q7 6 12 1q2 -2 -1 -7
q-1 -2 -4.5 -15.5l-7.5 -28.5t-5 -19q-6 -22 -11 -21q-6 0 -4 15q-4 18 -44 34t-75 18q-63 2 -168 3q-6 0 -8 -6q-3 -9 -3 -269q0 -6 1 -8t7 -2q7 -1 105.5 3t106.5 5q15 2 19 11q16 24 25 56q0 3 3 8q1 3 3.5 2.5t3.5 -3.5q2 -2 2 -6q-10 -60 -10 -85q0 -7 2 -50t2 -46
q0 -8 -1 -9q-1 -2 -4.5 -2t-4.5 1l-2 6q-2 45 -16 74q-4 11 -21 13q-7 1 -107.5 4.5t-106.5 2.5q-5 -1 -5.5 -2t-0.5 -7q0 -2 0.5 -92.5t0.5 -100.5q0 -132 27 -132q124 1 196 18.5t124 54.5q3 4 5 7l5.5 8.5t6.5 8.5l2 2q0 -1 1 -4t1 -5.5t-2 -6.5zM434 705q-5 -3 -17 4
q-36 19 -102 65l-37.5 -24.5l-36.5 -24.5t-26 -16q-11 -5 -17 -4q-5 3 5 13q15 19 72 80q3 5 7 5q10 1 32 1q30 0 36 -1q4 -1 7 -3q41 -41 72 -82q8 -11 5 -13z" />
    <glyph glyph-name="Edieresis" unicode="&#xcb;" horiz-adv-x="580" 
d="M566 96q-1 -3 -23 -45.5t-25 -47.5q0 -8 -4 -8t-5 5h-465q-3 0 -5 2t1 9q1 1 4 1l68 4q12 0 13 11v35v76.5v87.5v76.5v34.5q0 4 -2 104t-2 106q0 99 -19 102h-58q-5 0 -6 2q-2 7 1 10q2 2 6 2l140 -2q11 0 150.5 1.5t145.5 1.5q33 0 36 3q7 6 12 1q2 -2 -1 -7
q-1 -2 -4.5 -15.5l-7.5 -28.5t-5 -19q-6 -22 -11 -21q-6 0 -4 15q-4 18 -44 34t-75 18q-63 2 -168 3q-6 0 -8 -6q-3 -9 -3 -269q0 -6 1 -8t7 -2q7 -1 105.5 3t106.5 5q15 2 19 11q16 24 25 56q0 3 3 8q1 3 3.5 2.5t3.5 -3.5q2 -2 2 -6q-10 -60 -10 -85q0 -7 2 -50t2 -46
q0 -8 -1 -9q-1 -2 -4.5 -2t-4.5 1l-2 6q-2 45 -16 74q-4 11 -21 13q-7 1 -107.5 4.5t-106.5 2.5q-5 -1 -5.5 -2t-0.5 -7q0 -2 0.5 -92.5t0.5 -100.5q0 -132 27 -132q124 1 196 18.5t124 54.5q3 4 5 7l5.5 8.5t6.5 8.5l2 2q0 -1 1 -4t1 -5.5t-2 -6.5zM425 756
q0 -22 -18.5 -37.5t-33.5 -15.5q-28 0 -28 28q0 15 15 33.5t39 18.5q11 0 18.5 -8t7.5 -19zM278 756q0 -22 -18.5 -37.5t-33.5 -15.5q-28 0 -28 28q0 15 15 33.5t39 18.5q12 0 19 -8t7 -19z" />
    <glyph glyph-name="Igrave" unicode="&#xcc;" horiz-adv-x="327" 
d="M293 2q-2 -2 -6 -2h-236q-5 0 -6 1q-2 1 -2 4.5t1 4.5q3 3 6 3l66 4q10 0 8 39v473q0 114 -23 119l-49 1q-7 0 -10 3q-2 1 -2 4.5t2 4.5q6 2 8 2h225q4 0 4 -2v-9q0 -2 -5 -2l-54 -3q-16 -1 -18 -21q0 -3 -0.5 -218.5t-0.5 -229.5q0 -81 5.5 -120t22.5 -43l57 -2
q2 0 7 -3q1 -1 1 -3.5t-1 -4.5zM244 705q-5 -3 -12 0q-61 40 -157 95q-13 6 -18 13q-4 4 -3 6t7 1q30 7 55 9q5 1 12 -6q15 -16 58 -56.5t56 -51.5q6 -5 2 -10z" />
    <glyph glyph-name="Iacute" unicode="&#xcd;" horiz-adv-x="327" 
d="M293 2q-2 -2 -6 -2h-236q-5 0 -6 1q-2 1 -2 4.5t1 4.5q3 3 6 3l66 4q10 0 8 39v473q0 114 -23 119l-49 1q-7 0 -10 3q-2 1 -2 4.5t2 4.5q6 2 8 2h225q4 0 4 -2v-9q0 -2 -5 -2l-54 -3q-16 -1 -18 -21q0 -3 -0.5 -218.5t-0.5 -229.5q0 -81 5.5 -120t22.5 -43l57 -2
q2 0 7 -3q1 -1 1 -3.5t-1 -4.5zM276 812q-12 -9 -20 -13l-85.5 -50.5t-71.5 -41.5q-3 -2 -7.5 -2.5t-6.5 0.5q-3 1 -2 5.5t7 7.5q90 78 111 99q7 7 14 7q4 0 26.5 -2t30.5 -2q16 0 4 -8z" />
    <glyph glyph-name="Icircumflex" unicode="&#xce;" horiz-adv-x="327" 
d="M293 2q-2 -2 -6 -2h-236q-5 0 -6 1q-2 1 -2 4.5t1 4.5q3 3 6 3l66 4q10 0 8 39v473q0 114 -23 119l-49 1q-7 0 -10 3q-2 1 -2 4.5t2 4.5q6 2 8 2h225q4 0 4 -2v-9q0 -2 -5 -2l-54 -3q-16 -1 -18 -21q0 -3 -0.5 -218.5t-0.5 -229.5q0 -81 5.5 -120t22.5 -43l57 -2
q2 0 7 -3q1 -1 1 -3.5t-1 -4.5zM281 705q-5 -3 -17 4q-36 19 -102 65l-37.5 -24.5l-36.5 -24.5t-26 -16q-11 -5 -17 -4q-5 3 5 13q15 19 72 80q3 5 7 5q10 1 32 1q31 0 36 -1q4 -1 7 -3q41 -41 72 -82q8 -11 5 -13z" />
    <glyph glyph-name="Idieresis" unicode="&#xcf;" horiz-adv-x="327" 
d="M293 2q-2 -2 -6 -2h-236q-5 0 -6 1q-2 1 -2 4.5t1 4.5q3 3 6 3l66 4q10 0 8 39v473q0 114 -23 119l-49 1q-7 0 -10 3q-2 1 -2 4.5t2 4.5q6 2 8 2h225q4 0 4 -2v-9q0 -2 -5 -2l-54 -3q-16 -1 -18 -21q0 -3 -0.5 -218.5t-0.5 -229.5q0 -81 5.5 -120t22.5 -43l57 -2
q2 0 7 -3q1 -1 1 -3.5t-1 -4.5zM278 757q0 -22 -18.5 -37.5t-33.5 -15.5q-28 0 -28 28q0 15 15 33.5t39 18.5q11 0 18.5 -8t7.5 -19zM131 757q0 -22 -18.5 -37.5t-33.5 -15.5q-28 0 -28 28q0 15 15 33.5t39 18.5q12 0 19 -8t7 -19z" />
    <glyph glyph-name="Eth" unicode="&#xd0;" horiz-adv-x="686" 
d="M649 337q0 -92 -33 -169t-104 -124q-35 -23 -78 -34.5t-70.5 -13t-77.5 -1.5q-35 0 -90.5 2.5t-92.5 2.5h-54q-3 0 -5 2q-3 2 0 8q1 2 5 2l65 4q11 2 11 26q0 7 -0.5 133.5t-0.5 137.5h-52h-6q-15 0 -19 1t-4 7q0 13 13 13h68q-3 186 -3 196q0 2 -0.5 17.5t-1.5 31
t-2.5 32t-5.5 27.5t-9 11l-66 -1q-3 0 -6 2q-1 1 0 5t2 5t5 1l191 3h103q62 0 129 -21q58 -20 105 -66q84 -83 84 -240zM574 283q4 158 -64 244q-57 71 -124 99q-61 23 -137 24q-31 0 -38 -1q-8 -1 -10.5 -4t-1.5 -15q0 -7 1 -130t1 -138v-28h111q35 0 35 -9t-1 -10.5
t-8 -1.5h-137v-130q0 -164 22 -168q18 -3 62 -4t58 0q93 2 161 62q64 59 70 210z" />
    <glyph glyph-name="Ntilde" unicode="&#xd1;" horiz-adv-x="744" 
d="M725 650q-1 -1 -7 -1l-61 -1q-10 0 -11 -13q0 -4 -11 -283q0 -10 3.5 -174t3.5 -173v-11t-1 -7t-2.5 -5t-4.5 0l-3 1.5t-1.5 1.5t-1 3.5t-1.5 5.5q-262 325 -268 333q-148 194 -182 235q-7 9 -10 -4q-2 -23 -8 -188.5t-6 -214.5q0 -43 9.5 -88.5t20.5 -49.5l60 -4l6 -2
q1 -1 1 -4.5t-1 -4.5q-1 -2 -5 -2h-179q-5 0 -7 1q-2 0 -2 3.5t2 5.5q3 3 7 3l53 4q8 0 8 7q0 2 3.5 37.5t4.5 43.5q3 32 10 248.5t7 235.5q-15 29 -49 54l-51 6q-3 0 -5 2q-1 1 -0.5 5t1.5 5q4 2 5 2h146q6 0 11 -8q4 -7 79 -107.5t87 -115.5q15 -17 124 -155t115 -148
q7 -11 8 -11q2 0 0 19q0 266 -5 356q0 46 -9 98t-26 53l-64 7q-4 0 -6 2q-6 4 0 10q2 2 5 2l200 -2q3 0 5 -1t3 -1q2 -1 2 -5t-2 -6zM511 755q5 -6 -2 -15q-10 -15 -30.5 -26t-43.5 -11q-28 0 -54 14q-48 24 -67 24q-16 0 -31 -16q-7 -9 -12 5q-3 5 4 14q26 32 70 31
q26 -1 53 -14q47 -22 67 -22q15 0 35 18q2 3 6 2.5t5 -4.5z" />
    <glyph glyph-name="Ograve" unicode="&#xd2;" horiz-adv-x="722" 
d="M686 346q0 -148 -77 -240q-47 -59 -134 -92q-49 -20 -119 -20q-113 0 -176 33q-39 20 -70 55q-74 87 -74 238q0 72 20 130q19 65 64 117q14 16 30.5 29t31.5 21.5t26 13.5t22 9l11 5q61 22 125 22q101 0 158 -26q64 -29 96 -74q66 -90 66 -221zM612 313q0 69 -18 129
q-19 61 -56 107q-28 38 -83 66q-51 29 -126 29t-110 -22q-54 -39 -78 -98q-29 -68 -29 -174q0 -145 52 -227q35 -55 97 -85q60 -28 113 -28q48 0 74 6.5t55 23.5q51 30 80 109q27 74 29 164zM461 705q-5 -3 -12 0q-61 40 -157 95q-13 6 -18 13q-4 4 -3 6t7 1q30 7 55 9
q5 1 12 -6q15 -16 58 -56.5t56 -51.5q6 -5 2 -10z" />
    <glyph glyph-name="Oacute" unicode="&#xd3;" horiz-adv-x="722" 
d="M686 346q0 -148 -77 -240q-47 -59 -134 -92q-49 -20 -119 -20q-113 0 -176 33q-39 20 -70 55q-74 87 -74 238q0 72 20 130q19 65 64 117q14 16 30.5 29t31.5 21.5t26 13.5t22 9l11 5q61 22 125 22q101 0 158 -26q64 -29 96 -74q66 -90 66 -221zM612 313q0 69 -18 129
q-19 61 -56 107q-28 38 -83 66q-51 29 -126 29t-110 -22q-54 -39 -78 -98q-29 -68 -29 -174q0 -145 52 -227q35 -55 97 -85q60 -28 113 -28q48 0 74 6.5t55 23.5q51 30 80 109q27 74 29 164zM460 812q-12 -9 -20 -13l-85.5 -50.5t-71.5 -41.5q-3 -2 -7.5 -2.5t-6.5 0.5
q-3 1 -2 5.5t7 7.5q90 78 111 99q7 7 14 7q4 0 26.5 -2t30.5 -2q16 0 4 -8z" />
    <glyph glyph-name="Ocircumflex" unicode="&#xd4;" horiz-adv-x="722" 
d="M686 346q0 -148 -77 -240q-47 -59 -134 -92q-49 -20 -119 -20q-113 0 -176 33q-39 20 -70 55q-74 87 -74 238q0 72 20 130q19 65 64 117q14 16 30.5 29t31.5 21.5t26 13.5t22 9l11 5q61 22 125 22q101 0 158 -26q64 -29 96 -74q66 -90 66 -221zM612 313q0 69 -18 129
q-19 61 -56 107q-28 38 -83 66q-51 29 -126 29t-110 -22q-54 -39 -78 -98q-29 -68 -29 -174q0 -145 52 -227q35 -55 97 -85q60 -28 113 -28q48 0 74 6.5t55 23.5q51 30 80 109q27 74 29 164zM484 705q-5 -3 -17 4q-36 19 -102 65l-37.5 -24.5l-36.5 -24.5t-26 -16
q-11 -5 -17 -4q-5 3 5 13q15 19 72 80q3 5 7 5q10 1 32 1q30 0 36 -1q4 -1 7 -3q41 -41 72 -82q8 -11 5 -13z" />
    <glyph glyph-name="Otilde" unicode="&#xd5;" horiz-adv-x="722" 
d="M686 346q0 -148 -77 -240q-47 -59 -134 -92q-49 -20 -119 -20q-113 0 -176 33q-39 20 -70 55q-74 87 -74 238q0 72 20 130q19 65 64 117q14 16 30.5 29t31.5 21.5t26 13.5t22 9l11 5q61 22 125 22q101 0 158 -26q64 -29 96 -74q66 -90 66 -221zM612 313q0 69 -18 129
q-19 61 -56 107q-28 38 -83 66q-51 29 -126 29t-110 -22q-54 -39 -78 -98q-29 -68 -29 -174q0 -145 52 -227q35 -55 97 -85q60 -28 113 -28q48 0 74 6.5t55 23.5q51 30 80 109q27 74 29 164zM487 756q5 -6 -2 -15q-10 -15 -30.5 -26t-43.5 -11q-28 0 -54 14q-48 24 -67 24
q-16 0 -31 -16q-7 -9 -12 5q-3 5 4 14q26 32 70 31q26 -1 53 -14q47 -22 67 -22q15 0 35 18q2 3 6 2.5t5 -4.5z" />
    <glyph glyph-name="Odieresis" unicode="&#xd6;" horiz-adv-x="722" 
d="M686 346q0 -148 -77 -240q-47 -59 -134 -92q-49 -20 -119 -20q-113 0 -176 33q-39 20 -70 55q-74 87 -74 238q0 72 20 130q19 65 64 117q14 16 30.5 29t31.5 21.5t26 13.5t22 9l11 5q61 22 125 22q101 0 158 -26q64 -29 96 -74q66 -90 66 -221zM612 313q0 69 -18 129
q-19 61 -56 107q-28 38 -83 66q-51 29 -126 29t-110 -22q-54 -39 -78 -98q-29 -68 -29 -174q0 -145 52 -227q35 -55 97 -85q60 -28 113 -28q48 0 74 6.5t55 23.5q51 30 80 109q27 74 29 164zM479 757q0 -22 -18.5 -37.5t-33.5 -15.5q-28 0 -28 28q0 15 15 33.5t39 18.5
q11 0 18.5 -8t7.5 -19zM332 757q0 -22 -18.5 -37.5t-33.5 -15.5q-28 0 -28 28q0 15 15 33.5t39 18.5q12 0 19 -8t7 -19z" />
    <glyph glyph-name="Oslash" unicode="&#xd8;" horiz-adv-x="722" 
d="M686 346q0 -148 -77 -240q-47 -59 -134 -92q-49 -20 -119 -20q-123 0 -176 33l-47 -71l-16 9l48 71q-29 16 -55 46q-74 87 -74 238q0 72 20 130q19 65 64 117q14 16 30.5 29t31.5 21.5t26 13.5t22 9l11 5q61 22 125 22q101 0 158 -26q23 -11 35 -19l48 73l14 -9l-48 -73
q29 -21 47 -46q66 -90 66 -221zM612 313q0 69 -18 129q-16 53 -61 112l-322 -483q20 -17 50 -33q60 -28 113 -28q48 0 74 6.5t55 23.5q51 30 80 109q27 74 29 164zM521 567q-35 33 -66 48q-51 29 -126 29t-110 -22q-54 -39 -78 -98q-29 -68 -29 -174q0 -145 52 -227
q9 -17 33 -39z" />
    <glyph glyph-name="Ugrave" unicode="&#xd9;" horiz-adv-x="707" 
d="M693 652q-1 -2 -5 -2h-25q-14 0 -26.5 -6t-15.5 -13q-7 -25 -7 -364q0 -78 -21.5 -135.5t-58 -88t-75.5 -44.5t-81 -14q-101 0 -152 29q-21 12 -47 34t-39 43q-27 41 -32 132q-3 54 -3 308q0 117 -18 117l-61 1q-4 0 -5 3q-1 1 -0.5 4.5t1.5 4.5q0 2 4 2h229q5 0 6 -2
q2 -1 2 -3.5t-1 -4.5q-1 -3 -5 -3l-68 -2q-3 0 -4.5 -0.5t-1.5 -2t-1 -5.5q-4 -26 -4 -336q0 -94 8 -142q16 -77 68 -112q59 -41 147 -41q84 0 141 62q26 29 38.5 81t13.5 101q0 163 -3 241q-1 45 -10 97t-20 58l-62 1q-6 0 -9 2q-1 2 -1 5t2 4q4 2 8 2h187q4 0 6 -2
q3 -1 3 -4.5t-2 -4.5zM466 705q-5 -3 -12 0q-61 40 -157 95q-13 6 -18 13q-4 4 -3 6t7 1q30 7 55 9q5 1 12 -6q15 -16 58 -56.5t56 -51.5q6 -5 2 -10z" />
    <glyph glyph-name="Uacute" unicode="&#xda;" horiz-adv-x="707" 
d="M693 652q-1 -2 -5 -2h-25q-14 0 -26.5 -6t-15.5 -13q-7 -25 -7 -364q0 -78 -21.5 -135.5t-58 -88t-75.5 -44.5t-81 -14q-101 0 -152 29q-21 12 -47 34t-39 43q-27 41 -32 132q-3 54 -3 308q0 117 -18 117l-61 1q-4 0 -5 3q-1 1 -0.5 4.5t1.5 4.5q0 2 4 2h229q5 0 6 -2
q2 -1 2 -3.5t-1 -4.5q-1 -3 -5 -3l-68 -2q-3 0 -4.5 -0.5t-1.5 -2t-1 -5.5q-4 -26 -4 -336q0 -94 8 -142q16 -77 68 -112q59 -41 147 -41q84 0 141 62q26 29 38.5 81t13.5 101q0 163 -3 241q-1 45 -10 97t-20 58l-62 1q-6 0 -9 2q-1 2 -1 5t2 4q4 2 8 2h187q4 0 6 -2
q3 -1 3 -4.5t-2 -4.5zM487 809q-12 -9 -20 -13l-85.5 -50.5t-71.5 -41.5q-3 -2 -7.5 -2.5t-6.5 0.5q-3 1 -2 5.5t7 7.5q90 78 111 99q7 7 14 7q4 0 26.5 -2t30.5 -2q16 0 4 -8z" />
    <glyph glyph-name="Ucircumflex" unicode="&#xdb;" horiz-adv-x="707" 
d="M693 652q-1 -2 -5 -2h-25q-14 0 -26.5 -6t-15.5 -13q-7 -25 -7 -364q0 -78 -21.5 -135.5t-58 -88t-75.5 -44.5t-81 -14q-101 0 -152 29q-21 12 -47 34t-39 43q-27 41 -32 132q-3 54 -3 308q0 117 -18 117l-61 1q-4 0 -5 3q-1 1 -0.5 4.5t1.5 4.5q0 2 4 2h229q5 0 6 -2
q2 -1 2 -3.5t-1 -4.5q-1 -3 -5 -3l-68 -2q-3 0 -4.5 -0.5t-1.5 -2t-1 -5.5q-4 -26 -4 -336q0 -94 8 -142q16 -77 68 -112q59 -41 147 -41q84 0 141 62q26 29 38.5 81t13.5 101q0 163 -3 241q-1 45 -10 97t-20 58l-62 1q-6 0 -9 2q-1 2 -1 5t2 4q4 2 8 2h187q4 0 6 -2
q3 -1 3 -4.5t-2 -4.5zM509 705q-5 -3 -17 4q-36 19 -102 65l-37.5 -24.5l-36.5 -24.5t-26 -16q-11 -5 -17 -4q-5 3 5 13q15 19 72 80q3 5 7 5q10 1 32 1q31 0 36 -1q4 -1 7 -3q41 -41 72 -82q8 -11 5 -13z" />
    <glyph glyph-name="Udieresis" unicode="&#xdc;" horiz-adv-x="707" 
d="M693 652q-1 -2 -5 -2h-25q-14 0 -26.5 -6t-15.5 -13q-7 -25 -7 -364q0 -78 -21.5 -135.5t-58 -88t-75.5 -44.5t-81 -14q-101 0 -152 29q-21 12 -47 34t-39 43q-27 41 -32 132q-3 54 -3 308q0 117 -18 117l-61 1q-4 0 -5 3q-1 1 -0.5 4.5t1.5 4.5q0 2 4 2h229q5 0 6 -2
q2 -1 2 -3.5t-1 -4.5q-1 -3 -5 -3l-68 -2q-3 0 -4.5 -0.5t-1.5 -2t-1 -5.5q-4 -26 -4 -336q0 -94 8 -142q16 -77 68 -112q59 -41 147 -41q84 0 141 62q26 29 38.5 81t13.5 101q0 163 -3 241q-1 45 -10 97t-20 58l-62 1q-6 0 -9 2q-1 2 -1 5t2 4q4 2 8 2h187q4 0 6 -2
q3 -1 3 -4.5t-2 -4.5zM502 757q0 -22 -18.5 -37.5t-33.5 -15.5q-28 0 -28 28q0 15 15 33.5t39 18.5q11 0 18.5 -8t7.5 -19zM355 757q0 -22 -18.5 -37.5t-33.5 -15.5q-28 0 -28 28q0 15 15 33.5t39 18.5q12 0 19 -8t7 -19z" />
    <glyph glyph-name="Yacute" unicode="&#xdd;" horiz-adv-x="584" 
d="M587 651q-2 -2 -3 -2h-32q-13 0 -27 -24l-90 -150q-3 -4 -27 -42.5l-46.5 -74t-24.5 -39.5q-4 -9 -4 -16q0 -1 -0.5 -88t-0.5 -95q0 -105 19 -105l83 -2q2 0 4 -3q2 0 2.5 -3.5t-0.5 -4.5q-2 -2 -7 -2h-261q-4 0 -6 2q-4 4 -1 7t6 3l75 5q7 0 11 12q2 7 3 36t1 67.5
t-0.5 73.5t-0.5 64l-1 28q0 14 -4 21l-92 147q-1 1 -15 23.5l-29.5 48l-32 52l-23.5 37.5q-14 21 -41 22h-11q-3 0 -5 2q-1 2 -1 8q0 4 6 4h209q4 0 5 -1q2 -1 2 -9q0 -4 -4 -4h-56q-13 0 -14 -11q-2 -5 4 -20q4 -9 38.5 -66t39.5 -66q45 -77 89 -140q6 -10 12 -3
q18 22 60 94t55 102q25 63 24 88q0 22 -21 22h-42q-3 0 -3 2q-1 2 -1 9q0 3 4 3h171q4 0 4 -3v-9zM423 812q-12 -9 -20 -13l-85.5 -50.5t-71.5 -41.5q-3 -2 -7.5 -2.5t-6.5 0.5q-3 1 -2 5.5t7 7.5q90 78 111 99q7 7 14 7q4 0 26.5 -2t30.5 -2q16 0 4 -8z" />
    <glyph glyph-name="Thorn" unicode="&#xde;" horiz-adv-x="552" 
d="M526 333q0 -84 -47 -131q-24 -25 -67 -40.5t-94 -15.5q-19 0 -43 3.5t-47 8.5l-24 4q-5 1 -5.5 -0.5t-0.5 -6.5q1 -7 1 -56q0 -84 26 -84l74 -2q5 0 6 -3q1 0 1.5 -1.5t0 -3.5t-1.5 -3q-1 -2 -5 -2h-243q-4 0 -5 1q-2 1 -1.5 4.5t2.5 4.5q1 3 5 3l52 3q9 0 13 13
q3 12 3 324q0 7 -0.5 101t-0.5 102q0 90 -18 91l-51 2q-6 0 -6 2q-2 2 -2.5 5.5t0.5 4.5q2 2 7 2h227q4 0 4 -3v-8q0 -2 -5 -2l-58 -3q-9 0 -13 -4.5t-4 -16.5q-3 -16 -3 -102q0 -7 9 -7h30.5t29.5 0.5t19 0.5q50 0 87 -5q54 -8 99 -49q49 -49 49 -131zM447 326
q2 29 -10 63.5t-31 56.5q-49 57 -169 57q-26 0 -30 -1t-5 -10q-5 -45 -5 -161q0 -5 0.5 -73.5t0.5 -71.5q0 -6 7 -9q33 -14 98 -14q68 0 111 48q31 37 33 115z" />
    <glyph glyph-name="germandbls" unicode="&#xdf;" horiz-adv-x="536" 
d="M517 126q0 -48 -30 -86q-34 -47 -106 -47q-85 0 -144 47q-6 5 -6 26q-2 20 -2 71q0 9 6 9q5 0 7 -8q6 -17 8 -30q8 -35 26 -57q4 -7 15.5 -20t14.5 -14q13 -5 38.5 -6t38.5 0q48 3 79 37q20 24 20 57q0 27 -18 42q-14 15 -62 30l-52 20q-34 17 -53.5 30t-35.5 40t-16 64
q0 45 33 82q33 41 47 78t14 86q0 47 -14 88.5t-38 59.5t-57 18q-34 0 -58 -31q-6 -8 -10 -20.5t-6 -24t-2.5 -28t-0.5 -26.5v-24.5v-16.5q0 -8 2 -228l2 -221q0 -53 13 -111q2 -13 -12 -13l-140 1q-4 0 -6 2q-3 5 -1 7q4 4 8 4l62 3q6 1 9 9q2 14 2 118v249q0 12 -7 12
l-41 -1q-7 0 -7.5 1.5t0.5 3.5q2 5 3 7q5 6 12 6q2 0 14.5 0.5t17.5 0.5q7 0 7 8v106q1 65 8 102.5t16.5 52.5t29.5 36q36 36 93 36q55 0 87.5 -54t32.5 -133q0 -88 -53 -166q-25 -35 -25 -62q0 -55 82 -82q7 -2 34 -12t31 -11q40 -16 60 -37q30 -30 30 -80z" />
    <glyph glyph-name="agrave" unicode="&#xe0;" horiz-adv-x="406" 
d="M406 42q-7 -13 -9 -16q-2 -2 -18 -17t-19 -17q-4 -3 -10 -3q-28 0 -50.5 23.5t-32.5 56.5q-3 12 -11 2q-6 -8 -26 -25.5t-29 -23.5q-46 -28 -89 -28q-32 0 -56 18q-33 25 -33 61q0 19 6 35.5t10 21.5l14 18q26 32 75 53q56 24 127 36q9 1 10 13q2 15 2 61t-3 60
q-5 26 -27 40q-22 15 -56 15q-42 0 -64 -14q-11 -8 -11 -17q-3 -12 -3 -26q0 -24 -7 -40q-13 -29 -37 -26q-20 3 -20 26q0 17 21 44t48 43q29 19 54.5 24.5t65.5 5.5q48 0 80 -32q11 -10 18 -34t7 -43q-1 -38 -5 -106.5t-4 -80.5q0 -63 15 -84q9 -13 24 -22t25 -11
q3 -1 15 8q3 3 3 1zM262 212q1 4 -1.5 6t-8.5 2q-53 -3 -83 -16q-80 -36 -80 -95q0 -36 19 -51q21 -16 50 -16q53 0 92 36q12 10 10 32q-2 17 2 102zM292 486q-5 -3 -12 0q-61 40 -157 95q-13 6 -18 13q-4 4 -3 6t7 1q30 7 55 9q5 1 12 -6q15 -16 58 -56.5t56 -51.5
q6 -5 2 -10z" />
    <glyph glyph-name="aacute" unicode="&#xe1;" horiz-adv-x="406" 
d="M406 42q-7 -13 -9 -16q-2 -2 -18 -17t-19 -17q-4 -3 -10 -3q-28 0 -50.5 23.5t-32.5 56.5q-3 12 -11 2q-6 -8 -26 -25.5t-29 -23.5q-46 -28 -89 -28q-32 0 -56 18q-33 25 -33 61q0 19 6 35.5t10 21.5l14 18q26 32 75 53q56 24 127 36q9 1 10 13q2 15 2 61t-3 60
q-5 26 -27 40q-22 15 -56 15q-42 0 -64 -14q-11 -8 -11 -17q-3 -12 -3 -26q0 -24 -7 -40q-13 -29 -37 -26q-20 3 -20 26q0 17 21 44t48 43q29 19 54.5 24.5t65.5 5.5q48 0 80 -32q11 -10 18 -34t7 -43q-1 -38 -5 -106.5t-4 -80.5q0 -63 15 -84q9 -13 24 -22t25 -11
q3 -1 15 8q3 3 3 1zM262 212q1 4 -1.5 6t-8.5 2q-53 -3 -83 -16q-80 -36 -80 -95q0 -36 19 -51q21 -16 50 -16q53 0 92 36q12 10 10 32q-2 17 2 102zM323 591q-12 -9 -20 -13l-85.5 -50.5t-71.5 -41.5q-3 -2 -7.5 -2.5t-6.5 0.5q-3 1 -2 5.5t7 7.5q90 78 111 99q7 7 14 7
q4 0 26.5 -2t30.5 -2q16 0 4 -8z" />
    <glyph glyph-name="acircumflex" unicode="&#xe2;" horiz-adv-x="406" 
d="M406 42q-7 -13 -9 -16q-2 -2 -18 -17t-19 -17q-4 -3 -10 -3q-28 0 -50.5 23.5t-32.5 56.5q-3 12 -11 2q-6 -8 -26 -25.5t-29 -23.5q-46 -28 -89 -28q-32 0 -56 18q-33 25 -33 61q0 19 6 35.5t10 21.5l14 18q26 32 75 53q56 24 127 36q9 1 10 13q2 15 2 61t-3 60
q-5 26 -27 40q-22 15 -56 15q-42 0 -64 -14q-11 -8 -11 -17q-3 -12 -3 -26q0 -24 -7 -40q-13 -29 -37 -26q-20 3 -20 26q0 17 21 44t48 43q29 19 54.5 24.5t65.5 5.5q48 0 80 -32q11 -10 18 -34t7 -43q-1 -38 -5 -106.5t-4 -80.5q0 -63 15 -84q9 -13 24 -22t25 -11
q3 -1 15 8q3 3 3 1zM262 212q1 4 -1.5 6t-8.5 2q-53 -3 -83 -16q-80 -36 -80 -95q0 -36 19 -51q21 -16 50 -16q53 0 92 36q12 10 10 32q-2 17 2 102zM321 484q-5 -3 -17 4q-36 19 -102 65l-37.5 -24.5l-36.5 -24.5t-26 -16t-17 -4q-5 3 5 13q15 19 72 80q3 5 7 5q10 1 32 1
q31 0 36 -1q4 -1 7 -3q41 -41 72 -82q8 -11 5 -13z" />
    <glyph glyph-name="atilde" unicode="&#xe3;" horiz-adv-x="406" 
d="M406 42q-7 -13 -9 -16q-2 -2 -18 -17t-19 -17q-4 -3 -10 -3q-28 0 -50.5 23.5t-32.5 56.5q-3 12 -11 2q-6 -8 -26 -25.5t-29 -23.5q-46 -28 -89 -28q-32 0 -56 18q-33 25 -33 61q0 19 6 35.5t10 21.5l14 18q26 32 75 53q56 24 127 36q9 1 10 13q2 15 2 61t-3 60
q-5 26 -27 40q-22 15 -56 15q-42 0 -64 -14q-11 -8 -11 -17q-3 -12 -3 -26q0 -24 -7 -40q-13 -29 -37 -26q-20 3 -20 26q0 17 21 44t48 43q29 19 54.5 24.5t65.5 5.5q48 0 80 -32q11 -10 18 -34t7 -43q-1 -38 -5 -106.5t-4 -80.5q0 -63 15 -84q9 -13 24 -22t25 -11
q3 -1 15 8q3 3 3 1zM262 212q1 4 -1.5 6t-8.5 2q-53 -3 -83 -16q-80 -36 -80 -95q0 -36 19 -51q21 -16 50 -16q53 0 92 36q12 10 10 32q-2 17 2 102zM323 536q5 -6 -2 -15q-10 -15 -30.5 -26t-43.5 -11q-28 0 -54 14q-48 24 -67 24q-16 0 -31 -16q-7 -9 -12 5q-3 5 4 14
q26 32 70 31q26 -1 53 -14q47 -22 67 -22q15 0 35 18q2 3 6 2.5t5 -4.5z" />
    <glyph glyph-name="adieresis" unicode="&#xe4;" horiz-adv-x="406" 
d="M406 42q-7 -13 -9 -16q-2 -2 -18 -17t-19 -17q-4 -3 -10 -3q-28 0 -50.5 23.5t-32.5 56.5q-3 12 -11 2q-6 -8 -26 -25.5t-29 -23.5q-46 -28 -89 -28q-32 0 -56 18q-33 25 -33 61q0 19 6 35.5t10 21.5l14 18q26 32 75 53q56 24 127 36q9 1 10 13q2 15 2 61t-3 60
q-5 26 -27 40q-22 15 -56 15q-42 0 -64 -14q-11 -8 -11 -17q-3 -12 -3 -26q0 -24 -7 -40q-13 -29 -37 -26q-20 3 -20 26q0 17 21 44t48 43q29 19 54.5 24.5t65.5 5.5q48 0 80 -32q11 -10 18 -34t7 -43q-1 -38 -5 -106.5t-4 -80.5q0 -63 15 -84q9 -13 24 -22t25 -11
q3 -1 15 8q3 3 3 1zM262 212q1 4 -1.5 6t-8.5 2q-53 -3 -83 -16q-80 -36 -80 -95q0 -36 19 -51q21 -16 50 -16q53 0 92 36q12 10 10 32q-2 17 2 102zM317 536q0 -22 -18.5 -37.5t-33.5 -15.5q-28 0 -28 28q0 15 15 33.5t39 18.5q11 0 18.5 -8t7.5 -19zM170 536
q0 -22 -18.5 -37.5t-33.5 -15.5q-28 0 -28 28q0 15 15 33.5t39 18.5q12 0 19 -8t7 -19z" />
    <glyph glyph-name="aring" unicode="&#xe5;" horiz-adv-x="406" 
d="M406 42q-7 -13 -9 -16q-2 -2 -18 -17t-19 -17q-4 -3 -10 -3q-28 0 -50.5 23.5t-32.5 56.5q-3 12 -11 2q-6 -8 -26 -25.5t-29 -23.5q-46 -28 -89 -28q-32 0 -56 18q-33 25 -33 61q0 19 6 35.5t10 21.5l14 18q26 32 75 53q56 24 127 36q9 1 10 13q2 15 2 61t-3 60
q-5 26 -27 40q-22 15 -56 15q-42 0 -64 -14q-11 -8 -11 -17q-3 -12 -3 -26q0 -24 -7 -40q-13 -29 -37 -26q-20 3 -20 26q0 17 21 44t48 43q29 19 54.5 24.5t65.5 5.5q48 0 80 -32q11 -10 18 -34t7 -43q-1 -38 -5 -106.5t-4 -80.5q0 -63 15 -84q9 -13 24 -22t25 -11
q3 -1 15 8q3 3 3 1zM262 212q1 4 -1.5 6t-8.5 2q-53 -3 -83 -16q-80 -36 -80 -95q0 -36 19 -51q21 -16 50 -16q53 0 92 36q12 10 10 32q-2 17 2 102zM287 564q0 -34 -24 -57.5t-58 -23.5q-35 0 -59 23.5t-24 57.5t24.5 58t58.5 24t58 -24t24 -58zM263 564q0 24 -17.5 41.5
t-40.5 17.5q-24 0 -41.5 -17.5t-17.5 -41.5q0 -23 17.5 -40t41.5 -17q23 0 40.5 17t17.5 40z" />
    <glyph glyph-name="ae" unicode="&#xe6;" horiz-adv-x="668" 
d="M652 68l-4 -4q-30 -30 -73 -49q-50 -21 -104 -21q-85 0 -141 49q-29 27 -40 57q-3 10 -8 0q-10 -19 -39 -45.5t-41 -33.5q-44 -27 -90 -27q-32 0 -56 18q-33 25 -33 61q0 19 6 35.5t10 21.5l14 18q26 32 75 53q56 24 127 36q9 1 10 13q2 15 2 61t-3 60q-5 26 -27 40
q-22 15 -56 15q-42 0 -64 -14q-11 -8 -11 -17q-3 -12 -3 -26q0 -24 -7 -40q-13 -29 -37 -26q-20 3 -20 26q0 17 21 44t48 43q29 19 54.5 24.5t65.5 5.5q47 0 81 -30q15 -15 17 -34q3 3 6 6.5t7 7t6 5.5q27 25 53.5 34t66.5 9q31 0 60 -12q34 -13 56 -34q35 -30 57 -72
q0 -1 3 -4t2 -6q-1 -7 -11 -8q-8 0 -31 -4l-48.5 -8.5t-32.5 -5.5l-136 -20q-2 -1 -25 -4.5t-26 -5.5q-5 -4 -5 -21q2 -106 68 -162q51 -42 138 -42q41 0 82 19q6 2 22 13l7 5q5 3 7 1v-5zM262 212q0 8 -10 8q-53 -3 -83 -16q-80 -36 -80 -95q0 -36 19 -51q21 -16 50 -16
q53 0 92 36q10 8 10 32q0 12 1 52t1 50zM552 319q1 8 -5 17q-17 46 -48 68q-35 24 -72 24q-38 0 -68 -42q-8 -13 -18 -46t-11 -52q0 -12 4 -13q12 -1 65 6q137 25 144 28q8 4 9 10z" />
    <glyph glyph-name="ccedilla" unicode="&#xe7;" horiz-adv-x="439" 
d="M426 79q-4 -12 -25 -26q-73 -58 -157 -59l-4 -8l-10 -16l-5 -9q12 4 19 4q33 1 53 -18.5t20 -53.5q0 -29 -21 -49.5t-54 -20.5q-36 0 -60 24q-8 5 -4 12q5 6 11 3q26 -15 40 -15q50 0 50 54q-1 19 -12 30t-29 11q-11 0 -23 -7q-7 -2 -14 6q-6 5 -1 14l28 39q-46 2 -81 19
q-55 29 -85 81q-30 53 -30 124q0 53 14 95q17 48 67 89q57 44 130 44q37 0 68 -11t39 -17t23 -19q27 -23 27 -50q0 -31 -27 -31t-46 26q-11 17 -24 54q-8 28 -29 32q-18 4 -38 4q-25 0 -43 -6q-46 -16 -68 -39q-39 -45 -39 -130q0 -98 73 -168q54 -50 136 -50q60 0 109 30
q4 3 9.5 7.5t6.5 4.5l6 3q1 -1 1 -3.5t-1 -3.5z" />
    <glyph glyph-name="egrave" unicode="&#xe8;" horiz-adv-x="436" 
d="M419 68l-4 -4q-27 -29 -72 -49q-53 -21 -104 -21q-87 0 -141 49q-29 25 -46.5 68.5t-18.5 80.5q0 56 11 96q17 66 62 107q28 27 56 38t70 11q32 0 60 -12q31 -12 57 -34q31 -26 56 -71q1 -2 3.5 -5t2.5 -6q0 -6 -11 -8q-8 0 -31 -4l-49 -8.5l-32 -5.5l-136 -20
q-2 0 -25 -4t-27 -6q-5 -4 -5 -21q2 -105 68 -162q51 -42 139 -42q41 0 82 19q13 5 21 13q2 1 4.5 3t3.5 2q4 4 6 1q1 -3 0 -5zM319 319q1 3 -4 17q-20 48 -48 68q-36 24 -73 24t-67 -42q-8 -13 -18 -46t-11 -52q-1 -12 3 -13q12 -1 65 6q134 23 145 28q7 3 8 10zM285 486
q-5 -3 -12 0q-61 40 -157 95q-13 6 -18 13q-4 4 -3 6t7 1q30 7 55 9q5 1 12 -6q15 -16 58 -56.5t56 -51.5q6 -5 2 -10z" />
    <glyph glyph-name="eacute" unicode="&#xe9;" horiz-adv-x="436" 
d="M419 68l-4 -4q-27 -29 -72 -49q-53 -21 -104 -21q-87 0 -141 49q-29 25 -46.5 68.5t-18.5 80.5q0 56 11 96q17 66 62 107q28 27 56 38t70 11q32 0 60 -12q31 -12 57 -34q31 -26 56 -71q1 -2 3.5 -5t2.5 -6q0 -6 -11 -8q-8 0 -31 -4l-49 -8.5l-32 -5.5l-136 -20
q-2 0 -25 -4t-27 -6q-5 -4 -5 -21q2 -105 68 -162q51 -42 139 -42q41 0 82 19q13 5 21 13q2 1 4.5 3t3.5 2q4 4 6 1q1 -3 0 -5zM319 319q1 3 -4 17q-20 48 -48 68q-36 24 -73 24t-67 -42q-8 -13 -18 -46t-11 -52q-1 -12 3 -13q12 -1 65 6q134 23 145 28q7 3 8 10zM341 591
q-12 -9 -20 -13l-85.5 -50.5t-71.5 -41.5q-3 -2 -7.5 -2.5t-6.5 0.5q-3 1 -2 5.5t7 7.5q90 78 111 99q7 7 14 7q4 0 26.5 -2t30.5 -2q16 0 4 -8z" />
    <glyph glyph-name="ecircumflex" unicode="&#xea;" horiz-adv-x="436" 
d="M419 68l-4 -4q-27 -29 -72 -49q-53 -21 -104 -21q-87 0 -141 49q-29 25 -46.5 68.5t-18.5 80.5q0 56 11 96q17 66 62 107q28 27 56 38t70 11q32 0 60 -12q31 -12 57 -34q31 -26 56 -71q1 -2 3.5 -5t2.5 -6q0 -6 -11 -8q-8 0 -31 -4l-49 -8.5l-32 -5.5l-136 -20
q-2 0 -25 -4t-27 -6q-5 -4 -5 -21q2 -105 68 -162q51 -42 139 -42q41 0 82 19q13 5 21 13q2 1 4.5 3t3.5 2q4 4 6 1q1 -3 0 -5zM319 319q1 3 -4 17q-20 48 -48 68q-36 24 -73 24t-67 -42q-8 -13 -18 -46t-11 -52q-1 -12 3 -13q12 -1 65 6q134 23 145 28q7 3 8 10zM339 484
q-5 -3 -17 4q-36 19 -102 65l-37.5 -24.5l-36.5 -24.5t-26 -16t-17 -4q-5 3 5 13q15 19 72 80q3 5 7 5q10 1 32 1q30 0 36 -1q4 -1 7 -3q41 -41 72 -82q8 -11 5 -13z" />
    <glyph glyph-name="edieresis" unicode="&#xeb;" horiz-adv-x="436" 
d="M419 68l-4 -4q-27 -29 -72 -49q-53 -21 -104 -21q-87 0 -141 49q-29 25 -46.5 68.5t-18.5 80.5q0 56 11 96q17 66 62 107q28 27 56 38t70 11q32 0 60 -12q31 -12 57 -34q31 -26 56 -71q1 -2 3.5 -5t2.5 -6q0 -6 -11 -8q-8 0 -31 -4l-49 -8.5l-32 -5.5l-136 -20
q-2 0 -25 -4t-27 -6q-5 -4 -5 -21q2 -105 68 -162q51 -42 139 -42q41 0 82 19q13 5 21 13q2 1 4.5 3t3.5 2q4 4 6 1q1 -3 0 -5zM319 319q1 3 -4 17q-20 48 -48 68q-36 24 -73 24t-67 -42q-8 -13 -18 -46t-11 -52q-1 -12 3 -13q12 -1 65 6q134 23 145 28q7 3 8 10zM341 536
q0 -22 -18.5 -37.5t-33.5 -15.5q-28 0 -28 28q0 15 15 33.5t39 18.5q11 0 18.5 -8t7.5 -19zM194 536q0 -22 -18.5 -37.5t-33.5 -15.5q-28 0 -28 28q0 15 15 33.5t39 18.5q12 0 19 -8t7 -19z" />
    <glyph glyph-name="igrave" unicode="&#xec;" horiz-adv-x="251" 
d="M246 2q-2 -2 -9 -2h-221q-6 0 -7 1q-3 3 -1 8q5 3 7 3l62 5q10 0 11 10q4 44 4 250q0 101 -8 122q-6 15 -16 16l-45 -1l-7 2q-1 2 -1 8q0 4 5 4l26 1q5 0 17.5 1t29.5 2.5t27 2.5l37 6q8 0 7 -8q-1 -3 -3.5 -139.5t-2.5 -157.5q0 -118 21 -120l59 -3q6 0 8 -2q2 -1 2 -4
t-2 -5zM167 486q-5 -3 -12 0q-61 40 -157 95q-13 6 -18 13q-4 4 -3 6t7 1q30 7 55 9q5 1 12 -6q15 -16 58 -56.5t56 -51.5q6 -5 2 -10z" />
    <glyph glyph-name="iacute" unicode="&#xed;" horiz-adv-x="251" 
d="M246 2q-2 -2 -9 -2h-221q-6 0 -7 1q-3 3 -1 8q5 3 7 3l62 5q10 0 11 10q4 44 4 250q0 101 -8 122q-6 15 -16 16l-45 -1l-7 2q-1 2 -1 8q0 4 5 4l26 1q5 0 17.5 1t29.5 2.5t27 2.5l37 6q8 0 7 -8q-1 -3 -3.5 -139.5t-2.5 -157.5q0 -118 21 -120l59 -3q6 0 8 -2q2 -1 2 -4
t-2 -5zM230 591q-12 -9 -20 -13l-85.5 -50.5t-71.5 -41.5q-3 -2 -7.5 -2.5t-6.5 0.5q-3 1 -2 5.5t7 7.5q90 78 111 99q7 7 14 7q4 0 26.5 -2t30.5 -2q16 0 4 -8z" />
    <glyph glyph-name="icircumflex" unicode="&#xee;" horiz-adv-x="251" 
d="M246 2q-2 -2 -9 -2h-221q-6 0 -7 1q-3 3 -1 8q5 3 7 3l62 5q10 0 11 10q4 44 4 250q0 101 -8 122q-6 15 -16 16l-45 -1l-7 2q-1 2 -1 8q0 4 5 4l26 1q5 0 17.5 1t29.5 2.5t27 2.5l37 6q8 0 7 -8q-1 -3 -3.5 -139.5t-2.5 -157.5q0 -118 21 -120l59 -3q6 0 8 -2q2 -1 2 -4
t-2 -5zM229 484q-5 -3 -17 4q-36 19 -102 65l-37.5 -24.5l-36.5 -24.5t-26 -16t-17 -4q-5 3 5 13q15 19 72 80q3 5 7 5q10 1 32 1q31 0 36 -1q4 -1 7 -3q41 -41 72 -82q8 -11 5 -13z" />
    <glyph glyph-name="idieresis" unicode="&#xef;" horiz-adv-x="251" 
d="M246 2q-2 -2 -9 -2h-221q-6 0 -7 1q-3 3 -1 8q5 3 7 3l62 5q10 0 11 10q4 44 4 250q0 101 -8 122q-6 15 -16 16l-45 -1l-7 2q-1 2 -1 8q0 4 5 4l26 1q5 0 17.5 1t29.5 2.5t27 2.5l37 6q8 0 7 -8q-1 -3 -3.5 -139.5t-2.5 -157.5q0 -118 21 -120l59 -3q6 0 8 -2q2 -1 2 -4
t-2 -5zM224 536q0 -22 -18.5 -37.5t-33.5 -15.5q-28 0 -28 28q0 15 15 33.5t39 18.5q11 0 18.5 -8t7.5 -19zM77 536q0 -22 -18.5 -37.5t-33.5 -15.5q-28 0 -28 28q0 15 15 33.5t39 18.5q12 0 19 -8t7 -19z" />
    <glyph glyph-name="eth" unicode="&#xf0;" horiz-adv-x="492" 
d="M464 689q2 -5 0 -6.5t-14 -5.5q-6 -3 -10 -4q-7 -3 -33.5 -10.5t-40.5 -12.5q40 -84 67.5 -217t26.5 -202q0 -98 -69 -167.5t-161 -69.5q-70 0 -92 11q-47 22 -74 73q-33 63 -33 136q0 33 7 60t15 41.5t23 35.5q23 36 74.5 64.5t95.5 28.5q70 0 110 -21q6 -3 8 -1t1 10
q-13 83 -55 198q-17 -6 -47 -15t-38 -12q-16 -6 -17 -3q-1 0 -2 3q-3 7 10 14l36.5 12.5t50.5 18.5q-47 101 -119 101q-48 0 -104 -47q-6 -5 -13 5q-9 12 -2 17q20 16 50.5 27.5t56.5 11.5q56 0 99.5 -19.5t84.5 -77.5q13 3 43.5 13t35.5 11q26 8 29 -1zM387 274
q-17 74 -52 108.5t-105 34.5q-72 0 -105 -45q-31 -41 -27 -123q3 -77 38 -149q40 -77 125 -77q87 0 119 66q10 20 14 68.5t-7 116.5z" />
    <glyph glyph-name="ntilde" unicode="&#xf1;" horiz-adv-x="521" 
d="M510 3q-2 -3 -9 -3h-186q-5 0 -6 3q-2 4 0 6q1 3 6 3q43 3 48 3t8 9q8 59 8 231q0 84 -25 108q-27 24 -75 24q-54 0 -112 -34q-7 -5 -7 -13q-3 -21 -3 -224q0 -100 14 -100l54 -2q7 0 7 -5t-1 -5q0 -4 -6 -4h-201q-5 0 -6 3q-1 1 -1 5t7 4l57 3q4 0 6 8q2 11 4 155.5
t0 174.5q-3 64 -16 63l-45 -1q-6 0 -6 4v6q0 3 5 3l50 3q1 0 20 1.5t24 2.5q3 1 13 3.5t14 2.5q8 0 8 -13q0 -3 1 -27t1 -28q0 -7 1 -8.5t5 0.5q17 10 51.5 33.5t35.5 24.5q31 20 77 20q47 0 81 -36q8 -8 14 -17t9.5 -20t5.5 -18.5t3 -21.5t1 -19v-20.5v-17.5
q0 -31 -1.5 -107.5t-1.5 -81.5q0 -68 12 -68l49 -2q7 0 7 -3q5 -2 1 -8zM383 536q5 -6 -2 -15q-10 -15 -30.5 -26t-43.5 -11q-28 0 -54 14q-48 24 -67 24q-16 0 -31 -16q-7 -9 -12 5q-3 5 4 14q26 32 70 31q26 -1 53 -14q47 -22 67 -22q15 0 35 18q2 3 6 2.5t5 -4.5z" />
    <glyph glyph-name="ograve" unicode="&#xf2;" horiz-adv-x="494" 
d="M464 221q0 -25 -7.5 -58.5t-16.5 -50.5q-33 -66 -86 -94q-43 -24 -104 -24q-51 0 -95 17q-62 27 -90 81q-33 58 -33 125q0 31 6 57t12 39t18 34q32 51 84 77q45 21 120 21q54 0 98 -27q50 -31 73 -82q21 -52 21 -115zM398 198q0 101 -50 161q-53 62 -135 62
q-41 0 -55.5 -6.5t-26.5 -24.5q-29 -40 -29 -128t33 -164q9 -21 28 -41.5t33 -29.5q32 -20 73 -20q39 0 69 15q29 19 46 69q14 37 14 107zM321 486q-5 -3 -12 0q-61 40 -157 95q-13 6 -18 13q-4 4 -3 6t7 1q30 7 55 9q5 1 12 -6q15 -16 58 -56.5t56 -51.5q6 -5 2 -10z" />
    <glyph glyph-name="oacute" unicode="&#xf3;" horiz-adv-x="494" 
d="M464 221q0 -25 -7.5 -58.5t-16.5 -50.5q-33 -66 -86 -94q-43 -24 -104 -24q-51 0 -95 17q-62 27 -90 81q-33 58 -33 125q0 31 6 57t12 39t18 34q32 51 84 77q45 21 120 21q54 0 98 -27q50 -31 73 -82q21 -52 21 -115zM398 198q0 101 -50 161q-53 62 -135 62
q-41 0 -55.5 -6.5t-26.5 -24.5q-29 -40 -29 -128t33 -164q9 -21 28 -41.5t33 -29.5q32 -20 73 -20q39 0 69 15q29 19 46 69q14 37 14 107zM346 591q-12 -9 -20 -13l-85.5 -50.5t-71.5 -41.5q-3 -2 -7.5 -2.5t-6.5 0.5q-3 1 -2 5.5t7 7.5q90 78 111 99q7 7 14 7q4 0 26.5 -2
t30.5 -2q16 0 4 -8z" />
    <glyph glyph-name="ocircumflex" unicode="&#xf4;" horiz-adv-x="494" 
d="M464 221q0 -25 -7.5 -58.5t-16.5 -50.5q-33 -66 -86 -94q-43 -24 -104 -24q-51 0 -95 17q-62 27 -90 81q-33 58 -33 125q0 31 6 57t12 39t18 34q32 51 84 77q45 21 120 21q54 0 98 -27q50 -31 73 -82q21 -52 21 -115zM398 198q0 101 -50 161q-53 62 -135 62
q-41 0 -55.5 -6.5t-26.5 -24.5q-29 -40 -29 -128t33 -164q9 -21 28 -41.5t33 -29.5q32 -20 73 -20q39 0 69 15q29 19 46 69q14 37 14 107zM363 484q-5 -3 -17 4q-36 19 -102 65l-37.5 -24.5l-36.5 -24.5t-26 -16t-17 -4q-5 3 5 13q15 19 72 80q3 5 7 5q10 1 32 1q31 0 36 -1
q4 -1 7 -3q41 -41 72 -82q8 -11 5 -13z" />
    <glyph glyph-name="otilde" unicode="&#xf5;" horiz-adv-x="494" 
d="M464 221q0 -25 -7.5 -58.5t-16.5 -50.5q-33 -66 -86 -94q-43 -24 -104 -24q-51 0 -95 17q-62 27 -90 81q-33 58 -33 125q0 31 6 57t12 39t18 34q32 51 84 77q45 21 120 21q54 0 98 -27q50 -31 73 -82q21 -52 21 -115zM398 198q0 101 -50 161q-53 62 -135 62
q-41 0 -55.5 -6.5t-26.5 -24.5q-29 -40 -29 -128t33 -164q9 -21 28 -41.5t33 -29.5q32 -20 73 -20q39 0 69 15q29 19 46 69q14 37 14 107zM363 536q5 -6 -2 -15q-10 -15 -30.5 -26t-43.5 -11q-28 0 -54 14q-48 24 -67 24q-16 0 -31 -16q-7 -9 -12 5q-3 5 4 14q26 32 70 31
q26 -1 53 -14q47 -22 67 -22q15 0 35 18q2 3 6 2.5t5 -4.5z" />
    <glyph glyph-name="odieresis" unicode="&#xf6;" horiz-adv-x="494" 
d="M464 221q0 -25 -7.5 -58.5t-16.5 -50.5q-33 -66 -86 -94q-43 -24 -104 -24q-51 0 -95 17q-62 27 -90 81q-33 58 -33 125q0 31 6 57t12 39t18 34q32 51 84 77q45 21 120 21q54 0 98 -27q50 -31 73 -82q21 -52 21 -115zM398 198q0 101 -50 161q-53 62 -135 62
q-41 0 -55.5 -6.5t-26.5 -24.5q-29 -40 -29 -128t33 -164q9 -21 28 -41.5t33 -29.5q32 -20 73 -20q39 0 69 15q29 19 46 69q14 37 14 107zM360 536q0 -22 -18.5 -37.5t-33.5 -15.5q-28 0 -28 28q0 15 15 33.5t39 18.5q11 0 18.5 -8t7.5 -19zM213 536q0 -22 -18.5 -37.5
t-33.5 -15.5q-28 0 -28 28q0 15 15 33.5t39 18.5q12 0 19 -8t7 -19z" />
    <glyph glyph-name="oslash" unicode="&#xf8;" horiz-adv-x="494" 
d="M464 221q0 -25 -7.5 -58.5t-16.5 -50.5q-33 -66 -86 -94q-43 -24 -104 -24q-58 0 -95 17q-18 8 -33 19l-35 -53l-15 9l36 53q-28 25 -43 53q-33 58 -33 125q0 31 6 57t12 39t18 34q32 51 84 77q45 21 120 21q48 0 92 -24l33 50l15 -9l-34 -50q46 -31 65 -76
q21 -52 21 -115zM333 375q-46 46 -120 46q-41 0 -55.5 -6.5t-26.5 -24.5q-29 -40 -29 -128t33 -164q1 -1 2.5 -4.5t3.5 -5.5zM398 198q0 91 -44 151q-1 2 -4 6.5l-5 7.5l-195 -291q23 -30 46 -45q32 -20 73 -20q39 0 69 15q29 19 46 69q14 37 14 107z" />
    <glyph glyph-name="ugrave" unicode="&#xf9;" horiz-adv-x="528" 
d="M501 45q1 -3 -3 -8t-8 -7l-42 -23q-3 -1 -13 -8t-13 -8q-10 -5 -12 -4q-3 0 -4.5 2t-2.5 6t-2 6q-21 14 -32 63q-1 9 -8 1q-9 -9 -37 -27t-50 -27q-40 -17 -88 -17q-43 0 -71 30q-26 27 -26 80q0 5 0.5 92t0.5 96q0 123 -19 124l-47 -2q-7 0 -8 3v8q0 3 8 3l46 3
q7 0 25.5 1.5t21.5 1.5l34 4q14 0 3 -9v-300q0 -93 81 -93q73 0 126 41q5 5 4 8q0 2 0.5 62t1 134t0.5 94q0 40 -18 40l-53 -2q-5 0 -6 4v1q-1 4 0 6q1 3 5 3l55 3q2 0 22.5 0.5t24.5 0.5q3 0 13 1.5t14 1.5q9 0 9 -18q0 -1 -1 -142.5t-1 -150.5q-1 -50 12.5 -66.5
t41.5 -15.5q2 -1 4.5 0t4.5 2t3.5 2t2 1t1.5 -1zM323 486q-5 -3 -12 0q-61 40 -157 95q-13 6 -18 13q-4 4 -3 6t7 1q30 7 55 9q5 1 12 -6q15 -16 58 -56.5t56 -51.5q6 -5 2 -10z" />
    <glyph glyph-name="uacute" unicode="&#xfa;" horiz-adv-x="528" 
d="M501 45q1 -3 -3 -8t-8 -7l-42 -23q-3 -1 -13 -8t-13 -8q-10 -5 -12 -4q-3 0 -4.5 2t-2.5 6t-2 6q-21 14 -32 63q-1 9 -8 1q-9 -9 -37 -27t-50 -27q-40 -17 -88 -17q-43 0 -71 30q-26 27 -26 80q0 5 0.5 92t0.5 96q0 123 -19 124l-47 -2q-7 0 -8 3v8q0 3 8 3l46 3
q7 0 25.5 1.5t21.5 1.5l34 4q14 0 3 -9v-300q0 -93 81 -93q73 0 126 41q5 5 4 8q0 2 0.5 62t1 134t0.5 94q0 40 -18 40l-53 -2q-5 0 -6 4v1q-1 4 0 6q1 3 5 3l55 3q2 0 22.5 0.5t24.5 0.5q3 0 13 1.5t14 1.5q9 0 9 -18q0 -1 -1 -142.5t-1 -150.5q-1 -50 12.5 -66.5
t41.5 -15.5q2 -1 4.5 0t4.5 2t3.5 2t2 1t1.5 -1zM365 591q-12 -9 -20 -13l-85.5 -50.5t-71.5 -41.5q-3 -2 -7.5 -2.5t-6.5 0.5q-3 1 -2 5.5t7 7.5q90 78 111 99q7 7 14 7q4 0 26.5 -2t30.5 -2q16 0 4 -8z" />
    <glyph glyph-name="ucircumflex" unicode="&#xfb;" horiz-adv-x="528" 
d="M501 45q1 -3 -3 -8t-8 -7l-42 -23q-3 -1 -13 -8t-13 -8q-10 -5 -12 -4q-3 0 -4.5 2t-2.5 6t-2 6q-21 14 -32 63q-1 9 -8 1q-9 -9 -37 -27t-50 -27q-40 -17 -88 -17q-43 0 -71 30q-26 27 -26 80q0 5 0.5 92t0.5 96q0 123 -19 124l-47 -2q-7 0 -8 3v8q0 3 8 3l46 3
q7 0 25.5 1.5t21.5 1.5l34 4q14 0 3 -9v-300q0 -93 81 -93q73 0 126 41q5 5 4 8q0 2 0.5 62t1 134t0.5 94q0 40 -18 40l-53 -2q-5 0 -6 4v1q-1 4 0 6q1 3 5 3l55 3q2 0 22.5 0.5t24.5 0.5q3 0 13 1.5t14 1.5q9 0 9 -18q0 -1 -1 -142.5t-1 -150.5q-1 -50 12.5 -66.5
t41.5 -15.5q2 -1 4.5 0t4.5 2t3.5 2t2 1t1.5 -1zM365 484q-5 -3 -17 4q-36 19 -102 65l-37.5 -24.5l-36.5 -24.5t-26 -16t-17 -4q-5 3 5 13q15 19 72 80q3 5 7 5q10 1 32 1q31 0 36 -1q4 -1 7 -3q41 -41 72 -82q8 -11 5 -13z" />
    <glyph glyph-name="udieresis" unicode="&#xfc;" horiz-adv-x="528" 
d="M501 45q1 -3 -3 -8t-8 -7l-42 -23q-3 -1 -13 -8t-13 -8q-10 -5 -12 -4q-3 0 -4.5 2t-2.5 6t-2 6q-21 14 -32 63q-1 9 -8 1q-9 -9 -37 -27t-50 -27q-40 -17 -88 -17q-43 0 -71 30q-26 27 -26 80q0 5 0.5 92t0.5 96q0 123 -19 124l-47 -2q-7 0 -8 3v8q0 3 8 3l46 3
q7 0 25.5 1.5t21.5 1.5l34 4q14 0 3 -9v-300q0 -93 81 -93q73 0 126 41q5 5 4 8q0 2 0.5 62t1 134t0.5 94q0 40 -18 40l-53 -2q-5 0 -6 4v1q-1 4 0 6q1 3 5 3l55 3q2 0 22.5 0.5t24.5 0.5q3 0 13 1.5t14 1.5q9 0 9 -18q0 -1 -1 -142.5t-1 -150.5q-1 -50 12.5 -66.5
t41.5 -15.5q2 -1 4.5 0t4.5 2t3.5 2t2 1t1.5 -1zM363 536q0 -22 -18.5 -37.5t-33.5 -15.5q-28 0 -28 28q0 15 15 33.5t39 18.5q11 0 18.5 -8t7.5 -19zM216 536q0 -22 -18.5 -37.5t-33.5 -15.5q-28 0 -28 28q0 15 15 33.5t39 18.5q12 0 19 -8t7 -19z" />
    <glyph glyph-name="yacute" unicode="&#xfd;" horiz-adv-x="434" 
d="M450 424q0 -4 -1 -5q-1 -3 -6 -3l-31 -1q-8 0 -13 -9q-6 -8 -18 -39t-29 -80t-19 -53q-32 -92 -110 -272q-1 -3 -46.5 -98t-56.5 -131q-4 -8 -11 -6l-56 -7l-48 -8q-18 -3 -18 7q0 4 2.5 5.5t5.5 0.5t6 0q30 11 61.5 32.5t47.5 40.5q25 33 60.5 94t45.5 88q2 4 -4 18
q-76 159 -105 233l-66 149q-12 33 -28 34l-29 2q-5 0 -6 3q-3 4 -1 6q2 3 7 3l185 2q3 0 4.5 -1.5t2.5 -1.5v-7q-3 -4 -7 -4l-49 -2q-11 0 -11 -10q0 -6 4 -18q5 -20 58 -141q6 -12 37.5 -82.5t34.5 -78.5q3 -9 5 -11.5t4.5 0t6.5 11.5q29 54 58 148q37 111 37 145
q0 37 -17 37l-51 3q-6 0 -9 3t-1 7q5 4 8 4l158 -3q8 0 8 -4zM368 592q-12 -9 -20 -13l-85.5 -50.5t-71.5 -41.5q-3 -2 -7.5 -2.5t-6.5 0.5q-3 1 -2 5.5t7 7.5q90 78 111 99q7 7 14 7q4 0 26.5 -2t30.5 -2q16 0 4 -8z" />
    <glyph glyph-name="thorn" unicode="&#xfe;" horiz-adv-x="539" 
d="M501 215q0 -44 -18.5 -87.5t-48.5 -73.5q-59 -57 -163 -57q-54 0 -112 31q-11 4 -11 -4v-191q0 -91 22 -93q48 -3 65 -3q7 -2 7 -4q0 -5 -1 -6q-1 -4 -5 -4h-228q-6 0 -7 2q-3 3 -1 7q2 3 8 3l65 5q6 0 9 8q2 7 2 580q0 18 0.5 150t0.5 136q0 114 -21 113l-57 -1
q-5 0 -6 2v7q0 4 4 4l36 1q25 0 80 15l30 11q7 2 9.5 -0.5t-1.5 -7.5q-3 -19 -8 -381q0 -9 0.5 -11t6.5 0q28 26 71 53q34 21 90 21q68 0 119 -51q63 -67 63 -174zM440 197q0 33 -15.5 74t-34.5 62q-50 52 -122 52q-54 0 -78 -12q-31 -17 -36 -25q-3 -3 -3 -9q0 -3 -1 -139
t-1 -141q0 -10 4 -13q59 -34 132 -34q33 0 66.5 14t53.5 33q22 25 28.5 56t6.5 82z" />
    <glyph glyph-name="ydieresis" unicode="&#xff;" horiz-adv-x="434" 
d="M450 424q0 -4 -1 -5q-1 -3 -6 -3l-31 -1q-8 0 -13 -9q-6 -8 -18 -39t-29 -80t-19 -53q-32 -92 -110 -272q-1 -3 -46.5 -98t-56.5 -131q-4 -8 -11 -6l-56 -7l-48 -8q-18 -3 -18 7q0 4 2.5 5.5t5.5 0.5t6 0q30 11 61.5 32.5t47.5 40.5q25 33 60.5 94t45.5 88q2 4 -4 18
q-76 159 -105 233l-66 149q-12 33 -28 34l-29 2q-5 0 -6 3q-3 4 -1 6q2 3 7 3l185 2q3 0 4.5 -1.5t2.5 -1.5v-7q-3 -4 -7 -4l-49 -2q-11 0 -11 -10q0 -6 4 -18q5 -20 58 -141q6 -12 37.5 -82.5t34.5 -78.5q3 -9 5 -11.5t4.5 0t6.5 11.5q29 54 58 148q37 111 37 145
q0 37 -17 37l-51 3q-6 0 -9 3t-1 7q5 4 8 4l158 -3q8 0 8 -4zM351 536q0 -22 -18.5 -37.5t-33.5 -15.5q-28 0 -28 28q0 15 15 33.5t39 18.5q11 0 18.5 -8t7.5 -19zM204 536q0 -22 -18.5 -37.5t-33.5 -15.5q-28 0 -28 28q0 15 15 33.5t39 18.5q12 0 19 -8t7 -19z" />
    <glyph glyph-name="dotlessi" unicode="&#x131;" horiz-adv-x="251" 
d="M246 2q-2 -2 -9 -2h-221q-6 0 -7 1q-3 3 -1 8q5 3 7 3l62 5q10 0 11 10q4 44 4 250q0 101 -8 122q-6 15 -16 16l-45 -1l-7 2q-1 2 -1 8q0 4 5 4l26 1q5 0 17.5 1t29.5 2.5t27 2.5l37 6q8 0 7 -8q-1 -3 -3.5 -139.5t-2.5 -157.5q0 -118 21 -120l59 -3q6 0 8 -2q2 -1 2 -4
t-2 -5z" />
    <glyph glyph-name="Lslash" unicode="&#x141;" horiz-adv-x="559" 
d="M569 104l-37 -75q-2 -6 -14 -27q-4 -8 -5 -5q-2 3 -3 3h-466q-2 0 -6 2q-2 2 -2 4.5t2 3.5q4 2 5 2l71 4q7 0 10 2.5t2 8.5q-3 27 -3 111q0 90 1 177l-64 -16q-20 -5 -23 1q-5 9 13 14q2 0 12 3l27.5 8t34.5 9q2 190 2 204q0 8 -1 22.5t-3 36t-7.5 36.5t-12.5 16l-51 1
q-5 0 -7 2q-2 4 0 9q2 2 6 2h256q4 0 6 -2q4 -7 1 -10q-2 -2 -5 -2l-93 -1q-9 0 -9 -9q-3 -18 -5 -284l110 30q21 6 27 -4q4 -9 2 -11t-17 -6q-39 -11 -122 -30q-2 -96 -2 -193q2 -123 25 -128q162 0 195 5q34 6 58 15.5t32.5 15.5t24.5 20q17 15 27 40q1 3 4 3.5t4.5 -2
t-0.5 -6.5z" />
    <glyph glyph-name="lslash" unicode="&#x142;" horiz-adv-x="252" 
d="M251 377q3 -9 2.5 -10.5t-10.5 -3.5q-4 -1 -7 -2q-16 -5 -76 -20q0 -49 -0.5 -103t-1 -82t-0.5 -31q0 -106 16 -108l66 -5q3 0 5 -2q2 -1 2 -4t-2 -4q-1 -2 -5 -2h-225q-4 0 -5 1t-1 7q0 3 5 3l65 5q13 2 14 12q1 13 1 294q-40 -11 -68 -17l-6 -2t-5 -1t-4 -0.5t-3 -0.5
t-2 0.5l-2 1t-2 2.5q-6 8 14 14q1 0 12 3.5l29.5 9l36.5 10.5v272q0 114 -21 113l-57 -1q-5 0 -5 2q-1 1 -1 7q0 4 4 4l36 1q25 0 80 15l30 11q7 2 9.5 -0.5t-1.5 -7.5q-3 -12 -7 -395q12 3 26.5 7.5t23.5 7t13 3.5q22 7 27 -4z" />
    <glyph glyph-name="OE" unicode="&#x152;" horiz-adv-x="903" 
d="M890 96l-22 -42l-27 -51q-6 -6 -8 -3q-129 0 -477 -6q-110 -2 -176 33q-39 20 -70 55q-74 87 -74 238q0 72 20 130q19 65 64 117q14 16 30.5 29t31.5 21.5t26 13.5t22 9l11 5q27 10 67.5 16.5t64.5 5.5q140 -8 431 -3q34 0 36 3q3 2 7 2.5t5.5 -2t-0.5 -6.5
q-1 -2 -4.5 -15.5l-7.5 -28.5t-5 -19q-8 -22 -12 -21q-4 0 -4 15q2 16 -40.5 33t-78.5 19q-65 2 -165 3q-6 0 -8 -6q-3 -9 -3 -269q0 -6 1 -8t7 -2q6 -1 104 3t105 5q15 2 20 11q18 31 24 56q0 3 3 8q1 3 3.5 2.5t4.5 -3.5q1 -1 1 -6q-10 -60 -10 -85q0 -7 2 -50t2 -46
q0 -8 -1 -9q-1 -2 -4 -2t-4 1q-2 2 -2 6q-2 42 -16 74q-6 12 -22 13q-7 1 -106 4.5t-105 2.5q-5 -1 -5.5 -2t-0.5 -7q0 -2 0.5 -92.5t0.5 -100.5q0 -132 26 -132q123 1 193.5 18.5t124.5 54.5q2 1 9 13t10 13q2 1 3 -3q2 -5 -2 -13zM451 26v311q0 4 -2 104t-2 106
q0 47 -5 74q-42 23 -113 23q-77 0 -110 -22q-54 -39 -78 -98q-29 -68 -29 -174q0 -145 52 -227q38 -60 97 -87q60 -28 113 -28q77 0 77 18z" />
    <glyph glyph-name="oe" unicode="&#x153;" horiz-adv-x="761" 
d="M744 68q0 -2 -4 -4q-27 -29 -72 -49q-50 -21 -104 -21q-87 0 -141 49q-9 8 -17 17q-22 -25 -52 -42q-43 -24 -104 -24q-51 0 -95 17q-62 27 -90 81q-33 58 -33 125q0 31 6 57t12 39t18 34q32 51 84 77q45 21 120 21q54 0 98 -27q24 -15 45 -39l16 16q29 28 56.5 38.5
t69.5 10.5q31 0 61 -12t56 -34q34 -29 56 -71q1 -2 3.5 -5t2.5 -6q0 -6 -11 -8q-8 0 -31 -4l-48.5 -8.5t-32.5 -5.5l-136 -21q-32 -4 -52 -10q-5 -3 -4 -20q2 -105 67 -162q52 -42 139 -42q41 0 82 19q12 5 22 13q1 1 3 2.5t4 2.5q6 2 6 1q1 -3 0 -5zM386 93q-26 48 -28 99
q0 56 11 96q1 2 3.5 10t4.5 13q-16 34 -29 48q-53 62 -135 62q-41 0 -55.5 -6.5t-26.5 -24.5q-29 -40 -29 -128t33 -164q9 -21 28 -41.5t33 -29.5q32 -20 73 -20q39 0 69 15q28 19 48 71zM645 319q0 2 -5 17q-20 48 -48 68q-36 24 -73 24t-67 -42q-27 -44 -29 -99
q-1 -12 4 -13q7 -1 64 7q134 23 145 28q8 4 9 10z" />
    <glyph glyph-name="Scaron" unicode="&#x160;" horiz-adv-x="503" 
d="M456 184q0 -80 -55 -134q-60 -55 -161 -55q-114 0 -166 45q-8 -8 -8 5q0 3 1 9v122q0 4 2 7q4 6 10 0q3 -3 3 -7v-12t2 -19q10 -51 43 -86q47 -50 114 -50q98 0 136 64q19 35 19 81q0 23 -11 45.5t-27 34.5q-39 33 -108 59q-84 29 -125 63q-48 42 -48 128t63 139
q51 44 137 44q39 0 72.5 -9t46.5 -16.5t21 -14.5q3 3 4.5 3.5t2.5 -2t1 -8.5q1 -4 3 -40t2 -41q0 -28 -1 -37q-2 -6 -7 -7t-6 6v10t-1 9q-1 2 -3 14.5t-4 17.5q-8 29 -28 49q-19 22 -55 36.5t-74 14.5q-27 0 -55.5 -12t-44.5 -31q-30 -38 -30 -92q0 -50 37 -84
q10 -9 29.5 -18.5t49 -21.5l39.5 -16q11 -5 31.5 -13t31.5 -13t26 -13t27 -18t23 -22q41 -47 41 -114zM385 802q5 -3 -5 -13q-9 -12 -23 -27l-29 -31t-20 -22q-3 -5 -7 -5q-10 -1 -32 -1q-30 0 -35 1t-8 3q-41 41 -72 82q-8 11 -5 13q5 3 17 -4q55 -29 102 -62q15 9 37 23.5
t37 23.5t26 15q9 6 17 4z" />
    <glyph glyph-name="scaron" unicode="&#x161;" horiz-adv-x="400" 
d="M361 127q0 -50 -32 -87q-40 -46 -122 -46q-100 0 -157 52q-4 -6 -5 0v10q0 5 0.5 27.5t1.5 44.5t1 24q3 7 5 7q3 0 6 -7q0 -3 1 -8l2.5 -12t2.5 -11q14 -56 40 -85q10 -12 29 -19q30 -11 74 -11q47 0 84 27q25 21 25 63q0 12 -6.5 27t-13.5 20q-28 21 -67 35
q-51 17 -57 20q-27 11 -43.5 20.5t-35 25t-27.5 37t-9 49.5q0 44 29 75q41 41 113 41q92 0 134 -42q6 5 6 -1q0 -2 -1 -6v-4q-4 -19 -4 -75q-3 -10 -6 -10q-4 -1 -7 5q-16 59 -30 88q-8 16 -19 22q-30 12 -67 12q-53 0 -82 -27q-26 -24 -26 -55q0 -7 2 -14t4 -12.5t7 -11
l8 -9t10.5 -8.5l10.5 -7t12 -6t11 -5t11 -5l10 -4q24 -10 72 -25q47 -15 72 -38q33 -30 33 -81zM325 582q5 -3 -5 -13q-9 -12 -23 -27l-29 -31t-20 -22q-3 -5 -7 -5q-10 -1 -32 -1q-30 0 -35 1t-8 3q-41 41 -72 82q-8 11 -5 13q5 3 17 -4q55 -29 102 -62q15 9 37 23.5
t37 23.5t26 15q9 6 17 4z" />
    <glyph glyph-name="Ydieresis" unicode="&#x178;" horiz-adv-x="584" 
d="M587 651q-2 -2 -3 -2h-32q-13 0 -27 -24l-90 -150q-3 -4 -27 -42.5l-46.5 -74t-24.5 -39.5q-4 -9 -4 -16q0 -1 -0.5 -88t-0.5 -95q0 -105 19 -105l83 -2q2 0 4 -3q2 0 2.5 -3.5t-0.5 -4.5q-2 -2 -7 -2h-261q-4 0 -6 2q-4 4 -1 7t6 3l75 5q7 0 11 12q2 7 3 36t1 67.5
t-0.5 73.5t-0.5 64l-1 28q0 14 -4 21l-92 147q-1 1 -15 23.5l-29.5 48l-32 52l-23.5 37.5q-14 21 -41 22h-11q-3 0 -5 2q-1 2 -1 8q0 4 6 4h209q4 0 5 -1q2 -1 2 -9q0 -4 -4 -4h-56q-13 0 -14 -11q-2 -5 4 -20q4 -9 38.5 -66t39.5 -66q45 -77 89 -140q6 -10 12 -3
q18 22 60 94t55 102q25 63 24 88q0 22 -21 22h-42q-3 0 -3 2q-1 2 -1 9q0 3 4 3h171q4 0 4 -3v-9zM433 756q0 -22 -18.5 -37.5t-33.5 -15.5q-28 0 -28 28q0 15 15 33.5t39 18.5q11 0 18.5 -8t7.5 -19zM286 756q0 -22 -18.5 -37.5t-33.5 -15.5q-28 0 -28 28q0 15 15 33.5
t39 18.5q12 0 19 -8t7 -19z" />
    <glyph glyph-name="Zcaron" unicode="&#x17d;" horiz-adv-x="659" 
d="M618 140q0 -1 -1 -6.5t-2.5 -13t-3.5 -12.5q-2 -4 -6.5 -18.5l-9.5 -30.5t-6 -18t-7.5 -19.5t-10.5 -22.5q-6 -9 -21 -10h-73q-11 0 -82.5 4t-87.5 4q-6 0 -75 1t-92 1q-8 0 -35 -0.5t-36 -0.5q-26 1 -31 -2q-6 -3 -6 -1t4 10l53 69q13 18 87.5 108.5l95.5 114.5
q23 25 98.5 113t84.5 102q14 15 33 39t20 28q4 9 -16 11q-14 2 -38 0q-46 -4 -213 -4q-138 0 -158 -3q-6 -4 -15 -6q-10 -2 -10 -6l-1 1q-1 6 2 13l22 45q17 29 19 31q11 8 31.5 7t32.5 -6q0 -4 80 -7.5t159 -3.5q9 0 68.5 1.5t62.5 1.5q8 0 21.5 1t23 1.5t10.5 0.5
q9 -1 7 -12q-5 -5 -34.5 -42t-32.5 -40l-131 -152.5t-112 -130.5q-2 -3 -26.5 -30l-50 -55.5t-53 -64t-38.5 -57.5q0 -3 2.5 -4.5t9.5 -2t12 -0.5t15 1q18 1 90 -1t89 -2q173 0 184 4q48 3 71 48q4 7 15 18q1 0 4 2.5t4.5 3.5t3.5 0zM466 803q5 -3 -5 -13q-9 -12 -23 -27
l-29 -31t-20 -22q-3 -5 -7 -5q-10 -1 -32 -1q-30 0 -35 1t-8 3q-41 41 -72 82q-8 11 -5 13q5 3 17 -4q55 -29 102 -62q15 9 37 23.5t37 23.5t26 15q9 6 17 4z" />
    <glyph glyph-name="zcaron" unicode="&#x17e;" horiz-adv-x="436" 
d="M420 70l-12 -36q0 -1 -1 -6.5t-2.5 -11.5l-2.5 -10q0 -9 -8 -4l-369 2q-10 -7 -12 -2q0 3 4.5 10t11.5 14.5t8 9.5q10 12 88.5 89l82.5 81q61 65 108 121q11 12 17.5 25t4.5 17q-3 4 -19 4l-117 1q-61 0 -97 -4q-40 0 -56 -8q-2 -1 -4.5 -5l-4 -6.5t-3.5 -2.5q-4 1 -2 12
q0 1 3.5 6.5l9 14.5t7.5 12q2 5 7.5 13t9 14t3.5 9q1 8 8 3q2 -1 17 -1q5 -1 129.5 -4t136.5 -3q21 0 36 3q10 0 13 -4q1 -3 -8 -14q-26 -26 -59 -69q-12 -15 -128 -142q-60 -60 -116 -123q-11 -14 -10 -18q1 -2 13 -2l98 -2q69 -1 168 11q35 4 41 11q6 3 7 2.5t-1 -7.5z
M360 582q5 -3 -5 -13q-9 -12 -23 -27l-29 -31t-20 -22q-3 -5 -7 -5q-10 -1 -32 -1q-30 0 -35 1t-8 3q-41 41 -72 82q-8 11 -5 13q5 3 17 -4q55 -29 102 -62q15 9 37 23.5t37 23.5t26 15q9 6 17 4z" />
    <glyph glyph-name="florin" unicode="&#x192;" horiz-adv-x="289" 
d="M324 721q0 -8 -7.5 -16.5t-24.5 -8.5q-32 0 -79 44q-7 5 -11 5q-22 0 -34 -16q-20 -23 -20 -157q0 -2 1 -59t1 -81q0 -6 1.5 -7t5.5 -1q12 0 57.5 0.5t47.5 0.5q6 0 6 -4v-8q0 -2 -1 -2.5t-4.5 0t-5.5 0.5t-46.5 -1t-51.5 -1t-7 -7q0 -20 0.5 -200.5t0.5 -190.5
q-1 -66 -13.5 -96.5t-35.5 -50.5q-40 -38 -114 -38q-29 0 -51 15t-22 27q0 8 7.5 16.5t24.5 8.5q31 0 78 -44q7 -5 12 -5q22 0 34 16q19 22 19 157q0 10 -1.5 190.5t-1.5 186.5q0 11 -6 11l-43 -2q-6 0 -6.5 1t0.5 4q1 5 3 7q5 6 11 6q3 0 16 0.5t18 0.5q6 0 6 6v150
q1 66 13 96.5t35 50.5q41 38 115 38q29 0 51 -15t22 -27z" />
    <glyph glyph-name="circumflex" unicode="&#x2c6;" 
d="M252 520q-5 -3 -17 4q-36 19 -102 65l-37.5 -24.5l-36.5 -24.5t-26 -16t-17 -4q-5 3 5 13q15 19 72 80q3 5 7 5q10 1 32 1q30 0 36 -1q4 -1 7 -3q41 -41 72 -82q8 -11 5 -13z" />
    <glyph glyph-name="caron" unicode="&#x2c7;" 
d="M251 577q5 -3 -5 -13q-9 -12 -23 -27l-29 -31t-20 -22q-3 -5 -7 -5q-10 -1 -32 -1q-30 0 -35 1t-8 3q-41 41 -72 82q-8 11 -5 13q5 3 17 -4q55 -29 102 -62q15 9 37 23.5t37 23.5t26 15q9 6 17 4z" />
    <glyph glyph-name="breve" unicode="&#x2d8;" 
d="M222 545q-37 -37 -89 -37q-54 0 -92 38q-10 9 2 20q8 8 14 4q41 -25 77 -25q45 0 72 24q9 6 16 0q8 -7 8 -12t-8 -12z" />
    <glyph glyph-name="dotaccent" unicode="&#x2d9;" 
d="M169 552q0 -15 -12.5 -26t-27.5 -11q-40 0 -40 37q0 41 47 41q33 0 33 -41z" />
    <glyph glyph-name="ring" unicode="&#x2da;" 
d="M213 545q0 -34 -24 -57.5t-58 -23.5q-35 0 -59 23.5t-24 57.5t24.5 58t58.5 24t58 -24t24 -58zM189 545q0 24 -17.5 41.5t-40.5 17.5q-24 0 -41.5 -17.5t-17.5 -41.5q0 -23 17.5 -40t41.5 -17q23 0 40.5 17t17.5 40z" />
    <glyph glyph-name="ogonek" unicode="&#x2db;" 
d="M210 -89q6 -6 -4 -14q-37 -29 -83 -29q-36 0 -54.5 19.5t-16.5 43.5q1 25 21.5 44t40.5 25h15q-32 -22 -31 -61q0 -18 12.5 -31.5t34.5 -14.5q28 -1 54 16q9 5 11 2z" />
    <glyph glyph-name="tilde" unicode="&#x2dc;" 
d="M253 564q5 -6 -2 -15q-10 -15 -30.5 -26t-43.5 -11q-28 0 -54 14q-48 24 -67 24q-16 0 -31 -16q-7 -9 -12 5q-3 5 4 14q26 32 70 31q26 -1 53 -14q47 -22 67 -22q15 0 35 18q2 3 6 2.5t5 -4.5z" />
    <glyph glyph-name="hungarumlaut" unicode="&#x2dd;" 
d="M249 588l-14 -12q-86 -73 -107 -87q-3 -2 -7 -2.5t-4 0.5q-5 5 1 11l20 24l32 38.5l26 31.5q4 7 13 7q20 -2 36 -2q11 0 4 -9zM137 586q-7 -7 -14 -12q-90 -76 -107 -87q-2 -2 -5.5 -2.5t-4.5 0.5q-6 4 1 11l77 94q6 7 14 7q18 -2 36 -2q4 0 5 -2.5t-2 -6.5z" />
    <glyph glyph-name="endash" unicode="&#x2013;" horiz-adv-x="500" 
d="M471 288q0 -6 -1 -7t-6 -1h-422q-7 0 -7 9v17q0 7 1.5 8.5t6.5 1.5l422 1q6 0 6 -7v-22z" />
    <glyph glyph-name="emdash" unicode="&#x2014;" horiz-adv-x="1000" 
d="M967 288q0 -6 -1 -7t-6 -1h-918q-7 0 -7 9v17q0 7 1.5 8.5t6.5 1.5l918 1q6 0 6 -7v-22z" />
    <glyph glyph-name="quoteleft" unicode="&#x2018;" horiz-adv-x="213" 
d="M185 447q-2 -38 -54 -38q-36 0 -61 25t-25 65q0 75 73 127q18 9 22 9q3 0 5 -3t0 -5q-2 -1 -9.5 -4t-9.5 -5q-46 -38 -46 -88q0 -30 14 -38q11 -9 38 -5q25 1 39 -10.5t14 -29.5z" />
    <glyph glyph-name="quoteright" unicode="&#x2019;" horiz-adv-x="213" 
d="M166 539q0 -75 -74 -127q-17 -10 -21 -10q-3 0 -5 3t0 5q2 1 9.5 4.5t9.5 5.5q46 38 46 88q0 29 -14 38q-9 7 -39 5q-24 -1 -38.5 10.5t-13.5 29.5q2 37 54 37q35 0 60.5 -24.5t25.5 -64.5z" />
    <glyph glyph-name="quotesinglbase" unicode="&#x201a;" horiz-adv-x="231" 
d="M191 19q0 -78 -73 -128q-13 -10 -21 -10q-3 0 -5.5 4t-0.5 5t9 5t9 6q47 39 47 87q0 28 -14 38q-10 7 -39 5q-24 -1 -38.5 10.5t-13.5 29.5q2 37 54 37q35 0 60.5 -24.5t25.5 -64.5z" />
    <glyph glyph-name="quotedblleft" unicode="&#x201c;" horiz-adv-x="384" 
d="M352 447q-2 -38 -54 -38q-35 0 -60.5 25t-25.5 65q0 75 74 127q15 9 21 9q3 0 5 -3t0 -5q-2 -1 -9.5 -4t-9.5 -5q-46 -38 -46 -88q0 -30 14 -38q11 -8 39 -5q24 1 38.5 -10.5t13.5 -29.5zM179 447q-2 -38 -54 -38q-36 0 -61 25t-25 65q0 75 73 127q18 9 22 9q3 0 5 -3
t0 -5q-2 -1 -9.5 -4t-9.5 -5q-46 -38 -46 -88q0 -30 14 -38q11 -9 38 -5q25 1 39 -10.5t14 -29.5z" />
    <glyph glyph-name="quotedblright" unicode="&#x201d;" horiz-adv-x="384" 
d="M339 539q0 -75 -73 -127q-20 -10 -22 -10q-3 0 -5 3t0 5q2 1 9.5 4.5t9.5 5.5q46 38 46 88q0 29 -14 38q-9 7 -38 5q-25 -1 -39 10.5t-14 29.5q2 37 54 37q36 0 61 -24.5t25 -64.5zM166 539q0 -75 -74 -127q-17 -10 -21 -10q-3 0 -5 3t0 5q2 1 9.5 4.5t9.5 5.5
q46 38 46 88q0 29 -14 38q-9 7 -39 5q-24 -1 -38.5 10.5t-13.5 29.5q2 37 54 37q35 0 60.5 -24.5t25.5 -64.5z" />
    <glyph glyph-name="quotedblbase" unicode="&#x201e;" horiz-adv-x="384" 
d="M358 19q0 -75 -74 -127q-17 -10 -21 -10q-3 0 -5 3t0 5q2 1 9.5 4.5t9.5 5.5q46 38 46 88q0 29 -14 38q-9 7 -39 5q-24 -1 -38.5 10.5t-13.5 29.5q2 37 54 37q35 0 60.5 -24.5t25.5 -64.5zM183 19q0 -74 -74 -127q-17 -10 -21 -10q-3 0 -5 3t0 5l9 4.5t9 5.5q47 39 47 88
q0 28 -14 38q-10 7 -39 5q-24 -1 -38.5 10.5t-13.5 29.5q0 37 53 37q36 0 61.5 -24.5t25.5 -64.5z" />
    <glyph glyph-name="dagger" unicode="&#x2020;" horiz-adv-x="351" 
d="M331 476q2 -29 -6 -54q-3 -7 -9 -6q-8 2 -60 5t-60 2q-19 -1 -19 -21q0 -3 6.5 -135.5t6.5 -145.5q0 -20 -12 -133.5t-17 -121.5q-2 -3 -4 -5t-4 -1t-3 5q-4 14 -9 116.5t-5 141.5q0 17 29 278v11t-4.5 6.5t-15.5 2.5q-57 0 -113 -8q-7 0 -8 8q-2 9 -2 26.5t4 23.5
q3 2 3.5 2t5 -3t7.5 -4q10 -3 52.5 -6.5t52.5 -2.5q20 3 20 16q0 5 -4 26.5l-10 53t-9 55.5q-1 7 -4 23t-3 19.5t2 12.5q5 3 9.5 2.5t15.5 -3t15 -2.5t17.5 1t15.5 -1q8 -3 6 -11q-4 -11 -21 -78t-18 -83q-1 -24 2 -27t17 0q105 8 117 11q3 1 5 2.5t5 3.5q5 4 6 -2z" />
    <glyph glyph-name="daggerdbl" unicode="&#x2021;" horiz-adv-x="362" 
d="M359 476q0 -36 -7 -54q-2 -6 -3 -7t-6 0h-2q-8 2 -59 5t-59 2q-19 -1 -19 -18q0 -1 7.5 -47.5t7.5 -60.5q0 -18 -5.5 -46t-12.5 -56.5t-7 -29.5q-2 -10 1.5 -14t18.5 -4q68 0 113 9q8 3 11 -11q5 -29 -3 -47q-3 -3 -4 -3t-6 3t-9 4q-9 3 -51 6.5t-52 2.5q-21 -2 -21 -13
q0 -6 4.5 -27.5l11 -52.5t9.5 -55q1 -8 4 -24t3 -19.5t-2 -10.5q-4 -3 -12.5 -3t-18 1.5t-11.5 1.5q-31 0 -34 1q-8 4 -6 12q4 12 21.5 78t18.5 82q3 22 -1 25.5t-17 -0.5q-92 -7 -117 -11q-2 0 -4 -1.5t-6 -3.5q-8 -5 -9 1q0 36 7 54q2 5 3 6t3 1.5t5 -0.5q8 -2 59 -5
t59 -2q20 1 20 18q0 5 -7.5 64t-7.5 71q0 14 12 59t12 46q2 10 -1.5 13.5t-18.5 3.5q-53 0 -113 -8q-4 -1 -6.5 1.5t-4.5 9.5q-5 29 3 46q4 4 4.5 4t6 -3t8.5 -4q9 -3 51 -6.5t53 -2.5q21 2 21 14q0 6 -4.5 27l-11 53t-10.5 54q-7 46 -5 54q4 3 10.5 3t18 -2t13.5 -2t9 0.5
t13.5 0.5t10.5 -1q10 -5 7 -12q-4 -12 -21.5 -78t-18.5 -82q-2 -22 2.5 -25.5t16.5 0.5q105 8 116 11q5 1 11.5 5.5t7.5 -1.5z" />
    <glyph glyph-name="bullet" unicode="&#x2022;" horiz-adv-x="662" 
d="M598 282q0 -110 -78 -188t-188 -78t-188 78t-78 188t78 188t188 78t188 -78t78 -188z" />
    <glyph glyph-name="ellipsis" unicode="&#x2026;" horiz-adv-x="565" 
d="M501 30q0 -15 -12 -25.5t-28 -10.5q-39 0 -39 36q0 42 48 42q5 0 11 -2t13 -12.5t7 -27.5zM318 30q0 -15 -11.5 -25.5t-27.5 -10.5q-40 0 -40 36q0 42 48 42q6 0 11.5 -2t12.5 -12.5t7 -27.5zM136 30q0 -15 -12 -25.5t-28 -10.5q-39 0 -39 36q0 42 48 42q5 0 11 -2
t13 -12.5t7 -27.5z" />
    <glyph glyph-name="perthousand" unicode="&#x2030;" horiz-adv-x="1157" 
d="M773 175q0 -39 -20 -92q-18 -45 -66 -73q-33 -20 -78 -20q-48 0 -70 12q-51 21 -71 65q-23 46 -23 105q0 50 29 102l15.5 24.5t17 18t27.5 18.5q44 22 93 22q41 0 74 -19q44 -30 56 -66q16 -42 16 -97zM1136 175q0 -39 -20 -92q-18 -45 -67 -73q-32 -20 -77 -20
q-48 0 -70 12q-51 21 -71 65q-23 46 -23 105q0 50 29 102q10 17 15.5 24.5t16.5 17.5t28 19q44 22 92 22q39 0 75 -19q42 -28 56 -66q16 -42 16 -97zM355 447q0 -42 -20 -89q-19 -48 -68 -76q-30 -19 -79 -19q-38 0 -68 12q-21 8 -41 25.5t-29 38.5q-23 49 -23 105
q0 53 28 103q25 43 65 63t87 20q42 0 76 -18q43 -31 55 -68q17 -40 17 -97zM1083 156q0 79 -37 129q-37 48 -99 48q-28 0 -40 -5t-22 -21q-22 -34 -22 -101q0 -73 23 -127q7 -17 20 -34.5t23 -23.5q26 -17 54 -17q36 0 53 10q24 17 37 53q10 30 10 89zM302 428q0 79 -37 129
q-37 49 -100 49q-30 0 -40 -4t-20 -20q-23 -35 -23 -100q0 -71 24 -132q7 -18 22 -36t25 -24q19 -13 53 -13q32 0 50 11q23 14 36 52q10 25 10 88zM720 156q0 79 -37 129q-37 48 -99 48q-28 0 -40 -5t-22 -21q-21 -32 -21 -101q0 -71 22 -127q7 -17 20 -34.5t23 -23.5
q26 -17 54 -17q36 0 53 10q10 6 21 22.5t16 30.5q10 30 10 89zM534 666q2 -2 -3 -12q-44 -112 -271 -747q-1 -1 -2.5 -4t-2.5 -4q-5 0 -7 1q-1 0 -4 3q-2 3 2 9l265 748q3 8 9 12q2 0 4.5 -0.5t3.5 -0.5q4 -4 6 -5z" />
    <glyph glyph-name="guilsinglleft" unicode="&#x2039;" horiz-adv-x="282" 
d="M226 98l-7 -1q-3 1 -11 7q-47 35 -141 111q-13 9 -13 16q0 1 -0.5 7t-0.5 8q0 7 9 15q76 66 137 132q4 7 10 11q5 3 8 0l1 -7q-1 -4 -10 -17q-23 -37 -95 -133l-7 -8q8 -11 9 -12q56 -65 104 -113q6 -4 7 -9q3 -4 0 -7z" />
    <glyph glyph-name="guilsinglright" unicode="&#x203a;" horiz-adv-x="282" 
d="M230 245q0 -1 -1 -7t-1 -8q0 -4 -1.5 -6t-5.5 -5.5t-5 -4.5l-64.5 -51l-77.5 -60l-11 -7q-4 -1 -7 1v7q0 2 8 10q65 67 103 112l9 12q-4 5 -6 9q-58 75 -96 132q-1 2 -3 5l-3 4.5t-2.5 3.5t-1.5 4q-1 4 2 7h7q4 -2 11 -11q65 -70 136 -132q10 -9 10 -15z" />
    <glyph glyph-name="fraction" unicode="&#x2044;" horiz-adv-x="297" 
d="M286 718q2 -2 -3 -20q-14 -45 -121.5 -365.5t-122.5 -360.5q-4 -14 -10 -17q-9 0 -12 4q-5 5 3 20q176 535 244 726q3 12 11 17q8 0 11 -4z" />
    <glyph glyph-name="trademark" unicode="&#x2122;" horiz-adv-x="749" 
d="M719 337q0 -5 -3 -5h-121q-5 0 -5 4v9q0 2 4 2h26q5 0 5 6v124q0 75 -2 99q0 11 -5 3q-21 -42 -87 -196q-16 -32 -22 -54q-4 -4 -5 -4q-5 0 -7 5q-1 3 -34.5 72l-34.5 71q-44 94 -58 119q-5 9 -6 -1q0 -1 -0.5 -62.5t-0.5 -84.5v-55q0 -42 10 -42h29q4 0 4 -3v-8
q0 -4 -3 -4h-86q-4 0 -4 3v9q0 3 4 3h25q5 0 5 10q0 13 2 73t2 68q4 60 4 114q0 24 -24 37q-3 2 -22 4q-3 0 -3 2v8q0 3 3 3h63q5 0 7 -3q3 -7 24 -49l25 -50q12 -30 84 -175q5 -5 7 -2q6 10 60 131q6 12 33.5 76.5t28.5 68.5q3 3 9 3h51q7 0 8 -2q2 -1 2 -4t-2 -4
q-2 -3 -7 -3h-20q-7 0 -8 -14q-1 -10 -1 -126q0 -5 0.5 -56t0.5 -55q4 -55 15 -55h28q2 0 2 -2v-8zM295 663q0 -4 -3 -19.5l-4 -20.5q-1 -3 -4 -3q-2 0 -2 1q0 2 -1 5q-9 16 -19 18q-59 9 -74 9q-4 0 -4 -2q-2 -44 -2 -234q0 -70 12 -70h43h1v-2v-9q0 -4 -1 -4h-148
q-3 0 -3 4v9q0 2 1 2h1h40q5 0 5 7q0 2 1 26t1 30q0 4 1.5 86t1.5 85q0 72 -11 72q-48 0 -80 -12q-15 -5 -23 -16q-3 -5 -5 -6q-4 -3 -4 1q0 1 2 9l12 37q1 3 6 5q46 -7 126 -7q4 0 55.5 1t58.5 1q4 0 7.5 0.5t5.5 1t3 0.5q4 0 4 -5z" />
    <glyph glyph-name="radical" unicode="&#x221a;" horiz-adv-x="697" 
d="M684 650q0 -4 -1.5 -6.5t-3.5 -3.5t-7.5 -3t-9.5 -4q-100 -44 -221 -232.5t-171 -394.5q-4 -20 -12 -20q-7 0 -10 20q-11 62 -56 142t-79 106q-43 31 -94 -11q-6 -4 -8 0q-2 3 2 9q18 18 57 54q22 22 53 10q31 -14 66 -60t61 -114l6.5 -18l5 -14.5t3.5 -9.5t4 -6.5
t4 -1.5q8 0 19 35q39 129 101 252.5t133.5 206.5t127.5 83q30 0 30 -19z" />
    <glyph glyph-name="Pcircle" unicode="&#x24c5;" horiz-adv-x="540" 
d="M512 409q0 -101 -71 -171.5t-171 -70.5t-171 70.5t-71 171.5t71 171.5t171 70.5t171 -70.5t71 -171.5zM493 409q0 96 -64 162.5t-159 66.5t-159.5 -66.5t-64.5 -162.5t64.5 -162.5t159.5 -66.5t159 66.5t64 162.5zM386 484q0 -91 -107 -91q-17 0 -32 6q-3 1 -3 -2v-65
q0 -47 10 -47h32q5 0 5 -3v-2q0 -3 -4 -3h-119q-4 0 -4 3v2q0 3 3 3h30q3 0 3 6v196q0 59 -7 59h-29q-3 0 -3 2v4q0 2 3 2h66q1 0 13 0.5t24.5 0.5h25.5t18 -1q32 -5 52 -21q23 -21 23 -49zM338 473q0 32 -21 49q-1 1 -6 5.5t-8 6.5t-10 5t-17.5 4.5t-23.5 1.5q-5 0 -7 -1
h-1v-78v-16v-25v-14q0 -3 2 -4q15 -5 28 -5q35 0 49.5 21t14.5 50z" />
    <glyph glyph-name="apple" unicode="&#xf8ff;" horiz-adv-x="662" 
d="M598 283q0 -110 -78 -188.5t-188 -78.5t-187.5 78.5t-77.5 188.5t77.5 187.5t187.5 77.5t188 -77.5t78 -187.5zM558 297q11 20 3 67.5t-34 77.5q-14 17 -21.5 25t-17.5 14t-14 7.5t-22 7.5q-52 19 -63 -40q-1 -3 -15 -40t-16 -62q-1 -16 -4.5 -38.5t-3.5 -26t3 -14.5
q6 -8 39 -8q4 0 30.5 1t43.5 2t40 4t36 9t16 14zM339 300q4 18 -3.5 90t-19.5 104q-8 21 -38 22t-57.5 -9.5t-36.5 -20.5l-11.5 -14.5l-11 -14t-9.5 -14t-7 -13t-3 -12t2 -10.5q12 -19 64.5 -78t69.5 -63q22 -4 39 6t22 27zM557 176q9 35 -2 52t-46 19l-119 8
q-16 1 -31 -19.5t-6 -48.5q26 -83 48 -107q27 -29 60 -6q49 34 69 54t27 48zM273 252q-26 26 -66 53.5t-71.5 40t-34.5 1.5q-6 -14 -3 -82t18 -101q6 -17 18.5 -21.5t25.5 5.5q10 9 47.5 27.5t60.5 23.5q31 10 30.5 18.5t-25.5 34.5zM357 72q0 15 -4 37.5t-8.5 44t-5.5 25.5
q-2 17 -15.5 22.5t-36.5 -8.5q-9 -9 -35 -26.5l-47.5 -33t-22.5 -21.5q-3 -13 20.5 -39t48.5 -33q28 -10 67 -1.5t39 33.5z" />
    <glyph glyph-name="s_t" unicode="&#xfb06;" horiz-adv-x="760" 
d="M736 60q0 -5 -5 -8q-13 -13 -49 -31q-2 -1 -8.5 -4t-8.5 -4l-8 -4t-8.5 -3.5t-8 -2.5t-9 -2.5t-9 -2t-10.5 -1.5t-12 -0.5t-14 -0.5q-51 0 -77 27.5t-26 74.5q0 7 2.5 106t2.5 104q0 56 -2 80q0 10 -9 15q-8 3 -27.5 7.5t-21.5 5.5q-3 1 -4.5 3t-1.5 3l1 1q-1 5 4 6l6 2
q36 9 53 16q10 4 12 18q14 89 14 172q0 35 -11 37q-81 15 -135 15q-57 0 -103 -33q-20 -14 -32 -42.5t-11 -62.5q2 -49 38 -90q18 -22 36 -31q19 -8 39 -24q1 -1 4 0q3 0 3 -2.5t-1 -10.5q-4 -19 -4 -75q-3 -10 -6 -10q-4 -1 -7 5q-18 62 -28 83q-8 19 -17 24q-25 15 -71 15
q-53 0 -82 -27q-26 -24 -26 -55q0 -7 2 -14t4 -12.5t7 -11l8 -9t10.5 -8.5l10.5 -7t12 -6t11 -5t11 -5l10 -4q24 -10 72 -25q47 -15 72 -38q33 -30 33 -81q0 -50 -32 -87q-40 -46 -122 -46q-100 0 -157 52q-1 1 -2 0q-3 8 -3 10q0 5 0.5 27.5t1.5 44.5t1 24q3 7 5 7
q3 0 6 -7q0 -3 1 -8l2.5 -12t2.5 -11q14 -56 40 -85q10 -12 29 -19q30 -11 74 -11q47 0 84 27q25 21 25 63q0 12 -6.5 27t-13.5 20q-28 21 -67 35q-51 17 -57 20q-27 11 -43.5 20.5t-35 25t-27.5 37t-9 49.5q0 44 29 75q41 41 113 41q35 0 59 -8q1 0 2.5 1.5t0.5 2.5
q-73 63 -73 132q-2 72 47 111q45 34 114 34q36 -1 106 -21q33 -10 80 -17q4 -1 13 1.5t12 2.5q8 0 5 -14q-2 -9 -8 -113q-2 -44 -2 -114v-3v-6.5t1.5 -3t4.5 -1.5q4 0 78.5 1t77.5 1q7 0 8.5 -1t-0.5 -5q0 -2 -5 -10q-3 -4 -11 -4h-146q-5 1 -7 -1.5t-1 -7.5
q-1 -5 -3 -132.5t-2 -141.5q0 -42 13 -63q23 -34 71 -34q41 0 65 13q9 4 28 18q4 3 8 -3z" />
    <glyph glyph-name="c_t" horiz-adv-x="792" 
d="M767 60q1 -4 -4 -8q-19 -16 -49 -31q-2 -1 -8.5 -4t-8.5 -4l-8 -4t-8.5 -3.5t-8 -2.5t-9 -2.5t-9 -2t-10.5 -1.5t-12 -0.5t-14 -0.5q-51 0 -77 27.5t-26 74.5q0 7 2 106t2 104q0 55 -1 80q0 11 -10 15q-9 4 -27.5 8t-20.5 5q-3 1 -4.5 3t-1.5 3v1q0 3 0.5 4t1.5 1t3.5 1
t4.5 2q35 7 56 17q8 4 10 17q14 89 14 172q0 35 -11 37q-70 13 -158 13q-61 0 -103 -33q-43 -36 -43 -95q0 -48 38 -90q15 -21 33 -30q62 -29 73 -40q27 -25 27 -50q0 -31 -27 -31t-46 26q-11 17 -24 54q-8 28 -29 32q-18 4 -38 4q-23 0 -43 -6q-48 -16 -68 -39
q-39 -40 -39 -130q0 -98 73 -168q54 -50 136 -50q60 0 109 30q4 2 9 6.5t7 5.5l6 3q5 -2 0 -7q-4 -12 -25 -26q-75 -59 -160 -59q-56 0 -94 19q-55 29 -85 81q-30 53 -30 124q0 53 14 95q17 48 67 89q65 51 159 41q5 0 2 4q-76 65 -76 134q-1 65 47 104q44 33 112 33
q35 0 122 -20q61 -14 91 -14q4 0 12 0.5t11 0.5q8 0 5 -14q-2 -9 -8 -109q-1 -22 -1 -118q0 -14 4 -14q6 0 80.5 1t76.5 1q6 0 7.5 -1.5t-0.5 -4.5q0 -5 -5 -10q-2 -4 -10 -4h-146q-8 0 -9 -9q0 -15 -2 -142t-2 -132q-2 -42 13 -63q23 -34 71 -34q37 0 65 13q10 4 29 17
q5 1 6 -2z" />
    </font>
</defs>
</svg>
