<?xml version="1.0" standalone="no"?>
<!DOCTYPE svg PUBLIC "-//W3C//DTD SVG 1.1//EN" "http://www.w3.org/Graphics/SVG/1.1/DTD/svg11.dtd" >
<svg>
<metadata>
Created by FontForge 20090622 at Tue Aug  8 09:27:37 2017
 By deploy user
Copyright &#194;&#169; 1995, The Font Bureau, Inc. All rights reserved.
</metadata>
<defs>
<font id="Californian-MiddleItalic" horiz-adv-x="272" >
  <font-face 
    font-family="Californian Middle"
    font-weight="400"
    font-style="italic"
    font-stretch="normal"
    units-per-em="1000"
    panose-1="2 0 6 6 8 0 0 9 0 4"
    ascent="800"
    descent="-200"
    x-height="440"
    cap-height="663"
    bbox="-182.15 -283 964 844"
    underline-thickness="20"
    underline-position="-113"
    slope="-12"
    unicode-range="U+0020-U+FB06"
  />
<missing-glyph horiz-adv-x="500" 
d="M80 520v-340h340v340h-340zM50 150v400h400v-400h-400z" />
    <glyph glyph-name="ff" unicode="ff" horiz-adv-x="466" 
d="M625 718q-3 -27 -39 -27q-25 0 -48 36q-2 4 -9 4q-18 0 -28 -10q-47 -41 -64 -139q-1 -3 -7.5 -31l-15 -66t-13.5 -63q-1 -8 -0.5 -9.5t5.5 -1.5h89q3 0 4 -0.5t0 -2.5q-3 -9 -3 -16q0 -4 -6 -4q-3 0 -43.5 1t-42.5 1q-8 0 -10 -4t-14.5 -66l-28 -139.5t-23.5 -108.5
q-27 -110 -46 -158q-35 -81 -83 -117q-43 -35 -91 -35q-57 0 -54 36q2 11 12 18t23 7q20 0 39 -25q7 -11 17 -11q20 0 33 16q25 29 47 101q11 33 39 165q8 34 23.5 110.5l27 137.5t12.5 65q5 8 -2 8h-150q-8 0 -10 -4q-3 -4 -17 -73.5l-31.5 -155t-24.5 -115.5
q-27 -110 -46 -158q-35 -81 -83 -117q-43 -35 -91 -35q-57 0 -54 36q1 10 11.5 17.5t23.5 7.5q20 0 39 -25q7 -11 17 -11q20 0 33 16q25 29 47 101q11 33 39 165l24.5 117.5l31 154t14.5 71.5q3 5 2.5 6.5t-4.5 1.5l-58 -2q-5 0 -5 4q1 9 3 14q1 5 7 5q2 0 26.5 0.5
t29.5 0.5q7 0 7 5q3 14 8 35t10.5 41.5t6.5 22.5q26 103 96 163q47 38 97 38q27 0 42 -13t13 -31q-2 -28 -39 -28q-25 0 -48 37q-2 4 -9 4q-15 0 -28 -11q-40 -35 -59 -138l-24 -115q-2 -8 -1 -9t6 -1h152q6 0 7 5q1 8 18.5 75.5t18.5 69.5q25 99 99 162q48 38 97 38
q27 0 42.5 -13t13.5 -31z" />
    <glyph glyph-name="fi" unicode="fi" horiz-adv-x="474" 
d="M411 60q1 -4 -3 -7q-30 -21 -71 -39t-71 -20q-11 -2 -17.5 5t-5.5 21q7 45 31 139q9 37 28 106.5t25 97.5q1 6 2 9.5t1 7.5t-1 6t-4 2q-8 0 -30.5 0.5t-38.5 0.5q-10 0 -45 0.5t-36 0.5q-8 0 -10 -4q-3 -4 -17 -73l-31.5 -155t-24.5 -116q-27 -110 -46 -158
q-35 -81 -83 -117q-43 -35 -91 -35q-57 0 -54 36q1 10 11.5 17.5t23.5 7.5q20 0 39 -25q7 -11 17 -11q20 0 33 16q25 29 47 101q11 33 39 165l24.5 117.5l31 154t14.5 71.5q3 5 2.5 6.5t-4.5 1.5l-58 -2q-5 0 -5 4q1 9 3 14q1 5 7 5q2 0 26.5 0.5t29.5 0.5q6 0 7 5l37 145
q26 99 100 162q47 38 97 38q27 0 42 -13t13 -31q-2 -27 -39 -27q-10 0 -24 10.5t-24 25.5q-2 4 -9 4q-16 0 -28 -10q-46 -40 -64 -139l-35 -160q-4 -11 5 -11q49 0 84 1q51 0 88 12q44 19 49 18q13 -4 8 -24q-7 -40 -32 -129q-2 -8 -35 -125q-8 -26 -16.5 -67t-10.5 -47
q-2 -9 1.5 -14t11.5 -3q34 6 75 32q6 4 8 0z" />
    <glyph glyph-name="fl" unicode="fl" horiz-adv-x="483" 
d="M487 725q-27 -87 -64 -255q-11 -48 -40 -163t-35 -142q-20 -86 -23 -111q-1 -9 1 -14.5t9 -4.5q31 4 72 30q6 4 8 -1l2 -5q2 -6 -2 -7q-26 -20 -68.5 -37.5t-70.5 -21.5q-10 -2 -18 5.5t-6 18.5q9 68 27 132q6 26 30 119t31 125q33 127 47 195q17 83 20 108q1 12 -5 14
q-2 2 -9 2q-8 -20 -36 -20q-11 0 -25 10t-24 25q-2 4 -9 4q-16 0 -28 -10q-46 -40 -64 -139l-35 -160q-3 -10 5 -10h89q4 0 3 -4q0 -1 -1 -7.5t-1 -8.5q0 -4 -6 -4q-3 0 -43.5 1.5t-42.5 1.5q-8 0 -10 -5q-3 -4 -17 -73l-31.5 -155t-24.5 -116q-27 -110 -46 -158
q-35 -81 -83 -117q-43 -35 -91 -35q-57 0 -54 36q1 10 11.5 17.5t23.5 7.5q20 0 39 -25q7 -11 17 -11q20 0 33 16q25 29 47 101q11 33 39 165l24.5 117.5l31 154t14.5 71.5q3 5 2.5 6.5t-4.5 1.5l-58 -2q-5 0 -5 4q1 9 3 14q1 5 7 5q2 0 26.5 0.5t29.5 0.5q6 0 7 5l37 145
q26 99 100 162q47 38 97 38q26 0 36 -7.5t15 -24.5q17 3 46 9.5t37 7.5q9 1 12 -5.5t1 -16.5z" />
    <glyph glyph-name="ffi" unicode="ffi" horiz-adv-x="704" 
d="M640 60q2 -4 -3 -7q-29 -21 -70 -39t-71 -20q-11 -2 -18 5t-5 21q3 23 30 139q10 41 29 109.5t25 94.5q1 5 2 9t1 8t-1.5 6t-3.5 2q-8 0 -31 0.5t-39 0.5q-10 0 -45 0.5t-36 0.5q-8 0 -10 -4t-14.5 -66l-28 -139.5t-23.5 -108.5q-27 -110 -46 -158q-35 -81 -83 -117
q-43 -35 -91 -35q-57 0 -54 36q2 11 12 18t23 7q20 0 39 -25q7 -11 17 -11q20 0 33 16q25 29 47 101q11 33 39 165q8 34 23.5 110.5l27 137.5t12.5 65q5 8 -2 8h-150q-8 0 -10 -4q-3 -4 -17 -73.5l-31.5 -155t-24.5 -115.5q-27 -110 -46 -158q-35 -81 -83 -117
q-43 -35 -91 -35q-57 0 -54 36q1 10 11.5 17.5t23.5 7.5q20 0 39 -25q7 -11 17 -11q20 0 33 16q25 29 47 101q11 33 39 165l24.5 117.5l31 154t14.5 71.5q3 5 2.5 6.5t-4.5 1.5l-58 -2q-5 0 -5 4q1 9 3 14q1 5 7 5q2 0 26.5 0.5t29.5 0.5q7 0 7 5q3 14 8 35t10.5 41.5
t6.5 22.5q26 103 96 163q47 38 97 38q27 0 42 -13t13 -31q-2 -28 -39 -28q-25 0 -48 37q-2 4 -9 4q-15 0 -28 -11q-40 -35 -59 -138l-24 -115q-2 -8 -1 -9t6 -1h152q6 0 7 5q1 8 18.5 75.5t18.5 69.5q25 99 99 162q48 38 97 38q27 0 42.5 -13t13.5 -31q-3 -27 -39 -27
q-25 0 -48 36q-2 4 -9 4q-18 0 -28 -10q-47 -41 -64 -139q-1 -3 -7.5 -31l-15 -66t-13.5 -63q-1 -8 -0.5 -9.5t5.5 -1.5q50 0 84 1q52 0 89 12q44 19 49 18q12 -4 8 -24q-6 -31 -32 -129q-11 -43 -36 -125q0 -1 -26 -114q-2 -9 1 -14t12 -3q34 6 74 32q6 4 8 0q2 -2 3 -5z
" />
    <glyph glyph-name="ffl" unicode="ffl" horiz-adv-x="712" 
d="M716 725q-27 -87 -64 -255q-11 -48 -40 -163t-35 -142q-20 -86 -23 -111q-1 -9 1 -14.5t9 -4.5q31 4 72 30q6 4 8 -1l2 -5q2 -6 -2 -7q-26 -20 -68.5 -37.5t-70.5 -21.5q-11 -2 -18 5.5t-6 18.5q9 68 27 132q6 26 30 119t31 125q33 127 47 195q18 86 19 108q3 12 -4 14
q-2 2 -9 2q-8 -20 -35 -20q-26 0 -49 35q-2 4 -9 4q-18 0 -28 -10q-47 -41 -64 -139q-1 -3 -7.5 -31l-15 -66t-13.5 -63q-2 -5 -1 -7t2 -2.5t5 -0.5h89q5 0 4 -4q-3 -6 -3 -16q0 -4 -6 -4q-3 0 -43.5 1.5t-42.5 1.5q-9 0 -11 -5q-2 -4 -14.5 -66l-28 -139.5t-23.5 -108.5
q-27 -110 -46 -158q-35 -81 -83 -117q-43 -35 -91 -35q-57 0 -54 36q2 11 12 18t23 7q20 0 39 -25q7 -11 17 -11q20 0 33 16q25 29 47 101q11 33 39 165q8 34 23.5 110.5l27 137.5t12.5 65q5 8 -2 8h-150q-8 0 -10 -4q-3 -4 -17 -73.5l-31.5 -155t-24.5 -115.5
q-27 -110 -46 -158q-35 -81 -83 -117q-43 -35 -91 -35q-57 0 -54 36q1 10 11.5 17.5t23.5 7.5q20 0 39 -25q7 -11 17 -11q20 0 33 16q25 29 47 101q11 33 39 165l24.5 117.5l31 154t14.5 71.5q3 5 2.5 6.5t-4.5 1.5l-58 -2q-5 0 -5 4q1 9 3 14q1 5 7 5q2 0 26.5 0.5
t29.5 0.5q7 0 7 5q3 14 8 35t10.5 41.5t6.5 22.5q26 103 96 163q47 38 97 38q27 0 42 -13t13 -31q-2 -28 -39 -28q-25 0 -48 37q-2 4 -9 4q-15 0 -28 -11q-40 -35 -59 -138l-24 -115q-2 -8 -1 -9t6 -1h152q6 0 7 5q1 8 18.5 75.5t18.5 69.5q25 99 99 162q48 38 97 38
q41 0 51 -32q17 3 46 9.5t37 7.5q9 1 12 -5.5t1 -16.5z" />
    <glyph glyph-name=".notdef" horiz-adv-x="500" 
d="M80 520v-340h340v340h-340zM50 150v400h400v-400h-400z" />
    <glyph glyph-name=".null" horiz-adv-x="0" 
 />
    <glyph glyph-name="nonmarkingreturn" horiz-adv-x="333" 
 />
    <glyph glyph-name="space" unicode=" " horiz-adv-x="170" 
 />
    <glyph glyph-name="exclam" unicode="!" horiz-adv-x="261" 
d="M212 619q0 -13 -20 -136q-11 -65 -48 -193t-41 -147q-5 -13 -10 -13q-3 0 -6 5.5t-2 12.5q0 6 3 18q22 101 23 113q27 177 24 329q0 42 -1 49q-3 11 -0.5 13t11.5 -6l10 -6q10 -5 13 -6q18 -13 33 -16q11 -4 11 -17zM126 38q-1 -20 -15 -33t-34 -13q-19 0 -30.5 12.5
t-10.5 33.5t15 34.5t34 13.5q18 0 30 -14t11 -34z" />
    <glyph glyph-name="quotedbl" unicode="&#x22;" horiz-adv-x="278" 
d="M252 641q3 -3 -3 -18q-9 -25 -17 -83.5t-20 -88.5q-1 -2 -2 -5t-1.5 -5t-1.5 -4t-2 -3q-6 -4 -16 1q-6 4 -8 10q-1 4 3 18q9 28 13 87t12 86q3 12 10 17q13 0 20 -2q12 -6 13 -10zM168 641q3 -6 -3 -18q-10 -27 -18.5 -85t-19.5 -86q-4 -12 -7 -17q-7 -4 -15 1
q-8 6 -8 11q-2 8 2 18q7 22 11 80.5t15 90.5q4 13 9 17q13 2 20 -1q14 -7 14 -11z" />
    <glyph glyph-name="numbersign" unicode="#" horiz-adv-x="526" 
d="M509 362q-3 -11 -3 -19l-10 -12q-7 -7 -26 5q-4 1 -40.5 12.5t-58.5 19.5l-20.5 -64.5l-23.5 -74.5l141 -52q9 0 24 -15q-3 -13 -3 -19l-10 -12q-6 -6 -26 4l-140 49l-24.5 -80.5l-28 -90t-13.5 -44.5q0 -9 -8 -17q-5 2 -7 2l-5 7q-4 6 3 18q2 8 13.5 45.5l27.5 88
t24 78.5l-62.5 24l-55.5 20.5l-37 13.5l-89 -281q0 -8 -7 -17q-5 2 -8 2l-5 7q-4 6 3 18q6 24 87 278q-72 28 -93 35q-12 2 -25 15q3 9 3 19l10 12q2 2 26 -4q20 -8 92 -32q12 39 43 132q-127 46 -137 49q-20 4 -24 18q0 1 2 17q3 6 13 13q3 1 10.5 -2.5t12.5 -3.5
q127 -42 137 -46q8 27 26 81l32 97t16 51q0 9 8 17q4 -2 7 -2l5 -7q1 -2 -3 -18q-3 -13 -72 -227q135 -45 152 -51q81 262 90 289q0 8 7 17q5 -2 8 -2l5 -7q1 -2 -3 -18l-85 -286q71 -24 100 -35q10 0 25 -15zM349 374l-153 52l-43 -133l155 -57z" />
    <glyph glyph-name="dollar" unicode="$" horiz-adv-x="430" 
d="M402 514q-2 -11 -12 -19.5t-24 -6.5q-36 5 -56 66q-4 12 -18 12q-20 0 -30 -1l-28 -206q144 -68 141 -167q-2 -71 -56.5 -120.5t-132.5 -55.5q-8 -59 -14 -116q-2 -14 -5 -18t-13 -4q-8 0 -9.5 4.5t1.5 17.5q1 4 3 19l6 44t8 53q-63 1 -110 35t-45 77q1 16 10 29t24 13
q17 -1 26 -15.5t7 -32.5q-2 -16 -10 -37q-3 -14 3 -19q47 -29 100 -29l35 250l-18 9q-120 65 -106 159q8 54 52.5 91t112.5 42l13 84q2 10 2.5 13t2 7t4.5 5t9 1q4 0 5.5 -1t2 -5t0 -8.5t-2.5 -13.5q0 -11 -12 -81q59 0 98 -22.5t36 -52.5zM301 164q3 34 -16 59.5t-64 53.5
l-34 -239q48 6 79 40t35 86zM242 564q-53 -6 -75.5 -27.5t-29.5 -60.5q-10 -60 78 -109q17 115 27 197z" />
    <glyph glyph-name="percent" unicode="%" horiz-adv-x="631" 
d="M291 467q-21 -107 -91 -164q-34 -28 -73 -27q-53 0 -73 35q-31 54 -12 143q26 122 98 178q36 28 83 28q44 0 66 -38q27 -48 2 -155zM583 187q-25 -109 -95 -162q-30 -25 -69 -25q-51 0 -72 34q-32 52 -13 145q28 123 99 177q36 29 80 29q43 0 67 -39q29 -46 3 -159z
M540 313q-14 49 -54 49q-24 0 -48 -28q-16 -19 -33 -62.5t-24 -88.5q-12 -79 -3 -114q10 -41 46 -46q29 -2 53 18q36 30 59 143q17 82 4 129zM249 586q-13 52 -55 52q-24 0 -48 -29q-16 -20 -33 -63t-24 -85q-13 -82 -4 -115q10 -45 50 -48q27 -2 53 21q36 32 56 142
q15 78 5 125zM523 674q2 -4 -6 -12q-11 -24 -191 -341.5l-225 -395.5l-9 -12q-4 0 -8 2l-4 4q-1 2 4 12q16 30 209 370l209 367l11 12q2 0 8 -2q2 -2 2 -4z" />
    <glyph glyph-name="ampersand" unicode="&#x26;" horiz-adv-x="849" 
d="M867 474q-2 -55 -28 -91t-67 -36q-17 0 -33.5 5.5t-25.5 10.5t-24 16l-19 14q-7 3 -10 0t-1 -10q10 -31 5 -77q-4 -54 -31.5 -121.5t-72.5 -105.5q-51 -43 -108.5 -66.5t-143.5 -23.5q-55 0 -117 20.5t-102 57.5q-78 73 -78 189q0 104 69 192.5t149 88.5q36 0 55.5 -17.5
t24.5 -36.5q2 -9 3 -9.5t9 5.5q112 96 129 139q18 43 -1 58q-10 7 -2 14q6 5 17 -1q7 -3 28 -24q13 -17 -1 -40q-44 -72 -178 -176q-58 -47 -229 -136q-6 -3 -7 -37q-1 -53 18.5 -98.5t49.5 -75.5q35 -33 91 -55t110 -22q119 0 190 58q89 75 110 223q7 41 -9 92
q-6 21 -16 29q-59 45 -110 45q-25 0 -44 -25.5t-21 -55.5q0 -6 3 -8q10 -14 37 -29q13 -7 15 -21.5t-9 -23.5q-25 -17 -52 14q-16 18 -16 63q0 42 45.5 86.5t105.5 44.5q17 0 34.5 -6t28.5 -12.5t28.5 -18.5l23.5 -16q76 -48 94 -51q21 -3 35 4.5t20 26.5t8 36t3 46v13
q3 13 14 5q3 -6 3 -11v-59zM293 456q5 3 -1 19q-17 42 -69 42q-50 0 -90 -49.5t-50 -112.5q-4 -22 1 -22q1 0 6 3q32 14 103.5 56t99.5 64z" />
    <glyph glyph-name="quotesingle" unicode="'" horiz-adv-x="191" 
d="M172 646q0 -2 -0.5 -5t-2 -7t-2.5 -7q-10 -26 -19.5 -79t-20.5 -82q-1 -3 -2.5 -6.5l-2.5 -6t-2 -4.5q-9 -2 -13 2q-7 7 -8 11q0 8 3 18q8 24 12 78t14 84q4 13 10 17q13 6 23 0q11 -9 11 -13z" />
    <glyph glyph-name="parenleft" unicode="(" horiz-adv-x="331" 
d="M364 713q-1 -3 -10 -12q-35 -31 -75 -81.5t-62 -98.5q-68 -144 -87 -315q-23 -202 45 -356q23 -50 75 -106q5 -5 5 -10q0 -2 -5 -10q-2 -1 -3.5 -3t-2.5 -3t-2 -1q-4 0 -12 8q-33 30 -70.5 84.5t-58.5 104.5q-59 138 -43 294q21 200 139 361q71 96 145 151q8 8 14 8
q3 0 6 -8q2 -6 2 -7z" />
    <glyph glyph-name="parenright" unicode=")" horiz-adv-x="331" 
d="M257 233q-25 -188 -131 -338q-73 -104 -167 -173q-4 -3 -10 -3q-3 0 -5 7q-3 4 -3 7q2 4 6 8q27 21 64 63.5t59 80.5q90 151 114 348q23 174 -27 325q-28 86 -84 142q-5 5 -5 11q2 5 7 10t7 6q4 0 10 -6q25 -25 60 -74t56 -95q69 -153 49 -319z" />
    <glyph glyph-name="asterisk" unicode="*" horiz-adv-x="424" 
d="M427 541q0 -11 -8 -43q-1 -5 -4.5 -19l-4.5 -18q-4 -10 -18 -10q-1 0 -31 5q-9 2 -51 16.5t-50 12.5q1 -7 22.5 -39.5t24.5 -39.5q12 -28 36 -52q13 -6 13 -8q2 -5 -8 -13l-36 -7q-3 0 -10.5 -1t-13 -2t-8.5 -1q-10 -1 -16 13l-10 31q-3 12 -6 58t-7 52
q-6 -3 -17.5 -19.5t-23.5 -36t-13 -21.5q-26 -32 -30 -52q3 -11 -1 -17q-13 -9 -17 4q-3 3 -20 30q-4 12 -14 31q-5 10 3 20q2 2 13 10t14 10t46.5 25t47.5 29q-4 2 -25.5 -2t-44 -9t-24.5 -5q-46 -8 -53 -16q-6 -8 -13 -8q-9 1 -9 13q0 2 4 15.5t5 19.5q8 34 9 35q1 9 15 9
q7 0 34 -3q7 -1 32 -10l47.5 -17t25.5 -6q0 5 -10.5 22.5t-24 38t-16.5 26.5q-19 35 -36 45q-13 4 -15 9q-1 8 8 13q3 1 17.5 2t19.5 2l33 7q12 2 14 -13l10 -31q3 -10 8.5 -61t9.5 -57q6 5 26.5 39.5l23.5 39.5q5 5 16 25.5t13 30.5q1 2 1.5 7.5t2.5 8.5t7 5q10 -8 17 -20
q1 -1 7.5 -14t11.5 -18q1 -6 3.5 -17t2.5 -14q-1 -2 -7.5 -8t-7.5 -8q-1 -1 -6 -4l-12.5 -7.5t-12.5 -8.5q-12 -9 -42 -24.5t-35 -21.5q9 -2 47.5 8.5t41.5 10.5q43 8 56 17q10 10 13 10q6 0 10 -4z" />
    <glyph glyph-name="plus" unicode="+" horiz-adv-x="419" 
d="M351 278q-20 0 -113 3q2 -49 2 -124q0 -7 -14 -9.5t-27.5 -0.5t-13.5 7q0 44 3 128h-120q-12 0 -13 13t5 26t11 13q100 0 117 -3q-1 16 -1 126q0 11 13.5 12t27 -4t13.5 -11q0 -25 -4 -123q62 2 111 2q7 0 10 -13.5t0.5 -27.5t-7.5 -14z" />
    <glyph glyph-name="comma" unicode="," horiz-adv-x="219" 
d="M117 4q-4 -42 -31.5 -76.5t-61.5 -55.5q-8 -6 -15 -6q-3 0 -6 3t-3 7q0 8 10 13q63 49 69 88q4 27 -11 35q-7 5 -26 7q-28 3 -42.5 16.5t-10.5 36.5q4 19 21 28t38 7q31 -3 53 -32.5t16 -70.5z" />
    <glyph glyph-name="hyphen" unicode="-" horiz-adv-x="329" 
d="M283 307q-2 -17 -12 -20q-2 -1 -52 -20.5l-103 -40t-57 -22.5q-3 -1 -7 -2.5t-7 -2.5t-5 -1q-8 0 -8 21q1 18 12 22q6 3 107.5 40t108.5 39q13 5 16 5q7 0 7 -18z" />
    <glyph glyph-name="period" unicode="." horiz-adv-x="219" 
d="M112 49q-1 -19 -18 -34.5t-33 -15.5q-54 0 -54 52q0 58 62 58q23 0 33.5 -17.5t9.5 -42.5z" />
    <glyph glyph-name="slash" unicode="/" horiz-adv-x="281" 
d="M303 696q1 -2 -5 -17q-13 -34 -147 -360.5l-153 -370.5q-2 -4 -11 -16q-4 0 -11 2l-5 7q-1 3 3 16q7 16 148.5 359t154.5 372q2 6 9 16q7 0 11 -2q6 -4 6 -6z" />
    <glyph glyph-name="zero" unicode="0" horiz-adv-x="454" 
d="M427 337q-15 -92 -53.5 -172t-90.5 -125q-53 -45 -113 -45q-88 0 -125 58q-55 82 -26 250q35 215 147 311q57 48 130 48q81 0 116 -66q43 -82 15 -259zM358 328q26 147 -4 231q-13 38 -34 58t-56 20q-44 0 -82 -44q-61 -71 -95 -279q-24 -142 7 -224q29 -73 85 -73
q43 0 82 38q60 56 97 273z" />
    <glyph glyph-name="one" unicode="1" horiz-adv-x="338" 
d="M278 653q-9 -23 -56.5 -256l-60.5 -300q-5 -27 -1.5 -50t13.5 -28q17 -1 56 -1q11 0 11 -4l-3 -11q-1 -3 -5 -3h-241q-4 0 -4 4l3 10q2 4 13 4q13 0 35 1t29 1q11 0 19 35q2 8 44.5 220.5t44.5 223.5q3 11 6.5 42t2.5 39q-1 11 -3.5 18.5t-8.5 13.5t-16 5
q-7 -1 -17.5 -1.5t-22 -1.5t-15.5 -1q-5 0 -3 4q0 1 1 4.5t1 5.5q1 5 7 5l52 5q16 2 35 6l36.5 8t21.5 5q9 12 17 9q5 -1 8 -4.5t1 -7.5z" />
    <glyph glyph-name="two" unicode="2" horiz-adv-x="403" 
d="M391 479q-28 -134 -185 -278l-168 -140q-10 -7 3 -7h124q103 0 149 13q10 2 26 23q5 5 10.5 2t4.5 -10q0 -3 -22 -36q-5 -11 -23 -36q-12 -18 -23 -10h-335q-6 0 -9.5 7.5t1.5 12.5q2 2 24 18q127 84 216 180q108 118 132 256q11 59 -12 94t-65 40q-74 7 -126 -27
q-29 -17 -44 -38q-10 -10 -16 -6q-7 3 5 23q28 42 78 70q63 35 132 33q77 -3 107.5 -57.5t15.5 -126.5z" />
    <glyph glyph-name="three" unicode="3" horiz-adv-x="368" 
d="M341 558q-9 -87 -84 -140q-41 -33 -71 -49q-18 -11 -1 -14q66 -8 100 -47q35 -38 28 -105q-7 -56 -44 -105.5t-99 -80.5q-56 -28 -139 -28q-62 0 -93 26q-3 2 -3 7q0 1 1.5 3l3 4t1.5 3q2 2 4 2l3 -2q4 -3 6 -4q28 -18 79 -18q63 0 115 35q80 53 89 143q7 58 -23 92
q-35 43 -108 49q-10 1 -14.5 3.5t-3.5 6.5q0 2 1 4t2 3t2.5 1.5t4 1.5t4 1t5 1t6.5 1q42 14 95 56q54 44 59 107q4 40 -11 62q-18 28 -63 28q-60 0 -111 -38q-2 -1 -6.5 -4.5t-6.5 -4.5t-6 4.5t-3 7.5t3.5 5t3.5 4q11 11 41 33t40 26q42 21 102 21q44 0 69.5 -32.5
t21.5 -68.5z" />
    <glyph glyph-name="four" unicode="4" horiz-adv-x="439" 
d="M419 281q1 -4 -1 -8t-6 -8l-5 -5q-12 -20 -26 -34q-3 -7 -11 -7q-27 3 -57 3q-7 0 -9 -8l-33 -179q-2 -15 -10 -19q-6 -5 -31 -14q-24 -8 -32 -14q-8 -13 -9 -3q-1 6 2 16q3 22 51 215q1 8 -7 8q-153 9 -243 -3q-8 -5 -12 3q-3 8 15 26q3 3 27.5 30l70 77.5l82.5 90.5
q207 222 210 224q9 9 20 9q6 0 3 -12q0 -3 -21.5 -95.5l-44 -187t-23.5 -97.5q-3 -12 4 -12q7 -2 41 -1.5t39 6.5q16 19 16 7q1 -3 0 -8zM323 564q2 8 -1.5 8.5t-10.5 -7.5q-6 -7 -100 -109q-123 -134 -144 -165q-15 -15 -6 -15q2 0 6 1q92 8 179 2q11 -1 14 13z" />
    <glyph glyph-name="five" unicode="5" horiz-adv-x="402" 
d="M409 652q0 -3 -24 -35q-11 -24 -26 -35q-10 -5 -23 -5q-24 0 -45.5 3t-38 7.5t-17.5 4.5q-22 1 -46.5 6t-39.5 9.5t-16 4.5q-3 -1 -25 -60q-4 -8 -12 -42.5t-5 -37.5q5 -7 33 -5q30 2 64.5 -6.5t54.5 -23.5q71 -35 90 -119q21 -73 -21 -167q-39 -84 -133 -120
q-75 -38 -154 -21q-22 1 -40.5 9t-24.5 14q-4 9 7 13q2 2 7 -1q17 -10 48 -12q73 -15 125 12q39 12 63.5 37t46.5 67q28 65 9 145q-17 72 -90 97q-25 21 -92 21q-28 0 -30 4q-2 1 34 121q5 21 19.5 67.5t20.5 49.5q10 2 28 2t50.5 -1.5t38.5 -1.5q9 -1 61.5 -3t64.5 0l28 4
q2 -1 7 -1q2 0 3 -1z" />
    <glyph glyph-name="six" unicode="6" horiz-adv-x="451" 
d="M465 656q-1 -11 -26 -11q-97 -3 -197 -83q-62 -49 -110 -149q-9 -19 3 -12q1 1 3 2q57 40 132 40q33 0 63 -16.5t47 -46.5q30 -53 20 -135q-15 -136 -114 -207q-63 -44 -132 -43q-40 0 -75.5 24t-53.5 61q-22 48 -18 128q8 110 65.5 214t150.5 172q96 70 208 72
q18 0 25.5 -1t8 -2.5t0.5 -6.5zM335 210q10 92 -23 142t-87 50q-38 0 -55 -4t-37 -16q-18 -10 -29 -37q-16 -36 -23 -79q-8 -44 -6 -90t12 -69q35 -85 104 -85q49 0 84 30q48 42 60 158z" />
    <glyph glyph-name="seven" unicode="7" horiz-adv-x="406" 
d="M459 637q-1 -8 -9 -19q-11 -18 -112 -130q-64 -72 -123 -170.5t-89 -175.5q-30 -78 -39 -132q-5 -33 3 -42q1 -2 2.5 -4.5t3.5 -5t3 -3.5q5 -5 -3 -8h-5q-13 0 -21 3q-7 3 -22 15.5t-20 18.5q-15 19 -13 31q9 45 27 83q30 70 81 146q30 46 84 117.5t81 102.5
q24 30 56 62.5l35 35.5q9 11 8 17q-6 2 -7.5 2t-15.5 -3q-10 -2 -67.5 -6.5t-102.5 -4.5q-81 0 -114 11q-12 -8 -20 -3q-6 6 0 17q30 50 33 56q11 18 17 16q1 -1 4 -6t9 -7q56 -18 156 -18q31 0 85 6t64 9q9 2 19 2q9 1 11.5 -1.5t0.5 -11.5z" />
    <glyph glyph-name="eight" unicode="8" horiz-adv-x="399" 
d="M402 532q-3 -66 -54 -118q-32 -34 -86 -49q-16 -4 -3 -11q103 -56 91 -164q-9 -83 -78 -142q-61 -56 -157 -56q-63 0 -98 38q-39 45 -32 108q8 74 66 134q32 35 78 58q7 2 -5 9q-66 46 -57 129q8 80 81 141q62 51 132 51q60 0 91 -33q35 -33 31 -95zM342 517q3 49 -19 73
q-27 32 -78 32q-53 0 -88 -24q-40 -37 -43 -98q-2 -63 42 -94q38 -24 66 -34q16 -4 48 20q33 17 51.5 54.5t20.5 70.5zM300 161q3 53 -29 90q-32 35 -111 69q-6 3 -14 -1q-41 -15 -75 -67q-22 -35 -27 -79q-6 -67 26 -106q32 -41 83 -41q68 -2 102 29q40 45 45 106z" />
    <glyph glyph-name="nine" unicode="9" horiz-adv-x="420" 
d="M408 456q-7 -98 -52 -204.5t-122 -175.5q-93 -83 -223 -83q-18 0 -27.5 2.5t-11.5 6.5t0 10q1 0 36 4q107 8 194 90q53 52 85 123q9 21 3 22q-2 0 -9 -4q-33 -20 -58 -28.5t-63 -8.5q-31 0 -59 17t-45 48q-23 41 -19 128q10 126 93 204q57 54 135 54t116 -60
q33 -50 27 -145zM339 435q9 89 -11 137q-25 59 -84 59t-98 -39q-46 -49 -52 -146q-6 -94 16 -136q25 -51 100 -56q42 -2 84 20q13 7 21 36q18 56 24 125z" />
    <glyph glyph-name="colon" unicode=":" horiz-adv-x="244" 
d="M178 391q0 -19 -13.5 -32.5t-30.5 -13.5q-24 0 -35 10.5t-11 35.5q0 52 55 52q15 0 25 -14t10 -38zM113 40q0 -19 -14 -32.5t-31 -13.5q-45 0 -45 46q0 52 54 52q36 0 36 -52z" />
    <glyph glyph-name="semicolon" unicode=";" horiz-adv-x="244" 
d="M181 391q0 -20 -13.5 -33t-31.5 -13q-45 0 -45 46q0 52 55 52q35 0 35 -52zM125 -3q-6 -36 -33.5 -72t-59.5 -53q-9 -7 -13 -5q-7 4 -8 8q0 5 9 13q57 49 70 85q9 23 -7 39q-7 7 -27 9q-27 2 -41.5 14t-11.5 34q3 17 18 26.5t36 8.5q29 -2 52.5 -32.5t15.5 -74.5z" />
    <glyph glyph-name="less" unicode="&#x3c;" horiz-adv-x="309" 
d="M282 489q0 -2 -2 -4.5t-5 -5.5t-5 -6q-16 -16 -52 -56l-48 -53l-64 -68l-13 -12l8 -11q34 -52 42 -62q15 -19 46.5 -63.5t35.5 -48.5q10 -11 10 -15q-1 -4 -7 -10l-10 -4q-2 0 -13 9q-50 47 -100 101t-70 78q-9 9 -2 18q0 5 9 11q-6 6 -7 8q-2 3 -2 8q3 9 14 16
q10 10 42 36l47 39l55.5 46.5t59.5 51.5q11 13 17 13q7 -1 11 -6z" />
    <glyph glyph-name="equal" unicode="=" horiz-adv-x="351" 
d="M320 347q-8 -14 -14 -15q-3 -1 -126.5 -9t-131.5 -7q-13 -2 -16 0q-7 2 0 22q1 5 2 7t2.5 4.5t3.5 3.5t6 1q1 0 65 4t127.5 7.5t67.5 2.5q12 0 14 -1t0 -20zM320 237q-8 -14 -14 -15q-3 -1 -125.5 -9t-129.5 -7q-15 -3 -19 0q-7 1 0 22q1 5 2 7t2.5 4.5t3.5 3.5t6 1
q1 0 62 3.5l125 7t73 3.5q12 0 14 -1q4 -1 0 -20z" />
    <glyph glyph-name="greater" unicode="&#x3e;" horiz-adv-x="309" 
d="M261 294q4 -8 -6 -14q0 -2 -9 -6q9 -6 9 -12q0 -7 -6 -13q-4 -5 -58 -49q-15 -13 -44.5 -35.5t-51.5 -41.5q-63 -49 -79 -57q0 -1 -5 -0.5t-8 3.5q-4 7 -4 10l10 15q11 11 18 19l15 17.5t16 17.5l89 87q6 5 20.5 19t20.5 19l7 8q-9 16 -25 37q-12 15 -31.5 45.5
l-21.5 33.5q-36 53 -51 83q0 5 4 10q3 2 5 3t3 1l2 1q5 1 13 -7l41 -40q33 -33 92 -106q32 -42 35 -48z" />
    <glyph glyph-name="question" unicode="?" horiz-adv-x="311" 
d="M301 487q-16 -79 -87 -148q-15 -14 -86 -65q-2 -1 -11 -15l4 -16l15 -30q9 -16 26 -17q14 3 16 -2q3 -11 -11 -16l-8 -3q-8 -3 -12 -6q-1 -1 -15 -9t-18 -12q-9 -7 -12 -6q-4 0 -12 14q-20 30 -23 56q-1 5 -1 20q2 14 28 31q52 40 84 80q50 66 54 143q4 48 -27 88
q-21 27 -63 27q-7 0 -15.5 -3.5t-9.5 -3.5q-8 0 -5 7q1 1 5 7.5t6 8.5q4 6 33 35q5 8 10 8q4 1 10 1q40 0 69.5 -19.5t41.5 -42.5q26 -45 14 -112zM142 36q-7 -43 -50 -43q-16 0 -28 13t-10 33q8 48 52 46q16 -1 27.5 -15.5t8.5 -33.5z" />
    <glyph glyph-name="at" unicode="@" horiz-adv-x="658" 
d="M639 336q-25 -105 -90 -159.5t-134 -51.5q-61 2 -65 64q-1 16 6 52q3 13 2 16q-1 2 -5 -5q-2 -3 -4 -8q-20 -41 -45 -66q-40 -38 -71 -38t-49.5 31t-11.5 84q5 39 28.5 82.5t52.5 71.5q58 52 120 52q20 0 41 -7q14 -3 15 1q8 14 12 28q1 6 6 6h20q4 0 3 -4
q-14 -25 -28 -72l-51 -195q-17 -74 36 -77q52 -2 102.5 49t70.5 138q31 128 -18 210t-175 82q-88 0 -189 -86t-138 -228q-18 -61 -13 -118.5t25.5 -102.5t66 -72t107.5 -27q64 0 157 54q3 3 4 0q1 -2 2 -2q1 -1 2 -4q1 -2 -5 -8q-30 -21 -80 -39.5t-94 -18.5q-138 0 -198 95
t-25 242q22 98 87 176t141 116.5t147 38.5q139 0 201.5 -85.5t33.5 -214.5zM395 428q2 6 -6 11q-6 4 -22 8q-18 3 -42 -10t-42 -33q-50 -55 -57 -134q-9 -84 29 -89q40 -4 87 73q13 25 40 116q8 23 13 58z" />
    <glyph glyph-name="A" unicode="A" horiz-adv-x="612" 
d="M564 14q0 -7 -2 -11q0 -3 -5 -3h-188q-3 0 -1 3v11q2 5 7 5l37 1q10 0 12.5 7t-0.5 29q-1 10 -12.5 91t-13.5 89q-1 11 -8 11l-222 1q-2 -1 -7 -7q-27 -43 -67 -137q-15 -40 -15 -58q0 -23 5 -25q2 -1 5 -1l50 -1q4 0 4 -1t-1 -4v-5.5t-1 -5.5q-1 -3 -5 -3h-174
q-5 0 -5 3q2 4 2 13q1 3 4 3l31 1q16 0 41 40q3 5 40.5 72l75.5 135.5t39 69.5q142 255 162 287l30 52q5 9 13 11q34 13 35 13q4 1 6 1q5 0 5 -6q0 -3 -4 -4l-2 -1q-8 -4 -16 -10q-9 -8 -9 -17q0 -22 2 -38q10 -85 46 -320q35 -206 39 -223q13 -62 31 -62l33 -1q4 0 3 -5z
M393 276q-7 27 -22 134l-20 131q-3 16 -7 24q-1 0 -12 -16q-63 -105 -67 -118l-85 -151q-7 -11 0 -11h209q4 0 4 7z" />
    <glyph glyph-name="B" unicode="B" horiz-adv-x="499" 
d="M492 528q-5 -55 -44.5 -101t-101.5 -68q-6 -3 1 -6q46 -17 73 -50q35 -47 30 -117q-7 -73 -74.5 -132.5t-180.5 -57.5l-212 4q-5 0 -3 3q0 4 2 10q0 3 4 3h33q14 0 20 7t9 23l58 290l40 204l4.5 26t4.5 33.5t0.5 31t-7.5 12.5l-61 1q-3 0 -4 0.5t0 2.5q0 1 0.5 6t1.5 7
q0 3 6 3q22 0 51.5 0.5t47.5 0.5q20 0 82.5 2.5t68.5 2.5q24 0 49.5 -7.5t50.5 -22.5t39.5 -44t11.5 -67zM369 187q7 61 -30 112.5t-109 51.5h-40q-6 0 -9 -10q0 -3 -20.5 -99.5t-22.5 -106.5q-13 -62 -12.5 -89.5t16.5 -28.5q43 1 62 2.5t44.5 7.5t43.5 18q64 41 77 142z
M421 515q6 62 -32 97t-87 35q-8 0 -16 -0.5t-18 -1.5t-16 -1q-7 -1 -10 -4q-1 -3 -13.5 -64.5l-25.5 -125.5l-14 -69q-3 -12 7 -12q68 0 116 -6q3 -1 7 1q92 38 102 151z" />
    <glyph glyph-name="C" unicode="C" horiz-adv-x="593" 
d="M589 626q0 -8 -1.5 -43.5t-1.5 -45.5q1 -11 -4 -11q-10 0 -11 9q-6 42 -36 70q-38 34 -123 34q-113 0 -193 -67q-47 -43 -76 -120.5t-37 -169.5q-11 -122 46 -197q22 -30 65.5 -49.5t84.5 -19.5q89 0 158 59q24 20 44 62q4 11 8.5 17.5t8.5 5.5q7 -2 -3 -56q-1 -8 -3 -15
t-4 -13l-3 -9q-1 -4 -10 -10q-38 -29 -99.5 -46.5t-122.5 -17.5q-114 0 -179 65q-75 77 -68 212q5 93 50.5 176.5t118.5 143.5q41 33 102.5 56t116.5 23q115 0 167 -33q5 -4 5 -10z" />
    <glyph glyph-name="D" unicode="D" horiz-adv-x="684" 
d="M652 367q-8 -100 -64.5 -187t-140.5 -135q-38 -22 -81 -33.5t-74.5 -13.5t-82.5 -2q-35 0 -92 2t-89 2h-38q-4 0 -4 3q0 5 2 13q1 3 6 3l36 2q14 0 20.5 7.5t10.5 27.5q35 189 49 246q5 36 50 239q20 99 -1 101l-65 1q-6 0 -6 4t3 13q2 3 8 3h277q151 0 223 -87
q64 -77 53 -209zM574 378q9 114 -50 180q-40 45 -87.5 65.5t-133.5 20.5q-31 0 -42 -3q-8 -2 -10 -11q-3 -11 -28 -130t-29 -140l-42 -203q-24 -117 -7 -128q16 -9 34.5 -11t81.5 -2q47 0 97.5 21.5t84.5 53.5q117 105 131 287z" />
    <glyph glyph-name="E" unicode="E" horiz-adv-x="537" 
d="M529 660l-26 -75q-9 -26 -11 -26q-3 0 -7.5 3t-5.5 6q0 37 -2 40q-15 24 -68 28q-131 8 -156 8q-7 0 -10 -3q-2 -2 -15.5 -65l-28 -131.5t-14.5 -70.5q-1 -6 0 -8t7 -2q2 0 82 1t88 1q33 0 47 14q9 8 21 50q2 7 5 9h16q4 0 2 -8q-2 -10 -9.5 -39t-10.5 -42
q-16 -83 -16 -91q-1 -11 -4 -11h-16q-3 0 -3 7q2 8 0.5 35t-6.5 34q-13 17 -72 19q-26 4 -129 4q-7 0 -9 -9l-36 -193q-29 -127 12 -127q114 0 210 23q15 5 42 23t37 29q12 20 19 15q8 -4 5 -11q-28 -62 -43 -90q-4 -7 -16 -7h-426l-4 1v2q0 5 5 13q0 3 4 3l35 1q21 1 24 12
q1 1 7 32l15 75.5l17.5 87l15 76t6.5 34.5l41 201q2 10 4.5 26t4 34.5t0 31t-7.5 12.5l-61 1q-6 0 -3 3q0 11 1 14t7 3h141q248 0 284 5q7 5 10.5 2.5t0.5 -10.5z" />
    <glyph glyph-name="F" unicode="F" horiz-adv-x="494" 
d="M521 652l-23 -69q-7 -27 -13 -27q-8 2 -11 17q-4 34 -9 38q-15 20 -56 24q-63 9 -155 9q-8 0 -9 -3q-3 -2 -13 -43t-19 -87.5l-18 -90.5t-9 -46q-2 -6 -1 -8t7 -2q4 0 76.5 2t75.5 2q38 0 48 16q17 27 22 48q3 12 6 13q8 3 14 0q3 -1 3 -12q-2 -9 -10 -39.5t-11 -44.5
t-6 -31.5t-5.5 -34.5t-3.5 -22q-3 -11 -5 -11h-14q-4 0 -3 7q4 44 -5 66q-1 8 -18.5 14t-31.5 6q-4 0 -69 1t-68 1q-7 0 -8 -9l-35 -190q-24 -122 0 -127h75q3 0 3 -4l-2 -12q0 -3 -5 -3h-234l-5 1l1 2l4 13q1 3 5 3l30 1q25 0 28 12q2 5 62 305l21 101.5t20 99.5
q5 23 5.5 58t-8.5 46l-56 1q-3 0 -4 0.5t0 2.5q0 10 3 14q0 3 6 3h141q262 0 276 -2q9 6 11.5 3t-0.5 -12z" />
    <glyph glyph-name="G" unicode="G" horiz-adv-x="638" 
d="M627 302l-2 -12q0 -3 -7 -3l-38 -1q-19 0 -25 -19q-7 -22 -18 -95q-8 -56 -8 -81q3 -12 0.5 -16.5t-12.5 -6.5q-11 -3 -26 -9t-38.5 -17l-33.5 -16q-70 -33 -147 -33q-53 0 -95.5 12t-83.5 50q-36 33 -53 92.5t-12 113.5q13 156 143 292q47 49 117.5 83t135.5 34
q111 0 191 -39q6 -4 5 -11q-3 -34 -15 -73q-1 -5 -1.5 -8t-3 -5t-6.5 -2q-10 0 -8 17q1 36 -58 67q-39 20 -106 20q-142 0 -228 -100q-42 -50 -61.5 -110.5t-26.5 -147.5q-4 -47 4 -92.5t25 -73.5q25 -41 65 -68t91 -27q49 0 93.5 14t55.5 33q13 21 31 144q9 76 -7 77l-74 2
q-5 1 -5 3l3 14q2 3 7 3h228q4 0 4 -5z" />
    <glyph glyph-name="H" unicode="H" horiz-adv-x="654" 
d="M674 658l-1 -11q-1 -4 -7 -4l-32 -1q-20 -1 -21 -13q-14 -50 -61 -275l-47 -233q-20 -101 -2 -101l60 -1q7 0 5 -5q0 -11 -2 -11q-2 -3 -5 -3h-204q-3 0 -4.5 1t-0.5 3l2 12q2 3 8 3l33 1q8 0 12 7t10 31l60 276q1 4 0.5 6t-1.5 2.5t-5 0.5q-4 2 -74 2.5t-139 0.5l-68 -1
q-9 0 -12 -11q-1 -3 -18.5 -97t-20.5 -106q-4 -20 -7 -39t-4 -35.5t1.5 -26.5t8.5 -10l59 -1q3 0 3 -5l-2 -11q-1 -3 -5 -3h-211q-5 0 -5 4l2 11q1 4 7 4l37 1q11 0 15.5 6.5t10.5 31.5l54 254l43 214q6 29 10 65.5t-2 48.5l-62 3q-5 0 -4 4v3q0 3 1 6l1 4q2 3 7 3h214
q5 0 4 -5v-3q0 -3 -1 -6v-3q-1 -3 -7 -3l-47 -1q-16 -2 -18 -13q-2 -8 -27 -122l-28 -127q-1 -7 0 -9t6 -2h283q8 0 9 6v3q2 7 18 87.5t17 83.5l2 11q2 10 4 23t3 27t-1 23t-8 9l-52 1q-7 0 -4 4q-1 1 0.5 7t2.5 6q2 3 6 3h197q6 0 4 -5z" />
    <glyph glyph-name="I" unicode="I" horiz-adv-x="303" 
d="M322 661q-2 -6 -2 -15q-3 -3 -7 -3l-58 -1q-9 0 -11 -4l-60 -298q-49 -269 -49 -270q-3 -43 15 -48l59 -3q4 0 4 -3q0 -1 -1 -7t-1 -7q-2 -2 -5 -2h-230q-4 2 -4 3q0 2 1 6.5t1 5.5q1 4 6 4l57 1q9 0 11 11q4 12 52 252.5t51 261.5q6 53 6 55q2 15 -3 28.5t-12 13.5
l-54 1q-5 0 -5.5 0.5t0.5 2.5q0 2 1 8t1 7q1 2 6 2h228q3 -1 3 -2z" />
    <glyph glyph-name="J" unicode="J" horiz-adv-x="297" 
d="M315 661q-2 -6 -2 -15q-1 -3 -7 -3l-50 -1q-9 0 -10 -4q-2 -4 -27 -145l-30 -170q-2 -14 -58 -282q-4 -18 -28.5 -95t-30.5 -91q-60 -115 -156 -113q-62 4 -70 41q-5 28 21 32q22 5 38 -21q17 -35 35 -35q51 0 77 90q10 32 30.5 119.5t27.5 126.5q47 245 79 439
q5 20 7 55q2 49 -13 54h-59q-5 0 -5 1q-1 0 0 2q0 11 2 15q0 2 5 2h220q4 0 4 -2z" />
    <glyph glyph-name="K" unicode="K" horiz-adv-x="646" 
d="M697 659l-1 -11q0 -1 -8 -3l-22 -3q-14 -2 -53 -29l-304 -209q-13 -9 -15 -13.5t3 -11.5q1 -2 77 -106q51 -71 99 -151q22 -34 33.5 -48t23.5 -15q15 -3 35 19q6 6 10.5 13.5t8 14.5l4.5 9q3 3 6 0l7 -5q2 -1 2 -5q-25 -44 -48 -68q-39 -42 -63 -42q-23 0 -40 28
q-23 40 -71 113.5l-66 99.5q-29 42 -85 109q-8 10 -21 2l-22 -14q-10 -3 -13 -17q-27 -123 -35 -181q-8 -43 -8.5 -77t10.5 -38l57 -1q4 0 4 -4l-1 -12q0 -3 -6 -3h-210q-5 0 -5 3l1 12q1 4 8 4l38 1q9 0 13.5 9.5t10.5 35.5l55 267q37 186 42 204q0 1 2 14.5t3.5 27t3 29
t0 25.5t-5.5 10l-60 1q-4 1 -4 3l3 14q2 3 6 3h221q5 0 5 -4l-2 -13q-1 -3 -8 -3l-54 -1q-15 0 -18 -8q-1 -3 -26.5 -127.5t-27.5 -132.5q-2 -10 0 -13t8 -1q8 4 78 46q101 62 205 142q75 57 77 75q2 17 -30 19l-29 1q-6 0 -3 4l2 13q2 3 7 3h192q7 0 4 -4z" />
    <glyph glyph-name="L" unicode="L" horiz-adv-x="517" 
d="M482 119q7 -5 -5 -25q-3 -4 -24 -44.5t-25 -47.5q-5 -9 -15 -7q-57 5 -232 5h-197q-6 0 -5 3q0 1 1 6t2 7q0 3 4 3h30q25 0 28 12q4 14 42 214l57 286q4 17 8 64q2 47 -6 47l-49 1q-6 2 -7 3q1 3 1 15q1 2 7 2h224q5 0 5 -2q0 -1 -1 -7.5t-2 -7.5q-1 -3 -7 -3l-63 -1
q-9 0 -11 -4q-2 -5 -32 -151t-33 -164l-33 -188q-11 -63 -10.5 -90t20.5 -27q140 0 239 27q8 3 34.5 25.5t34.5 32.5q14 20 20 16z" />
    <glyph glyph-name="M" unicode="M" horiz-adv-x="755" 
d="M769 661q1 -1 -0.5 -7.5t-1.5 -7.5q-3 -3 -4 -3l-44 -1q-15 0 -21 -35q-10 -44 -39 -247l-36 -236q-14 -104 4 -104l55 -1q4 0 3 -3q0 -11 -1 -13q-1 -3 -5 -3h-199q-7 0 -7 3q1 2 1 13q2 3 6 3l44 1q10 0 13 7q0 1 9.5 62.5l19 125t11.5 73.5q35 216 37 235
q2 17 1.5 19.5t-5.5 -4.5q-2 -4 -5 -11l-112.5 -211t-116.5 -212q-36 -60 -60 -108q-2 -5 -8 -8.5t-9 -2.5q-2 1 -2.5 3t-0.5 5t-1 6q-1 2 -7.5 32.5l-14.5 68l-16.5 77l-14.5 67t-6 30.5q-11 74 -51 253q-2 9 -4.5 11.5t-4 -0.5t-4.5 -11q-18 -62 -65 -305
q-16 -73 -20 -110q-12 -90 11 -92l60 -1q6 0 4 -3q0 -10 -1 -13t-4 -3h-182q-6 0 -6 2q1 1 1 6t1 6q1 5 6 5l42 1q10 0 19 31q8 32 34.5 148t28.5 126q40 168 49 217q17 83 -24 97q-7 2 -67 5q-4 0 -4 3q3 3 3 14q1 2 5 2h152q9 0 11 -4q1 -3 48 -202q57 -285 70 -337
q3 -19 13 -1l127 225l42 82l78 152t42 80q3 5 16 5h103l5 -1z" />
    <glyph glyph-name="N" unicode="N" horiz-adv-x="618" 
d="M642 661q0 -12 -2 -14q0 -4 -5 -4l-27 -1q-10 0 -13 -8q-4 -7 -30 -134t-29 -148l-61 -338q-9 -34 -13 -34q-4 1 -8 14l-172 320q-1 2 -51 93t-61 107q-2 3 -4 3.5t-4 -1.5t-2 -6q-2 -14 -30.5 -165t-33.5 -189q-3 -15 -5 -35.5t-3 -44.5t3 -40t13 -16l57 -1q6 0 3 -3
q0 -10 -2 -14q0 -2 -5 -2h-172h-4.5t-0.5 2v3q1 3 1.5 6.5t0.5 4.5q3 3 8 3l33 1q8 0 8 4l3 6q2 7 5.5 16.5t7.5 21.5t8 26t6 26q3 18 38 195.5t40 210.5q4 23 0 32q0 1 -4.5 12t-6.5 14t-6.5 13t-7 14.5t-7 11t-8.5 10.5t-8 6q-6 3 -16 3l-41 1q-4 0 -4 3q2 4 2 14q1 3 6 3
h129q5 0 10 -5q3 -3 33 -60.5l62 -117.5t35 -66q2 -4 19.5 -36.5l38 -70.5l42 -78l37.5 -68t19 -31q6 -13 10 4q3 11 31.5 170t31.5 186q8 49 5 99t-20 53l-52 1q-6 0 -6 3q2 6 2 14q1 3 6 3h166l5 -1v-1z" />
    <glyph glyph-name="O" unicode="O" horiz-adv-x="673" 
d="M637 338q-16 -92 -66.5 -171t-124.5 -127t-165 -48q-120 0 -186 66q-36 35 -55 100t-5 149q18 105 70 184t128 125q96 55 186 55q107 0 167 -72q79 -91 51 -261zM562 325q23 142 -33 231q-24 39 -65 62t-90 23q-75 0 -130 -47q-99 -81 -131 -275q-23 -132 30 -224
q23 -37 64.5 -60t84.5 -23q73 0 134 51q48 39 84.5 106.5t51.5 155.5z" />
    <glyph glyph-name="P" unicode="P" horiz-adv-x="516" 
d="M509 466q-17 -69 -77 -118q-59 -46 -147 -46q-37 0 -57 6q-6 2 -5 8q1 3 5 7q2 2 9 2q15 -3 34 -3q26 0 55.5 9.5t47.5 24.5q22 18 39.5 46t22.5 55q7 29 2 66t-23 59q-48 61 -128 61q-28 0 -32 -1q-3 0 -7 -6q-4 -7 -39 -163l-38 -178l-32 -159q-24 -112 -5 -116l82 -1
q4 0 4.5 -0.5t-0.5 -3.5q-1 -9 -1 -12q-2 -3 -5 -3h-242h-3.5t0.5 2q2 4 2 13q3 4 7 4l54 1q6 0 11 10q53 267 67 318l41 198q3 15 5 24t5.5 29.5t2.5 31.5t-6 11l-64 1q-6 0 -6 3q2 4 2 14q2 3 8 3h120q8 0 66 1t61 1q37 0 69 -9q43 -13 76 -55q17 -23 22 -62.5t-3 -72.5z
" />
    <glyph glyph-name="Q" unicode="Q" horiz-adv-x="612" 
d="M600 -146q-3 -17 -25 -39q-40 -42 -119 -42q-73 0 -149 40q-39 20 -84 59.5t-82 85.5q-8 10 -20 26.5l-18.5 25.5t-16 19t-17.5 16q-20 15 -40 15q-4 -1 -12 -6.5t-10 -6.5q-5 -1 -8 3t-1 11q14 22 53 22q60 0 122 -62q5 -5 12 -3q137 23 212 85q105 87 122 269
q5 54 -5 106.5t-32 86.5q-52 76 -155 78q-88 0 -148 -59.5t-69 -156.5q-7 -66 25 -107t85 -43q58 -4 92 24q36 28 42 70q4 33 -13 48q-10 9 -32 5q-11 -3 -13 3q-1 3 5 7t15 5q24 4 41 -10q25 -21 20 -60q-6 -57 -46 -94q-51 -47 -136 -44q-69 3 -109.5 53t-33.5 127
q10 112 103 186t211 74t179 -79q62 -84 52 -191q-20 -209 -183 -321q-77 -53 -210 -77q-14 -2 -5 -11q48 -62 101 -102q104 -81 197 -81q39 0 67 19q20 18 25 34q2 5 9 -3q3 -3 2 -5z" />
    <glyph glyph-name="R" unicode="R" horiz-adv-x="580" 
d="M544 58q0 -4 -3 -6q-12 -19 -49.5 -37t-63.5 -18q-10 0 -18 6q-22 16 -95 151q-43 87 -59 128q-3 8 -6 8q-1 0 -17 -1t-29.5 -1.5t-26.5 0.5q-8 1 -9 -5l-29 -150q-9 -42 -10 -69.5t1.5 -35.5t6.5 -8l69 -1l4 -1l-1 -2q0 -8 -2 -14q-1 -2 -5 -2h-215q-5 0 -6 2q1 2 1.5 7
t1.5 6q1 4 7 4l42 1q9 0 13 24q3 8 26.5 124t26.5 134l17 78q17 79 25 124q10 53 13.5 86t1.5 42.5t-6 9.5l-61 1l-5 1l1 2q2 4 2 14q2 2 6 2h138q7 0 55.5 1t54.5 1q39 0 61 -6q50 -11 82 -50q36 -45 23 -110q-16 -79 -68 -130q-42 -40 -109 -61q-6 -3 -5 -6
q12 -43 68 -137q55 -91 77 -115q23 -24 67 20q5 3 6 1l1 -2v-5.5v-4.5zM429 469q13 66 -19 112q-23 31 -55 46t-95 15q-16 0 -19 -4l-38 -185q-4 -13 -16 -73t-12 -66q-1 -3 -0.5 -4.5t1.5 -1.5t5 -1q15 -3 57 0q49 3 76 15q45 20 75.5 62.5t39.5 84.5z" />
    <glyph glyph-name="S" unicode="S" horiz-adv-x="433" 
d="M411 579q-2 -28 -28 -26q-31 3 -63 84q-2 5 -8.5 10t-12.5 5q-82 5 -125.5 -27.5t-47.5 -89.5q-3 -40 22 -71t84 -68q85 -52 119 -105t17 -124q-10 -74 -69.5 -125t-144.5 -45q-70 4 -117 44.5t-43 91.5q1 18 11.5 32.5t24.5 13.5q12 -1 20.5 -17.5t7.5 -37.5
q0 -7 -3 -16.5t-6.5 -19.5l-4.5 -13q-2 -10 6 -18q39 -38 100 -42q65 -4 108 39.5t48 105.5q2 42 -22 79.5t-92 84.5q-72 50 -97.5 95t-21.5 102q4 69 64 110.5t147 36.5q53 -3 91 -29.5t36 -59.5z" />
    <glyph glyph-name="T" unicode="T" horiz-adv-x="518" 
d="M572 657l-14 -43.5t-14 -46.5q-2 -11 -6.5 -16t-10.5 -4q-4 1 -4 5t1.5 12t1.5 13q1 45 -42 55q-30 8 -120 8q-8 0 -9 -6q-5 -12 -92 -469q-28 -139 -8 -145l70 -1q3 0 2 -3q0 -1 -0.5 -6.5t-0.5 -6.5q-1 -3 -5 -3h-240h-3.5t0.5 2v1t0.5 6t-0.5 7q3 3 7 3h58q10 0 14 8
q6 13 26 124l41.5 204t39.5 195q6 39 6.5 59t-4 25.5t-14.5 5.5q-99 0 -140 -11q-31 -7 -55 -37q-3 -3 -7.5 -12t-8 -15t-5.5 -6q-4 1 -7.5 4.5t-2.5 6.5q0 1 2 5.5t4.5 11.5t3.5 11q11 20 27 67q0 6 3.5 9.5t8 2.5t5.5 -5q3 -5 92 -9.5t150 -4.5q11 0 105 1.5t95 1.5
q29 1 37 4q4 3 10 0t3 -8z" />
    <glyph glyph-name="U" unicode="U" horiz-adv-x="707" 
d="M716 659q0 -5 -2 -11q-1 -5 -5 -5l-61 -1q-7 0 -9 -4q-9 -20 -61 -330q-9 -55 -20.5 -143t-10.5 -119q0 -6 3.5 -10t8.5 -3q28 7 76 32q6 3 8 -1q2 -3 4 -9q0 -4 -4 -5q-41 -23 -147 -60q-11 -4 -18.5 1.5t-6.5 12.5q0 65 11 138q4 19 1.5 19.5t-11.5 -16.5
q-43 -78 -108.5 -117.5t-128.5 -38.5q-63 0 -104 23q-44 27 -57 69q-17 51 -1 142q1 6 10 52.5l19.5 97.5l20.5 99t10 50q22 118 0 120l-51 1q-5 0 -5 3q1 2 1.5 7t1.5 7q2 3 7 3h209q4 0 5 -0.5t-1 -2.5q0 -1 -0.5 -5.5t-0.5 -6.5q-3 -5 -6 -5l-54 -1q-6 0 -9 -4
q-2 -4 -18 -82l-32.5 -159t-18.5 -89q0 -3 -5.5 -32.5t-11 -63t-6.5 -46.5q-4 -78 32 -108q31 -26 91 -26q83 0 146 58q66 60 93 169q8 33 16.5 85l17 108t11.5 70q5 24 7 38l5 36.5t1 34t-9 11.5l-56 1q-5 0 -5 3q1 2 1.5 7t1.5 7q2 3 7 3h214q6 0 4 -4z" />
    <glyph glyph-name="V" unicode="V" horiz-adv-x="576" 
d="M635 661q0 -2 -1 -8t-1 -7q-1 0 -2.5 -1.5t-2.5 -1.5l-23 -1q-10 -2 -19 -18q-147 -245 -165 -272l-202 -339q-14 -23 -23 -23q-2 0 -3.5 1t-2 3.5l-1 5t-1.5 5.5t-1 5q-7 49 -26 170t-25 162q-1 10 -16 112.5t-21 133.5q-10 50 -27 53l-34 2q-5 1 -3 3q0 9 1 13q3 4 8 4
h184q4 -2 5 -3q0 -11 -1 -13q-3 -4 -7 -4l-30 -1q-17 0 -21 -7q-6 -9 -1 -34q9 -83 31 -230q5 -33 18.5 -129t17.5 -119q2 -14 5 -14t11 13q7 13 71 116.5l86 141.5q78 138 94 174q19 47 21 62q0 25 -15 26l-53 1q-6 0 -5 3q0 8 2 14q1 3 4 3h169q5 0 5 -2z" />
    <glyph glyph-name="W" unicode="W" horiz-adv-x="785" 
d="M845 661q-1 -2 -1 -15q-3 -3 -4 -3l-16 -1q-6 0 -17 -17q-4 -4 -41.5 -65.5l-78.5 -130t-47 -77.5l-200 -337q-12 -25 -21 -25q-7 0 -11 18q-8 61 -41 273q0 5 -3 5t-6 -4l-160 -271q-4 -8 -9.5 -14.5t-10.5 -5.5t-9 16q-3 23 -22.5 151.5l-27.5 183.5q-31 204 -45 277
q-4 23 -23 23l-13 1q-6 0 -4 3q0 5 2 13q1 4 7 4h156q6 0 6 -3q0 -7 -3 -13q-1 -4 -6 -4l-24 -1q-10 0 -18 -15q-3 -9 -1 -26q4 -32 15.5 -115.5l15.5 -114.5q27 -194 37 -250q1 -12 4.5 -12t10.5 13q11 17 118 199q5 8 4 15l-12.5 84.5l-17.5 118t-13 80.5q-4 23 -22 23
l-20 1q-3 0 -4 0.5t0 2.5q0 1 3 13q1 4 7 4h163q6 0 6 -3q0 -7 -3 -13q-1 -4 -6 -4l-28 -1q-11 0 -17 -17q-3 -9 -1 -26q15 -119 31 -228l18.5 -128t18.5 -123q4 -19 15 -1l69 115.5l85 143.5q56 100 92 171q24 49 24 68q1 9 -4 16t-11 9l-48 1q-5 2 -6 3q0 11 1 14q0 3 4 3
h158q5 0 5 -2z" />
    <glyph glyph-name="X" unicode="X" horiz-adv-x="616" 
d="M660 635q-2 -11 -11 -19.5t-23 -8.5q-16 0 -36 6q-19 6 -26 4q-31 -10 -69 -48q-44 -44 -136 -176q-7 -9 -6 -14q27 -110 39.5 -157t30 -94t35.5 -70q6 -8 16.5 -11t17.5 1q32 14 54 67q3 3 6 3q8 0 12 -6q2 -2 0 -5q-29 -61 -87 -100q-19 -13 -38 -13q-22 0 -38 14
q-14 13 -25.5 35.5t-25.5 71.5t-21 76.5t-26 108.5q-2 8 -4 8t-7 -8q-4 -5 -27.5 -39l-40 -57.5l-40 -55l-41.5 -54t-30 -33.5q-70 -65 -123 -65q-33 0 -52.5 13t-17.5 30q2 10 12 18.5t23 8.5q7 0 13.5 -2.5t10 -5t10.5 -9t9 -8.5q10 -8 24 -5q26 5 47.5 20.5t56.5 52.5
q22 23 82.5 108.5t77.5 114.5q5 10 3 14q-30 113 -58.5 175t-62.5 81q-22 13 -42 1q-25 -17 -38 -54q-3 -4 -4 -4l-6 2q-7 2 -8 3q-2 2 -1 5q8 27 32 53t52 44q21 14 41 14q19 0 31 -9q39 -29 63.5 -76.5t53.5 -159.5q4 -12 11 -2q6 8 21.5 30.5l21 30l18.5 25.5t19 25
t17.5 21.5t19.5 22.5l18.5 19t21 20l21.5 18q25 20 44.5 27.5t49.5 7.5q17 0 27 -9t8 -22z" />
    <glyph glyph-name="Y" unicode="Y" horiz-adv-x="560" 
d="M611 661q0 -2 -1 -9l-2 -6q0 -3 -3 -3l-27 -1q-13 0 -33 -25l-51.5 -68l-54.5 -73l-101 -132q-9 -17 -10 -21q-31 -154 -39 -206q-15 -94 5 -97l77 -1q5 0 5 -4q-3 -3 -3 -13q0 -2 -4 -2h-243q-6 0 -6 1q-1 0 0 2l2 11q1 5 7 5l61 1q8 0 14 21q5 32 51 263q2 13 -3 21
q-17 40 -67 140q-38 77 -76 142q-21 33 -34 35l-27 1q-6 0 -6 3q0 1 0.5 6t1.5 7q-1 3 0 3.5t5 0.5h189q8 0 8 -3q-1 -2 -1.5 -7.5t-0.5 -6.5q0 -3 -4 -3l-43 -1q-8 0 -10 -2.5t-1 -9.5q0 -9 9 -27q51 -102 58 -117q47 -98 61 -121q7 -12 14 -3q79 102 130 179q31 48 35 79
q1 8 -4.5 15t-11.5 7l-46 1q-4 0 -4 3q0 5 3 14q0 3 4 3h173q4 0 4 -2z" />
    <glyph glyph-name="Z" unicode="Z" horiz-adv-x="551" 
d="M599 680q-3 -26 -37 -71q-12 -15 -35.5 -40.5l-50 -52.5l-56.5 -57l-52.5 -52l-40.5 -39.5l-19 -18.5l-27 -27q-6 -6 4 -6h43h56h33t4 -2q-2 -10 -12 -19q-6 -3 -13 -3h-33.5h-52h-51.5q-5 0 -10 -3q-120 -115 -201 -211q-11 -14 -7.5 -17t16.5 1q30 7 148 7
q40 0 82 -1.5l70 -2.5t33 -1q47 0 57 12q10 16 16 11q4 -4 -2 -16q-12 -59 -13 -62q-3 -11 -13 -13q-16 -2 -36 -2q-9 0 -35 1t-55.5 3t-35.5 2q-60 4 -185 5q-13 1 -43.5 0.5t-44.5 -1.5q-28 -2 -42 -12q-3 -1 -6.5 2t-2.5 8q0 3 3.5 7t8 8.5l5.5 5.5q12 15 55 61l88.5 94
l51.5 54q3 4 13 13.5l23 22l19 18.5q6 7 -2 7h-99q-6 0 -6 3q0 6 10 16q3 5 13 5h104q5 0 11 3l71.5 70l71 70l34.5 34q48 51 57 63q6 8 3.5 9.5t-18.5 2.5q-33 2 -124 13q-70 10 -133 10q-60 0 -86 -14.5t-31 -44.5q-5 -27 9 -34q3 -1 13 -11q1 -2 0 -3t-3.5 -2t-5.5 -1
q-13 0 -21 6q-18 12 -16 40q4 41 45.5 86.5t101.5 45.5q25 0 136 -18q58 -10 123 -10q62 0 75 7q16 7 22.5 29.5t-3.5 36.5q-1 3 -4 6t-3.5 4t0.5 3q4 3 14 -1q26 -13 24 -37z" />
    <glyph glyph-name="bracketleft" unicode="[" horiz-adv-x="285" 
d="M369 718q4 -2 3.5 -6.5t-4.5 -6.5q-6 -3 -37 -3h-88q-21 0 -28 1q-4 1 -6.5 -2t-1.5 -8l-4 -34q0 -8 -59 -342q-4 -29 -103 -501l-12 -53q-2 -8 -0.5 -11t5.5 -2q16 2 21 2h109h20q0 -12 -1 -15q-3 -5 -21 -5h-188q-14 0 -11 14q0 5 27.5 142l56.5 279t30 148l71 395
q2 11 10 11h176q34 0 35 -3z" />
    <glyph glyph-name="backslash" unicode="\" horiz-adv-x="275" 
d="M206 -39q-1 -3 -8 -7q-6 -4 -10 0q-6 10 -6 15q-114 694 -118 727q-2 14 -1 16q3 4 8 7q3 1 5 1t3.5 -1t2.5 -1q6 -10 6 -14q110 -658 118 -726q2 -7 0 -17z" />
    <glyph glyph-name="bracketright" unicode="]" horiz-adv-x="285" 
d="M274 708q-1 -3 -25 -119l-48.5 -233l-26.5 -127l-86 -484q-3 -13 -12 -13h-173q-34 0 -36 4q-4 1 -3 6t4 7q4 3 38 3h90q15 0 23 -1q5 -1 7 2t3 10l6 43l73 423q2 14 44.5 211.5t45.5 207.5q1 6 9 44q2 7 1 9.5t-5 1.5q-16 -2 -25 -2h-106q-20 0 -20 2q0 11 1 14
q4 4 24 4h188q12 0 9 -13z" />
    <glyph glyph-name="asciicircum" unicode="^" horiz-adv-x="380" 
d="M378 498q1 -7 -3 -11h-12q-1 0 -6 7q-15 19 -105 149l-1 9l-6 -9l-156 -142q-1 0 -5 -3.5t-6 -4.5q-7 -1 -10 1q-4 7 0 11q0 2 9 11q21 24 74 91t75 97q7 10 13 13q5 0 10 -4q6 -7 8 -8l10 8l10 6q5 -2 8 -10q8 -16 44 -99.5t45 -100.5q5 -8 4 -11z" />
    <glyph glyph-name="underscore" unicode="_" horiz-adv-x="376" 
d="M291 -171q-5 -5 -14 -5h-350q-9 0 -14 5q-8 8 0 18q5 6 14 6q220 -2 350 0q9 0 14 -6q8 -10 0 -18z" />
    <glyph glyph-name="grave" unicode="`" 
d="M254 482q-8 -5 -22 3q-36 20 -138 89q-15 11 -18 15q-2 5 0.5 9t8.5 2q6 0 28 1t27 1q9 -2 14 -8q42 -49 94 -93q9 -7 10 -10.5t-4 -8.5z" />
    <glyph glyph-name="a" unicode="a" horiz-adv-x="432" 
d="M418 449q-18 -31 -39 -90q-40 -114 -47 -140q-38 -134 -39 -163q-1 -16 11 -16q10 1 61 29q4 3 7 1q4 -1 4 -8q0 -3 -3 -5q-22 -16 -66.5 -39t-70.5 -24q-8 -1 -12 1.5t-3 11.5q5 71 30 139q4 14 1 14q-4 0 -10 -12q-34 -61 -70 -95q-59 -59 -114 -55q-40 2 -59 41
t-5 114q21 105 125 203q77 73 161 73q33 0 59 -8q10 -3 16 6q2 5 7 13.5t7 11.5q3 6 11 6q14 0 35 -3q4 0 4.5 -1t-1.5 -5zM325 394q3 10 -9 13q-19 6 -36 4q-55 -3 -110 -56q-88 -88 -106 -191q-10 -58 2.5 -87t37.5 -29t60 28t64 75q12 18 21.5 38t14.5 33.5l14 37
l14 36.5q26 70 33 98z" />
    <glyph glyph-name="b" unicode="b" horiz-adv-x="441" 
d="M404 281q-11 -113 -109 -213q-36 -34 -83 -52t-91 -16q-13 1 -36.5 8t-34.5 14q-6 3 -11 -2q-4 -4 -14.5 -25.5l-11.5 -23.5q-2 -3 -8 -3q-1 0 -3 1.5t-4 1.5q-5 0 -3 4q17 54 39 142q39 166 66 309q4 16 31 162q2 15 6 40l7 43t4 25q2 8 -7 8q-13 0 -74 -16q-4 -2 -4 2
l-2 11q0 4 2 5q19 7 74.5 21.5t83.5 18.5q10 1 11.5 -1.5t-1.5 -11.5q-1 -3 -59 -273q-3 -17 -35 -155q-2 -9 1 -9.5t7 8.5q24 47 60 82q59 61 114 61q44 0 67.5 -45t17.5 -121zM332 284q5 55 -11.5 84t-45.5 29q-26 0 -59.5 -27.5t-56.5 -71.5q-29 -55 -57 -168
q-16 -58 -20 -97q-1 -7 7 -9q15 -5 33 -5q70 0 122 52q37 36 60.5 94.5t27.5 118.5z" />
    <glyph glyph-name="c" unicode="c" horiz-adv-x="335" 
d="M344 406q-1 -13 -12.5 -22t-28.5 -9q-28 0 -51 31q-6 8 -16 8q-43 2 -82 -36q-33 -33 -56 -90.5t-25 -120.5q-2 -59 18.5 -90.5t60.5 -31.5q68 0 130 55q1 1 5 -1q3 -2 5 -7q0 -3 -1 -5q-33 -34 -88.5 -63.5t-97.5 -29.5q-51 0 -80.5 40.5t-24.5 111.5q5 65 45.5 130.5
t98.5 115.5q68 59 149 59q26 0 39 -12.5t12 -32.5z" />
    <glyph glyph-name="d" unicode="d" horiz-adv-x="452" 
d="M481 725l-68 -254q-41 -151 -65 -251q-28 -111 -35 -162q-2 -12 0 -17.5t9 -4.5q18 1 65 33q6 4 8 -1l3 -5q2 -4 -3 -7q-47 -40 -132 -62q-11 -3 -17 2t-5 15q3 28 9 58q3 16 23 90q6 17 4 18t-10 -15q-29 -59 -79 -112q-50 -56 -109 -56q-43 0 -68.5 40t-14.5 116
q7 62 39.5 121.5t79.5 99.5q37 32 83 50.5t85 18.5q31 0 41 -6q11 -6 14 5q14 41 39 150q13 57 19 107q2 8 -7 8q-26 0 -75 -17q-2 -1 -4 2q-4 7 -2 11q0 3 4 4q21 10 80 25.5t78 15.5q16 0 11 -20zM328 403q1 8 -5 11q-12 5 -41 5q-63 0 -117 -50q-37 -34 -64.5 -88.5
t-34.5 -119.5q-7 -58 8 -85t42 -29q31 -1 64.5 27.5t61.5 78.5q30 52 66 169q6 22 20 81z" />
    <glyph glyph-name="e" unicode="e" horiz-adv-x="344" 
d="M363 383q1 -4 -16 -15q-44 -26 -155.5 -86.5t-112.5 -60.5q-6 -3 -9 -10q-5 -26 -7 -43q-12 -123 88 -125q59 0 134 61q2 2 4 1q4 -3 6 -8q1 -3 -1 -5q-19 -21 -63 -49q-85 -53 -143 -49q-49 2 -74 46t-12 131q9 56 44.5 116.5t77.5 98.5q69 62 117 62q61 0 77 -59
q1 -5 2.5 -7.5t3.5 -4t5 0.5q4 2 15 8l10 7q4 1 9 -10zM254 347q0 18 -15.5 38t-32.5 20q-37 0 -65 -27q-41 -37 -63 -127q-1 -6 0.5 -7.5t5.5 1.5q121 61 163 86q7 3 7 16z" />
    <glyph glyph-name="f" unicode="f" horiz-adv-x="236" 
d="M395 718q-2 -27 -39 -27q-10 0 -24 10.5t-24 25.5q-2 4 -9 4q-16 0 -28 -10q-46 -40 -64 -139l-35 -160q-3 -10 5 -10h89q4 0 3 -4q0 -1 -1 -7.5t-1 -8.5q0 -4 -6 -4q-3 0 -43.5 1.5t-42.5 1.5q-8 0 -10 -5q-3 -4 -17 -73l-31.5 -155t-24.5 -116q-27 -110 -46 -158
q-35 -81 -83 -117q-43 -35 -91 -35q-57 0 -54 36q1 10 11.5 17.5t23.5 7.5q20 0 39 -25q7 -11 17 -11q20 0 33 16q25 29 47 101q11 33 39 165l24.5 117.5l31 154t14.5 71.5q3 5 2.5 6.5t-4.5 1.5l-58 -2q-5 0 -5 4q1 9 3 14q1 5 7 5q2 0 26.5 0.5t29.5 0.5q6 0 7 5l37 145
q26 99 100 162q47 38 97 38q27 0 42 -13t13 -31z" />
    <glyph glyph-name="g" unicode="g" horiz-adv-x="362" 
d="M412 435q-1 -5 -15.5 -28.5t-15.5 -26.5q-1 -1 -3 -4q-6 -9 -17 -7q-17 -2 -40 3q-7 1 -9 -1t0 -10q4 -21 -1 -48q-4 -30 -23 -66t-43 -56q-49 -39 -108 -44q-25 -2 -34 -7q-22 -19 -25 -44q-3 -27 26 -48q16 -11 58 -29q85 -34 111 -65q24 -26 17 -70q-8 -60 -80 -113
q-74 -54 -184 -54q-75 0 -119 36q-39 33 -31 84q8 54 71 96q42 30 114 45q14 4 3 10q-18 10 -29 32.5t-7 46.5q7 45 57 76q4 3 -7 7q-27 11 -44 36q-20 26 -12 86q8 71 77 129q59 50 120 50q35 0 59 -13q13 -8 24 -27q5 -7 20 -6q42 2 54 10q9 6 20 24q2 2 5.5 1.5t7 -2.5
t3.5 -3zM243 298q9 51 -1 79q-12 47 -56 47q-35 0 -58 -23q-29 -27 -41 -106q-7 -53 2 -93q12 -39 45 -39q22 0 35.5 6.5t30.5 23.5q30 29 43 105zM226 -136q5 51 -52 78q-49 25 -85 25q-53 0 -100 -38q-49 -39 -54 -85q-6 -42 20 -69q37 -39 102 -39q32 0 67 10t50 21
q47 45 52 97z" />
    <glyph glyph-name="h" unicode="h" horiz-adv-x="449" 
d="M395 62q1 -6 -3 -7q-27 -20 -71 -40.5t-66 -20.5q-19 0 -17 25q2 33 28 126q37 132 44 188q4 33 -0.5 45t-20.5 12q-47 0 -107 -85q-51 -69 -76 -142q-18 -50 -38 -151q-2 -12 -14 -12h-46q-13 0 -8 12q5 21 24 92l29 109q15 59 90 376q4 16 8 37t7.5 42l4.5 27
q1 5 -2.5 7.5t-9.5 2.5q-10 -1 -67 -16q-3 -1 -5 2q0 2 -0.5 4.5t-1 4t-0.5 2.5q0 4 3 5q18 6 75 21t78 17q7 1 10 -4t1 -12l-62 -258q-36 -145 -54 -205q-4 -12 -2 -13q2 -2 6 5l2 4q44 82 92 129q60 57 107 57q61 0 49 -90q-8 -57 -47 -197q-19 -69 -22 -105q-2 -17 9 -18
q16 -1 62 30q6 4 8 -1q3 -4 3 -5z" />
    <glyph glyph-name="i" unicode="i" horiz-adv-x="259" 
d="M193 60q2 -4 -3 -7q-29 -21 -70 -39t-71 -20q-11 -2 -18 5t-5 21q5 42 30 139l28 105.5t27 104.5q1 5 1.5 8.5t0.5 6.5t-1.5 4.5t-4.5 0.5q-34 -18 -67 -47q-4 -3 -8 0l-4 5q-2 5 1 8q16 17 47.5 40.5t50.5 33.5q43 25 56 21q12 -3 8 -23q-7 -33 -34 -138
q-11 -43 -36 -125q0 -1 -26 -114q-2 -9 1 -14t12 -3q34 6 74 32q6 4 8 0q2 -2 3 -5zM239 591q-8 -50 -51 -50q-31 0 -27 43q2 20 16.5 34t32.5 14q15 0 23 -11.5t6 -29.5z" />
    <glyph glyph-name="j" unicode="j" horiz-adv-x="235" 
d="M233 596q-2 -23 -18 -37.5t-33 -14.5q-14 0 -22 10t-7 26q1 19 16.5 35t36.5 16q14 0 21 -11t6 -24zM189 428q-3 -37 -20 -112q-13 -66 -39 -183q-37 -166 -67 -241q-33 -82 -87 -125q-40 -33 -93 -33q-25 0 -38 10t-13 25q1 11 12.5 19.5t28.5 8.5q20 0 42 -32
q4 -5 9 -5q19 0 35 19q24 27 41 84q15 43 44 173l31 142q26 106 38 187q2 11 -1 18t-9 6q-33 -14 -71 -43q-4 -3 -8 0q0 1 -1.5 2.5t-1.5 2.5q-3 3 0 7q16 15 51 38.5t55 34.5q39 20 53 17q11 -1 9 -20z" />
    <glyph glyph-name="k" unicode="k" horiz-adv-x="424" 
d="M400 392q-10 -61 -70 -105l-89 -63q-7 -4 -5 -13q10 -46 33 -96q28 -58 37 -67q6 -6 14 -2q14 5 55 40q2 3 4 1q4 -4 5 -8q1 -2 -1 -4q-23 -24 -57 -47.5t-53 -30.5q-12 -5 -18 3q-22 25 -45 84q-27 68 -35 97q-9 6 -7.5 10t14.5 12q25 16 90 66q55 42 60 95
q1 16 -7.5 27t-22.5 11q-19 0 -48 -17.5t-55 -46.5q-73 -80 -101 -175q-22 -76 -32 -152q-2 -11 -14 -11h-46q-14 0 -9 12l47 201q25 100 49 214q23 116 34 161q16 91 17 103q0 12 -11 12q-10 0 -70 -15q-2 -1 -4 2q0 2 -0.5 4.5t-1 4t-0.5 2.5q0 4 3 5q18 7 75.5 22
t76.5 16q7 1 10 -3.5t1 -11.5l-58 -259q-36 -160 -50 -206q-3 -9 1 -8q2 0 4 5q23 38 54.5 76.5t53.5 57.5q68 59 123 59q23 -1 38 -18.5t11 -43.5z" />
    <glyph glyph-name="l" unicode="l" horiz-adv-x="239" 
d="M243 722q-29 -94 -64 -252q-13 -56 -42 -169.5t-34 -135.5q-20 -93 -22 -111q-1 -10 0.5 -15t8.5 -4q33 4 72 30q7 4 8 -1q2 -2 3 -5q1 -5 -2 -7q-26 -20 -68.5 -37.5t-70.5 -21.5q-10 -2 -18 5.5t-6 18.5q9 66 26 132l62 244q2 10 22 90t25 105q12 60 17 100
q2 8 -2 12.5t-12 3.5q-24 -4 -65 -16q-3 0 -4 3l-2 10q-1 4 3 5q20 7 75.5 21.5t76.5 16.5q9 1 12 -5.5t1 -16.5z" />
    <glyph glyph-name="m" unicode="m" horiz-adv-x="683" 
d="M629 61q1 -4 -3 -7q-79 -56 -133 -59q-10 -1 -15.5 7.5t-3.5 19.5q10 65 27 123q41 140 47 187q10 61 -25 61q-37 0 -102 -93q-52 -71 -73 -141q-30 -91 -41 -147q-1 -12 -14 -12h-45q-13 0 -8 12q11 41 57 199q22 77 29 123q12 57 -24 57q-37 0 -104 -93
q-50 -70 -74 -140q-29 -80 -43 -146q-3 -12 -14 -12h-45q-12 0 -9 12q5 19 27.5 88t34.5 111q29 101 37 147q2 12 0.5 18.5t-8.5 5.5q-16 -1 -55 -35q-6 -4 -9 -1q-1 3 -4 4q-2 4 1 8q15 16 51 41.5t56 34.5q30 13 34 14q7 2 9 -2t2 -14q-2 -16 -7 -37q-12 -54 -37 -138
q-6 -21 -3 -19q3 1 10 15q44 86 92 136q59 59 104 59q27 0 37.5 -27.5t2.5 -70.5q-1 -5 -21 -89q-4 -17 -4 -19t4 4q3 3 7 11q52 92 93 135q56 56 104 56q28 0 41 -25.5t6 -73.5q-2 -21 -9 -49.5t-20 -72.5l-19 -65q-17 -65 -23 -105q-1 -7 1.5 -13t9.5 -5q20 1 60 28
q7 2 8 -1q3 -4 3 -5z" />
    <glyph glyph-name="n" unicode="n" horiz-adv-x="471" 
d="M411 60q1 -4 -3 -7q-69 -51 -128 -58q-14 -2 -18.5 2.5t-4.5 19.5q-1 22 27 129q45 168 46 175q13 72 -23 72q-43 0 -109 -96q-52 -76 -74 -137q-14 -38 -43 -148q-3 -12 -16 -12h-43q-13 0 -8 12q5 22 27.5 92.5t32.5 106.5q27 97 37 149q3 8 2 16t-9 7q-14 -3 -57 -38
q-5 -4 -9 0l-3 4q-3 4 1 8q17 17 56 44.5t60 37.5q17 7 25 9q7 2 10.5 -4t0.5 -21q-15 -71 -39 -152q-5 -14 -2 -17q3 -2 9 8q51 88 91 128q61 58 105 58q28 0 41.5 -25.5t7.5 -73.5q-3 -22 -48 -187q-17 -53 -24 -103q-1 -11 3 -17t12 -4q24 6 56 28q6 4 9 -1z" />
    <glyph glyph-name="o" unicode="o" horiz-adv-x="413" 
d="M381 274q-16 -136 -132 -228q-66 -52 -126 -52q-65 0 -100 50q-29 43 -22 118q8 116 110 214q77 72 156 72q62 0 92 -46q31 -48 22 -128zM309 265q7 82 -18 123q-20 31 -59 31q-40 0 -75 -30q-37 -32 -58.5 -92.5t-27.5 -123.5q-8 -76 12 -115q21 -40 65 -40q35 0 75 34
q36 30 58.5 90t27.5 123z" />
    <glyph glyph-name="p" unicode="p" horiz-adv-x="432" 
d="M399 301q-10 -92 -61 -169q-59 -93 -155 -118q-50 -13 -103 -3q-9 3 -13 -8q-16 -62 -26 -117q-4 -15 -8 -39t-6 -52t5 -30l76 -5q6 0 4 -6q0 -1 -2 -7q-1 -5 -7 -5h-195q-8 0 -9 5q-2 8 -2 10q1 6 11 7h31q8 0 11 10l27.5 116l33.5 142l70 297q24 89 30 135q-24 6 -2 15
q5 1 11 3q1 0 24.5 7t30.5 8q10 0 5 -9q-2 -19 -9 -49q-14 -64 -31 -122q-2 -9 -0.5 -10t6.5 6q33 57 100 106q40 30 80 27q39 -4 59 -43q20 -36 14 -102zM328 293q4 36 -7.5 61.5t-36.5 29.5q-39 4 -72 -21q-54 -44 -82 -108q-9 -21 -54 -214q-3 -10 5 -11q32 -10 74 -2
q23 4 48.5 18t40.5 31q38 40 61 101q17 46 23 115z" />
    <glyph glyph-name="q" unicode="q" horiz-adv-x="421" 
d="M411 468q-31 -78 -50 -146l-80 -295q-1 -5 -17 -62t-21 -83q-17 -73 -19 -104q0 -11 10 -11q4 0 37 4.5t34 4.5q6 2 6 -5v-8q0 -6 -5 -7q-2 0 -30.5 -3t-65.5 -6.5t-56 -6.5q-8 -3 -11.5 2.5t2.5 12.5q3 15 11.5 44l23.5 82l30 109q28 111 43 153q3 7 1 9t-7 -7
q0 -1 -1 -2q-24 -46 -68 -92q-55 -57 -109 -54q-45 2 -65 44.5t-7 116.5q19 109 116 203q35 34 79.5 54t83.5 20q26 0 48 -5q17 -5 20 0q11 17 20 37q5 10 11 10t19 -1t15 -1q4 0 2 -7zM320 400q1 6 -7 11q-10 5 -39 5q-53 -2 -111 -57q-75 -74 -95 -191q-10 -56 2 -87
t42 -33q27 -1 60 28t62 80q36 66 61 152q22 75 25 92z" />
    <glyph glyph-name="r" unicode="r" horiz-adv-x="352" 
d="M383 419q-2 -17 -15.5 -28.5t-33.5 -11.5q-19 0 -43 12q-10 8 -16 3q-17 -10 -40.5 -34t-41.5 -51q-49 -74 -69 -144q-21 -68 -37 -153q-3 -12 -15 -12h-46q-13 0 -10 12q5 20 24 87l30 108q33 130 36 158q2 7 0 14t-7 6q-23 -4 -60 -41q-4 -4 -8 0q-3 1 -4 4q-3 4 1 8
q15 17 50.5 42.5t56.5 35.5q19 13 34 14q10 1 12 -10q0 -18 -3 -28q-8 -38 -30 -126q-3 -12 -1 -14q1 -2 5 5l2 4q30 59 84 115q54 57 106 57q18 0 29 -10t10 -22z" />
    <glyph glyph-name="s" unicode="s" horiz-adv-x="306" 
d="M303 389q-2 -13 -14 -22.5t-26 -6.5q-28 4 -39 48q-4 22 -19 22q-78 0 -93 -54q-14 -50 27 -88q8 -8 29 -26.5t28 -25.5q62 -61 43 -131q-14 -52 -61.5 -82.5t-103.5 -30.5q-53 0 -84 22.5t-27 48.5q6 31 35 29q27 0 38 -56q1 -12 13 -24q5 -4 23 -4q36 0 64 20t38 53
q16 59 -27 99q-8 8 -27 25t-26 24q-47 44 -36 105q9 51 54.5 83.5t101.5 32.5q44 0 68 -19t21 -42z" />
    <glyph glyph-name="t" unicode="t" horiz-adv-x="287" 
d="M292 405q-3 -6 -9 -12q-5 -5 -14 -5q-4 0 -45 1t-44 1q-8 0 -9 -6q-11 -36 -35 -121t-28 -98l-17 -68q-9 -37 -5 -51q5 -16 31 -9q19 3 71 40l9 7q4 3 7 1q6 -3 6 -8q1 -2 -2 -5q-13 -13 -48 -37q-56 -36 -106 -39q-22 -2 -28 6q-13 19 -6 59q3 25 21 88l65 234q1 5 0 6
t-5 1q-3 0 -23 -0.5t-24 -0.5q-5 0 -7.5 1t-1.5 3t4 14q4 4 9 4h48q8 0 9 6q15 36 27 96q4 13 17 16q21 3 50 12q10 2 11.5 0.5t-3.5 -9.5q-6 -13 -35 -113q-3 -8 3 -8t52 0.5t51 0.5q9 0 4 -7z" />
    <glyph glyph-name="u" unicode="u" horiz-adv-x="471" 
d="M418 426q-4 -18 -12 -46.5l-20.5 -72.5l-20.5 -73q-29 -106 -40 -185q-2 -11 12 -15q11 0 63 29q6 4 8 -1q0 -1 1 -2t2 -3q1 -4 -3 -7q-24 -19 -65 -36.5t-70 -19.5q-11 -1 -16 3.5t-4 14.5q3 19 11 55q19 80 27 105q2 7 1.5 10.5t-3 2t-6.5 -7.5q-48 -83 -91 -124
q-65 -61 -109 -59q-28 2 -42 27.5t-7 72.5q4 30 47 189q12 44 23 95q3 18 -9 19q-17 2 -63 -37q-4 -4 -8 0l-4 5q-1 4 1 7q23 21 60.5 42t60.5 26q25 5 33 -4q12 -13 -21 -117q-4 -13 -6 -19q-36 -124 -45 -184q-10 -64 22 -67q42 -3 117 94q50 67 69 126q24 74 40 158
q2 11 14 11h44q11 0 9 -12z" />
    <glyph glyph-name="v" unicode="v" horiz-adv-x="397" 
d="M403 406q-16 -77 -123 -236q-53 -78 -137 -168q-23 -27 -24 -17q0 4 2 13q2 118 -8 219q-14 131 -44 171q-9 8 -56 -27q-4 -3 -8.5 -3t-5 3.5t5.5 10.5q18 19 55.5 47t54.5 28q31 0 49 -119q16 -110 16 -243q0 -17 12 -4q68 85 96 132q45 79 54 133q5 37 1 64
q-2 16 12 28q7 7 20.5 7t20.5 -7q4 -4 6.5 -14.5t0.5 -17.5z" />
    <glyph glyph-name="w" unicode="w" horiz-adv-x="609" 
d="M622 403q-17 -77 -116 -228q-43 -65 -131 -170q-23 -29 -23 -13q0 3 1 8q0 33 -9 216l-5 62q-1 10 -8 2q-1 -1 -2 -4q-29 -61 -58 -106q-72 -108 -130 -169q-19 -21 -20 -11v6q2 122 -8 223q-7 73 -20.5 122t-24.5 49q-21 2 -53 -30q-7 -8 -12 0q-3 5 2 11q16 19 55 46.5
t54 27.5q28 0 47 -105q22 -133 19 -254q0 -16 13 0q59 77 87 133q36 60 52 114q-1 14 -6.5 45t-5.5 37q1 13 35 24q15 3 21.5 -4.5t10.5 -31.5q15 -89 23 -316q0 -9 3 -8q2 0 8 8q62 82 90 131q38 71 49 119q6 28 3 67q0 22 10 31q9 9 23 9.5t21 -7.5q10 -10 5 -34z" />
    <glyph glyph-name="x" unicode="x" horiz-adv-x="420" 
d="M451 419q-1 -12 -11.5 -21.5t-22.5 -9.5q-16 0 -30 6q-1 0 -6 2.5t-9.5 3.5t-7.5 0q-22 -4 -59 -43q-16 -17 -70 -89q-8 -11 -6 -25q17 -92 49 -175q9 -23 28 -12q23 13 54 48q4 6 8 4q2 0 6 -5q2 -4 -1 -7q-43 -53 -85 -86q-17 -14 -30 -14q-18 0 -31 27q-25 45 -47 152
q-3 14 -12 3q-74 -104 -122 -148q-39 -35 -63 -35q-13 0 -37 53q-2 5 -2 7t1.5 2.5t5.5 -0.5q11 2 22 -5q19 -12 41 -9q26 4 86 76q37 44 62 83q8 12 6 16q-8 38 -23.5 90.5t-22.5 67.5q-8 21 -26 15q-6 -3 -22.5 -15t-19.5 -15q-4 -5 -8 -4q-3 1 -6 8q-1 2 5 8q29 29 74 61
q19 14 34 12q6 0 10.5 -4.5t6.5 -8t8 -16.5q13 -28 38 -125q4 -13 14 -1q64 85 107 119q44 35 81 35q17 0 25.5 -6.5t7.5 -19.5z" />
    <glyph glyph-name="y" unicode="y" horiz-adv-x="396" 
d="M403 413q-15 -79 -122 -246q-111 -175 -198 -281q-99 -120 -176 -120q-16 0 -27 9t-10 22q2 12 15 20.5t32 8.5q15 0 44 -9q14 -3 17 -1q41 22 91 82q35 40 74 103q6 11 4 33q-4 59 -24 174q-20 116 -37 158q-4 14 -9.5 20t-13.5 4q-15 -4 -46 -35q-3 -3 -4 -1q-7 5 -8 9
q0 2 3 5q45 42 71 60q33 20 44 20q15 0 27 -48q14 -40 31 -131q17 -97 21 -160q2 -26 15 -8q36 53 76 126q33 60 45 121q3 13 3 62q-2 18 12 28q20 15 41 -1q11 -9 9 -24z" />
    <glyph glyph-name="z" unicode="z" horiz-adv-x="382" 
d="M400 412q-9 -8 -36.5 -37l-67 -70l-67.5 -69q-27 -27 -84 -79t-74 -69q-9 -9 1 -9q38 0 120 -41q19 -9 44 -22.5l42 -22.5t27 -12q10 1 27.5 14t23.5 22q4 4 7 4q4 0 8 -6q2 -3 -1 -6q-17 -24 -44 -45t-45 -21q-62 0 -139 45q-11 5 -29 14l-26.5 13t-23 8.5t-30.5 6.5
q-16 3 -33 -6q-8 -4 -20.5 -17t-14.5 -14q-5 -2 -7 0q0 1 -3 4.5t-4 5.5q-1 5 1 7q97 81 210 190q15 14 135 134q9 9 1 11q-37 10 -89 32q-61 23 -93 23q-55 0 -59 -30q-1 -10 2 -13q30 -21 27 -44q-2 -11 -9 -18.5t-16 -7.5q-13 0 -21.5 17t-4.5 52q4 33 42 63.5t79 30.5
q54 0 93 -17l33.5 -14t34.5 -14q33 -12 43 -5q7 4 27 24q4 2 6 1l6 -7q2 -5 1 -6z" />
    <glyph glyph-name="braceleft" unicode="{" horiz-adv-x="280" 
d="M380 715q0 -1 -6 -13q-1 -3 -6 -3q-18 1 -58 1q-52 0 -90.5 -49.5t-53.5 -124.5q-9 -48 -6.5 -115t-3.5 -94q-6 -32 -35.5 -48.5t-59.5 -18.5q27 -7 45.5 -28t13.5 -53q-5 -31 -28 -98t-32 -113q-20 -80 -1 -138t75 -58h57q3 0 3 -4q0 -10 -3 -14q-3 -3 -6 -3h-85
q-70 0 -95 56t-10 137q10 49 39 118.5t37 118.5q5 26 -11.5 45t-49.5 19q-10 0 -15 2.5t-4 11.5q2 13 26 13q82 0 91 51q8 42 1.5 111.5t3.5 121.5q14 75 63.5 124.5t112.5 49.5q43 0 85 -2q6 0 6 -3z" />
    <glyph glyph-name="bar" unicode="|" horiz-adv-x="336" 
d="M186 -148q0 -9 -7 -14q-9 -6 -20 0q-9 4 -9 14q5 646 0 900q0 10 9 14q11 6 20 0q7 -5 7 -14v-900z" />
    <glyph glyph-name="braceright" unicode="}" horiz-adv-x="280" 
d="M260 251q0 -13 -22 -13q-34 0 -59 -16t-30 -42q-6 -33 -8 -122t-12 -142q-14 -77 -61 -126t-114 -49q-42 0 -84 2q-7 0 -7 4q-1 1 1 6.5t2 6.5q2 3 9 3q18 -1 54 -1q55 0 94 49t49 124q4 30 12.5 118.5t15.5 123.5q7 31 37 49t61 23q-30 6 -51.5 25t-15.5 51
q6 29 24.5 83.5t28.5 102.5q18 81 -1 134.5t-73 53.5h-55q-5 0 -5 4q0 11 2 14q3 3 8 3h84q68 0 97.5 -56t9.5 -137q-12 -49 -37.5 -101.5t-34.5 -102.5q-5 -26 14 -43t53 -17q9 0 12 -3t2 -9z" />
    <glyph glyph-name="asciitilde" unicode="~" horiz-adv-x="296" 
d="M284 258q1 -6 -8 -17q-12 -16 -40 -33.5t-53 -17.5q-26 0 -58 19q-42 25 -63 25q-9 0 -22 -6t-19 -15l-13 -11q-3 -1 -6 3t-5 9q-1 4 9 16q17 20 43.5 37t50.5 17q25 0 57 -18l15 -9t14 -8l11 -5.5t12.5 -4.5t11.5 -1q20 0 39 19q10 10 14 13q3 1 5.5 -2.5t4.5 -9.5z" />
    <glyph glyph-name="nbspace" unicode="&#xa0;" horiz-adv-x="85" 
 />
    <glyph glyph-name="exclamdown" unicode="&#xa1;" horiz-adv-x="261" 
d="M224 558q-1 -21 -15 -34.5t-34 -13.5q-18 0 -30 14t-11 34t15 33t34 13q19 0 30.5 -12.5t10.5 -33.5zM175 448q0 -6 -3 -18q-22 -101 -23 -113q-27 -177 -24 -329q0 -42 1 -49q3 -11 0.5 -13t-11.5 6l-10 6q-10 5 -13 6q-18 13 -33 16q-11 4 -11 17t20 136q11 65 48 193
t41 147q5 13 10 13q3 0 6 -5.5t2 -12.5z" />
    <glyph glyph-name="cent" unicode="&#xa2;" horiz-adv-x="372" 
d="M360 518q-1 -12 -12 -19.5t-26 -6.5q-26 2 -54 33q-4 7 -12 7q-10 0 -14 -1l-79 -331q9 -3 22 -3q61 0 118 39q9 8 13 4q2 -2 2 -7q0 -6 -4 -9q-74 -65 -163 -75l-16 -67h-17l16 67q-45 3 -74 42.5t-27 105.5q3 127 120 212q45 30 78 41l22 95h16l-22 -91q22 6 48 6
q30 0 47.5 -12.5t17.5 -29.5zM225 526q-22 -8 -49 -28q-70 -55 -73 -188q-3 -75 45 -104z" />
    <glyph glyph-name="sterling" unicode="&#xa3;" horiz-adv-x="505" 
d="M498 543q0 -7 -3 -10q-2 -1 -7 1q-1 1 -9 11q-19 31 -52 49t-63 18q-56 0 -81 -13q-25 -12 -54 -45q-31 -36 -31 -104q1 -54 25 -108q1 -4 12 -28l149 -4q7 0 6 -7l-3 -12q0 -5 -6 -5h-137q9 -44 4 -73q-9 -56 -44 -108q2 -2 11 -9l15 -12q45 -41 96 -73q18 -9 32 -9
q31 -1 74 14q10 3 11 -4q1 -6 -10 -11q-66 -24 -114 -24q-86 1 -130 50l-25 26q-48 -54 -105 -54q-46 0 -65.5 19t-14.5 54q7 33 38 53.5t71 20.5q50 0 96 -28q17 31 26 73q5 28 -13 95q-53 0 -89 -7q-13 -2 -14 7l-3 20q1 8 9 8h87l-12 26q-22 40 -30.5 81.5t-4.5 67.5
q13 72 64 121q52 47 126 47q42 0 66.5 -7.5t49.5 -26.5q20 -15 36 -39t16 -41zM150 66q-14 20 -36 32.5t-39 12.5q-28 0 -47.5 -11.5t-23.5 -32.5q-4 -26 11.5 -39.5t45.5 -13.5q45 0 89 52z" />
    <glyph glyph-name="yen" unicode="&#xa5;" horiz-adv-x="538" 
d="M583 643q0 -1 -1.5 -7.5t-1.5 -7.5q0 -2 -3 -2l-27 -1q-13 -1 -32 -25q-74 -88 -107 -131q-9 -14 -34 -44h112q5 0 4 -5q0 -6 -3 -12q-1 -4 -6 -4h-122l-22.5 -29l-27.5 -36q-9 -17 -10 -21l-15 -75h167q5 0 4 -4q0 -6 -3 -12q-1 -4 -6 -4h-166l-20 -108q-14 -92 5 -95
l77 -1q5 0 4 -4q0 -10 -3 -13q0 -2 -4 -2h-237q-6 0 -6 1q-1 0 0 2l2 11q1 5 7 5l60 1q10 0 13 21l35 182h-166q-6 0 -5 5l1 4q2 5 2 7q2 4 7 4h165l12 57q2 12 -3 20q-30 66 -39 84h-110q-6 0 -4 5q0 2 3 11q1 5 6 5h95l-17 33q-39 80 -71 132q-18 32 -33 34l-27 2
q-6 0 -6 3q1 2 1.5 7t0.5 6q-1 2 0 2.5t5 0.5h184q8 0 8 -3q-1 -1 -1 -6.5t-1 -6.5q0 -3 -4 -3l-41 -1q-14 0 -11 -12q0 -6 8 -27q39 -78 53 -108q3 -5 12 -23.5t15 -29.5h98l40 54.5t37 50.5q35 50 36 73q1 8 -4 15t-11 7l-45 1q-4 0 -4 2q0 8 3 14q0 3 4 3h170q4 0 4 -2z
M337 404h-72l23 -45q6 -11 14 -3z" />
    <glyph glyph-name="section" unicode="&#xa7;" horiz-adv-x="398" 
d="M383 572q-3 -17 -21.5 -21.5t-31.5 3.5q-10 4 -31 26.5t-32 25.5q-17 4 -33 0q-7 -35 34 -100q10 -22 33 -56q67 -104 52 -194q-15 -89 -78 -157.5t-153 -68.5q-39 0 -70 13q-14 4 -22.5 16.5t-4.5 28.5q5 17 22.5 20.5t29.5 -3.5q10 -4 31.5 -27.5t33.5 -23.5
q42 0 47 39q1 6 -8.5 20t-29.5 38t-32 41q-79 110 -65 212q15 90 77 158.5t153 68.5q41 0 71 -15q32 -15 28 -44zM315 228q8 67 -42 131q-54 66 -69 86q-34 42 -17 106q6 24 24 47q-95 -45 -106 -160q-10 -68 39 -128l34.5 -41t36.5 -46q26 -37 23 -76q0 -7 -7 -20.5
l-17 -32.5t-15 -31q98 49 116 165z" />
    <glyph glyph-name="dieresis" unicode="&#xa8;" 
d="M308 568q-2 -20 -20 -37.5t-36 -17.5q-26 0 -23 30q2 20 20 37.5t37 17.5q25 0 22 -30zM151 568q-2 -19 -20 -37t-36 -18q-27 0 -24 30q2 19 19.5 37t36.5 18q27 0 24 -30z" />
    <glyph glyph-name="copyright" unicode="&#xa9;" horiz-adv-x="540" 
d="M519 409q0 -101 -71.5 -172t-171.5 -71q-101 0 -172.5 71t-71.5 172t71.5 172t172.5 71q100 0 171.5 -71t71.5 -172zM495 409q0 94 -63 159.5t-156 65.5t-157 -65.5t-64 -159.5t64 -159.5t157 -65.5t156 65.5t63 159.5zM391 297q1 -4 -1 -6q-19 -21 -50 -37
q-35 -13 -73 -13q-58 0 -99.5 40.5t-41.5 117.5q0 45 20 88q17 35 52 60q42 31 110 31q15 0 45 -3q20 -3 31 -9q3 -2 3 -4q0 -4 -2 -18q0 -3 -0.5 -13t-1.5 -12q-4 -14 -6 -14q-5 0 -3 7q0 11 -4 17q-8 11 -17 16q-22 13 -61 13q-50 0 -88 -41q-32 -32 -32 -110
q0 -66 32 -106q33 -42 88 -42q24 0 45 13q16 8 28 29q5 9 7 21q0 7 3 7q3 1 5 -6l7 -15z" />
    <glyph glyph-name="ordfeminine" unicode="&#xaa;" horiz-adv-x="308" 
d="M332 676q-13 -22 -27 -62q-31 -89 -33 -98q-25 -91 -27 -115q-1 -11 8 -11q8 1 42 21q3 2 5 0q3 0 3 -5l-1 -1q0 -1 -1 -2q-14 -11 -46.5 -27.5t-50.5 -17.5q-5 -1 -7.5 1t-1.5 9q4 53 20 97q4 9 2 10t-8 -9q-23 -41 -49 -67q-41 -41 -79 -38q-63 4 -45 109q15 73 87 142
q54 51 113 51q24 0 40 -6q9 -3 12 5l10 16q2 5 8 5q4 0 13 -1t11 -1q4 -1 2 -5zM268 639q1 5 -7 8q-12 4 -25 4q-38 -3 -77 -40q-62 -62 -74 -133q-7 -41 1.5 -61.5t26.5 -20.5t42 19.5t44 53.5q8 13 15 26.5t10.5 22.5l9.5 25.5t10 26.5q18 45 24 69zM283 305q0 -6 -3.5 -7
t-18.5 -1h-208q-16 0 -19 1t-3 6v11q0 6 4.5 7.5t26.5 0.5q67 -2 190 0q22 0 26.5 -1t4.5 -7v-10z" />
    <glyph glyph-name="guillemotleft" unicode="&#xab;" horiz-adv-x="405" 
d="M217 375q-1 -5 -14 -18l-104 -112l-7 -7q5 -9 6 -10l81 -109q7 -10 8 -13q0 -6 -4 -8q-2 -2 -8 -2q-3 0 -12 7q-27 23 -119 109q-10 12 -9 17l2 18q0 7 12 16l140 111q15 12 16 12q8 0 10 -2q2 -1 2 -9zM362 375q-1 -5 -14 -18l-104 -112l-7 -7q5 -9 6 -10l81 -109
q7 -10 8 -13q0 -6 -4 -8q-2 -2 -8 -2q-3 0 -12 7q-27 23 -119 109q-10 12 -9 17l2 18q0 7 12 16l140 111q15 12 16 12q8 0 10 -2q2 -1 2 -9z" />
    <glyph glyph-name="registered" unicode="&#xae;" horiz-adv-x="540" 
d="M519 409q0 -101 -71.5 -172t-171.5 -71q-101 0 -172.5 71t-71.5 172t71.5 172t172.5 71q100 0 171.5 -71t71.5 -172zM495 409q0 94 -63 159.5t-156 65.5t-157 -65.5t-64 -159.5t64 -159.5t157 -65.5t156 65.5t63 159.5zM439 280q0 -4 -4 -4h-62q-6 0 -8 2q-13 12 -56 65
q-12 15 -39 57q-2 3 -5 4q-1 0 -10.5 0.5t-14.5 0.5q-4 1 -4 -3v-70q0 -44 9 -44h32q5 0 5.5 -1t0.5 -4v-3v-1q0 -2 -0.5 -2.5t-4.5 -0.5h-120q-4 0 -4.5 0.5t-0.5 3.5v3q0 5 4 5h28q4 0 4 6v193q0 56 -6 56h-29q-4 0 -4 4v5v2.5t4 0.5h67q1 0 13 0.5t24.5 0.5h25.5t18 -1
q32 -5 51 -21q24 -21 24 -50q0 -23 -22 -52q-12 -14 -38 -21q-4 -2 -2 -5q5 -10 46 -58q31 -37 48 -49q16 -11 24 -11q6 0 6 -5v-3zM327 473q0 28 -20 46l-5 5t-6 5.5t-7 4.5t-10.5 4.5t-13.5 3t-18 1.5q-8 0 -10 -2q-1 -1 -1 -75v-44q0 -5 3 -5h20q23 0 32 3q36 8 36 53z
" />
    <glyph glyph-name="macron" unicode="&#xaf;" 
d="M280 543q-5 -8 -16 -8h-176q-10 0 -16 8q-5 9 0 19q6 11 16 11h176q11 0 16 -11q6 -10 0 -19z" />
    <glyph glyph-name="degree" unicode="&#xb0;" horiz-adv-x="282" 
d="M253 577q0 -37 -26 -62.5t-63 -25.5t-63 25.5t-26 62.5t26 63t63 26t63 -26t26 -63zM228 577q0 27 -19 47t-45 20t-45 -20t-19 -47t19 -46t45 -19t45 19t19 46z" />
    <glyph glyph-name="acute" unicode="&#xb4;" 
d="M305 592q-12 -9 -21 -14q-136 -79 -156 -89q-14 -7 -19 -2q-7 7 8 18l113 93q9 7 14 6q4 0 25.5 -1.5t31.5 -1.5q3 0 5.5 -2.5t-1.5 -6.5z" />
    <glyph glyph-name="paragraph" unicode="&#xb6;" horiz-adv-x="456" 
d="M473 654q-1 -3 -1 -4v-4q0 -6 -10 -6h-24q-5 0 -7 -4.5t-3.5 -15.5t-2.5 -16q-5 -21 -26.5 -132t-23.5 -122l-16.5 -84t-17 -74t-21 -69t-26 -53t-35 -44t-44 -24.5t-56.5 -10.5q-37 0 -67 12q-27 11 -22 38q3 16 20 20.5t30 -2.5q8 -3 27.5 -23.5t33.5 -20.5
q16 -1 27.5 24t20.5 70q31 154 35 185v3.5t-5 -0.5q-40 -16 -80 -16q-37 0 -65 15.5t-41 41.5q-29 56 -16 129q14 72 73 128q69 67 161 67q10 0 38.5 -0.5t49.5 -0.5h86q8 0 8 -7zM324 639h-17q-62 0 -104 -53q-17 -22 -33.5 -59.5t-21.5 -66.5q-16 -77 0 -118
q14 -38 61 -38q32 0 55 11q5 2 6 9q2 14 13.5 77.5t11.5 67.5q2 10 14.5 79t13.5 83q1 7 1 8zM400 639q-22 2 -43 0q-7 -44 -19.5 -108l-21.5 -114q-1 -5 -13 -76.5t-18.5 -103l-18 -87.5t-22.5 -88t-22 -46q19 9 36.5 35t29 54.5t22.5 71.5t16.5 68t12.5 63.5t7 40.5
q29 169 54 290z" />
    <glyph glyph-name="periodcentered" unicode="&#xb7;" horiz-adv-x="219" 
d="M174 374q-1 -19 -18 -34t-33 -15q-54 0 -54 51q0 58 62 58q23 0 33.5 -17.5t9.5 -42.5z" />
    <glyph glyph-name="cedilla" unicode="&#xb8;" 
d="M159 -107q0 -28 -22 -49t-52 -21q-33 0 -59 26q-3 3 1 8t8 3q21 -15 37 -15q47 0 47 56q0 19 -10 31t-27 12q-10 0 -22 -7q-5 -3 -11 2t-7 10q0 2 11 17q17 25 22 34h17l-27 -42q5 4 16 4q36 0 57 -18.5t21 -50.5z" />
    <glyph glyph-name="ordmasculine" unicode="&#xba;" horiz-adv-x="276" 
d="M301 547q-12 -96 -93 -160q-48 -37 -89 -37q-47 0 -70 36q-22 30 -16 83q7 83 79 150q54 52 109 52q43 0 65 -33q22 -35 15 -91zM249 541q6 56 -13 88q-13 21 -39 21q-27 0 -51 -20q-51 -44 -62 -153q-6 -54 8 -82q16 -27 45 -27q26 0 53 23q51 44 59 150zM258 305
q0 -6 -3 -6.5t-19 -0.5h-201q-16 0 -19 1t-3 6v10q0 6 4 7t27 1q80 -1 183 0q22 0 26.5 -1t4.5 -7v-10z" />
    <glyph glyph-name="guillemotright" unicode="&#xbb;" horiz-adv-x="405" 
d="M351 252l-2 -19q0 -5 -13 -16l-141 -111q-11 -9 -15 -9q-8 0 -9 1q-1 2 -1 9q1 5 14 18l102 109l7 9l-5 8q-54 76 -82 112q-6 8 -6 13t3 8t9 3q5 -1 14 -10q44 -39 116 -109q10 -10 9 -16zM206 252l-2 -19q-1 -6 -14 -16l-141 -111q-9 -9 -15 -9q-7 0 -8 1q-1 2 -1.5 5
t-0.5 4q1 4 15 18l101 109l8 9l-6 8q-45 65 -81 112q-7 7 -6 13q0 6 2 8q3 3 10 3q4 -1 13 -10q54 -47 117 -109q9 -11 9 -16z" />
    <glyph glyph-name="questiondown" unicode="&#xbf;" horiz-adv-x="311" 
d="M248 569q-8 -48 -52 -46q-16 1 -27.5 15.5t-8.5 33.5q7 43 50 43q16 0 28 -13t10 -33zM236 376q-2 -14 -28 -31q-52 -40 -84 -80q-50 -66 -54 -143q-4 -48 27 -88q21 -27 63 -27q7 0 15.5 3.5t9.5 3.5q8 0 5 -7q-1 -1 -5 -7.5t-6 -8.5q-4 -6 -33 -35q-5 -8 -10 -8
q-4 -1 -10 -1q-40 0 -69.5 19.5t-41.5 42.5q-26 45 -14 112q16 79 87 148q15 14 86 65q2 1 11 15l-4 16l-15 30q-9 16 -26 17q-14 -3 -16 2q-3 11 11 16l8 3q8 3 12 6q1 1 15 9t18 12q9 7 12 6q4 0 12 -14q20 -30 23 -56q1 -5 1 -20z" />
    <glyph glyph-name="Agrave" unicode="&#xc0;" horiz-adv-x="612" 
d="M564 14q0 -7 -2 -11q0 -3 -5 -3h-188q-3 0 -1 3v11q2 5 7 5l37 1q10 0 12.5 7t-0.5 29q-1 10 -12.5 91t-13.5 89q-1 11 -8 11l-222 1q-2 -1 -7 -7q-27 -43 -67 -137q-15 -40 -15 -58q0 -23 5 -25q2 -1 5 -1l50 -1q4 0 4 -1t-1 -4v-5.5t-1 -5.5q-1 -3 -5 -3h-174
q-5 0 -5 3q2 4 2 13q1 3 4 3l31 1q16 0 41 40q3 5 40.5 72l75.5 135.5t39 69.5q142 255 162 287l30 52q5 9 13 11q34 13 35 13q4 1 6 1q5 0 5 -6q0 -3 -4 -4l-2 -1q-8 -4 -16 -10q-9 -8 -9 -17q0 -22 2 -38q10 -85 46 -320q35 -206 39 -223q13 -62 31 -62l33 -1q4 0 3 -5z
M393 276q-7 27 -22 134l-20 131q-3 16 -7 24q-1 0 -12 -16q-63 -105 -67 -118l-85 -151q-7 -11 0 -11h209q4 0 4 7zM454 724q-8 -5 -22 3q-36 20 -138 89q-15 11 -18 15q-2 5 0.5 9t8.5 2q6 0 28 1t27 1q9 -2 14 -8q42 -49 94 -93q9 -7 10 -10.5t-4 -8.5z" />
    <glyph glyph-name="Aacute" unicode="&#xc1;" horiz-adv-x="612" 
d="M564 14q0 -7 -2 -11q0 -3 -5 -3h-188q-3 0 -1 3v11q2 5 7 5l37 1q10 0 12.5 7t-0.5 29q-1 10 -12.5 91t-13.5 89q-1 11 -8 11l-222 1q-2 -1 -7 -7q-27 -43 -67 -137q-15 -40 -15 -58q0 -23 5 -25q2 -1 5 -1l50 -1q4 0 4 -1t-1 -4v-5.5t-1 -5.5q-1 -3 -5 -3h-174
q-5 0 -5 3q2 4 2 13q1 3 4 3l31 1q16 0 41 40q3 5 40.5 72l75.5 135.5t39 69.5q142 255 162 287l30 52q5 9 13 11q34 13 35 13q4 1 6 1q5 0 5 -6q0 -3 -4 -4l-2 -1q-8 -4 -16 -10q-9 -8 -9 -17q0 -22 2 -38q10 -85 46 -320q35 -206 39 -223q13 -62 31 -62l33 -1q4 0 3 -5z
M393 276q-7 27 -22 134l-20 131q-3 16 -7 24q-1 0 -12 -16q-63 -105 -67 -118l-85 -151q-7 -11 0 -11h209q4 0 4 7zM527 827q-12 -9 -21 -14q-136 -79 -156 -89q-14 -7 -19 -2q-7 7 8 18l113 93q9 7 14 6q4 0 25.5 -1.5t31.5 -1.5q3 0 5.5 -2t-1.5 -7z" />
    <glyph glyph-name="Acircumflex" unicode="&#xc2;" horiz-adv-x="612" 
d="M564 14q0 -7 -2 -11q0 -3 -5 -3h-188q-3 0 -1 3v11q2 5 7 5l37 1q10 0 12.5 7t-0.5 29q-1 10 -12.5 91t-13.5 89q-1 11 -8 11l-222 1q-2 -1 -7 -7q-27 -43 -67 -137q-15 -40 -15 -58q0 -23 5 -25q2 -1 5 -1l50 -1q4 0 4 -1t-1 -4v-5.5t-1 -5.5q-1 -3 -5 -3h-174
q-5 0 -5 3q2 4 2 13q1 3 4 3l31 1q16 0 41 40q3 5 40.5 72l75.5 135.5t39 69.5q142 255 162 287l30 52q5 9 13 11q34 13 35 13q4 1 6 1q5 0 5 -6q0 -3 -4 -4l-2 -1q-8 -4 -16 -10q-9 -8 -9 -17q0 -22 2 -38q10 -85 46 -320q35 -206 39 -223q13 -62 31 -62l33 -1q4 0 3 -5z
M393 276q-7 27 -22 134l-20 131q-3 16 -7 24q-1 0 -12 -16q-63 -105 -67 -118l-85 -151q-7 -11 0 -11h209q4 0 4 7zM527 721q-8 -3 -22 5t-40 31t-37 32l-127 -64q-20 -8 -25 -4q-3 3 16 20q23 21 60 49.5t47 34.5q8 5 29 5q23 0 35 -4q6 -3 27.5 -32.5t33.5 -53.5
q7 -17 3 -19z" />
    <glyph glyph-name="Atilde" unicode="&#xc3;" horiz-adv-x="612" 
d="M564 14q0 -7 -2 -11q0 -3 -5 -3h-188q-3 0 -1 3v11q2 5 7 5l37 1q10 0 12.5 7t-0.5 29q-1 10 -12.5 91t-13.5 89q-1 11 -8 11l-222 1q-2 -1 -7 -7q-27 -43 -67 -137q-15 -40 -15 -58q0 -23 5 -25q2 -1 5 -1l50 -1q4 0 4 -1t-1 -4v-5.5t-1 -5.5q-1 -3 -5 -3h-174
q-5 0 -5 3q2 4 2 13q1 3 4 3l31 1q16 0 41 40q3 5 40.5 72l75.5 135.5t39 69.5q142 255 162 287l30 52q5 9 13 11q34 13 35 13q4 1 6 1q5 0 5 -6q0 -3 -4 -4l-2 -1q-8 -4 -16 -10q-9 -8 -9 -17q0 -22 2 -38q10 -85 46 -320q35 -206 39 -223q13 -62 31 -62l33 -1q4 0 3 -5z
M393 276q-7 27 -22 134l-20 131q-3 16 -7 24q-1 0 -12 -16q-63 -105 -67 -118l-85 -151q-7 -11 0 -11h209q4 0 4 7zM529 774q1 -6 -5 -14q-25 -34 -77 -34q-27 0 -55 14q-48 24 -67 24q-12 0 -25 -11l-7 -8q-5 -5 -10 -1q-4 3 -6 8q-1 4 5 13q25 34 77 34q23 0 54 -14
q52 -24 68 -24q14 0 25 11q10 10 11 10q5 3 9 -1q3 -3 3 -7z" />
    <glyph glyph-name="Adieresis" unicode="&#xc4;" horiz-adv-x="612" 
d="M564 14q0 -7 -2 -11q0 -3 -5 -3h-188q-3 0 -1 3v11q2 5 7 5l37 1q10 0 12.5 7t-0.5 29q-1 10 -12.5 91t-13.5 89q-1 11 -8 11l-222 1q-2 -1 -7 -7q-27 -43 -67 -137q-15 -40 -15 -58q0 -23 5 -25q2 -1 5 -1l50 -1q4 0 4 -1t-1 -4v-5.5t-1 -5.5q-1 -3 -5 -3h-174
q-5 0 -5 3q2 4 2 13q1 3 4 3l31 1q16 0 41 40q3 5 40.5 72l75.5 135.5t39 69.5q142 255 162 287l30 52q5 9 13 11q34 13 35 13q4 1 6 1q5 0 5 -6q0 -3 -4 -4l-2 -1q-8 -4 -16 -10q-9 -8 -9 -17q0 -22 2 -38q10 -85 46 -320q35 -206 39 -223q13 -62 31 -62l33 -1q4 0 3 -5z
M393 276q-7 27 -22 134l-20 131q-3 16 -7 24q-1 0 -12 -16q-63 -105 -67 -118l-85 -151q-7 -11 0 -11h209q4 0 4 7zM379 775q-2 -19 -20 -37t-36 -18q-27 0 -24 30q2 19 19.5 37t36.5 18q27 0 24 -30zM536 775q-2 -20 -20 -37.5t-36 -17.5q-26 0 -23 30q2 20 20 37.5
t37 17.5q25 0 22 -30z" />
    <glyph glyph-name="Aring" unicode="&#xc5;" horiz-adv-x="612" 
d="M564 14q0 -7 -2 -11q0 -3 -5 -3h-188q-3 0 -1 3v11q2 5 7 5l37 1q10 0 12.5 7t-0.5 29q-1 10 -12.5 91t-13.5 89q-1 11 -8 11l-222 1q-2 -1 -7 -7q-27 -43 -67 -137q-15 -40 -15 -58q0 -23 5 -25q2 -1 5 -1l50 -1q4 0 4 -1t-1 -4v-5.5t-1 -5.5q-1 -3 -5 -3h-174
q-5 0 -5 3q2 4 2 13q1 3 4 3l31 1q16 0 41 40q3 5 40.5 72l75.5 135.5t39 69.5q142 255 162 287q1 3 5 9q-49 22 -49 76q0 35 25 59.5t59 24.5q35 0 60 -24.5t25 -59.5q0 -29 -18.5 -51.5t-46.5 -29.5q0 -6 1 -10q10 -83 45 -313q35 -206 39 -223q13 -62 31 -62l33 -1
q4 0 3 -5zM393 276q-7 27 -22 134l-20 131q-3 16 -7 24q-1 0 -12 -16q-63 -105 -67 -118l-85 -151q-7 -11 0 -11h209q4 0 4 7zM453 709q0 25 -18 43t-43 18t-43 -18t-18 -43t18 -42.5t43 -17.5t43 17.5t18 42.5z" />
    <glyph glyph-name="AE" unicode="&#xc6;" horiz-adv-x="840" 
d="M832 660l-26 -75q-9 -26 -11 -26q-3 0 -7.5 3t-5.5 6q0 37 -2 40q-15 24 -68 28q-131 8 -156 8q-7 0 -10 -3q-1 -2 -15 -65l-28 -131t-15 -71q-1 -6 0 -8t7 -2q3 0 82.5 1t87.5 1q33 0 47 14q9 8 21 50q2 7 5 9h16q4 0 2 -8l-9 -37t-10 -44q-14 -62 -17 -91
q-1 -11 -4 -11h-16q-3 0 -3 7q2 8 0.5 35t-6.5 34q-13 17 -72 19q-26 4 -129 4q-7 0 -9 -9l-36 -193q-29 -127 12 -127q114 0 210 23q15 5 42 23t37 29q12 20 19 15q8 -4 5 -11l-42 -90q-4 -7 -16 -7h-427l-5 1l1 2q0 5 5 13q0 3 4 3l35 1q21 1 24 12q2 4 45 216h-187
q-3 -1 -7 -6q-40 -54 -93 -141q-15 -28 -27 -57q-8 -22 -5 -23q1 -1 3 -1l39 -1q5 0 3 -5l-3 -11q-2 -3 -6 -3h-143h-4.5t0.5 3q1 2 2.5 7t1.5 6q2 3 5 3l26 1q13 0 37 34l207 286q19 25 104 146.5t99 143.5q5 8 4 9.5t-10 1.5l-49 2q-6 0 -3 3q0 11 1 14t7 3h141
q248 0 284 5q7 5 10.5 2.5t0.5 -10.5zM469 612q2 13 -2 13q-1 0 -2 -1.5t-2 -3.5t-2 -3l-131 -187l-105 -150q-7 -10 -1 -10h175q2 15 16 78z" />
    <glyph glyph-name="Ccedilla" unicode="&#xc7;" horiz-adv-x="593" 
d="M589 626q0 -8 -1.5 -43.5t-1.5 -45.5q1 -11 -4 -11q-10 0 -11 9q-6 42 -36 70q-38 34 -123 34q-113 0 -193 -67q-47 -43 -76 -120.5t-37 -169.5q-11 -122 46 -197q22 -30 65.5 -49.5t84.5 -19.5q89 0 158 59q24 20 44 62q4 11 8.5 17.5t8.5 5.5q7 -2 -3 -56q-1 -8 -3 -15
t-4 -13l-3 -9q-1 -4 -10 -10q-35 -27 -91.5 -44t-111.5 -19l-23 -36q5 4 16 4q35 0 56 -18.5t21 -50.5q0 -28 -21.5 -49t-51.5 -21q-35 0 -59 26q-3 3 0.5 8t7.5 3q21 -15 38 -15q47 0 47 56q0 19 -10 31t-27 12q-10 0 -22 -7q-5 -3 -11 2t-7 10q0 2 11 17q2 3 8.5 12
t9.5 15h-9q-110 3 -172 65q-75 77 -68 212q5 93 50.5 176.5t118.5 143.5q41 33 102.5 56t116.5 23q115 0 167 -33q5 -4 5 -10z" />
    <glyph glyph-name="Egrave" unicode="&#xc8;" horiz-adv-x="537" 
d="M529 660l-26 -75q-9 -26 -11 -26q-3 0 -7.5 3t-5.5 6q0 37 -2 40q-15 24 -68 28q-131 8 -156 8q-7 0 -10 -3q-2 -2 -15.5 -65l-28 -131.5t-14.5 -70.5q-1 -6 0 -8t7 -2q2 0 82 1t88 1q33 0 47 14q9 8 21 50q2 7 5 9h16q4 0 2 -8q-2 -10 -9.5 -39t-10.5 -42
q-16 -83 -16 -91q-1 -11 -4 -11h-16q-3 0 -3 7q2 8 0.5 35t-6.5 34q-13 17 -72 19q-26 4 -129 4q-7 0 -9 -9l-36 -193q-29 -127 12 -127q114 0 210 23q15 5 42 23t37 29q12 20 19 15q8 -4 5 -11q-28 -62 -43 -90q-4 -7 -16 -7h-426l-4 1v2q0 5 5 13q0 3 4 3l35 1q21 1 24 12
q1 1 7 32l15 75.5l17.5 87l15 76t6.5 34.5l41 201q2 10 4.5 26t4 34.5t0 31t-7.5 12.5l-61 1q-6 0 -3 3q0 11 1 14t7 3h141q248 0 284 5q7 5 10.5 2.5t0.5 -10.5zM407 724q-8 -5 -22 3q-36 20 -138 89q-15 11 -18 15q-2 5 0.5 9t8.5 2q6 0 28 1t27 1q9 -2 14 -8
q42 -49 94 -93q9 -7 10 -10.5t-4 -8.5z" />
    <glyph glyph-name="Eacute" unicode="&#xc9;" horiz-adv-x="537" 
d="M529 660l-26 -75q-9 -26 -11 -26q-3 0 -7.5 3t-5.5 6q0 37 -2 40q-15 24 -68 28q-131 8 -156 8q-7 0 -10 -3q-2 -2 -15.5 -65l-28 -131.5t-14.5 -70.5q-1 -6 0 -8t7 -2q2 0 82 1t88 1q33 0 47 14q9 8 21 50q2 7 5 9h16q4 0 2 -8q-2 -10 -9.5 -39t-10.5 -42
q-16 -83 -16 -91q-1 -11 -4 -11h-16q-3 0 -3 7q2 8 0.5 35t-6.5 34q-13 17 -72 19q-26 4 -129 4q-7 0 -9 -9l-36 -193q-29 -127 12 -127q114 0 210 23q15 5 42 23t37 29q12 20 19 15q8 -4 5 -11q-28 -62 -43 -90q-4 -7 -16 -7h-426l-4 1v2q0 5 5 13q0 3 4 3l35 1q21 1 24 12
q1 1 7 32l15 75.5l17.5 87l15 76t6.5 34.5l41 201q2 10 4.5 26t4 34.5t0 31t-7.5 12.5l-61 1q-6 0 -3 3q0 11 1 14t7 3h141q248 0 284 5q7 5 10.5 2.5t0.5 -10.5zM465 827q-12 -9 -21 -14q-136 -79 -156 -89q-14 -7 -19 -2q-7 7 8 18l113 93q9 7 14 6q4 0 25.5 -1.5
t31.5 -1.5q3 0 5.5 -2t-1.5 -7z" />
    <glyph glyph-name="Ecircumflex" unicode="&#xca;" horiz-adv-x="537" 
d="M529 660l-26 -75q-9 -26 -11 -26q-3 0 -7.5 3t-5.5 6q0 37 -2 40q-15 24 -68 28q-131 8 -156 8q-7 0 -10 -3q-2 -2 -15.5 -65l-28 -131.5t-14.5 -70.5q-1 -6 0 -8t7 -2q2 0 82 1t88 1q33 0 47 14q9 8 21 50q2 7 5 9h16q4 0 2 -8q-2 -10 -9.5 -39t-10.5 -42
q-16 -83 -16 -91q-1 -11 -4 -11h-16q-3 0 -3 7q2 8 0.5 35t-6.5 34q-13 17 -72 19q-26 4 -129 4q-7 0 -9 -9l-36 -193q-29 -127 12 -127q114 0 210 23q15 5 42 23t37 29q12 20 19 15q8 -4 5 -11q-28 -62 -43 -90q-4 -7 -16 -7h-426l-4 1v2q0 5 5 13q0 3 4 3l35 1q21 1 24 12
q1 1 7 32l15 75.5l17.5 87l15 76t6.5 34.5l41 201q2 10 4.5 26t4 34.5t0 31t-7.5 12.5l-61 1q-6 0 -3 3q0 11 1 14t7 3h141q248 0 284 5q7 5 10.5 2.5t0.5 -10.5zM463 721q-8 -3 -22 5t-40 31t-37 32l-127 -64q-20 -8 -25 -4q-3 3 16 20q23 21 60 49.5t47 34.5q8 5 29 5
q23 0 35 -4q6 -3 27.5 -32.5t33.5 -53.5q7 -17 3 -19z" />
    <glyph glyph-name="Edieresis" unicode="&#xcb;" horiz-adv-x="537" 
d="M529 660l-26 -75q-9 -26 -11 -26q-3 0 -7.5 3t-5.5 6q0 37 -2 40q-15 24 -68 28q-131 8 -156 8q-7 0 -10 -3q-2 -2 -15.5 -65l-28 -131.5t-14.5 -70.5q-1 -6 0 -8t7 -2q2 0 82 1t88 1q33 0 47 14q9 8 21 50q2 7 5 9h16q4 0 2 -8q-2 -10 -9.5 -39t-10.5 -42
q-16 -83 -16 -91q-1 -11 -4 -11h-16q-3 0 -3 7q2 8 0.5 35t-6.5 34q-13 17 -72 19q-26 4 -129 4q-7 0 -9 -9l-36 -193q-29 -127 12 -127q114 0 210 23q15 5 42 23t37 29q12 20 19 15q8 -4 5 -11q-28 -62 -43 -90q-4 -7 -16 -7h-426l-4 1v2q0 5 5 13q0 3 4 3l35 1q21 1 24 12
q1 1 7 32l15 75.5l17.5 87l15 76t6.5 34.5l41 201q2 10 4.5 26t4 34.5t0 31t-7.5 12.5l-61 1q-6 0 -3 3q0 11 1 14t7 3h141q248 0 284 5q7 5 10.5 2.5t0.5 -10.5zM301 774q-2 -19 -20 -37t-36 -18q-27 0 -24 30q2 19 19.5 37t36.5 18q27 0 24 -30zM458 774q-2 -20 -20 -37.5
t-36 -17.5q-26 0 -23 30q2 20 20 37.5t37 17.5q25 0 22 -30z" />
    <glyph glyph-name="Igrave" unicode="&#xcc;" horiz-adv-x="303" 
d="M322 661q-2 -6 -2 -15q-3 -3 -7 -3l-58 -1q-9 0 -11 -4l-60 -298q-49 -269 -49 -270q-3 -43 15 -48l59 -3q4 0 4 -3q0 -1 -1 -7t-1 -7q-2 -2 -5 -2h-230q-4 2 -4 3q0 2 1 6.5t1 5.5q1 4 6 4l57 1q9 0 11 11q4 12 52 252.5t51 261.5q6 53 6 55q2 15 -3 28.5t-12 13.5
l-54 1q-5 0 -5.5 0.5t0.5 2.5q0 2 1 8t1 7q1 2 6 2h228q3 -1 3 -2zM280 724q-8 -5 -22 3q-36 20 -138 89q-15 11 -18 15q-2 5 0.5 9t8.5 2q6 0 28 1t27 1q9 -2 14 -8q42 -49 94 -93q9 -7 10 -10.5t-4 -8.5z" />
    <glyph glyph-name="Iacute" unicode="&#xcd;" horiz-adv-x="303" 
d="M322 661q-2 -6 -2 -15q-3 -3 -7 -3l-58 -1q-9 0 -11 -4l-60 -298q-49 -269 -49 -270q-3 -43 15 -48l59 -3q4 0 4 -3q0 -1 -1 -7t-1 -7q-2 -2 -5 -2h-230q-4 2 -4 3q0 2 1 6.5t1 5.5q1 4 6 4l57 1q9 0 11 11q4 12 52 252.5t51 261.5q6 53 6 55q2 15 -3 28.5t-12 13.5
l-54 1q-5 0 -5.5 0.5t0.5 2.5q0 2 1 8t1 7q1 2 6 2h228q3 -1 3 -2zM351 826q-12 -9 -21 -14q-136 -79 -156 -89q-14 -7 -19 -2q-7 7 8 18l113 93q9 7 14 6q4 0 25.5 -1.5t31.5 -1.5q3 0 5.5 -2.5t-1.5 -6.5z" />
    <glyph glyph-name="Icircumflex" unicode="&#xce;" horiz-adv-x="303" 
d="M322 661q-2 -6 -2 -15q-3 -3 -7 -3l-58 -1q-9 0 -11 -4l-60 -298q-49 -269 -49 -270q-3 -43 15 -48l59 -3q4 0 4 -3q0 -1 -1 -7t-1 -7q-2 -2 -5 -2h-230q-4 2 -4 3q0 2 1 6.5t1 5.5q1 4 6 4l57 1q9 0 11 11q4 12 52 252.5t51 261.5q6 53 6 55q2 15 -3 28.5t-12 13.5
l-54 1q-5 0 -5.5 0.5t0.5 2.5q0 2 1 8t1 7q1 2 6 2h228q3 -1 3 -2zM330 721q-8 -3 -22 5t-40 31t-37 32l-127 -64q-20 -8 -25 -4q-3 3 16 20q23 21 60 49.5t47 34.5q8 5 29 5q23 0 35 -4q6 -3 27.5 -32.5t33.5 -53.5q7 -17 3 -19z" />
    <glyph glyph-name="Idieresis" unicode="&#xcf;" horiz-adv-x="303" 
d="M322 661q-2 -6 -2 -15q-3 -3 -7 -3l-58 -1q-9 0 -11 -4l-60 -298q-49 -269 -49 -270q-3 -43 15 -48l59 -3q4 0 4 -3q0 -1 -1 -7t-1 -7q-2 -2 -5 -2h-230q-4 2 -4 3q0 2 1 6.5t1 5.5q1 4 6 4l57 1q9 0 11 11q4 12 52 252.5t51 261.5q6 53 6 55q2 15 -3 28.5t-12 13.5
l-54 1q-5 0 -5.5 0.5t0.5 2.5q0 2 1 8t1 7q1 2 6 2h228q3 -1 3 -2zM332 774q-2 -20 -20 -37.5t-36 -17.5q-26 0 -23 30q2 20 20 37.5t37 17.5q25 0 22 -30zM175 774q-2 -19 -20 -37t-36 -18q-27 0 -24 30q2 19 19.5 37t36.5 18q27 0 24 -30z" />
    <glyph glyph-name="Eth" unicode="&#xd0;" horiz-adv-x="684" 
d="M652 367q-8 -100 -64.5 -187t-140.5 -135q-38 -22 -81 -33.5t-74.5 -13.5t-82.5 -2q-35 0 -92 2t-89 2h-38q-4 0 -4 3q0 5 2 13q1 3 6 3l36 2q14 0 20.5 7.5t10.5 27.5q44 236 49 256h-56q-21 0 -24.5 2t-2.5 10q3 18 14 18h75l15 71.5l19 85t10 42.5q20 99 -1 101l-65 1
q-6 0 -6 4t3 13q2 3 8 3h277q151 0 223 -87q64 -77 53 -209zM574 378q9 114 -50 180q-40 45 -87.5 65.5t-133.5 20.5q-31 0 -42 -3q-8 -2 -10 -11q-3 -11 -28 -130t-29 -140l-4 -18h114q17 0 24.5 -1t8.5 -3t0 -7q-1 -19 -14 -19h-139q-27 -135 -32 -155q-24 -117 -7 -128
q16 -9 34.5 -11t81.5 -2q47 0 97.5 21.5t84.5 53.5q117 105 131 287z" />
    <glyph glyph-name="Ntilde" unicode="&#xd1;" horiz-adv-x="618" 
d="M642 661q0 -12 -2 -14q0 -4 -5 -4l-27 -1q-10 0 -13 -8q-4 -7 -30 -134t-29 -148l-61 -338q-9 -34 -13 -34q-4 1 -8 14l-172 320q-1 2 -51 93t-61 107q-2 3 -4 3.5t-4 -1.5t-2 -6q-2 -14 -30.5 -165t-33.5 -189q-3 -15 -5 -35.5t-3 -44.5t3 -40t13 -16l57 -1q6 0 3 -3
q0 -10 -2 -14q0 -2 -5 -2h-172h-4.5t-0.5 2v3q1 3 1.5 6.5t0.5 4.5q3 3 8 3l33 1q8 0 8 4l3 6q2 7 5.5 16.5t7.5 21.5t8 26t6 26q3 18 38 195.5t40 210.5q4 23 0 32q0 1 -4.5 12t-6.5 14t-6.5 13t-7 14.5t-7 11t-8.5 10.5t-8 6q-6 3 -16 3l-41 1q-4 0 -4 3q2 4 2 14q1 3 6 3
h129q5 0 10 -5q3 -3 33 -60.5l62 -117.5t35 -66q2 -4 19.5 -36.5l38 -70.5l42 -78l37.5 -68t19 -31q6 -13 10 4q3 11 31.5 170t31.5 186q8 49 5 99t-20 53l-52 1q-6 0 -6 3q2 6 2 14q1 3 6 3h166l5 -1v-1zM504 767q1 -6 -5 -14q-25 -34 -77 -34q-27 0 -55 14q-48 24 -67 24
q-12 0 -25 -11l-7 -8q-5 -5 -10 -1q-4 3 -6 8q-1 4 5 13q25 34 77 34q22 0 54 -14q52 -24 68 -24q14 0 25 11q10 9 11 10q5 3 9 -1q3 -3 3 -7z" />
    <glyph glyph-name="Ograve" unicode="&#xd2;" horiz-adv-x="673" 
d="M637 338q-16 -92 -66.5 -171t-124.5 -127t-165 -48q-120 0 -186 66q-36 35 -55 100t-5 149q18 105 70 184t128 125q96 55 186 55q107 0 167 -72q79 -91 51 -261zM562 325q23 142 -33 231q-24 39 -65 62t-90 23q-75 0 -130 -47q-99 -81 -131 -275q-23 -132 30 -224
q23 -37 64.5 -60t84.5 -23q73 0 134 51q48 39 84.5 106.5t51.5 155.5zM491 724q-8 -5 -22 3q-36 20 -138 89q-15 11 -18 15q-2 5 0.5 9t8.5 2q6 0 28 1t27 1q9 -2 14 -8q42 -49 94 -93q9 -7 10 -10.5t-4 -8.5z" />
    <glyph glyph-name="Oacute" unicode="&#xd3;" horiz-adv-x="673" 
d="M637 338q-16 -92 -66.5 -171t-124.5 -127t-165 -48q-120 0 -186 66q-36 35 -55 100t-5 149q18 105 70 184t128 125q96 55 186 55q107 0 167 -72q79 -91 51 -261zM562 325q23 142 -33 231q-24 39 -65 62t-90 23q-75 0 -130 -47q-99 -81 -131 -275q-23 -132 30 -224
q23 -37 64.5 -60t84.5 -23q73 0 134 51q48 39 84.5 106.5t51.5 155.5zM525 828q-12 -9 -21 -14q-136 -79 -156 -89q-14 -7 -19 -2q-7 7 8 18l113 93q9 7 14 6q4 0 25.5 -1.5t31.5 -1.5q3 0 5.5 -2.5t-1.5 -6.5z" />
    <glyph glyph-name="Ocircumflex" unicode="&#xd4;" horiz-adv-x="673" 
d="M637 338q-16 -92 -66.5 -171t-124.5 -127t-165 -48q-120 0 -186 66q-36 35 -55 100t-5 149q18 105 70 184t128 125q96 55 186 55q107 0 167 -72q79 -91 51 -261zM562 325q23 142 -33 231q-24 39 -65 62t-90 23q-75 0 -130 -47q-99 -81 -131 -275q-23 -132 30 -224
q23 -37 64.5 -60t84.5 -23q73 0 134 51q48 39 84.5 106.5t51.5 155.5zM530 721q-8 -3 -22 5t-40 31t-37 32l-127 -64q-20 -8 -25 -4q-3 3 16 20q23 21 60 49.5t47 34.5q8 5 29 5q23 0 35 -4q6 -3 27.5 -32.5t33.5 -53.5q7 -17 3 -19z" />
    <glyph glyph-name="Otilde" unicode="&#xd5;" horiz-adv-x="673" 
d="M637 338q-16 -92 -66.5 -171t-124.5 -127t-165 -48q-120 0 -186 66q-36 35 -55 100t-5 149q18 105 70 184t128 125q96 55 186 55q107 0 167 -72q79 -91 51 -261zM562 325q23 142 -33 231q-24 39 -65 62t-90 23q-75 0 -130 -47q-99 -81 -131 -275q-23 -132 30 -224
q23 -37 64.5 -60t84.5 -23q73 0 134 51q48 39 84.5 106.5t51.5 155.5zM550 768q1 -6 -5 -14q-25 -34 -77 -34q-27 0 -55 14q-48 24 -67 24q-12 0 -25 -11l-7 -8q-5 -5 -10 -1q-4 3 -6 8q-1 4 5 13q25 34 77 34q22 0 54 -14q52 -24 68 -24q14 0 25 11q9 10 11 10q5 3 9 -1
q3 -3 3 -7z" />
    <glyph glyph-name="Odieresis" unicode="&#xd6;" horiz-adv-x="673" 
d="M637 338q-16 -92 -66.5 -171t-124.5 -127t-165 -48q-120 0 -186 66q-36 35 -55 100t-5 149q18 105 70 184t128 125q96 55 186 55q107 0 167 -72q79 -91 51 -261zM562 325q23 142 -33 231q-24 39 -65 62t-90 23q-75 0 -130 -47q-99 -81 -131 -275q-23 -132 30 -224
q23 -37 64.5 -60t84.5 -23q73 0 134 51q48 39 84.5 106.5t51.5 155.5zM538 775q-2 -20 -20 -37.5t-36 -17.5q-26 0 -23 30q2 20 20 37.5t37 17.5q25 0 22 -30zM381 775q-2 -19 -20 -37t-36 -18q-27 0 -24 30q2 19 19.5 37t36.5 18q27 0 24 -30z" />
    <glyph glyph-name="Oslash" unicode="&#xd8;" horiz-adv-x="673" 
d="M637 338q-16 -92 -66.5 -171t-124.5 -127t-165 -48q-84 0 -139 30l-36 -50q-4 -8 -12 -12q-5 -4 -13 1q-6 2 -4 12l8 12l36 50q-15 10 -26 23q-36 35 -55 100t-5 149q18 105 70 184t128 125q96 55 186 55q75 0 127 -35l30 41q8 11 13 14q6 5 13 0q4 -3 4 -12l-10 -15
l-31 -43q13 -11 21 -22q79 -91 51 -261zM509 583q-55 58 -135 58q-75 0 -130 -47q-99 -81 -131 -275q-23 -132 30 -224q6 -10 10 -14zM562 325q25 152 -38 238l-354 -501q53 -50 122 -50q73 0 134 51q48 39 84.5 106.5t51.5 155.5z" />
    <glyph glyph-name="Ugrave" unicode="&#xd9;" horiz-adv-x="707" 
d="M716 659q0 -5 -2 -11q-1 -5 -5 -5l-61 -1q-7 0 -9 -4q-9 -20 -61 -330q-9 -55 -20.5 -143t-10.5 -119q0 -6 3.5 -10t8.5 -3q28 7 76 32q6 3 8 -1q2 -3 4 -9q0 -4 -4 -5q-41 -23 -147 -60q-11 -4 -18.5 1.5t-6.5 12.5q0 65 11 138q4 19 1.5 19.5t-11.5 -16.5
q-43 -78 -108.5 -117.5t-128.5 -38.5q-63 0 -104 23q-44 27 -57 69q-17 51 -1 142q1 6 10 52.5l19.5 97.5l20.5 99t10 50q22 118 0 120l-51 1q-5 0 -5 3q1 2 1.5 7t1.5 7q2 3 7 3h209q4 0 5 -0.5t-1 -2.5q0 -1 -0.5 -5.5t-0.5 -6.5q-3 -5 -6 -5l-54 -1q-6 0 -9 -4
q-2 -4 -18 -82l-32.5 -159t-18.5 -89q0 -3 -5.5 -32.5t-11 -63t-6.5 -46.5q-4 -78 32 -108q31 -26 91 -26q83 0 146 58q66 60 93 169q8 33 16.5 85l17 108t11.5 70q5 24 7 38l5 36.5t1 34t-9 11.5l-56 1q-5 0 -5 3q1 2 1.5 7t1.5 7q2 3 7 3h214q6 0 4 -4zM472 723
q-8 -5 -22 3q-36 20 -138 89q-15 11 -18 15q-2 5 0.5 9t8.5 2q6 0 28 1t27 1q9 -2 14 -8q42 -49 94 -93q9 -7 10 -10.5t-4 -8.5z" />
    <glyph glyph-name="Uacute" unicode="&#xda;" horiz-adv-x="707" 
d="M716 659q0 -5 -2 -11q-1 -5 -5 -5l-61 -1q-7 0 -9 -4q-9 -20 -61 -330q-9 -55 -20.5 -143t-10.5 -119q0 -6 3.5 -10t8.5 -3q28 7 76 32q6 3 8 -1q2 -3 4 -9q0 -4 -4 -5q-41 -23 -147 -60q-11 -4 -18.5 1.5t-6.5 12.5q0 65 11 138q4 19 1.5 19.5t-11.5 -16.5
q-43 -78 -108.5 -117.5t-128.5 -38.5q-63 0 -104 23q-44 27 -57 69q-17 51 -1 142q1 6 10 52.5l19.5 97.5l20.5 99t10 50q22 118 0 120l-51 1q-5 0 -5 3q1 2 1.5 7t1.5 7q2 3 7 3h209q4 0 5 -0.5t-1 -2.5q0 -1 -0.5 -5.5t-0.5 -6.5q-3 -5 -6 -5l-54 -1q-6 0 -9 -4
q-2 -4 -18 -82l-32.5 -159t-18.5 -89q0 -3 -5.5 -32.5t-11 -63t-6.5 -46.5q-4 -78 32 -108q31 -26 91 -26q83 0 146 58q66 60 93 169q8 33 16.5 85l17 108t11.5 70q5 24 7 38l5 36.5t1 34t-9 11.5l-56 1q-5 0 -5 3q1 2 1.5 7t1.5 7q2 3 7 3h214q6 0 4 -4zM537 828
q-12 -9 -21 -14q-136 -79 -156 -89q-14 -7 -19 -2q-7 7 8 18l113 93q9 7 14 6q4 0 25.5 -1.5t31.5 -1.5q3 0 5.5 -2.5t-1.5 -6.5z" />
    <glyph glyph-name="Ucircumflex" unicode="&#xdb;" horiz-adv-x="707" 
d="M716 659q0 -5 -2 -11q-1 -5 -5 -5l-61 -1q-7 0 -9 -4q-9 -20 -61 -330q-9 -55 -20.5 -143t-10.5 -119q0 -6 3.5 -10t8.5 -3q28 7 76 32q6 3 8 -1q2 -3 4 -9q0 -4 -4 -5q-41 -23 -147 -60q-11 -4 -18.5 1.5t-6.5 12.5q0 65 11 138q4 19 1.5 19.5t-11.5 -16.5
q-43 -78 -108.5 -117.5t-128.5 -38.5q-63 0 -104 23q-44 27 -57 69q-17 51 -1 142q1 6 10 52.5l19.5 97.5l20.5 99t10 50q22 118 0 120l-51 1q-5 0 -5 3q1 2 1.5 7t1.5 7q2 3 7 3h209q4 0 5 -0.5t-1 -2.5q0 -1 -0.5 -5.5t-0.5 -6.5q-3 -5 -6 -5l-54 -1q-6 0 -9 -4
q-2 -4 -18 -82l-32.5 -159t-18.5 -89q0 -3 -5.5 -32.5t-11 -63t-6.5 -46.5q-4 -78 32 -108q31 -26 91 -26q83 0 146 58q66 60 93 169q8 33 16.5 85l17 108t11.5 70q5 24 7 38l5 36.5t1 34t-9 11.5l-56 1q-5 0 -5 3q1 2 1.5 7t1.5 7q2 3 7 3h214q6 0 4 -4zM532 721
q-8 -3 -22 5t-40 31t-37 32l-127 -64q-20 -8 -25 -4q-3 3 16 20q23 21 60 49.5t47 34.5q8 5 29 5q23 0 35 -4q6 -3 27.5 -32.5t33.5 -53.5q7 -17 3 -19z" />
    <glyph glyph-name="Udieresis" unicode="&#xdc;" horiz-adv-x="707" 
d="M716 659q0 -5 -2 -11q-1 -5 -5 -5l-61 -1q-7 0 -9 -4q-9 -20 -61 -330q-9 -55 -20.5 -143t-10.5 -119q0 -6 3.5 -10t8.5 -3q28 7 76 32q6 3 8 -1q2 -3 4 -9q0 -4 -4 -5q-41 -23 -147 -60q-11 -4 -18.5 1.5t-6.5 12.5q0 65 11 138q4 19 1.5 19.5t-11.5 -16.5
q-43 -78 -108.5 -117.5t-128.5 -38.5q-63 0 -104 23q-44 27 -57 69q-17 51 -1 142q1 6 10 52.5l19.5 97.5l20.5 99t10 50q22 118 0 120l-51 1q-5 0 -5 3q1 2 1.5 7t1.5 7q2 3 7 3h209q4 0 5 -0.5t-1 -2.5q0 -1 -0.5 -5.5t-0.5 -6.5q-3 -5 -6 -5l-54 -1q-6 0 -9 -4
q-2 -4 -18 -82l-32.5 -159t-18.5 -89q0 -3 -5.5 -32.5t-11 -63t-6.5 -46.5q-4 -78 32 -108q31 -26 91 -26q83 0 146 58q66 60 93 169q8 33 16.5 85l17 108t11.5 70q5 24 7 38l5 36.5t1 34t-9 11.5l-56 1q-5 0 -5 3q1 2 1.5 7t1.5 7q2 3 7 3h214q6 0 4 -4zM530 774
q-2 -20 -20 -37.5t-36 -17.5q-26 0 -23 30q2 20 20 37.5t37 17.5q25 0 22 -30zM373 774q-2 -19 -20 -37t-36 -18q-27 0 -24 30q2 19 19.5 37t36.5 18q27 0 24 -30z" />
    <glyph glyph-name="Yacute" unicode="&#xdd;" horiz-adv-x="560" 
d="M611 661q0 -2 -1 -9l-2 -6q0 -3 -3 -3l-27 -1q-13 0 -33 -25l-51.5 -68l-54.5 -73l-101 -132q-9 -17 -10 -21q-31 -154 -39 -206q-15 -94 5 -97l77 -1q5 0 5 -4q-3 -3 -3 -13q0 -2 -4 -2h-243q-6 0 -6 1q-1 0 0 2l2 11q1 5 7 5l61 1q8 0 14 21q5 32 51 263q2 13 -3 21
q-17 40 -67 140q-38 77 -76 142q-21 33 -34 35l-27 1q-6 0 -6 3q0 1 0.5 6t1.5 7q-1 3 0 3.5t5 0.5h189q8 0 8 -3q-1 -2 -1.5 -7.5t-0.5 -6.5q0 -3 -4 -3l-43 -1q-8 0 -10 -2.5t-1 -9.5q0 -9 9 -27q51 -102 58 -117q47 -98 61 -121q7 -12 14 -3q79 102 130 179q31 48 35 79
q1 8 -4.5 15t-11.5 7l-46 1q-4 0 -4 3q0 5 3 14q0 3 4 3h173q4 0 4 -2zM480 827q-12 -9 -21 -14q-136 -79 -156 -89q-14 -7 -19 -2q-7 7 8 18l113 93q9 7 14 6q4 0 25.5 -1.5t31.5 -1.5q4 0 6 -2t-2 -7z" />
    <glyph glyph-name="Thorn" unicode="&#xde;" horiz-adv-x="516" 
d="M481 337q-17 -69 -77 -118q-59 -46 -147 -46q-37 0 -57 6q-6 2 -5 8q1 3 5 7q2 1 9 1q20 -2 34 -2q64 0 103 33q50 42 62 102q7 29 2 66t-23 59q-48 61 -130 61q-28 0 -32 -1q-3 0 -7 -6q-6 -11 -37 -164q-35 -164 -42 -207q-24 -112 -5 -116l82 -1q4 0 4.5 -0.5
t-0.5 -3.5q-1 -9 -1 -12q-2 -3 -5 -3h-242h-3.5t0.5 2q2 4 2 13q3 4 7 4l54 1q6 0 11 10q53 267 67 318l41 198q3 15 5 24t5.5 29.5t2.5 31.5t-6 11l-64 1q-6 0 -6 3q2 4 2 14q2 3 8 3h221q3 0 4 -0.5t0 -2.5q0 -1 -0.5 -7t-1.5 -7q-1 -3 -7 -3l-58 -1q-13 0 -15 -11
q0 -1 -7 -33.5t-10 -52.5q-1 -12 7 -12q47 0 80 3q42 0 75 -9q44 -13 76 -56q17 -22 22 -61.5t-3 -72.5z" />
    <glyph glyph-name="germandbls" unicode="&#xdf;" horiz-adv-x="494" 
d="M428 114q-7 -53 -48.5 -85.5t-97.5 -32.5q-54 0 -85 19t-29 46q2 33 30 33q23 0 44 -69q3 -8 10 -9q7 -2 24 -2q38 0 63 22t31 57q8 50 -34 88l-53 48q-51 44 -46 104q1 18 9 34t15 24.5l28 32.5q83 95 93 204q12 114 -63 114q-15 0 -32 -7.5t-25 -16.5q-43 -45 -57 -131
q-27 -151 -37 -191q-3 -11 -34 -162t-42 -192q-27 -110 -46 -158q-35 -81 -83 -117q-43 -35 -91 -35q-57 0 -54 36q1 10 11.5 17.5t23.5 7.5q20 0 39 -25q7 -11 17 -11q20 0 33 16q25 29 47 101q11 33 39 165l24.5 117.5l31 154t14.5 71.5q3 5 2.5 6.5t-4.5 1.5l-58 -2
q-5 0 -5 4q1 9 3 14q1 5 7 5q2 0 26.5 0.5t29.5 0.5q6 0 7 5l36 145q26 107 90 163q47 37 90 37q96 0 84 -134q-5 -59 -30 -118t-61 -103q-21 -25 -22 -41q-5 -49 29 -80l60 -55q54 -49 46 -117z" />
    <glyph glyph-name="agrave" unicode="&#xe0;" horiz-adv-x="432" 
d="M418 449q-18 -31 -39 -90q-40 -114 -47 -140q-38 -134 -39 -163q-1 -16 11 -16q10 1 61 29q4 3 7 1q4 -1 4 -8q0 -3 -3 -5q-22 -16 -66.5 -39t-70.5 -24q-8 -1 -12 1.5t-3 11.5q5 71 30 139q4 14 1 14q-4 0 -10 -12q-34 -61 -70 -95q-59 -59 -114 -55q-40 2 -59 41
t-5 114q21 105 125 203q77 73 161 73q33 0 59 -8q10 -3 16 6q2 5 7 13.5t7 11.5q3 6 11 6q14 0 35 -3q4 0 4.5 -1t-1.5 -5zM325 394q3 10 -9 13q-19 6 -36 4q-55 -3 -110 -56q-88 -88 -106 -191q-10 -58 2.5 -87t37.5 -29t60 28t64 75q12 18 21.5 38t14.5 33.5l14 37
l14 36.5q26 70 33 98zM355 493q-8 -5 -22 3q-36 20 -138 89q-15 11 -18 15q-2 5 0.5 9t8.5 2q6 0 28 1t27 1q9 -2 14 -8q42 -49 94 -93q9 -7 10 -10.5t-4 -8.5z" />
    <glyph glyph-name="aacute" unicode="&#xe1;" horiz-adv-x="432" 
d="M418 449q-18 -31 -39 -90q-40 -114 -47 -140q-38 -134 -39 -163q-1 -16 11 -16q10 1 61 29q4 3 7 1q4 -1 4 -8q0 -3 -3 -5q-22 -16 -66.5 -39t-70.5 -24q-8 -1 -12 1.5t-3 11.5q5 71 30 139q4 14 1 14q-4 0 -10 -12q-34 -61 -70 -95q-59 -59 -114 -55q-40 2 -59 41
t-5 114q21 105 125 203q77 73 161 73q33 0 59 -8q10 -3 16 6q2 5 7 13.5t7 11.5q3 6 11 6q14 0 35 -3q4 0 4.5 -1t-1.5 -5zM325 394q3 10 -9 13q-19 6 -36 4q-55 -3 -110 -56q-88 -88 -106 -191q-10 -58 2.5 -87t37.5 -29t60 28t64 75q12 18 21.5 38t14.5 33.5l14 37
l14 36.5q26 70 33 98zM417 597q-12 -9 -21 -14q-136 -79 -156 -89q-14 -7 -19 -2q-7 7 8 18l113 93q9 7 14 6q4 0 25.5 -1.5t31.5 -1.5q3 0 5.5 -2t-1.5 -7z" />
    <glyph glyph-name="acircumflex" unicode="&#xe2;" horiz-adv-x="432" 
d="M418 449q-18 -31 -39 -90q-40 -114 -47 -140q-38 -134 -39 -163q-1 -16 11 -16q10 1 61 29q4 3 7 1q4 -1 4 -8q0 -3 -3 -5q-22 -16 -66.5 -39t-70.5 -24q-8 -1 -12 1.5t-3 11.5q5 71 30 139q4 14 1 14q-4 0 -10 -12q-34 -61 -70 -95q-59 -59 -114 -55q-40 2 -59 41
t-5 114q21 105 125 203q77 73 161 73q33 0 59 -8q10 -3 16 6q2 5 7 13.5t7 11.5q3 6 11 6q14 0 35 -3q4 0 4.5 -1t-1.5 -5zM325 394q3 10 -9 13q-19 6 -36 4q-55 -3 -110 -56q-88 -88 -106 -191q-10 -58 2.5 -87t37.5 -29t60 28t64 75q12 18 21.5 38t14.5 33.5l14 37
l14 36.5q26 70 33 98zM395 490q-8 -3 -22 5t-40 31t-37 32l-127 -64q-20 -8 -25 -4q-3 3 16 20q23 21 60 49.5t47 34.5q8 5 29 5q23 0 35 -4q6 -3 27.5 -32.5t33.5 -53.5q7 -17 3 -19z" />
    <glyph glyph-name="atilde" unicode="&#xe3;" horiz-adv-x="432" 
d="M418 449q-18 -31 -39 -90q-40 -114 -47 -140q-38 -134 -39 -163q-1 -16 11 -16q10 1 61 29q4 3 7 1q4 -1 4 -8q0 -3 -3 -5q-22 -16 -66.5 -39t-70.5 -24q-8 -1 -12 1.5t-3 11.5q5 71 30 139q4 14 1 14q-4 0 -10 -12q-34 -61 -70 -95q-59 -59 -114 -55q-40 2 -59 41
t-5 114q21 105 125 203q77 73 161 73q33 0 59 -8q10 -3 16 6q2 5 7 13.5t7 11.5q3 6 11 6q14 0 35 -3q4 0 4.5 -1t-1.5 -5zM325 394q3 10 -9 13q-19 6 -36 4q-55 -3 -110 -56q-88 -88 -106 -191q-10 -58 2.5 -87t37.5 -29t60 28t64 75q12 18 21.5 38t14.5 33.5l14 37
l14 36.5q26 70 33 98zM419 538q1 -6 -5 -14q-25 -34 -77 -34q-27 0 -55 14q-48 24 -67 24q-12 0 -25 -11l-7 -8q-5 -5 -10 -1q-4 3 -6 8q-1 4 5 13q25 34 77 34q23 0 54 -14q52 -24 68 -24q14 0 25 11q10 10 11 10q5 3 9 -1q3 -3 3 -7z" />
    <glyph glyph-name="adieresis" unicode="&#xe4;" horiz-adv-x="432" 
d="M418 449q-18 -31 -39 -90q-40 -114 -47 -140q-38 -134 -39 -163q-1 -16 11 -16q10 1 61 29q4 3 7 1q4 -1 4 -8q0 -3 -3 -5q-22 -16 -66.5 -39t-70.5 -24q-8 -1 -12 1.5t-3 11.5q5 71 30 139q4 14 1 14q-4 0 -10 -12q-34 -61 -70 -95q-59 -59 -114 -55q-40 2 -59 41
t-5 114q21 105 125 203q77 73 161 73q33 0 59 -8q10 -3 16 6q2 5 7 13.5t7 11.5q3 6 11 6q14 0 35 -3q4 0 4.5 -1t-1.5 -5zM325 394q3 10 -9 13q-19 6 -36 4q-55 -3 -110 -56q-88 -88 -106 -191q-10 -58 2.5 -87t37.5 -29t60 28t64 75q12 18 21.5 38t14.5 33.5l14 37
l14 36.5q26 70 33 98zM416 545q-2 -20 -20 -37.5t-36 -17.5q-26 0 -23 30q2 20 20 37.5t37 17.5q25 0 22 -30zM259 545q-2 -19 -20 -37t-36 -18q-27 0 -24 30q2 19 19.5 37t36.5 18q27 0 24 -30z" />
    <glyph glyph-name="aring" unicode="&#xe5;" horiz-adv-x="432" 
d="M418 449q-18 -31 -39 -90q-40 -114 -47 -140q-38 -134 -39 -163q-1 -16 11 -16q10 1 61 29q4 3 7 1q4 -1 4 -8q0 -3 -3 -5q-22 -16 -66.5 -39t-70.5 -24q-8 -1 -12 1.5t-3 11.5q5 71 30 139q4 14 1 14q-4 0 -10 -12q-34 -61 -70 -95q-59 -59 -114 -55q-40 2 -59 41
t-5 114q21 105 125 203q77 73 161 73q33 0 59 -8q10 -3 16 6q2 5 7 13.5t7 11.5q3 6 11 6q14 0 35 -3q4 0 4.5 -1t-1.5 -5zM325 394q3 10 -9 13q-19 6 -36 4q-55 -3 -110 -56q-88 -88 -106 -191q-10 -58 2.5 -87t37.5 -29t60 28t64 75q12 18 21.5 38t14.5 33.5l14 37
l14 36.5q26 70 33 98zM390 571q0 -34 -25 -58.5t-60 -24.5t-59.5 24.5t-24.5 58.5q0 35 24.5 60t59.5 25t60 -25t25 -60zM366 571q0 25 -18 43t-43 18t-43 -18t-18 -43t18 -42.5t43 -17.5t43 17.5t18 42.5z" />
    <glyph glyph-name="ae" unicode="&#xe6;" horiz-adv-x="603" 
d="M622 383q1 -3 -4 -7t-12 -8q-32 -20 -82 -47l-107 -57.5l-78 -42.5q-8 -4 -9 -10q-5 -18 -8 -43q-12 -123 88 -125q61 0 134 61q2 2 5 1l6 -8q1 -3 -1 -5q-24 -24 -63 -49q-87 -53 -143 -49q-45 2 -70 39t-19 110l3 26l-1 4q-1 0 -2 -3q-15 -29 -41 -63.5t-46 -53.5
q-59 -59 -114 -55q-40 2 -59 41t-5 114q21 105 125 203q77 73 161 73q33 0 59 -8q10 -3 16 6q2 5 7 13.5t7 11.5q3 6 11 6q14 0 35 -3q4 0 4.5 -1t-1.5 -5q-7 -12 -23 -48q-1 -4 0.5 -5t3.5 1q57 51 101 51q31 0 51 -16.5t26 -42.5q1 -5 2.5 -7.5t3.5 -4t5 0.5q3 1 13.5 7.5
t12.5 7.5q3 1 8 -10zM325 394q3 10 -9 13q-19 6 -36 4q-55 -3 -110 -56q-88 -88 -106 -191q-10 -58 2.5 -87t37.5 -29t60 28t64 75q12 18 21.5 38t14.5 33.5l14 37l14 36.5q26 70 33 98zM513 347q0 18 -15 38t-33 20q-35 0 -65 -27q-40 -36 -62 -127q-1 -6 0.5 -7.5t5.5 1.5
q130 67 163 86q8 4 6 16z" />
    <glyph glyph-name="ccedilla" unicode="&#xe7;" horiz-adv-x="335" 
d="M344 406q-1 -13 -12.5 -22t-28.5 -9q-28 0 -51 31q-6 8 -16 8q-43 2 -82 -36q-33 -33 -56 -90.5t-25 -120.5q-2 -59 18.5 -90.5t60.5 -31.5q68 0 130 55q1 1 5 -1q3 -2 5 -7q0 -3 -1 -5q-30 -30 -81 -59.5t-89 -32.5l-23 -37q5 4 16 4q35 0 56 -18.5t21 -50.5
q0 -28 -21.5 -49t-51.5 -21q-35 0 -59 26q-3 3 0.5 8t7.5 3q21 -15 38 -15q47 0 47 56q0 19 -10 31t-27 12q-10 0 -22 -7q-5 -3 -11 2t-7 10q0 2 11 17l9 13t10 15q-51 2 -80.5 41.5t-24.5 110.5q5 65 45.5 130.5t98.5 115.5q68 59 149 59q26 0 39 -12.5t12 -32.5z" />
    <glyph glyph-name="egrave" unicode="&#xe8;" horiz-adv-x="344" 
d="M363 383q1 -4 -16 -15q-44 -26 -155.5 -86.5t-112.5 -60.5q-6 -3 -9 -10q-5 -26 -7 -43q-12 -123 88 -125q59 0 134 61q2 2 4 1q4 -3 6 -8q1 -3 -1 -5q-19 -21 -63 -49q-85 -53 -143 -49q-49 2 -74 46t-12 131q9 56 44.5 116.5t77.5 98.5q69 62 117 62q61 0 77 -59
q1 -5 2.5 -7.5t3.5 -4t5 0.5q4 2 15 8l10 7q4 1 9 -10zM254 347q0 18 -15.5 38t-32.5 20q-37 0 -65 -27q-41 -37 -63 -127q-1 -6 0.5 -7.5t5.5 1.5q121 61 163 86q7 3 7 16zM283 493q-8 -5 -22 3q-36 20 -138 89q-15 11 -18 15q-2 5 0.5 9t8.5 2q6 0 28 1t27 1q9 -2 14 -8
q42 -49 94 -93q9 -7 10 -10.5t-4 -8.5z" />
    <glyph glyph-name="eacute" unicode="&#xe9;" horiz-adv-x="344" 
d="M363 383q1 -4 -16 -15q-44 -26 -155.5 -86.5t-112.5 -60.5q-6 -3 -9 -10q-5 -26 -7 -43q-12 -123 88 -125q59 0 134 61q2 2 4 1q4 -3 6 -8q1 -3 -1 -5q-19 -21 -63 -49q-85 -53 -143 -49q-49 2 -74 46t-12 131q9 56 44.5 116.5t77.5 98.5q69 62 117 62q61 0 77 -59
q1 -5 2.5 -7.5t3.5 -4t5 0.5q4 2 15 8l10 7q4 1 9 -10zM254 347q0 18 -15.5 38t-32.5 20q-37 0 -65 -27q-41 -37 -63 -127q-1 -6 0.5 -7.5t5.5 1.5q121 61 163 86q7 3 7 16zM340 597q-12 -9 -21 -14q-136 -79 -156 -89q-14 -7 -19 -2q-7 7 8 18l113 93q9 7 14 6
q4 0 25.5 -1.5t31.5 -1.5q4 0 6 -2t-2 -7z" />
    <glyph glyph-name="ecircumflex" unicode="&#xea;" horiz-adv-x="344" 
d="M363 383q1 -4 -16 -15q-44 -26 -155.5 -86.5t-112.5 -60.5q-6 -3 -9 -10q-5 -26 -7 -43q-12 -123 88 -125q59 0 134 61q2 2 4 1q4 -3 6 -8q1 -3 -1 -5q-19 -21 -63 -49q-85 -53 -143 -49q-49 2 -74 46t-12 131q9 56 44.5 116.5t77.5 98.5q69 62 117 62q61 0 77 -59
q1 -5 2.5 -7.5t3.5 -4t5 0.5q4 2 15 8l10 7q4 1 9 -10zM254 347q0 18 -15.5 38t-32.5 20q-37 0 -65 -27q-41 -37 -63 -127q-1 -6 0.5 -7.5t5.5 1.5q121 61 163 86q7 3 7 16zM337 490q-8 -3 -22 5t-40 31t-37 32l-127 -64q-20 -8 -25 -4q-3 3 16 20q23 21 60 49.5t47 34.5
q8 5 29 5q23 0 35 -4q6 -3 27.5 -32.5t33.5 -53.5q7 -17 3 -19z" />
    <glyph glyph-name="edieresis" unicode="&#xeb;" horiz-adv-x="344" 
d="M363 383q1 -4 -16 -15q-44 -26 -155.5 -86.5t-112.5 -60.5q-6 -3 -9 -10q-5 -26 -7 -43q-12 -123 88 -125q59 0 134 61q2 2 4 1q4 -3 6 -8q1 -3 -1 -5q-19 -21 -63 -49q-85 -53 -143 -49q-49 2 -74 46t-12 131q9 56 44.5 116.5t77.5 98.5q69 62 117 62q61 0 77 -59
q1 -5 2.5 -7.5t3.5 -4t5 0.5q4 2 15 8l10 7q4 1 9 -10zM254 347q0 18 -15.5 38t-32.5 20q-37 0 -65 -27q-41 -37 -63 -127q-1 -6 0.5 -7.5t5.5 1.5q121 61 163 86q7 3 7 16zM345 545q-2 -20 -20 -37.5t-36 -17.5q-26 0 -23 30q2 20 20 37.5t37 17.5q25 0 22 -30zM188 545
q-2 -19 -20 -37t-36 -18q-27 0 -24 30q2 19 19.5 37t36.5 18q27 0 24 -30z" />
    <glyph glyph-name="igrave" unicode="&#xec;" horiz-adv-x="259" 
d="M193 60q2 -4 -3 -7q-29 -21 -70 -39t-71 -20q-11 -2 -18 5t-5 21q3 23 30 139q10 41 29.5 112t25.5 98q1 5 1.5 8.5t0.5 6.5t-1.5 4.5t-4.5 0.5q-34 -18 -67 -47q-4 -3 -8 0l-4 5q-2 5 1 8q16 17 47.5 40.5t50.5 33.5q43 25 56 21q12 -3 8 -23q-7 -33 -34 -138
q-11 -43 -36 -125q0 -1 -26 -114q-2 -9 1 -14t12 -3q34 6 74 32q6 4 8 0q2 -2 3 -5zM214 493q-8 -5 -22 3q-43 24 -140 92q-17 12 -19 15q-2 5 0.5 9t8.5 2q7 0 29 1t27 1q10 -2 15 -8q40 -49 95 -95q10 -8 10.5 -11.5t-4.5 -8.5z" />
    <glyph glyph-name="iacute" unicode="&#xed;" horiz-adv-x="259" 
d="M193 60q2 -4 -3 -7q-29 -21 -70 -39t-71 -20q-11 -2 -18 5t-5 21q3 23 30 139q10 41 29.5 112t25.5 98q1 5 1.5 8.5t0.5 6.5t-1.5 4.5t-4.5 0.5q-34 -18 -67 -47q-4 -3 -8 0l-4 5q-2 5 1 8q16 17 47.5 40.5t50.5 33.5q43 25 56 21q12 -3 8 -23q-7 -33 -34 -138
q-11 -43 -36 -125q0 -1 -26 -114q-2 -9 1 -14t12 -3q34 6 74 32q6 4 8 0q2 -2 3 -5zM283 595q-12 -9 -21 -14q-136 -79 -156 -89q-14 -7 -19 -2q-7 7 8 18l113 93q9 7 14 6q4 0 25.5 -1.5t31.5 -1.5q3 0 5.5 -2t-1.5 -7z" />
    <glyph glyph-name="icircumflex" unicode="&#xee;" horiz-adv-x="259" 
d="M193 60q2 -4 -3 -7q-29 -21 -70 -39t-71 -20q-11 -2 -18 5t-5 21q3 23 30 139q10 41 29.5 112t25.5 98q1 5 1.5 8.5t0.5 6.5t-1.5 4.5t-4.5 0.5q-34 -18 -67 -47q-4 -3 -8 0l-4 5q-2 5 1 8q16 17 47.5 40.5t50.5 33.5q43 25 56 21q12 -3 8 -23q-7 -33 -34 -138
q-11 -43 -36 -125q0 -1 -26 -114q-2 -9 1 -14t12 -3q34 6 74 32q6 4 8 0q2 -2 3 -5zM260 490q-8 -3 -22 5t-40 31t-37 32l-127 -64q-20 -8 -25 -4q-3 3 16 20q23 21 60 49.5t47 34.5q8 5 29 5q23 0 35 -4q6 -3 27.5 -32.5t33.5 -53.5q7 -17 3 -19z" />
    <glyph glyph-name="idieresis" unicode="&#xef;" horiz-adv-x="259" 
d="M193 60q2 -4 -3 -7q-29 -21 -70 -39t-71 -20q-11 -2 -18 5t-5 21q3 23 30 139q10 41 29.5 112t25.5 98q1 5 1.5 8.5t0.5 6.5t-1.5 4.5t-4.5 0.5q-34 -18 -67 -47q-4 -3 -8 0l-4 5q-2 5 1 8q16 17 47.5 40.5t50.5 33.5q43 25 56 21q12 -3 8 -23q-7 -33 -34 -138
q-11 -43 -36 -125q0 -1 -26 -114q-2 -9 1 -14t12 -3q34 6 74 32q6 4 8 0q2 -2 3 -5zM126 545q-2 -19 -20 -37t-36 -18q-27 0 -24 30q2 19 19.5 37t36.5 18q27 0 24 -30zM283 545q-2 -20 -20 -37.5t-36 -17.5q-26 0 -23 30q2 20 20 37.5t37 17.5q25 0 22 -30z" />
    <glyph glyph-name="eth" unicode="&#xf0;" horiz-adv-x="392" 
d="M427 686q4 -7 -0.5 -10t-19.5 -9q-5 -2 -8 -3q-10 -4 -66 -23q53 -131 28 -337q-12 -103 -95.5 -206.5t-147.5 -103.5q-46 0 -76 37.5t-30 113.5q0 59 26.5 117t64.5 95q81 77 162 77q21 0 30 -3t10 4q2 112 -20 189l-91 -28q-9 -3 -13.5 -3.5t-6 1t-2.5 6.5q-2 10 11 16
q37 15 92 35q-38 94 -104 94q-59 0 -104 -48q-3 -3 -9.5 1.5t-9 11.5t1.5 11q59 43 110 43q54 0 91 -23.5t69 -75.5q57 16 73 22q19 7 24.5 6.5t9.5 -7.5zM305 401q0 7 -7 9q-8 3 -30 3q-55 0 -105 -56q-82 -90 -82 -202q0 -51 18.5 -78.5t44.5 -29.5q67 -2 108 87
q25 55 46 182q7 43 7 85z" />
    <glyph glyph-name="ntilde" unicode="&#xf1;" horiz-adv-x="471" 
d="M411 60q1 -4 -3 -7q-69 -51 -128 -58q-14 -2 -18.5 2.5t-4.5 19.5q-1 22 27 129q45 168 46 175q13 72 -23 72q-43 0 -109 -96q-52 -76 -74 -137q-14 -38 -43 -148q-3 -12 -16 -12h-43q-13 0 -8 12q5 22 27.5 92.5t32.5 106.5q27 97 37 149q3 8 2 16t-9 7q-14 -3 -57 -38
q-5 -4 -9 0l-3 4q-3 4 1 8q17 17 56 44.5t60 37.5q17 7 25 9q7 2 10.5 -4t0.5 -21q-15 -71 -39 -152q-5 -14 -2 -17q3 -2 9 8q51 88 91 128q61 58 105 58q28 0 41.5 -25.5t7.5 -73.5q-3 -22 -48 -187q-17 -53 -24 -103q-1 -11 3 -17t12 -4q24 6 56 28q6 4 9 -1zM409 537
q1 -6 -5 -14q-25 -34 -77 -34q-27 0 -55 14q-48 24 -67 24q-12 0 -25 -11l-7 -8q-5 -5 -10 -1q-4 3 -6 8q-1 4 5 13q25 34 77 34q23 0 54 -14q52 -24 68 -24q14 0 25 11q10 9 11 10q5 3 9 -1q3 -3 3 -7z" />
    <glyph glyph-name="ograve" unicode="&#xf2;" horiz-adv-x="413" 
d="M381 274q-16 -136 -132 -228q-66 -52 -126 -52q-65 0 -100 50q-29 43 -22 118q8 116 110 214q77 72 156 72q62 0 92 -46q31 -48 22 -128zM309 265q7 82 -18 123q-20 31 -59 31q-40 0 -75 -30q-37 -32 -58.5 -92.5t-27.5 -123.5q-8 -76 12 -115q21 -40 65 -40q35 0 75 34
q36 30 58.5 90t27.5 123zM315 493q-8 -5 -22 3q-36 20 -138 89q-15 11 -18 15q-2 5 0.5 9t8.5 2q6 0 28 1t27 1q9 -2 14 -8q42 -49 94 -93q9 -7 10 -10.5t-4 -8.5z" />
    <glyph glyph-name="oacute" unicode="&#xf3;" horiz-adv-x="413" 
d="M381 274q-16 -136 -132 -228q-66 -52 -126 -52q-65 0 -100 50q-29 43 -22 118q8 116 110 214q77 72 156 72q62 0 92 -46q31 -48 22 -128zM309 265q7 82 -18 123q-20 31 -59 31q-40 0 -75 -30q-37 -32 -58.5 -92.5t-27.5 -123.5q-8 -76 12 -115q21 -40 65 -40q35 0 75 34
q36 30 58.5 90t27.5 123zM370 597q-12 -9 -21 -14q-136 -79 -156 -89q-14 -7 -19 -2q-7 7 8 18l113 93q9 7 14 6q4 0 25.5 -1.5t31.5 -1.5q4 0 6 -2t-2 -7z" />
    <glyph glyph-name="ocircumflex" unicode="&#xf4;" horiz-adv-x="413" 
d="M381 274q-16 -136 -132 -228q-66 -52 -126 -52q-65 0 -100 50q-29 43 -22 118q8 116 110 214q77 72 156 72q62 0 92 -46q31 -48 22 -128zM309 265q7 82 -18 123q-20 31 -59 31q-40 0 -75 -30q-37 -32 -58.5 -92.5t-27.5 -123.5q-8 -76 12 -115q21 -40 65 -40q35 0 75 34
q36 30 58.5 90t27.5 123zM366 490q-8 -3 -22 5t-40 31t-37 32l-127 -64q-20 -8 -25 -4q-3 3 16 20q23 21 60 49.5t47 34.5q8 5 29 5q23 0 35 -4q6 -3 27.5 -32.5t33.5 -53.5q7 -17 3 -19z" />
    <glyph glyph-name="otilde" unicode="&#xf5;" horiz-adv-x="413" 
d="M381 274q-16 -136 -132 -228q-66 -52 -126 -52q-65 0 -100 50q-29 43 -22 118q8 116 110 214q77 72 156 72q62 0 92 -46q31 -48 22 -128zM309 265q7 82 -18 123q-20 31 -59 31q-40 0 -75 -30q-37 -32 -58.5 -92.5t-27.5 -123.5q-8 -76 12 -115q21 -40 65 -40q35 0 75 34
q36 30 58.5 90t27.5 123zM391 538q1 -6 -5 -14q-25 -34 -77 -34q-27 0 -55 14q-48 24 -67 24q-12 0 -25 -11l-7 -8q-5 -5 -10 -1q-4 3 -6 8q-1 4 5 13q25 34 77 34q23 0 54 -14q52 -24 68 -24q14 0 25 11q10 10 11 10q5 3 9 -1q3 -3 3 -7z" />
    <glyph glyph-name="odieresis" unicode="&#xf6;" horiz-adv-x="413" 
d="M381 274q-16 -136 -132 -228q-66 -52 -126 -52q-65 0 -100 50q-29 43 -22 118q8 116 110 214q77 72 156 72q62 0 92 -46q31 -48 22 -128zM309 265q7 82 -18 123q-20 31 -59 31q-40 0 -75 -30q-37 -32 -58.5 -92.5t-27.5 -123.5q-8 -76 12 -115q21 -40 65 -40q35 0 75 34
q36 30 58.5 90t27.5 123zM375 545q-2 -20 -20 -37.5t-36 -17.5q-26 0 -23 30q2 20 20 37.5t37 17.5q25 0 22 -30zM218 545q-2 -19 -20 -37t-36 -18q-27 0 -24 30q2 19 19.5 37t36.5 18q27 0 24 -30z" />
    <glyph glyph-name="oslash" unicode="&#xf8;" horiz-adv-x="413" 
d="M381 274q-16 -136 -132 -228q-66 -52 -126 -52q-44 0 -77 25l-30 -43l-11 7l32 45q-7 6 -14 16q-29 43 -22 118q8 116 110 214q77 72 156 72q34 0 56 -13l25 35l12 -8l-25 -35q14 -11 24 -25q31 -48 22 -128zM309 265q6 63 -11 109l-218 -308l8 -16q19 -32 60 -32
q35 0 75 34q36 30 58.5 90t27.5 123zM290 388q-17 31 -58 31q-40 0 -75 -30q-37 -32 -58.5 -92.5t-27.5 -123.5q-5 -52 5 -89z" />
    <glyph glyph-name="ugrave" unicode="&#xf9;" horiz-adv-x="471" 
d="M418 426q-4 -18 -12 -46.5l-20.5 -72.5l-20.5 -73q-29 -106 -40 -185q-2 -11 12 -15q11 0 63 29q6 4 8 -1q0 -1 1 -2t2 -3q1 -4 -3 -7q-24 -19 -65 -36.5t-70 -19.5q-11 -1 -16 3.5t-4 14.5q3 19 11 55q19 80 27 105q2 7 1.5 10.5t-3 2t-6.5 -7.5q-48 -83 -91 -124
q-65 -61 -109 -59q-28 2 -42 27.5t-7 72.5q4 30 47 189q12 44 23 95q3 18 -9 19q-17 2 -63 -37q-4 -4 -8 0l-4 5q-1 4 1 7q23 21 60.5 42t60.5 26q25 5 33 -4q12 -13 -21 -117q-4 -13 -6 -19q-36 -124 -45 -184q-10 -64 22 -67q42 -3 117 94q50 67 69 126q24 74 40 158
q2 11 14 11h44q11 0 9 -12zM333 493q-8 -5 -22 3q-36 20 -138 89q-15 11 -18 15q-2 5 0.5 9t8.5 2q6 0 28 1t27 1q9 -2 14 -8q42 -49 94 -93q9 -7 10 -10.5t-4 -8.5z" />
    <glyph glyph-name="uacute" unicode="&#xfa;" horiz-adv-x="471" 
d="M418 426q-4 -18 -12 -46.5l-20.5 -72.5l-20.5 -73q-29 -106 -40 -185q-2 -11 12 -15q11 0 63 29q6 4 8 -1q0 -1 1 -2t2 -3q1 -4 -3 -7q-24 -19 -65 -36.5t-70 -19.5q-11 -1 -16 3.5t-4 14.5q3 19 11 55q19 80 27 105q2 7 1.5 10.5t-3 2t-6.5 -7.5q-48 -83 -91 -124
q-65 -61 -109 -59q-28 2 -42 27.5t-7 72.5q4 30 47 189q12 44 23 95q3 18 -9 19q-17 2 -63 -37q-4 -4 -8 0l-4 5q-1 4 1 7q23 21 60.5 42t60.5 26q25 5 33 -4q12 -13 -21 -117q-4 -13 -6 -19q-36 -124 -45 -184q-10 -64 22 -67q42 -3 117 94q50 67 69 126q24 74 40 158
q2 11 14 11h44q11 0 9 -12zM383 595q-12 -9 -21 -14q-136 -79 -156 -89q-14 -7 -19 -2q-7 7 8 18l113 93q9 7 14 6q4 0 25.5 -1.5t31.5 -1.5q3 0 5.5 -2t-1.5 -7z" />
    <glyph glyph-name="ucircumflex" unicode="&#xfb;" horiz-adv-x="471" 
d="M418 424q-4 -18 -12 -46.5l-20.5 -72.5l-20.5 -73q-29 -106 -40 -185q-2 -11 12 -15q11 0 63 29q6 4 8 -1q0 -1 1 -2t2 -3q1 -4 -3 -7q-24 -19 -65 -36.5t-70 -19.5q-11 -1 -16 3.5t-4 14.5q3 19 11 55q19 80 27 105q2 7 1.5 10.5t-3 2t-6.5 -7.5q-48 -83 -91 -124
q-65 -61 -109 -59q-28 2 -42 27.5t-7 72.5q4 30 47 189q12 44 23 95q3 18 -9 19q-17 2 -63 -37q-4 -4 -8 0l-4 5q-1 4 1 7q23 21 60.5 42t60.5 26q25 5 33 -4q12 -13 -21 -117q-4 -13 -6 -19q-36 -124 -45 -184q-10 -64 22 -67q42 -3 117 94q50 67 69 126q24 74 40 158
q2 11 14 11h44q11 0 9 -12zM386 490q-8 -3 -22 5t-40 31t-37 32l-127 -64q-20 -8 -25 -4q-3 3 16 20q23 21 60 49.5t47 34.5q8 5 29 5q23 0 35 -4q6 -3 27.5 -32.5t33.5 -53.5q7 -17 3 -19z" />
    <glyph glyph-name="udieresis" unicode="&#xfc;" horiz-adv-x="471" 
d="M418 426q-4 -18 -12 -46.5l-20.5 -72.5l-20.5 -73q-29 -106 -40 -185q-2 -11 12 -15q11 0 63 29q6 4 8 -1q0 -1 1 -2t2 -3q1 -4 -3 -7q-24 -19 -65 -36.5t-70 -19.5q-11 -1 -16 3.5t-4 14.5q3 19 11 55q19 80 27 105q2 7 1.5 10.5t-3 2t-6.5 -7.5q-48 -83 -91 -124
q-65 -61 -109 -59q-28 2 -42 27.5t-7 72.5q4 30 47 189q12 44 23 95q3 18 -9 19q-17 2 -63 -37q-4 -4 -8 0l-4 5q-1 4 1 7q23 21 60.5 42t60.5 26q25 5 33 -4q12 -13 -21 -117q-4 -13 -6 -19q-36 -124 -45 -184q-10 -64 22 -67q42 -3 117 94q50 67 69 126q24 74 40 158
q2 11 14 11h44q11 0 9 -12zM235 545q-2 -19 -20 -37t-36 -18q-27 0 -24 30q2 19 19.5 37t36.5 18q27 0 24 -30zM392 545q-2 -20 -20 -37.5t-36 -17.5q-26 0 -23 30q2 20 20 37.5t37 17.5q25 0 22 -30z" />
    <glyph glyph-name="yacute" unicode="&#xfd;" horiz-adv-x="396" 
d="M403 413q-15 -79 -122 -246q-111 -175 -198 -281q-99 -120 -176 -120q-16 0 -27 9t-10 22q2 12 15 20.5t32 8.5q15 0 44 -9q14 -3 17 -1q41 22 91 82q35 40 74 103q6 11 4 33q-4 59 -24 174q-20 116 -37 158q-4 14 -9.5 20t-13.5 4q-15 -4 -46 -35q-3 -3 -4 -1q-7 5 -8 9
q0 2 3 5q45 42 71 60q33 20 44 20q15 0 27 -48q14 -40 31 -131q17 -97 21 -160q2 -26 15 -8q36 53 76 126q33 60 45 121q3 13 3 62q-2 18 12 28q20 15 41 -1q11 -9 9 -24zM387 597q-12 -9 -21 -14q-136 -79 -156 -89q-14 -7 -19 -2q-7 7 8 18l113 93q9 7 14 6q4 0 25.5 -1.5
t31.5 -1.5q3 0 5.5 -2t-1.5 -7z" />
    <glyph glyph-name="thorn" unicode="&#xfe;" horiz-adv-x="432" 
d="M399 301q-10 -92 -61 -169q-59 -93 -155 -118q-50 -13 -103 -3q-9 3 -13 -8q-16 -62 -26 -117q-4 -15 -8 -39t-6 -52t5 -30l76 -5q6 0 4 -6q0 -1 -2 -7q-1 -5 -7 -5h-195q-8 0 -9 5q-2 8 -2 10q1 6 11 7h31q8 0 11 10l64 263l70 292q43 184 59 259q12 56 17 100
q2 8 -2 12.5t-12 3.5q-24 -4 -65 -16q-3 0 -4 3l-2 10q-1 4 3 5q20 7 75.5 21.5t76.5 16.5q9 1 12 -5.5t1 -16.5q-38 -124 -72 -278q-4 -16 -10.5 -44.5l-11.5 -49t-9 -33.5q-2 -9 -0.5 -10t6.5 6q33 57 100 106q40 30 80 27q39 -4 59 -43q20 -36 14 -102zM328 293
q4 36 -7.5 61.5t-36.5 29.5q-39 4 -72 -21q-54 -44 -82 -108q-9 -21 -54 -214q-3 -10 5 -11q32 -10 74 -2q23 4 48.5 18t40.5 31q38 40 61 101q17 46 23 115z" />
    <glyph glyph-name="ydieresis" unicode="&#xff;" horiz-adv-x="396" 
d="M403 413q-15 -79 -122 -246q-111 -175 -198 -281q-99 -120 -176 -120q-16 0 -27 9t-10 22q2 12 15 20.5t32 8.5q15 0 44 -9q14 -3 17 -1q41 22 91 82q35 40 74 103q6 11 4 33q-4 59 -24 174q-20 116 -37 158q-4 14 -9.5 20t-13.5 4q-15 -4 -46 -35q-3 -3 -4 -1q-7 5 -8 9
q0 2 3 5q45 42 71 60q33 20 44 20q15 0 27 -48q14 -40 31 -131q17 -97 21 -160q2 -26 15 -8q36 53 76 126q33 60 45 121q3 13 3 62q-2 18 12 28q20 15 41 -1q11 -9 9 -24zM372 544q-2 -20 -20 -37.5t-36 -17.5q-26 0 -23 30q2 20 20 37.5t37 17.5q25 0 22 -30zM215 544
q-2 -19 -20 -37t-36 -18q-27 0 -24 30q2 19 19.5 37t36.5 18q27 0 24 -30z" />
    <glyph glyph-name="dotlessi" unicode="&#x131;" horiz-adv-x="259" 
d="M193 60q2 -4 -3 -7q-29 -21 -70 -39t-71 -20q-11 -2 -18 5t-5 21q3 23 30 139q10 41 29.5 112t25.5 98q1 5 1.5 8.5t0.5 6.5t-1.5 4.5t-4.5 0.5q-34 -18 -67 -47q-4 -3 -8 0l-4 5q-2 5 1 8q16 17 47.5 40.5t50.5 33.5q43 25 56 21q12 -3 8 -23q-7 -33 -34 -138
q-11 -43 -36 -125q0 -1 -26 -114q-2 -9 1 -14t12 -3q34 6 74 32q6 4 8 0q2 -2 3 -5z" />
    <glyph glyph-name="Lslash" unicode="&#x141;" horiz-adv-x="517" 
d="M482 119q7 -5 -5 -25q-3 -4 -24 -44.5t-25 -47.5q-5 -9 -15 -7q-57 5 -232 5h-197q-6 0 -5 3q0 1 1 6t2 7q0 3 4 3h30q25 0 28 12q4 14 42 214q0 2 13 62q-20 -4 -50 -11q-17 -4 -20 0q-1 1 -3 5q-6 13 13 18q44 11 65 17q37 187 39 195q4 17 8 64q2 47 -6 47l-49 1
q-6 2 -7 3q1 3 1 15q1 2 7 2h224q5 0 5 -2q0 -1 -1 -7.5t-2 -7.5q-1 -3 -7 -3l-63 -1q-9 0 -11 -4q-6 -14 -59 -281q103 25 126 33q22 6 28 -9q4 -9 0 -13t-17 -7l-142 -35l-34 -191q-11 -63 -10.5 -90t20.5 -27q140 0 239 27q8 3 34.5 25.5t34.5 32.5q14 20 20 16z" />
    <glyph glyph-name="lslash" unicode="&#x142;" horiz-adv-x="239" 
d="M247 386q3 -11 0 -13.5t-17 -5.5l-83 -23q-9 -39 -25 -101t-19 -78q-20 -93 -22 -111q-1 -10 0.5 -15t8.5 -4q33 4 72 30q7 4 8 -1q2 -2 3 -5q1 -5 -2 -7q-26 -20 -68.5 -37.5t-70.5 -21.5q-10 -2 -18 5.5t-6 18.5q9 66 26 132q8 29 24 93l21 84l-66 -17
q-12 -4 -16.5 -3.5t-7.5 6.5q-5 13 16 19l81 24q51 204 57 233q12 60 17 100q2 8 -2 12.5t-12 3.5q-24 -4 -65 -16q-3 0 -4 3l-2 10q-1 4 3 5q20 7 75.5 21.5t76.5 16.5q9 1 12 -5.5t1 -16.5q-29 -94 -64 -252l-24 -96l65 19q15 4 19.5 2.5t7.5 -9.5z" />
    <glyph glyph-name="OE" unicode="&#x152;" horiz-adv-x="845" 
d="M837 660q-19 -49 -26 -75q-9 -26 -11 -26q-3 0 -7.5 3t-5.5 6v19.5t-2 20.5q-15 24 -69 28q-126 8 -155 8q-7 0 -10 -3q-2 -2 -15.5 -65l-28 -131.5t-14.5 -70.5q-3 -10 6 -10q3 0 82 1t88 1q32 0 48 14q6 5 12.5 23.5t7.5 26.5q2 7 6 9h15q5 0 3 -8q-2 -10 -9.5 -39
t-10.5 -42q-14 -62 -17 -91q-1 -11 -4 -11h-15q-4 0 -3 7q1 13 0 37.5t-6 31.5q-14 17 -72 19q-26 4 -130 4q-7 0 -8 -9l-37 -193q-27 -127 13 -127q114 0 210 23q15 5 42 23t36 29q12 20 20 15q9 -4 4 -11q-12 -34 -42 -90q-4 -7 -16 -7q-316 -2 -430 -4q-129 0 -191 62
q-36 35 -55 100t-5 149q18 105 70 184t128 125q92 53 174 53q29 0 58 -6h77q248 0 283 5q8 5 11 2.5t1 -10.5zM456 537q16 75 0 86q-25 16 -82 18q-74 2 -130 -46q-48 -39 -82 -111.5t-49 -164.5q-24 -134 30 -224q24 -37 65 -59t84 -22q30 0 49 9q11 5 14 21l60 293z" />
    <glyph glyph-name="oe" unicode="&#x153;" horiz-adv-x="637" 
d="M656 383q1 -3 -4 -7t-12 -8q-32 -20 -82 -47l-107 -57.5l-78 -42.5q-8 -4 -9 -10q-5 -18 -8 -43q-12 -123 88 -125q61 0 134 61q2 2 5 1l6 -8q1 -3 -1 -5q-24 -24 -63 -49q-87 -53 -143 -49q-36 2 -59 25t-29 70q-23 -26 -45 -43q-66 -52 -126 -52q-65 0 -100 50
q-29 43 -22 118q8 116 110 214q77 72 156 72q62 0 92 -46q14 -20 21 -57q18 24 38 41q67 62 116 62q31 0 51 -16.5t26 -42.5q1 -5 2.5 -7.5t3.5 -4t5 0.5q3 1 13.5 7.5t12.5 7.5q3 1 8 -10zM309 265q7 82 -18 123q-20 31 -59 31q-40 0 -75 -30q-37 -32 -58.5 -92.5
t-27.5 -123.5q-8 -76 12 -115q21 -40 65 -40q35 0 75 34q36 30 58.5 90t27.5 123zM547 347q0 18 -15 38t-33 20q-35 0 -65 -27q-40 -36 -62 -127q-1 -6 0.5 -7.5t5.5 1.5q130 67 163 86q8 4 6 16z" />
    <glyph glyph-name="Scaron" unicode="&#x160;" horiz-adv-x="433" 
d="M411 579q-2 -28 -28 -26q-31 3 -63 84q-2 5 -8.5 10t-12.5 5q-82 5 -125.5 -27.5t-47.5 -89.5q-3 -40 22 -71t84 -68q85 -52 119 -105t17 -124q-10 -74 -69.5 -125t-144.5 -45q-70 4 -117 44.5t-43 91.5q1 18 11.5 32.5t24.5 13.5q12 -1 20.5 -17.5t7.5 -37.5
q0 -7 -3 -16.5t-6.5 -19.5l-4.5 -13q-2 -10 6 -18q39 -38 100 -42q65 -4 108 39.5t48 105.5q2 42 -22 79.5t-92 84.5q-72 50 -97.5 95t-21.5 102q4 69 64 110.5t147 36.5q53 -3 91 -29.5t36 -59.5zM398 831q5 -5 -10 -19q-52 -52 -97 -87q-7 -5 -34 -5q-26 0 -41 5
q-9 3 -64 87q-8 14 -4 19q5 3 22 -5q31 -19 89 -61q112 59 115 61q20 10 24 5z" />
    <glyph glyph-name="scaron" unicode="&#x161;" horiz-adv-x="306" 
d="M303 389q-2 -13 -14 -22.5t-26 -6.5q-28 4 -39 48q-4 22 -19 22q-78 0 -93 -54q-14 -50 27 -88q8 -8 29 -26.5t28 -25.5q62 -61 43 -131q-14 -52 -61.5 -82.5t-103.5 -30.5q-53 0 -84 22.5t-27 48.5q6 31 35 29q27 0 38 -56q1 -12 13 -24q5 -4 23 -4q36 0 64 20t38 53
q16 59 -27 99q-8 8 -27 25t-26 24q-47 44 -36 105q9 51 54.5 83.5t101.5 32.5q44 0 68 -19t21 -42zM334 600q5 -5 -10 -19q-52 -52 -97 -87q-7 -5 -34 -5q-26 0 -41 5q-9 3 -64 87q-8 14 -4 19q5 3 22 -5q31 -19 89 -61q112 59 115 61q20 10 24 5z" />
    <glyph glyph-name="Ydieresis" unicode="&#x178;" horiz-adv-x="560" 
d="M611 661q0 -2 -1 -9l-2 -6q0 -3 -3 -3l-27 -1q-13 0 -33 -25l-51.5 -68l-54.5 -73l-101 -132q-9 -17 -10 -21q-31 -154 -39 -206q-15 -94 5 -97l77 -1q5 0 5 -4q-3 -3 -3 -13q0 -2 -4 -2h-243q-6 0 -6 1q-1 0 0 2l2 11q1 5 7 5l61 1q8 0 14 21q5 32 51 263q2 13 -3 21
q-17 40 -67 140q-38 77 -76 142q-21 33 -34 35l-27 1q-6 0 -6 3q0 1 0.5 6t1.5 7q-1 3 0 3.5t5 0.5h189q8 0 8 -3q-1 -2 -1.5 -7.5t-0.5 -6.5q0 -3 -4 -3l-43 -1q-8 0 -10 -2.5t-1 -9.5q0 -9 9 -27q51 -102 58 -117q47 -98 61 -121q7 -12 14 -3q79 102 130 179q31 48 35 79
q1 8 -4.5 15t-11.5 7l-46 1q-4 0 -4 3q0 5 3 14q0 3 4 3h173q4 0 4 -2zM324 774q-2 -19 -20 -37t-36 -18q-27 0 -24 30q2 19 19.5 37t36.5 18q27 0 24 -30zM481 774q-2 -20 -20 -37.5t-36 -17.5q-26 0 -23 30q2 20 20 37.5t37 17.5q25 0 22 -30z" />
    <glyph glyph-name="Zcaron" unicode="&#x17d;" horiz-adv-x="551" 
d="M599 680q-3 -26 -37 -71q-12 -15 -35.5 -40.5l-50 -52.5l-56.5 -57l-52.5 -52l-40.5 -39.5l-19 -18.5l-27 -27q-6 -6 4 -6h43h56h33t4 -2q-2 -10 -12 -19q-6 -3 -13 -3h-33.5h-52h-51.5q-5 0 -10 -3q-120 -115 -201 -211q-11 -14 -7.5 -17t16.5 1q30 7 148 7
q40 0 82 -1.5l70 -2.5t33 -1q47 0 57 12q10 16 16 11q4 -4 -2 -16q-12 -59 -13 -62q-3 -11 -13 -13q-16 -2 -36 -2q-9 0 -35 1t-55.5 3t-35.5 2q-60 4 -185 5q-13 1 -43.5 0.5t-44.5 -1.5q-28 -2 -42 -12q-3 -1 -6.5 2t-2.5 8q0 3 3.5 7t8 8.5l5.5 5.5q12 15 55 61l88.5 94
l51.5 54q3 4 13 13.5l23 22l19 18.5q6 7 -2 7h-99q-6 0 -6 3q0 6 10 16q3 5 13 5h104q5 0 11 3l71.5 70l71 70l34.5 34q48 51 57 63q6 8 3.5 9.5t-18.5 2.5q-33 2 -124 13q-70 10 -133 10q-60 0 -86 -14.5t-31 -44.5q-5 -27 9 -34q3 -1 13 -11q1 -2 0 -3t-3.5 -2t-5.5 -1
q-13 0 -21 6q-18 12 -16 40q4 41 45.5 86.5t101.5 45.5q25 0 136 -18q58 -10 123 -10q62 0 75 7q16 7 22.5 29.5t-3.5 36.5q-1 3 -4 6t-3.5 4t0.5 3q4 3 14 -1q26 -13 24 -37zM493 831q5 -5 -10 -19q-52 -52 -97 -87q-7 -5 -34 -5q-26 0 -41 5q-9 3 -64 87q-8 14 -4 19
q5 3 22 -5q31 -19 89 -61q112 59 115 61q20 10 24 5z" />
    <glyph glyph-name="zcaron" unicode="&#x17e;" horiz-adv-x="382" 
d="M400 412q-9 -8 -36.5 -37l-67 -70l-67.5 -69q-27 -27 -84 -79t-74 -69q-9 -9 1 -9q38 0 120 -41q19 -9 44 -22.5l42 -22.5t27 -12q10 1 27.5 14t23.5 22q4 4 7 4q4 0 8 -6q2 -3 -1 -6q-17 -24 -44 -45t-45 -21q-62 0 -139 45q-11 5 -29 14l-26.5 13t-23 8.5t-30.5 6.5
q-16 3 -33 -6q-8 -4 -20.5 -17t-14.5 -14q-5 -2 -7 0q0 1 -3 4.5t-4 5.5q-1 5 1 7q97 81 210 190q15 14 135 134q9 9 1 11q-37 10 -89 32q-61 23 -93 23q-55 0 -59 -30q-1 -10 2 -13q30 -21 27 -44q-2 -11 -9 -18.5t-16 -7.5q-13 0 -21.5 17t-4.5 52q4 33 42 63.5t79 30.5
q54 0 93 -17l33.5 -14t34.5 -14q33 -12 43 -5q7 4 27 24q4 2 6 1l6 -7q2 -5 1 -6zM372 603q5 -5 -10 -19q-52 -52 -97 -87q-7 -5 -34 -5q-26 0 -41 5q-9 3 -64 87q-8 14 -4 19q5 3 22 -5q31 -19 89 -61q112 59 115 61q20 10 24 5z" />
    <glyph glyph-name="florin" unicode="&#x192;" 
d="M390 718q-2 -27 -39 -27q-10 0 -24 10.5t-24 25.5q-2 4 -9 4q-16 0 -28 -10q-37 -32 -59 -139q-27 -121 -35 -160q-1 -7 -0.5 -8.5t5.5 -1.5h84q5 0 3 -3q0 -2 -1 -8.5t-1 -7.5q-1 -4 -6 -4q-3 0 -41 1t-40 1q-8 0 -10 -5q-3 -4 -12.5 -48.5l-23 -109.5l-19.5 -93
q-28 -121 -41 -157q-30 -81 -77 -117q-45 -36 -92 -36q-27 0 -41.5 10t-12.5 27q1 10 11.5 17.5t24.5 7.5q19 0 38 -25q9 -11 17 -11q20 0 33 16q19 22 40 101q14 54 38 165q7 32 19 93.5l21 107t10 48.5q3 5 2.5 6.5t-4.5 1.5l-43 -2q-5 0 -5 4q0 9 2 15q1 5 8 5h41
q6 0 7 5l37 145q25 103 95 162q47 38 97 38q27 0 42 -13t13 -31z" />
    <glyph glyph-name="circumflex" unicode="&#x2c6;" 
d="M301 524q-8 -3 -22 5t-40 31t-37 32l-127 -64q-20 -8 -25 -4q-3 3 16 20q23 21 60 49.5t47 34.5q8 5 29 5q23 0 35 -4q6 -3 27.5 -32.5t33.5 -53.5q7 -17 3 -19z" />
    <glyph glyph-name="caron" unicode="&#x2c7;" 
d="M316 598q5 -5 -10 -19q-52 -52 -97 -87q-7 -5 -34 -5q-26 0 -41 5q-9 3 -64 87q-8 14 -4 19q5 3 22 -5q31 -19 89 -61q112 59 115 61q20 10 24 5z" />
    <glyph glyph-name="breve" unicode="&#x2d8;" 
d="M293 554q-1 -4 -11 -14q-13 -12 -39 -21.5t-51 -9.5q-58 0 -91 31q-1 2 -4 4.5t-5 4.5t-2 5q-2 12 7 20q9 9 20 1q45 -24 76 -24q44 0 73 24q10 8 21 -1q9 -9 6 -20z" />
    <glyph glyph-name="dotaccent" unicode="&#x2d9;" 
d="M224 552q0 -17 -13 -28.5t-30 -11.5q-43 0 -43 40q0 45 51 45q14 0 24.5 -11.5t10.5 -33.5z" />
    <glyph glyph-name="ring" unicode="&#x2da;" 
d="M264 548q0 -34 -25 -58.5t-60 -24.5t-59.5 24.5t-24.5 58.5q0 35 24.5 60t59.5 25t60 -25t25 -60zM240 548q0 25 -18 43t-43 18t-43 -18t-18 -43t18 -42.5t43 -17.5t43 17.5t18 42.5z" />
    <glyph glyph-name="ogonek" unicode="&#x2db;" 
d="M189 -87q4 -8 -8 -16q-42 -30 -89 -28q-34 1 -49.5 20.5t-10.5 43.5q5 23 28 42t46 25h17q-38 -22 -43 -61q-3 -37 36 -40q28 -4 57 13q11 6 16 1z" />
    <glyph glyph-name="tilde" unicode="&#x2dc;" 
d="M326 566q1 -6 -5 -14q-25 -34 -77 -34q-27 0 -55 14q-48 24 -67 24q-12 0 -25 -11l-7 -8q-5 -5 -10 -1q-4 3 -6 8q-1 4 5 13q25 34 77 34q22 0 54 -14q52 -24 68 -24q14 0 25 11q9 10 11 10q5 3 9 -1q3 -3 3 -7z" />
    <glyph glyph-name="hungarumlaut" unicode="&#x2dd;" 
d="M310 584q-2 -4 -14 -14q-39 -33 -100 -80q-3 -2 -8 -2.5t-7 0.5q-5 3 4 15l32 38t38 47q4 7 14 7q36 -3 37 -3q3 0 4.5 -2t-0.5 -6zM209 584q-2 -4 -14 -14q-39 -33 -100 -80q-3 -2 -8 -2.5t-7 0.5q-5 3 4 15l32 38t38 47q4 7 14 7q36 -3 37 -3q3 0 4.5 -2t-0.5 -6z" />
    <glyph glyph-name="endash" unicode="&#x2013;" horiz-adv-x="500" 
d="M468 283q0 -6 -5 -6h-426q-5 0 -5 7v27q0 8 6 8l425 1q5 0 5 -5v-32z" />
    <glyph glyph-name="emdash" unicode="&#x2014;" horiz-adv-x="996" 
d="M964 283q0 -6 -5 -6h-922q-5 0 -5 7v27q0 8 6 8l921 1q5 0 5 -5v-32z" />
    <glyph glyph-name="quoteleft" unicode="&#x2018;" horiz-adv-x="226" 
d="M215 449q-9 -38 -57 -35q-35 2 -57 29t-19 64q5 78 95 133q15 9 24 9q3 0 5.5 -3t1.5 -6q-2 -3 -9.5 -8t-8.5 -6q-56 -40 -63 -86q-2 -23 11 -32q9 -8 28 -9q26 -2 40 -16t9 -34z" />
    <glyph glyph-name="quoteright" unicode="&#x2019;" horiz-adv-x="226" 
d="M217 555q-5 -76 -95 -133q-15 -9 -24 -9q-3 0 -5.5 3t-1.5 7q2 2 18 13q56 40 63 87q2 23 -11 33q-8 7 -28 8q-26 1 -39.5 15t-9.5 34q10 38 57 35q34 -1 56.5 -28t19.5 -65z" />
    <glyph glyph-name="quotesinglbase" unicode="&#x201a;" horiz-adv-x="226" 
d="M124 13q-4 -78 -94 -135q-16 -8 -24 -8q-3 0 -5.5 4t-1.5 7q2 3 17 13q53 37 64 87q4 25 -11 34q-7 6 -29 7q-25 1 -39 15t-10 34q10 37 58 35q37 -1 57.5 -25t17.5 -68z" />
    <glyph glyph-name="quotedblleft" unicode="&#x201c;" horiz-adv-x="399" 
d="M387 449q-9 -38 -57 -35q-35 2 -57 29t-19 64q5 78 95 133q15 9 24 9q3 0 5.5 -3t1.5 -6q-2 -3 -9.5 -8t-8.5 -6q-56 -40 -63 -86q-2 -24 11 -33q8 -7 28 -8q26 -2 40 -16t9 -34zM215 449q-9 -38 -57 -35q-35 2 -57 29t-19 64q5 78 95 133q15 9 24 9q3 0 5.5 -3t1.5 -6
q-2 -3 -9.5 -8t-8.5 -6q-56 -40 -63 -86q-2 -24 11 -33q8 -7 28 -8q26 -2 40 -16t9 -34z" />
    <glyph glyph-name="quotedblright" unicode="&#x201d;" horiz-adv-x="399" 
d="M389 555q-5 -76 -95 -133q-15 -9 -24 -9q-3 0 -5.5 3t-1.5 7q1 2 18 13q56 40 63 87q2 23 -11 33q-8 7 -28 8q-26 1 -40 15t-9 34q9 38 57 35q34 -1 56.5 -28t19.5 -65zM217 555q-5 -76 -95 -133q-15 -9 -24 -9q-3 0 -5.5 3t-1.5 7q2 2 18 13q56 40 63 87q2 23 -11 33
q-8 7 -28 8q-26 1 -39.5 15t-9.5 34q10 38 57 35q34 -1 56.5 -28t19.5 -65z" />
    <glyph glyph-name="quotedblbase" unicode="&#x201e;" horiz-adv-x="399" 
d="M296 13q-4 -78 -94 -135q-16 -8 -24 -8q-3 0 -5.5 4t-1.5 7q2 3 17 13q53 37 64 87q4 25 -11 34q-7 6 -29 7q-25 1 -39 15t-10 34q10 37 58 35q37 -1 57.5 -25t17.5 -68zM124 13q-4 -78 -94 -135q-16 -8 -24 -8q-3 0 -5.5 4t-1.5 7q2 3 17 13q53 37 64 87q4 25 -11 34
q-7 6 -29 7q-25 1 -39 15t-10 34q10 37 58 35q37 -1 57.5 -25t17.5 -68z" />
    <glyph glyph-name="dagger" unicode="&#x2020;" horiz-adv-x="374" 
d="M354 473q-9 -40 -16 -54q-5 -10 -6.5 -10.5t-8.5 1.5t-51.5 5t-51.5 2q-16 -2 -19 -14q-1 -13 -19 -137.5t-21 -138.5q-2 -18 -31.5 -124t-38.5 -130q-7 -13 -14 -12q-5 0 -4 12q-1 25 13 119.5t22 136.5q5 26 38.5 142t38.5 131q4 13 -12 13q-80 0 -101 -7
q-13 -5 -14 13q3 30 13 49q1 3 3 4t4 0.5t3.5 -1t5 -2t5.5 -2.5q7 -3 44.5 -6.5t44.5 -2.5q18 2 19 10q1 12 0.5 28l-1.5 48.5t0 54.5q7 56 7 57q2 3 10 3.5t19 -0.5t12 -1q29 0 32 -1q12 -5 5 -18q-5 -8 -33 -74.5t-33 -82.5q-5 -18 -2.5 -20.5t12.5 0.5q98 9 105 11
q3 1 7.5 3t6.5 2.5t4 0.5t2.5 -2t0.5 -6z" />
    <glyph glyph-name="daggerdbl" unicode="&#x2021;" horiz-adv-x="415" 
d="M389 475q-3 -25 -19 -57q-7 -11 -15 -9q-6 2 -50 5t-51 2q-16 -2 -19 -15q0 -2 -0.5 -23.5t-2 -45.5t-3.5 -35q-4 -20 -47 -130q-3 -7 -1 -11t13 -4q13 0 55 3.5t46 5.5t7.5 -1t4.5 -11q-3 -35 -14 -52q-2 -4 -4 -4.5t-6.5 2t-8.5 3.5q-7 3 -43 6t-46 3q-17 0 -19 -10
q-1 -5 -1 -26t-0.5 -52t-2.5 -55q-2 -47 -6 -55q-3 -4 -11 -4.5t-18 1t-11 1.5q-27 0 -30 1q-10 4 -5 16q61 133 67 159q4 17 2.5 19.5t-12.5 0.5q-99 -8 -105 -10q-5 -1 -12 -5q-9 -4 -8 2v2q2 27 16 57q4 7 6.5 9t9.5 0q5 -2 50 -5t52 -2q17 2 18 15q0 16 4.5 66.5
t7.5 65.5t42 102q3 8 0.5 11t-13.5 3q-13 0 -55 -3t-46 -5q-3 -1 -6 3t-4 10q-3 25 13 51q1 3 2 4t2.5 0.5t3 -1.5t4.5 -2.5t6 -2.5q9 -2 44 -5.5t45 -2.5q18 0 19 11q1 5 1.5 26t0.5 52t2 54q1 10 2 30.5t3 25.5q3 3 11 3t18 -1.5t12 -1.5h30q9 -4 4 -16l-19.5 -45.5
l-29 -69t-16.5 -43.5q-6 -19 -3 -22t13 1q103 9 105 10q19 6 20 5t1 -4z" />
    <glyph glyph-name="bullet" unicode="&#x2022;" horiz-adv-x="580" 
d="M550 282q0 -110 -77 -188t-186 -78t-186.5 78t-77.5 188t77.5 188t186.5 78t186 -78t77 -188z" />
    <glyph glyph-name="ellipsis" unicode="&#x2026;" horiz-adv-x="529" 
d="M453 41q0 -18 -14 -31.5t-31 -13.5q-46 0 -46 45q0 49 55 49q13 0 24.5 -12t11.5 -37zM261 41q0 -18 -14 -31.5t-31 -13.5q-46 0 -46 45q0 49 55 49q13 0 24.5 -12t11.5 -37zM69 41q0 -18 -14 -31.5t-31 -13.5q-46 0 -46 45q0 49 55 49q13 0 24.5 -12t11.5 -37z" />
    <glyph glyph-name="perthousand" unicode="&#x2030;" horiz-adv-x="948" 
d="M291 467q-21 -107 -91 -164q-34 -28 -73 -27q-53 0 -73 35q-31 54 -12 143q26 122 98 178q36 28 83 28q44 0 66 -38q27 -48 2 -155zM583 187q-25 -109 -95 -162q-30 -25 -69 -25q-51 0 -72 34q-32 52 -13 145q28 123 99 177q36 29 80 29q43 0 67 -39q29 -46 3 -159z
M889 187q-25 -109 -95 -162q-30 -25 -69 -25q-51 0 -72 34q-32 52 -13 145q28 123 99 177q36 29 80 29q43 0 67 -39q29 -46 3 -159zM846 313q-14 49 -54 49q-24 0 -48 -28q-16 -19 -33 -62.5t-24 -88.5q-12 -79 -3 -114q10 -41 46 -46q29 -2 53 18q36 30 59 143q17 82 4 129
zM540 313q-14 49 -54 49q-24 0 -48 -28q-16 -19 -33 -62.5t-24 -88.5q-12 -79 -3 -114q10 -41 46 -46q29 -2 53 18q36 30 59 143q17 82 4 129zM249 586q-13 52 -55 52q-24 0 -48 -29q-16 -20 -33 -63t-24 -85q-13 -82 -4 -115q10 -45 50 -48q27 -2 53 21q36 32 56 142
q15 78 5 125zM523 674q2 -4 -6 -12q-11 -24 -191 -341.5l-225 -395.5l-9 -12q-4 0 -8 2l-4 4q-1 2 4 12q16 30 209 370l209 367l11 12q2 0 8 -2q2 -2 2 -4z" />
    <glyph glyph-name="guilsinglleft" unicode="&#x2039;" horiz-adv-x="244" 
d="M210 375q-1 -5 -14 -18l-104 -112l-7 -7q5 -9 6 -10q25 -38 80 -109q7 -10 8 -13q2 -5 -3 -8q-2 -2 -8 -2q-3 0 -12 7q-27 23 -119 109q-10 12 -10 17l2 19q1 5 12 15l141 111q2 1 5 4.5t5.5 5.5t4.5 2q8 0 11 -2q2 -2 2 -9z" />
    <glyph glyph-name="guilsinglright" unicode="&#x203a;" horiz-adv-x="244" 
d="M202 252l-2 -19q0 -5 -13 -16l-141 -111q-11 -9 -15 -9q-8 0 -9 1q-1 2 -1 9q1 5 14 18l102 109l7 9q-4 7 -5 8l-81 112q-7 7 -7 13l1 3q0 3 2 5q3 3 9 3q5 -1 14 -10q44 -39 116 -109q10 -10 9 -16z" />
    <glyph glyph-name="fraction" unicode="&#x2044;" horiz-adv-x="281" 
d="M303 696q1 -2 -5 -17q-13 -34 -147 -360.5l-153 -370.5q-2 -4 -11 -16q-4 0 -11 2l-5 7q-1 3 3 16q7 16 148.5 359t154.5 372q2 6 9 16q7 0 11 -2q6 -4 6 -6z" />
    <glyph glyph-name="trademark" unicode="&#x2122;" horiz-adv-x="756" 
d="M739 336q0 -7 -4 -7h-124q-5 0 -5 5v14q0 2 4 2h26q5 0 5 6v120q0 71 -2 95q0 9 -6 2q-28 -58 -85 -191l-22 -54q-4 -6 -6 -6q-6 0 -7 6q-1 3 -34.5 72.5l-34.5 71.5q-37 79 -55 111q-4 10 -6 -1q0 -2 -0.5 -59.5t-0.5 -79.5v-55q0 -38 10 -38h29q4 0 4 -3v-12
q0 -6 -3 -6h-90q-4 0 -4 5v13q0 3 4 3h25q5 0 5 9q0 22 4 138q0 9 2 47t2 63q0 23 -24 36q-4 3 -22 3q-3 0 -3 3v13q0 4 3 4h64q7 0 8 -3q4 -10 26 -53.5l23 -45.5q51 -109 82 -170q3 -6 6 -2q7 11 18.5 35.5l24.5 53.5t17 37q6 13 21 48.5l27.5 65t13.5 30.5q3 4 10 4h56
q7 0 8 -4q1 0 1 -4.5t-1 -6.5q-1 -5 -7 -5h-21q-6 0 -7 -12q-1 -10 -1 -122q0 -5 0.5 -56t0.5 -55q4 -51 15 -51h27q3 0 3 -3v-11zM311 662q-2 -18 -8 -43q-1 -4 -5 -4h-1q-2 0 -2 2l-2 4q-9 15 -18 16q-56 9 -71 9q-4 0 -4 -3q-3 -114 -3 -227q0 -66 12 -66h42h1q2 0 2 -3
v-13q0 -5 -3 -5h-151q-4 0 -4 5v14q0 2 3 2h39q5 0 5 6q0 4 1 26t1 27q0 4 1.5 85t1.5 84q0 68 -10 68q-47 0 -79 -12q-17 -6 -23 -13q-4 -7 -7 -8t-3.5 0t-0.5 4q0 5 1 9l12 40q2 3 8 5q51 -7 129 -7q3 0 51.5 1t62.5 1q5 -1 11 0l6 2q5 0 5 -6z" />
    <glyph glyph-name="radical" unicode="&#x221a;" horiz-adv-x="697" 
d="M737 648q-1 -10 -20 -17q-3 -1 -4 -2q-106 -44 -252.5 -231.5t-222.5 -391.5q-9 -20 -19 -20t-10 21q-3 62 -36.5 139t-64.5 102q-38 31 -90 -9q-5 -4 -11 3q-2 5 3 11q21 21 65 55q15 13 28 14.5t27 -5.5q29 -13 58.5 -56.5t45.5 -105.5q2 -8 4 -17t3 -14t2.5 -9.5t3 -6
t3.5 -1.5q7 0 22 34q91 200 221 364t214 164q33 0 30 -21z" />
    <glyph glyph-name="Pcircle" unicode="&#x24c5;" horiz-adv-x="540" 
d="M519 409q0 -101 -71.5 -172t-171.5 -71q-101 0 -172.5 71t-71.5 172t71.5 172t172.5 71q100 0 171.5 -71t71.5 -172zM495 409q0 94 -63 159.5t-156 65.5t-157 -65.5t-64 -159.5t64 -159.5t157 -65.5t156 65.5t63 159.5zM393 484q0 -92 -108 -92q-17 0 -30 5q-4 1 -4 -3
v-62q0 -44 9 -44h32q5 0 5.5 -0.5t0.5 -4.5v-3v-1q0 -2 -0.5 -2.5t-4.5 -0.5h-120q-4 0 -4.5 0.5t-0.5 3.5v3q0 5 4 5h31q1 0 1 3v196q0 56 -6 56h-29q-4 0 -4 4v5q3 3 4 3h67h81q33 -5 52 -21q24 -21 24 -50zM342 473q0 32 -20 47l-6 5q-5 5 -8 6.5t-10 4.5t-17 4.5
t-23 1.5q-6 0 -7 -1v-75v-13.5v-23v-15.5t2 -4q8 -5 27 -5q62 0 62 68z" />
    <glyph glyph-name="apple" unicode="&#xf8ff;" horiz-adv-x="613" 
d="M569 283q0 -110 -78 -188.5t-188 -78.5t-188 78.5t-78 188.5t78 187.5t188 77.5t188 -77.5t78 -187.5zM525 297q10 20 2 66t-34 75q-26 30 -35.5 37t-37.5 17q-48 17 -58 -38q-1 -5 -15 -41t-16 -60q-1 -16 -4.5 -37.5t-4 -25.5t2.5 -14q5 -6 37 -6q6 0 30 0.5t42 1.5
t39.5 3.5t35 8t16.5 13.5zM307 301q5 16 -2.5 86.5t-19.5 102.5q-8 20 -36 20.5t-54.5 -9.5t-35.5 -19l-13 -16.5t-12.5 -16.5t-10 -15.5t-5.5 -14t1 -11.5q12 -19 63 -76.5t68 -61.5q21 -5 36.5 4.5t20.5 26.5zM522 179q9 33 -0.5 48.5t-43.5 17.5q-24 2 -70.5 4.5
t-47.5 2.5q-15 2 -28.5 -17.5t-4.5 -46.5q0 -1 4 -14.5t6 -19.5l7 -20t9.5 -21.5t10.5 -18.5t12.5 -15.5t14.5 -8t17.5 -1.5t19.5 9q49 34 68 54t26 47zM242 250q-25 26 -62.5 53.5t-67.5 41t-33 2.5q-6 -14 -3 -81t18 -100q5 -15 16.5 -19t23.5 5q11 9 47 26.5t58 22.5
q28 9 27.5 17t-24.5 32zM325 74q0 15 -3.5 36.5t-9 45t-5.5 24.5q-2 15 -14 19.5t-32 -7.5q-8 -8 -34.5 -25.5l-47.5 -32.5t-22 -22q-3 -13 19.5 -37t47.5 -31q26 -9 63.5 -1.5t37.5 31.5z" />
    <glyph glyph-name="s_t" unicode="&#xfb06;" horiz-adv-x="610" 
d="M603 405q-3 -6 -9 -12q-5 -5 -14 -5q-4 0 -45 1t-44 1q-8 0 -9 -7l-36 -124t-27 -94l-17 -68q-9 -37 -5 -51q5 -16 31 -9q19 3 71 40l9 7q4 3 7 1q6 -3 6 -8q1 -2 -2 -5q-13 -13 -48 -37q-56 -36 -106 -39q-22 -2 -28 6q-13 19 -6 59q3 25 21 88q8 32 31 112.5t30 107.5
q0 4 -3 7q-1 1 -16 13q-10 9 5 18q14 7 20 11q9 6 10 13q3 10 26 92.5t26 92.5q-56 13 -123 14q-80 1 -135.5 -30.5t-56.5 -91.5q-1 -18 9.5 -33t26.5 -21q10 -5 22 -6q39 -2 60.5 -20t18.5 -39q-2 -13 -14 -22.5t-26 -6.5q-28 4 -39 48q-4 22 -19 22q-78 0 -93 -54
q-14 -50 27 -88q8 -8 29 -26.5t28 -25.5q62 -61 43 -131q-14 -52 -61.5 -82.5t-103.5 -30.5q-53 0 -84 22.5t-27 48.5q6 31 35 29q27 0 38 -56q1 -12 13 -24q5 -4 23 -4q36 0 64 20t38 53q16 59 -27 99q-8 8 -27 25t-26 24q-47 44 -36 105q7 40 38 70t75 40q8 3 1 6
q-32 20 -37 56q-7 71 55.5 112t167.5 37q43 -2 142 -18q25 5 45 12q7 1 8.5 -0.5t-0.5 -7.5l-31 -109t-31 -113q-3 -8 4 -8q6 0 52.5 0.5t51.5 0.5q9 0 4 -7z" />
    <glyph glyph-name="c_t" horiz-adv-x="622" 
d="M617 405l-3 -5q-4 -5 -7 -7q-5 -5 -13 -5q-4 0 -45.5 1t-44.5 1q-6 0 -9 -7l-62 -218l-17 -68q-9 -37 -5 -51q4 -16 31 -9q15 2 71 40q1 1 3 2.5t3.5 3t2.5 1.5q4 4 6 1q6 -2 6 -8q1 -2 -2 -5q-8 -10 -48 -37q-56 -36 -105 -39q-23 -2 -29 6q-12 19 -6 59q3 17 12 51.5
t9 36.5q8 32 31 112.5t30 107.5q1 3 -3 7q0 1 -16 13q-10 9 6 18q14 7 20 11q9 9 10 13t13 48l23.5 85.5t14.5 51.5q-57 13 -112 14q-79 1 -134.5 -32.5t-56.5 -93.5q-1 -41 31 -60q7 -5 13 -1q32 8 58 8t39 -12.5t12 -32.5q-1 -13 -12.5 -22t-28.5 -9q-28 0 -51 31
q-6 8 -16 8q-43 2 -82 -36q-33 -33 -56 -90.5t-25 -120.5q-2 -59 18.5 -90.5t60.5 -31.5q68 0 130 55q1 1 5 -1q3 -2 5 -7q0 -3 -1 -5q-33 -34 -88.5 -63.5t-97.5 -29.5q-51 0 -80.5 40.5t-24.5 111.5q5 65 45.5 130.5t98.5 115.5q29 26 56 37q7 2 1 6q-39 25 -43 67
q-6 73 56 115t167 38q30 -1 132 -18q25 5 45 12q7 1 8.5 -0.5t-0.5 -7.5l-62 -222q-3 -8 4 -8q6 0 52.5 0.5t51.5 0.5q8 0 5 -7z" />
    </font>
</defs>
</svg>
