<?xml version="1.0" encoding="UTF-8"?>
<svg width="90px" height="90px" viewBox="0 0 90 90" version="1.1" xmlns="http://www.w3.org/2000/svg" xmlns:xlink="http://www.w3.org/1999/xlink">
    <!-- Generator: Sketch 43.2 (39069) - http://www.bohemiancoding.com/sketch -->
    <title>camera</title>
    <desc>Created with Sketch.</desc>
    <defs></defs>
    <g id="Page-1" stroke="none" stroke-width="1" fill="none" fill-rule="evenodd">
        <g id="camera" fill-rule="nonzero" fill="#EF402E">
            <path d="M45,0 C20.188,0 0,20.188 0,45 C0,69.812 20.188,90 45,90 C69.812,90 90,69.812 90,45 C90,20.188 69.812,0 45,0 Z M74.18,54.449 C74.18,65.328 65.3284,74.179 54.45,74.179 L35.552,74.179 C24.673,74.179 15.822,65.3274 15.822,54.449 L15.822,35.551 C15.822,24.672 24.6736,15.821 35.552,15.821 L54.45,15.821 C65.329,15.821 74.18,24.6726 74.18,35.551 L74.18,54.449 Z" id="Shape"></path>
            <polygon id="Shape" points="58.32 25.559 64.3786 25.559 64.3786 31.6176 58.32 31.6176"></polygon>
            <path d="M45,55.781 C50.9453,55.781 55.781,50.9451 55.781,45 C55.781,42.7891 55.11303,40.6602 53.8513,38.8438 C51.8318,35.9493 48.5232,34.2227 45.0036,34.2227 C41.4841,34.2227 38.1755,35.9532 36.152,38.8477 C34.8903,40.6602 34.2223,42.7891 34.2223,45.0039 C34.218394,50.9453 39.0543,55.7809 44.9993,55.7809 L45,55.781 Z" id="Shape"></path>
            <path d="M59.781,45 C59.781,53.1484 53.1521,59.781 45,59.781 C36.8516,59.781 30.219,53.1482 30.219,45 C30.219,43.168 30.55884,41.3789 31.20338,39.6992 L19.82038,39.6992 L19.82038,54.4492 C19.82038,63.1211 26.87898,70.1792 35.55038,70.1792 L54.44838,70.1792 C63.12028,70.1792 70.17838,63.1206 70.17838,54.4492 L70.17838,39.6992 L58.79138,39.6992 C59.43982,41.3789 59.77966,43.168 59.77966,45 L59.781,45 Z" id="Shape"></path>
        </g>
    </g>
</svg>