<?xml version="1.0" encoding="UTF-8"?>
<svg width="25px" height="25px" viewBox="0 0 25 25" version="1.1" xmlns="http://www.w3.org/2000/svg" xmlns:xlink="http://www.w3.org/1999/xlink">
    <!-- Generator: Sketch 46 (44423) - http://www.bohemiancoding.com/sketch -->
    <title>Shape</title>
    <desc>Created with Sketch.</desc>
    <defs></defs>
    <g id="Page-1" stroke="none" stroke-width="1" fill="none" fill-rule="evenodd">
        <g id="Artboard-Copy" transform="translate(-247.000000, -785.000000)" fill-rule="nonzero" fill="#EF402E">
            <g id="linkedin-button" transform="translate(247.000000, 785.000000)">
                <path d="M12.5,0 C5.59687454,0 0,5.59687454 0,12.5 C0,19.4031255 5.59687454,25 12.5,25 C19.4031255,25 25,19.4031255 25,12.5 C25,5.59533257 19.4031255,0 12.5,0 Z M9.375,18.5546843 L6.25,18.5546843 L6.25,7.61715859 L9.375,7.61715859 L9.375,18.5546843 Z M7.90936117,6.9468659 C7.09998314,6.9468659 6.44531571,6.29060511 6.44531571,5.48122708 C6.44531571,4.67184904 7.10157651,4.01558825 7.90936117,4.01558825 C8.71873921,4.01713022 9.375,4.67339101 9.375,5.48122708 C9.375,6.29060511 8.71873921,6.9468659 7.90936117,6.9468659 Z M20.3124743,18.5546843 L17.1874743,18.5546843 L17.1874743,11.7921861 C17.1874743,10.9999753 16.9609081,10.4453301 15.9874648,10.4453301 C14.3733861,10.4453301 14.0624743,11.7921861 14.0624743,11.7921861 L14.0624743,18.5546843 L10.9374743,18.5546843 L10.9374743,7.61715859 L14.0624743,7.61715859 L14.0624743,8.66245744 C14.5093361,8.32029515 15.6249486,7.61870055 17.1874743,7.61870055 C18.1999807,7.61870055 20.3124743,8.22495025 20.3124743,11.8874282 L20.3124743,18.5546843 Z" id="Shape"></path>
            </g>
        </g>
    </g>
</svg>