<?xml version="1.0" encoding="UTF-8"?>
<svg width="90px" height="91px" viewBox="0 0 90 91" version="1.1" xmlns="http://www.w3.org/2000/svg" xmlns:xlink="http://www.w3.org/1999/xlink">
    <!-- Generator: Sketch 43.2 (39069) - http://www.bohemiancoding.com/sketch -->
    <title>share</title>
    <desc>Created with Sketch.</desc>
    <defs></defs>
    <g id="Page-1" stroke="none" stroke-width="1" fill="none" fill-rule="evenodd">
        <g id="share" fill-rule="nonzero" fill="#EF402E">
            <path d="M44.8310959,0.742191781 C20.1057534,0.742191781 0.0665753425,20.7863014 0.0665753425,45.5067123 C0.0665753425,70.2320548 20.1106849,90.2749315 44.8310959,90.2749315 C69.5564384,90.2749315 89.5993151,70.2308219 89.5993151,45.5067123 C89.5993151,20.7813699 69.5552055,0.742191781 44.8310959,0.742191781 L44.8310959,0.742191781 Z M37.2989589,44.9568493 C37.2989589,45.8189014 37.1641068,46.6520548 36.9136849,47.4370274 L46.3914247,54.1696438 C47.8698904,51.9736438 50.3790411,50.5288356 53.2204521,50.5288356 C57.7618767,50.5288356 61.4556986,54.2226575 61.4556986,58.7640822 C61.4556986,63.3055068 57.7618767,66.9993288 53.2204521,66.9993288 C48.6790274,66.9993288 44.9852055,63.3055068 44.9852055,58.7640822 C44.9852055,58.1380151 45.0622603,57.5263973 45.1971123,56.9436164 L35.5122493,50.0665068 C34.0000027,51.9688356 31.6739342,53.1969041 29.0636877,53.1969041 C24.522263,53.1969041 20.8284411,49.5030822 20.8284411,44.9616575 C20.8284411,40.4202329 24.522263,36.726411 29.0636877,36.726411 C31.5005918,36.726411 33.6917836,37.8003575 35.1992219,39.4907671 L45.3174411,32.3054384 C45.1055466,31.5734178 44.9851438,30.8077397 44.9851438,30.0082192 C44.9851438,25.4667945 48.6789658,21.7729726 53.2203904,21.7729726 C57.7618151,21.7729726 61.455637,25.4667945 61.455637,30.0082192 C61.455637,34.5496438 57.7618151,38.2434658 53.2203904,38.2434658 C50.5427055,38.2434658 48.1684315,36.9527671 46.6659247,34.9686986 L36.745089,42.0143425 C37.0966562,42.9245507 37.2989219,43.9166712 37.2989219,44.9568493 L37.2989589,44.9568493 Z" id="Shape"></path>
        </g>
    </g>
</svg>